<?xml version="1.0" encoding="utf-8" standalone="no"?>
<!DOCTYPE svg PUBLIC "-//W3C//DTD SVG 1.1//EN"
  "http://www.w3.org/Graphics/SVG/1.1/DTD/svg11.dtd">
<svg xmlns:xlink="http://www.w3.org/1999/xlink" width="720pt" height="432pt" viewBox="0 0 720 432" xmlns="http://www.w3.org/2000/svg" version="1.1">
 <metadata>
  <rdf:RDF xmlns:dc="http://purl.org/dc/elements/1.1/" xmlns:cc="http://creativecommons.org/ns#" xmlns:rdf="http://www.w3.org/1999/02/22-rdf-syntax-ns#">
   <cc:Work>
    <dc:type rdf:resource="http://purl.org/dc/dcmitype/StillImage"/>
    <dc:date>2025-09-01T19:41:41.848933</dc:date>
    <dc:format>image/svg+xml</dc:format>
    <dc:creator>
     <cc:Agent>
      <dc:title>Matplotlib v3.10.3, https://matplotlib.org/</dc:title>
     </cc:Agent>
    </dc:creator>
   </cc:Work>
  </rdf:RDF>
 </metadata>
 <defs>
  <style type="text/css">*{stroke-linejoin: round; stroke-linecap: butt}</style>
 </defs>
 <g id="figure_1">
  <g id="patch_1">
   <path d="M 0 432 
L 720 432 
L 720 0 
L 0 0 
z
" style="fill: #ffffff"/>
  </g>
  <g id="axes_1">
   <g id="patch_2">
    <path d="M 69.77 326.30735 
L 709.2 326.30735 
L 709.2 28.32 
L 69.77 28.32 
z
" style="fill: #ffffff"/>
   </g>
   <g id="patch_3">
    <path d="M 98.835 326.30735 
L 108.173153 326.30735 
L 108.173153 42.509874 
L 98.835 42.509874 
z
" clip-path="url(#p608d719ec3)" style="fill: #1f77b4"/>
   </g>
   <g id="patch_4">
    <path d="M 110.507691 326.30735 
L 119.845843 326.30735 
L 119.845843 45.598637 
L 110.507691 45.598637 
z
" clip-path="url(#p608d719ec3)" style="fill: #1f77b4"/>
   </g>
   <g id="patch_5">
    <path d="M 122.180382 326.30735 
L 131.518534 326.30735 
L 131.518534 104.365366 
L 122.180382 104.365366 
z
" clip-path="url(#p608d719ec3)" style="fill: #1f77b4"/>
   </g>
   <g id="patch_6">
    <path d="M 133.853072 326.30735 
L 143.191225 326.30735 
L 143.191225 233.762272 
L 133.853072 233.762272 
z
" clip-path="url(#p608d719ec3)" style="fill: #1f77b4"/>
   </g>
   <g id="patch_7">
    <path d="M 145.525763 326.30735 
L 154.863916 326.30735 
L 154.863916 237.931035 
L 145.525763 237.931035 
z
" clip-path="url(#p608d719ec3)" style="fill: #1f77b4"/>
   </g>
   <g id="patch_8">
    <path d="M 157.198454 326.30735 
L 166.536606 326.30735 
L 166.536606 240.39988 
L 157.198454 240.39988 
z
" clip-path="url(#p608d719ec3)" style="fill: #1f77b4"/>
   </g>
   <g id="patch_9">
    <path d="M 168.871145 326.30735 
L 178.209297 326.30735 
L 178.209297 240.942428 
L 168.871145 240.942428 
z
" clip-path="url(#p608d719ec3)" style="fill: #1f77b4"/>
   </g>
   <g id="patch_10">
    <path d="M 180.543835 326.30735 
L 189.881988 326.30735 
L 189.881988 260.497693 
L 180.543835 260.497693 
z
" clip-path="url(#p608d719ec3)" style="fill: #1f77b4"/>
   </g>
   <g id="patch_11">
    <path d="M 192.216526 326.30735 
L 201.554679 326.30735 
L 201.554679 265.121127 
L 192.216526 265.121127 
z
" clip-path="url(#p608d719ec3)" style="fill: #1f77b4"/>
   </g>
   <g id="patch_12">
    <path d="M 203.889217 326.30735 
L 213.227369 326.30735 
L 213.227369 277.640152 
L 203.889217 277.640152 
z
" clip-path="url(#p608d719ec3)" style="fill: #1f77b4"/>
   </g>
   <g id="patch_13">
    <path d="M 215.561908 326.30735 
L 224.90006 326.30735 
L 224.90006 281.685377 
L 215.561908 281.685377 
z
" clip-path="url(#p608d719ec3)" style="fill: #1f77b4"/>
   </g>
   <g id="patch_14">
    <path d="M 227.234598 326.30735 
L 236.572751 326.30735 
L 236.572751 283.030283 
L 227.234598 283.030283 
z
" clip-path="url(#p608d719ec3)" style="fill: #1f77b4"/>
   </g>
   <g id="patch_15">
    <path d="M 238.907289 326.30735 
L 248.245442 326.30735 
L 248.245442 287.369707 
L 238.907289 287.369707 
z
" clip-path="url(#p608d719ec3)" style="fill: #1f77b4"/>
   </g>
   <g id="patch_16">
    <path d="M 250.57998 326.30735 
L 259.918133 326.30735 
L 259.918133 291.185369 
L 250.57998 291.185369 
z
" clip-path="url(#p608d719ec3)" style="fill: #1f77b4"/>
   </g>
   <g id="patch_17">
    <path d="M 262.252671 326.30735 
L 271.590823 326.30735 
L 271.590823 293.623329 
L 262.252671 293.623329 
z
" clip-path="url(#p608d719ec3)" style="fill: #1f77b4"/>
   </g>
   <g id="patch_18">
    <path d="M 273.925361 326.30735 
L 283.263514 326.30735 
L 283.263514 293.792079 
L 273.925361 293.792079 
z
" clip-path="url(#p608d719ec3)" style="fill: #1f77b4"/>
   </g>
   <g id="patch_19">
    <path d="M 285.598052 326.30735 
L 294.936205 326.30735 
L 294.936205 294.198672 
L 285.598052 294.198672 
z
" clip-path="url(#p608d719ec3)" style="fill: #1f77b4"/>
   </g>
   <g id="patch_20">
    <path d="M 297.270743 326.30735 
L 306.608896 326.30735 
L 306.608896 299.413367 
L 297.270743 299.413367 
z
" clip-path="url(#p608d719ec3)" style="fill: #1f77b4"/>
   </g>
   <g id="patch_21">
    <path d="M 308.943434 326.30735 
L 318.281586 326.30735 
L 318.281586 300.084546 
L 308.943434 300.084546 
z
" clip-path="url(#p608d719ec3)" style="fill: #1f77b4"/>
   </g>
   <g id="patch_22">
    <path d="M 320.616124 326.30735 
L 329.954277 326.30735 
L 329.954277 300.752542 
L 320.616124 300.752542 
z
" clip-path="url(#p608d719ec3)" style="fill: #1f77b4"/>
   </g>
   <g id="patch_23">
    <path d="M 332.288815 326.30735 
L 341.626968 326.30735 
L 341.626968 303.572578 
L 332.288815 303.572578 
z
" clip-path="url(#p608d719ec3)" style="fill: #1f77b4"/>
   </g>
   <g id="patch_24">
    <path d="M 343.961506 326.30735 
L 353.299659 326.30735 
L 353.299659 306.223546 
L 343.961506 306.223546 
z
" clip-path="url(#p608d719ec3)" style="fill: #1f77b4"/>
   </g>
   <g id="patch_25">
    <path d="M 355.634197 326.30735 
L 364.972349 326.30735 
L 364.972349 306.645421 
L 355.634197 306.645421 
z
" clip-path="url(#p608d719ec3)" style="fill: #1f77b4"/>
   </g>
   <g id="patch_26">
    <path d="M 367.306888 326.30735 
L 376.64504 326.30735 
L 376.64504 308.167355 
L 367.306888 308.167355 
z
" clip-path="url(#p608d719ec3)" style="fill: #1f77b4"/>
   </g>
   <g id="patch_27">
    <path d="M 378.979578 326.30735 
L 388.317731 326.30735 
L 388.317731 308.58541 
L 378.979578 308.58541 
z
" clip-path="url(#p608d719ec3)" style="fill: #1f77b4"/>
   </g>
   <g id="patch_28">
    <path d="M 390.652269 326.30735 
L 399.990422 326.30735 
L 399.990422 309.417061 
L 390.652269 309.417061 
z
" clip-path="url(#p608d719ec3)" style="fill: #1f77b4"/>
   </g>
   <g id="patch_29">
    <path d="M 402.32496 326.30735 
L 411.663112 326.30735 
L 411.663112 309.998134 
L 402.32496 309.998134 
z
" clip-path="url(#p608d719ec3)" style="fill: #1f77b4"/>
   </g>
   <g id="patch_30">
    <path d="M 413.997651 326.30735 
L 423.335803 326.30735 
L 423.335803 310.170387 
L 413.997651 310.170387 
z
" clip-path="url(#p608d719ec3)" style="fill: #1f77b4"/>
   </g>
   <g id="patch_31">
    <path d="M 425.670341 326.30735 
L 435.008494 326.30735 
L 435.008494 310.499927 
L 425.670341 310.499927 
z
" clip-path="url(#p608d719ec3)" style="fill: #1f77b4"/>
   </g>
   <g id="patch_32">
    <path d="M 437.343032 326.30735 
L 446.681185 326.30735 
L 446.681185 310.899514 
L 437.343032 310.899514 
z
" clip-path="url(#p608d719ec3)" style="fill: #1f77b4"/>
   </g>
   <g id="patch_33">
    <path d="M 449.015723 326.30735 
L 458.353876 326.30735 
L 458.353876 311.144361 
L 449.015723 311.144361 
z
" clip-path="url(#p608d719ec3)" style="fill: #1f77b4"/>
   </g>
   <g id="patch_34">
    <path d="M 460.688414 326.30735 
L 470.026566 326.30735 
L 470.026566 312.548807 
L 460.688414 312.548807 
z
" clip-path="url(#p608d719ec3)" style="fill: #1f77b4"/>
   </g>
   <g id="patch_35">
    <path d="M 472.361104 326.30735 
L 481.699257 326.30735 
L 481.699257 313.268065 
L 472.361104 313.268065 
z
" clip-path="url(#p608d719ec3)" style="fill: #1f77b4"/>
   </g>
   <g id="patch_36">
    <path d="M 484.033795 326.30735 
L 493.371948 326.30735 
L 493.371948 313.363902 
L 484.033795 313.363902 
z
" clip-path="url(#p608d719ec3)" style="fill: #1f77b4"/>
   </g>
   <g id="patch_37">
    <path d="M 495.706486 326.30735 
L 505.044639 326.30735 
L 505.044639 314.572534 
L 495.706486 314.572534 
z
" clip-path="url(#p608d719ec3)" style="fill: #1f77b4"/>
   </g>
   <g id="patch_38">
    <path d="M 507.379177 326.30735 
L 516.717329 326.30735 
L 516.717329 315.269822 
L 507.379177 315.269822 
z
" clip-path="url(#p608d719ec3)" style="fill: #1f77b4"/>
   </g>
   <g id="patch_39">
    <path d="M 519.051867 326.30735 
L 528.39002 326.30735 
L 528.39002 315.348466 
L 519.051867 315.348466 
z
" clip-path="url(#p608d719ec3)" style="fill: #1f77b4"/>
   </g>
   <g id="patch_40">
    <path d="M 530.724558 326.30735 
L 540.062711 326.30735 
L 540.062711 315.437617 
L 530.724558 315.437617 
z
" clip-path="url(#p608d719ec3)" style="fill: #1f77b4"/>
   </g>
   <g id="patch_41">
    <path d="M 542.397249 326.30735 
L 551.735402 326.30735 
L 551.735402 315.594268 
L 542.397249 315.594268 
z
" clip-path="url(#p608d719ec3)" style="fill: #1f77b4"/>
   </g>
   <g id="patch_42">
    <path d="M 554.06994 326.30735 
L 563.408092 326.30735 
L 563.408092 315.833384 
L 554.06994 315.833384 
z
" clip-path="url(#p608d719ec3)" style="fill: #1f77b4"/>
   </g>
   <g id="patch_43">
    <path d="M 565.742631 326.30735 
L 575.080783 326.30735 
L 575.080783 315.849941 
L 565.742631 315.849941 
z
" clip-path="url(#p608d719ec3)" style="fill: #1f77b4"/>
   </g>
   <g id="patch_44">
    <path d="M 577.415321 326.30735 
L 586.753474 326.30735 
L 586.753474 315.969339 
L 577.415321 315.969339 
z
" clip-path="url(#p608d719ec3)" style="fill: #1f77b4"/>
   </g>
   <g id="patch_45">
    <path d="M 589.088012 326.30735 
L 598.426165 326.30735 
L 598.426165 315.978573 
L 589.088012 315.978573 
z
" clip-path="url(#p608d719ec3)" style="fill: #1f77b4"/>
   </g>
   <g id="patch_46">
    <path d="M 600.760703 326.30735 
L 610.098855 326.30735 
L 610.098855 316.171839 
L 600.760703 316.171839 
z
" clip-path="url(#p608d719ec3)" style="fill: #1f77b4"/>
   </g>
   <g id="patch_47">
    <path d="M 612.433394 326.30735 
L 621.771546 326.30735 
L 621.771546 316.226603 
L 612.433394 316.226603 
z
" clip-path="url(#p608d719ec3)" style="fill: #1f77b4"/>
   </g>
   <g id="patch_48">
    <path d="M 624.106084 326.30735 
L 633.444237 326.30735 
L 633.444237 316.794622 
L 624.106084 316.794622 
z
" clip-path="url(#p608d719ec3)" style="fill: #1f77b4"/>
   </g>
   <g id="patch_49">
    <path d="M 635.778775 326.30735 
L 645.116928 326.30735 
L 645.116928 316.851934 
L 635.778775 316.851934 
z
" clip-path="url(#p608d719ec3)" style="fill: #1f77b4"/>
   </g>
   <g id="patch_50">
    <path d="M 647.451466 326.30735 
L 656.789618 326.30735 
L 656.789618 316.972924 
L 647.451466 316.972924 
z
" clip-path="url(#p608d719ec3)" style="fill: #1f77b4"/>
   </g>
   <g id="patch_51">
    <path d="M 659.124157 326.30735 
L 668.462309 326.30735 
L 668.462309 317.063986 
L 659.124157 317.063986 
z
" clip-path="url(#p608d719ec3)" style="fill: #1f77b4"/>
   </g>
   <g id="patch_52">
    <path d="M 670.796847 326.30735 
L 680.135 326.30735 
L 680.135 317.493502 
L 670.796847 317.493502 
z
" clip-path="url(#p608d719ec3)" style="fill: #1f77b4"/>
   </g>
   <g id="matplotlib.axis_1">
    <g id="xtick_1">
     <g id="line2d_1">
      <defs>
       <path id="mde7dbe518f" d="M 0 0 
L 0 3.5 
" style="stroke: #000000; stroke-width: 0.8"/>
      </defs>
      <g>
       <use xlink:href="#mde7dbe518f" x="103.504076" y="326.30735" style="stroke: #000000; stroke-width: 0.8"/>
      </g>
     </g>
     <g id="text_1">
      <!-- der -->
      <g transform="translate(94.55707 349.401676) rotate(-60) scale(0.1 -0.1)">
       <defs>
        <path id="ArialMT-64" d="M 2575 0 
L 2575 419 
Q 2259 -75 1647 -75 
Q 1250 -75 917 144 
Q 584 363 401 755 
Q 219 1147 219 1656 
Q 219 2153 384 2558 
Q 550 2963 881 3178 
Q 1213 3394 1622 3394 
Q 1922 3394 2156 3267 
Q 2391 3141 2538 2938 
L 2538 4581 
L 3097 4581 
L 3097 0 
L 2575 0 
z
M 797 1656 
Q 797 1019 1065 703 
Q 1334 388 1700 388 
Q 2069 388 2326 689 
Q 2584 991 2584 1609 
Q 2584 2291 2321 2609 
Q 2059 2928 1675 2928 
Q 1300 2928 1048 2622 
Q 797 2316 797 1656 
z
" transform="scale(0.015625)"/>
        <path id="ArialMT-65" d="M 2694 1069 
L 3275 997 
Q 3138 488 2766 206 
Q 2394 -75 1816 -75 
Q 1088 -75 661 373 
Q 234 822 234 1631 
Q 234 2469 665 2931 
Q 1097 3394 1784 3394 
Q 2450 3394 2872 2941 
Q 3294 2488 3294 1666 
Q 3294 1616 3291 1516 
L 816 1516 
Q 847 969 1125 678 
Q 1403 388 1819 388 
Q 2128 388 2347 550 
Q 2566 713 2694 1069 
z
M 847 1978 
L 2700 1978 
Q 2663 2397 2488 2606 
Q 2219 2931 1791 2931 
Q 1403 2931 1139 2672 
Q 875 2413 847 1978 
z
" transform="scale(0.015625)"/>
        <path id="ArialMT-72" d="M 416 0 
L 416 3319 
L 922 3319 
L 922 2816 
Q 1116 3169 1280 3281 
Q 1444 3394 1641 3394 
Q 1925 3394 2219 3213 
L 2025 2691 
Q 1819 2813 1613 2813 
Q 1428 2813 1281 2702 
Q 1134 2591 1072 2394 
Q 978 2094 978 1738 
L 978 0 
L 416 0 
z
" transform="scale(0.015625)"/>
       </defs>
       <use xlink:href="#ArialMT-64"/>
       <use xlink:href="#ArialMT-65" transform="translate(55.615234 0)"/>
       <use xlink:href="#ArialMT-72" transform="translate(111.230469 0)"/>
      </g>
     </g>
    </g>
    <g id="xtick_2">
     <g id="line2d_2">
      <g>
       <use xlink:href="#mde7dbe518f" x="115.176767" y="326.30735" style="stroke: #000000; stroke-width: 0.8"/>
      </g>
     </g>
     <g id="text_2">
      <!-- und -->
      <g transform="translate(105.114135 351.333995) rotate(-60) scale(0.1 -0.1)">
       <defs>
        <path id="ArialMT-75" d="M 2597 0 
L 2597 488 
Q 2209 -75 1544 -75 
Q 1250 -75 995 37 
Q 741 150 617 320 
Q 494 491 444 738 
Q 409 903 409 1263 
L 409 3319 
L 972 3319 
L 972 1478 
Q 972 1038 1006 884 
Q 1059 663 1231 536 
Q 1403 409 1656 409 
Q 1909 409 2131 539 
Q 2353 669 2445 892 
Q 2538 1116 2538 1541 
L 2538 3319 
L 3100 3319 
L 3100 0 
L 2597 0 
z
" transform="scale(0.015625)"/>
        <path id="ArialMT-6e" d="M 422 0 
L 422 3319 
L 928 3319 
L 928 2847 
Q 1294 3394 1984 3394 
Q 2284 3394 2536 3286 
Q 2788 3178 2913 3003 
Q 3038 2828 3088 2588 
Q 3119 2431 3119 2041 
L 3119 0 
L 2556 0 
L 2556 2019 
Q 2556 2363 2490 2533 
Q 2425 2703 2258 2804 
Q 2091 2906 1866 2906 
Q 1506 2906 1245 2678 
Q 984 2450 984 1813 
L 984 0 
L 422 0 
z
" transform="scale(0.015625)"/>
       </defs>
       <use xlink:href="#ArialMT-75"/>
       <use xlink:href="#ArialMT-6e" transform="translate(55.615234 0)"/>
       <use xlink:href="#ArialMT-64" transform="translate(111.230469 0)"/>
      </g>
     </g>
    </g>
    <g id="xtick_3">
     <g id="line2d_3">
      <g>
       <use xlink:href="#mde7dbe518f" x="126.849458" y="326.30735" style="stroke: #000000; stroke-width: 0.8"/>
      </g>
     </g>
     <g id="text_3">
      <!-- die -->
      <g transform="translate(118.456357 348.442282) rotate(-60) scale(0.1 -0.1)">
       <defs>
        <path id="ArialMT-69" d="M 425 3934 
L 425 4581 
L 988 4581 
L 988 3934 
L 425 3934 
z
M 425 0 
L 425 3319 
L 988 3319 
L 988 0 
L 425 0 
z
" transform="scale(0.015625)"/>
       </defs>
       <use xlink:href="#ArialMT-64"/>
       <use xlink:href="#ArialMT-69" transform="translate(55.615234 0)"/>
       <use xlink:href="#ArialMT-65" transform="translate(77.832031 0)"/>
      </g>
     </g>
    </g>
    <g id="xtick_4">
     <g id="line2d_4">
      <g>
       <use xlink:href="#mde7dbe518f" x="138.522149" y="326.30735" style="stroke: #000000; stroke-width: 0.8"/>
      </g>
     </g>
     <g id="text_4">
      <!-- zu -->
      <g transform="translate(131.520454 346.032296) rotate(-60) scale(0.1 -0.1)">
       <defs>
        <path id="ArialMT-7a" d="M 125 0 
L 125 456 
L 2238 2881 
Q 1878 2863 1603 2863 
L 250 2863 
L 250 3319 
L 2963 3319 
L 2963 2947 
L 1166 841 
L 819 456 
Q 1197 484 1528 484 
L 3063 484 
L 3063 0 
L 125 0 
z
" transform="scale(0.015625)"/>
       </defs>
       <use xlink:href="#ArialMT-7a"/>
       <use xlink:href="#ArialMT-75" transform="translate(50 0)"/>
      </g>
     </g>
    </g>
    <g id="xtick_5">
     <g id="line2d_5">
      <g>
       <use xlink:href="#mde7dbe518f" x="150.194839" y="326.30735" style="stroke: #000000; stroke-width: 0.8"/>
      </g>
     </g>
     <g id="text_5">
      <!-- des -->
      <g transform="translate(140.412676 350.848209) rotate(-60) scale(0.1 -0.1)">
       <defs>
        <path id="ArialMT-73" d="M 197 991 
L 753 1078 
Q 800 744 1014 566 
Q 1228 388 1613 388 
Q 2000 388 2187 545 
Q 2375 703 2375 916 
Q 2375 1106 2209 1216 
Q 2094 1291 1634 1406 
Q 1016 1563 777 1677 
Q 538 1791 414 1992 
Q 291 2194 291 2438 
Q 291 2659 392 2848 
Q 494 3038 669 3163 
Q 800 3259 1026 3326 
Q 1253 3394 1513 3394 
Q 1903 3394 2198 3281 
Q 2494 3169 2634 2976 
Q 2775 2784 2828 2463 
L 2278 2388 
Q 2241 2644 2061 2787 
Q 1881 2931 1553 2931 
Q 1166 2931 1000 2803 
Q 834 2675 834 2503 
Q 834 2394 903 2306 
Q 972 2216 1119 2156 
Q 1203 2125 1616 2013 
Q 2213 1853 2448 1751 
Q 2684 1650 2818 1456 
Q 2953 1263 2953 975 
Q 2953 694 2789 445 
Q 2625 197 2315 61 
Q 2006 -75 1616 -75 
Q 969 -75 630 194 
Q 291 463 197 991 
z
" transform="scale(0.015625)"/>
       </defs>
       <use xlink:href="#ArialMT-64"/>
       <use xlink:href="#ArialMT-65" transform="translate(55.615234 0)"/>
       <use xlink:href="#ArialMT-73" transform="translate(111.230469 0)"/>
      </g>
     </g>
    </g>
    <g id="xtick_6">
     <g id="line2d_6">
      <g>
       <use xlink:href="#mde7dbe518f" x="161.86753" y="326.30735" style="stroke: #000000; stroke-width: 0.8"/>
      </g>
     </g>
     <g id="text_6">
      <!-- in -->
      <g transform="translate(156.254898 343.626369) rotate(-60) scale(0.1 -0.1)">
       <use xlink:href="#ArialMT-69"/>
       <use xlink:href="#ArialMT-6e" transform="translate(22.216797 0)"/>
      </g>
     </g>
    </g>
    <g id="xtick_7">
     <g id="line2d_7">
      <g>
       <use xlink:href="#mde7dbe518f" x="173.540221" y="326.30735" style="stroke: #000000; stroke-width: 0.8"/>
      </g>
     </g>
     <g id="text_7">
      <!-- den -->
      <g transform="translate(163.477589 351.333995) rotate(-60) scale(0.1 -0.1)">
       <use xlink:href="#ArialMT-64"/>
       <use xlink:href="#ArialMT-65" transform="translate(55.615234 0)"/>
       <use xlink:href="#ArialMT-6e" transform="translate(111.230469 0)"/>
      </g>
     </g>
    </g>
    <g id="xtick_8">
     <g id="line2d_8">
      <g>
       <use xlink:href="#mde7dbe518f" x="185.212912" y="326.30735" style="stroke: #000000; stroke-width: 0.8"/>
      </g>
     </g>
     <g id="text_8">
      <!-- von -->
      <g transform="translate(175.430749 350.848209) rotate(-60) scale(0.1 -0.1)">
       <defs>
        <path id="ArialMT-76" d="M 1344 0 
L 81 3319 
L 675 3319 
L 1388 1331 
Q 1503 1009 1600 663 
Q 1675 925 1809 1294 
L 2547 3319 
L 3125 3319 
L 1869 0 
L 1344 0 
z
" transform="scale(0.015625)"/>
        <path id="ArialMT-6f" d="M 213 1659 
Q 213 2581 725 3025 
Q 1153 3394 1769 3394 
Q 2453 3394 2887 2945 
Q 3322 2497 3322 1706 
Q 3322 1066 3130 698 
Q 2938 331 2570 128 
Q 2203 -75 1769 -75 
Q 1072 -75 642 372 
Q 213 819 213 1659 
z
M 791 1659 
Q 791 1022 1069 705 
Q 1347 388 1769 388 
Q 2188 388 2466 706 
Q 2744 1025 2744 1678 
Q 2744 2294 2464 2611 
Q 2184 2928 1769 2928 
Q 1347 2928 1069 2612 
Q 791 2297 791 1659 
z
" transform="scale(0.015625)"/>
       </defs>
       <use xlink:href="#ArialMT-76"/>
       <use xlink:href="#ArialMT-6f" transform="translate(50 0)"/>
       <use xlink:href="#ArialMT-6e" transform="translate(105.615234 0)"/>
      </g>
     </g>
    </g>
    <g id="xtick_9">
     <g id="line2d_9">
      <g>
       <use xlink:href="#mde7dbe518f" x="196.885602" y="326.30735" style="stroke: #000000; stroke-width: 0.8"/>
      </g>
     </g>
     <g id="text_9">
      <!-- für -->
      <g transform="translate(189.330002 346.99169) rotate(-60) scale(0.1 -0.1)">
       <defs>
        <path id="ArialMT-66" d="M 556 0 
L 556 2881 
L 59 2881 
L 59 3319 
L 556 3319 
L 556 3672 
Q 556 4006 616 4169 
Q 697 4388 901 4523 
Q 1106 4659 1475 4659 
Q 1713 4659 2000 4603 
L 1916 4113 
Q 1741 4144 1584 4144 
Q 1328 4144 1222 4034 
Q 1116 3925 1116 3625 
L 1116 3319 
L 1763 3319 
L 1763 2881 
L 1116 2881 
L 1116 0 
L 556 0 
z
" transform="scale(0.015625)"/>
        <path id="ArialMT-fc" d="M 2597 0 
L 2597 488 
Q 2209 -75 1544 -75 
Q 1250 -75 995 37 
Q 741 150 617 320 
Q 494 491 444 738 
Q 409 903 409 1263 
L 409 3319 
L 972 3319 
L 972 1478 
Q 972 1038 1006 884 
Q 1059 663 1231 536 
Q 1403 409 1656 409 
Q 1909 409 2131 539 
Q 2353 669 2445 892 
Q 2538 1116 2538 1541 
L 2538 3319 
L 3100 3319 
L 3100 0 
L 2597 0 
z
M 879 3969 
L 879 4609 
L 1466 4609 
L 1466 3969 
L 879 3969 
z
M 2044 3969 
L 2044 4609 
L 2632 4609 
L 2632 3969 
L 2044 3969 
z
" transform="scale(0.015625)"/>
       </defs>
       <use xlink:href="#ArialMT-66"/>
       <use xlink:href="#ArialMT-fc" transform="translate(27.783203 0)"/>
       <use xlink:href="#ArialMT-72" transform="translate(83.398438 0)"/>
      </g>
     </g>
    </g>
    <g id="xtick_10">
     <g id="line2d_10">
      <g>
       <use xlink:href="#mde7dbe518f" x="208.558293" y="326.30735" style="stroke: #000000; stroke-width: 0.8"/>
      </g>
     </g>
     <g id="text_10">
      <!-- auf -->
      <g transform="translate(199.887068 348.924009) rotate(-60) scale(0.1 -0.1)">
       <defs>
        <path id="ArialMT-61" d="M 2588 409 
Q 2275 144 1986 34 
Q 1697 -75 1366 -75 
Q 819 -75 525 192 
Q 231 459 231 875 
Q 231 1119 342 1320 
Q 453 1522 633 1644 
Q 813 1766 1038 1828 
Q 1203 1872 1538 1913 
Q 2219 1994 2541 2106 
Q 2544 2222 2544 2253 
Q 2544 2597 2384 2738 
Q 2169 2928 1744 2928 
Q 1347 2928 1158 2789 
Q 969 2650 878 2297 
L 328 2372 
Q 403 2725 575 2942 
Q 747 3159 1072 3276 
Q 1397 3394 1825 3394 
Q 2250 3394 2515 3294 
Q 2781 3194 2906 3042 
Q 3031 2891 3081 2659 
Q 3109 2516 3109 2141 
L 3109 1391 
Q 3109 606 3145 398 
Q 3181 191 3288 0 
L 2700 0 
Q 2613 175 2588 409 
z
M 2541 1666 
Q 2234 1541 1622 1453 
Q 1275 1403 1131 1340 
Q 988 1278 909 1158 
Q 831 1038 831 891 
Q 831 666 1001 516 
Q 1172 366 1500 366 
Q 1825 366 2078 508 
Q 2331 650 2450 897 
Q 2541 1088 2541 1459 
L 2541 1666 
z
" transform="scale(0.015625)"/>
       </defs>
       <use xlink:href="#ArialMT-61"/>
       <use xlink:href="#ArialMT-75" transform="translate(55.615234 0)"/>
       <use xlink:href="#ArialMT-66" transform="translate(111.230469 0)"/>
      </g>
     </g>
    </g>
    <g id="xtick_11">
     <g id="line2d_11">
      <g>
       <use xlink:href="#mde7dbe518f" x="220.230984" y="326.30735" style="stroke: #000000; stroke-width: 0.8"/>
      </g>
     </g>
     <g id="text_11">
      <!-- mit -->
      <g transform="translate(211.844915 348.430104) rotate(-60) scale(0.1 -0.1)">
       <defs>
        <path id="ArialMT-6d" d="M 422 0 
L 422 3319 
L 925 3319 
L 925 2853 
Q 1081 3097 1340 3245 
Q 1600 3394 1931 3394 
Q 2300 3394 2536 3241 
Q 2772 3088 2869 2813 
Q 3263 3394 3894 3394 
Q 4388 3394 4653 3120 
Q 4919 2847 4919 2278 
L 4919 0 
L 4359 0 
L 4359 2091 
Q 4359 2428 4304 2576 
Q 4250 2725 4106 2815 
Q 3963 2906 3769 2906 
Q 3419 2906 3187 2673 
Q 2956 2441 2956 1928 
L 2956 0 
L 2394 0 
L 2394 2156 
Q 2394 2531 2256 2718 
Q 2119 2906 1806 2906 
Q 1569 2906 1367 2781 
Q 1166 2656 1075 2415 
Q 984 2175 984 1722 
L 984 0 
L 422 0 
z
" transform="scale(0.015625)"/>
        <path id="ArialMT-74" d="M 1650 503 
L 1731 6 
Q 1494 -44 1306 -44 
Q 1000 -44 831 53 
Q 663 150 594 308 
Q 525 466 525 972 
L 525 2881 
L 113 2881 
L 113 3319 
L 525 3319 
L 525 4141 
L 1084 4478 
L 1084 3319 
L 1650 3319 
L 1650 2881 
L 1084 2881 
L 1084 941 
Q 1084 700 1114 631 
Q 1144 563 1211 522 
Q 1278 481 1403 481 
Q 1497 481 1650 503 
z
" transform="scale(0.015625)"/>
       </defs>
       <use xlink:href="#ArialMT-6d"/>
       <use xlink:href="#ArialMT-69" transform="translate(83.300781 0)"/>
       <use xlink:href="#ArialMT-74" transform="translate(105.517578 0)"/>
      </g>
     </g>
    </g>
    <g id="xtick_12">
     <g id="line2d_12">
      <g>
       <use xlink:href="#mde7dbe518f" x="231.903675" y="326.30735" style="stroke: #000000; stroke-width: 0.8"/>
      </g>
     </g>
     <g id="text_12">
      <!-- dass -->
      <g transform="translate(219.621512 355.178336) rotate(-60) scale(0.1 -0.1)">
       <use xlink:href="#ArialMT-64"/>
       <use xlink:href="#ArialMT-61" transform="translate(55.615234 0)"/>
       <use xlink:href="#ArialMT-73" transform="translate(111.230469 0)"/>
       <use xlink:href="#ArialMT-73" transform="translate(161.230469 0)"/>
      </g>
     </g>
    </g>
    <g id="xtick_13">
     <g id="line2d_13">
      <g>
       <use xlink:href="#mde7dbe518f" x="243.576365" y="326.30735" style="stroke: #000000; stroke-width: 0.8"/>
      </g>
     </g>
     <g id="text_13">
      <!-- dem -->
      <g transform="translate(232.129359 353.731803) rotate(-60) scale(0.1 -0.1)">
       <use xlink:href="#ArialMT-64"/>
       <use xlink:href="#ArialMT-65" transform="translate(55.615234 0)"/>
       <use xlink:href="#ArialMT-6d" transform="translate(111.230469 0)"/>
      </g>
     </g>
    </g>
    <g id="xtick_14">
     <g id="line2d_14">
      <g>
       <use xlink:href="#mde7dbe518f" x="255.249056" y="326.30735" style="stroke: #000000; stroke-width: 0.8"/>
      </g>
     </g>
     <g id="text_14">
      <!-- zur -->
      <g transform="translate(246.582518 348.91589) rotate(-60) scale(0.1 -0.1)">
       <use xlink:href="#ArialMT-7a"/>
       <use xlink:href="#ArialMT-75" transform="translate(50 0)"/>
       <use xlink:href="#ArialMT-72" transform="translate(105.615234 0)"/>
      </g>
     </g>
    </g>
    <g id="xtick_15">
     <g id="line2d_15">
      <g>
       <use xlink:href="#mde7dbe518f" x="266.921747" y="326.30735" style="stroke: #000000; stroke-width: 0.8"/>
      </g>
     </g>
     <g id="text_15">
      <!-- im -->
      <g transform="translate(259.92474 346.024177) rotate(-60) scale(0.1 -0.1)">
       <use xlink:href="#ArialMT-69"/>
       <use xlink:href="#ArialMT-6d" transform="translate(22.216797 0)"/>
      </g>
     </g>
    </g>
    <g id="xtick_16">
     <g id="line2d_16">
      <g>
       <use xlink:href="#mde7dbe518f" x="278.594438" y="326.30735" style="stroke: #000000; stroke-width: 0.8"/>
      </g>
     </g>
     <g id="text_16">
      <!-- Vereinten -->
      <g transform="translate(255.745869 373.479889) rotate(-60) scale(0.1 -0.1)">
       <defs>
        <path id="ArialMT-56" d="M 1803 0 
L 28 4581 
L 684 4581 
L 1875 1253 
Q 2019 853 2116 503 
Q 2222 878 2363 1253 
L 3600 4581 
L 4219 4581 
L 2425 0 
L 1803 0 
z
" transform="scale(0.015625)"/>
       </defs>
       <use xlink:href="#ArialMT-56"/>
       <use xlink:href="#ArialMT-65" transform="translate(61.199219 0)"/>
       <use xlink:href="#ArialMT-72" transform="translate(116.814453 0)"/>
       <use xlink:href="#ArialMT-65" transform="translate(150.115234 0)"/>
       <use xlink:href="#ArialMT-69" transform="translate(205.730469 0)"/>
       <use xlink:href="#ArialMT-6e" transform="translate(227.947266 0)"/>
       <use xlink:href="#ArialMT-74" transform="translate(283.5625 0)"/>
       <use xlink:href="#ArialMT-65" transform="translate(311.345703 0)"/>
       <use xlink:href="#ArialMT-6e" transform="translate(366.960938 0)"/>
      </g>
     </g>
    </g>
    <g id="xtick_17">
     <g id="line2d_17">
      <g>
       <use xlink:href="#mde7dbe518f" x="290.267129" y="326.30735" style="stroke: #000000; stroke-width: 0.8"/>
      </g>
     </g>
     <g id="text_17">
      <!-- über -->
      <g transform="translate(278.539653 354.217589) rotate(-60) scale(0.1 -0.1)">
       <defs>
        <path id="ArialMT-62" d="M 941 0 
L 419 0 
L 419 4581 
L 981 4581 
L 981 2947 
Q 1338 3394 1891 3394 
Q 2197 3394 2470 3270 
Q 2744 3147 2920 2923 
Q 3097 2700 3197 2384 
Q 3297 2069 3297 1709 
Q 3297 856 2875 390 
Q 2453 -75 1863 -75 
Q 1275 -75 941 416 
L 941 0 
z
M 934 1684 
Q 934 1088 1097 822 
Q 1363 388 1816 388 
Q 2184 388 2453 708 
Q 2722 1028 2722 1663 
Q 2722 2313 2464 2622 
Q 2206 2931 1841 2931 
Q 1472 2931 1203 2611 
Q 934 2291 934 1684 
z
" transform="scale(0.015625)"/>
       </defs>
       <use xlink:href="#ArialMT-fc"/>
       <use xlink:href="#ArialMT-62" transform="translate(55.615234 0)"/>
       <use xlink:href="#ArialMT-65" transform="translate(111.230469 0)"/>
       <use xlink:href="#ArialMT-72" transform="translate(166.845703 0)"/>
      </g>
     </g>
    </g>
    <g id="xtick_18">
     <g id="line2d_18">
      <g>
       <use xlink:href="#mde7dbe518f" x="301.939819" y="326.30735" style="stroke: #000000; stroke-width: 0.8"/>
      </g>
     </g>
     <g id="text_18">
      <!-- Nationen -->
      <g transform="translate(280.205313 371.550276) rotate(-60) scale(0.1 -0.1)">
       <defs>
        <path id="ArialMT-4e" d="M 488 0 
L 488 4581 
L 1109 4581 
L 3516 984 
L 3516 4581 
L 4097 4581 
L 4097 0 
L 3475 0 
L 1069 3600 
L 1069 0 
L 488 0 
z
" transform="scale(0.015625)"/>
       </defs>
       <use xlink:href="#ArialMT-4e"/>
       <use xlink:href="#ArialMT-61" transform="translate(72.216797 0)"/>
       <use xlink:href="#ArialMT-74" transform="translate(127.832031 0)"/>
       <use xlink:href="#ArialMT-69" transform="translate(155.615234 0)"/>
       <use xlink:href="#ArialMT-6f" transform="translate(177.832031 0)"/>
       <use xlink:href="#ArialMT-6e" transform="translate(233.447266 0)"/>
       <use xlink:href="#ArialMT-65" transform="translate(289.0625 0)"/>
       <use xlink:href="#ArialMT-6e" transform="translate(344.677734 0)"/>
      </g>
     </g>
    </g>
    <g id="xtick_19">
     <g id="line2d_19">
      <g>
       <use xlink:href="#mde7dbe518f" x="313.61251" y="326.30735" style="stroke: #000000; stroke-width: 0.8"/>
      </g>
     </g>
     <g id="text_19">
      <!-- das -->
      <g transform="translate(303.830347 350.848209) rotate(-60) scale(0.1 -0.1)">
       <use xlink:href="#ArialMT-64"/>
       <use xlink:href="#ArialMT-61" transform="translate(55.615234 0)"/>
       <use xlink:href="#ArialMT-73" transform="translate(111.230469 0)"/>
      </g>
     </g>
    </g>
    <g id="xtick_20">
     <g id="line2d_20">
      <g>
       <use xlink:href="#mde7dbe518f" x="325.285201" y="326.30735" style="stroke: #000000; stroke-width: 0.8"/>
      </g>
     </g>
     <g id="text_20">
      <!-- vom -->
      <g transform="translate(314.118663 353.246017) rotate(-60) scale(0.1 -0.1)">
       <use xlink:href="#ArialMT-76"/>
       <use xlink:href="#ArialMT-6f" transform="translate(50 0)"/>
       <use xlink:href="#ArialMT-6d" transform="translate(105.615234 0)"/>
      </g>
     </g>
    </g>
    <g id="xtick_21">
     <g id="line2d_21">
      <g>
       <use xlink:href="#mde7dbe518f" x="336.957892" y="326.30735" style="stroke: #000000; stroke-width: 0.8"/>
      </g>
     </g>
     <g id="text_21">
      <!-- unter -->
      <g transform="translate(323.841354 356.623516) rotate(-60) scale(0.1 -0.1)">
       <use xlink:href="#ArialMT-75"/>
       <use xlink:href="#ArialMT-6e" transform="translate(55.615234 0)"/>
       <use xlink:href="#ArialMT-74" transform="translate(111.230469 0)"/>
       <use xlink:href="#ArialMT-65" transform="translate(139.013672 0)"/>
       <use xlink:href="#ArialMT-72" transform="translate(194.628906 0)"/>
      </g>
     </g>
    </g>
    <g id="xtick_22">
     <g id="line2d_22">
      <g>
       <use xlink:href="#mde7dbe518f" x="348.630582" y="326.30735" style="stroke: #000000; stroke-width: 0.8"/>
      </g>
     </g>
     <g id="text_22">
      <!-- sowie -->
      <g transform="translate(334.126544 359.026737) rotate(-60) scale(0.1 -0.1)">
       <defs>
        <path id="ArialMT-77" d="M 1034 0 
L 19 3319 
L 600 3319 
L 1128 1403 
L 1325 691 
Q 1338 744 1497 1375 
L 2025 3319 
L 2603 3319 
L 3100 1394 
L 3266 759 
L 3456 1400 
L 4025 3319 
L 4572 3319 
L 3534 0 
L 2950 0 
L 2422 1988 
L 2294 2553 
L 1622 0 
L 1034 0 
z
" transform="scale(0.015625)"/>
       </defs>
       <use xlink:href="#ArialMT-73"/>
       <use xlink:href="#ArialMT-6f" transform="translate(50 0)"/>
       <use xlink:href="#ArialMT-77" transform="translate(105.615234 0)"/>
       <use xlink:href="#ArialMT-69" transform="translate(177.832031 0)"/>
       <use xlink:href="#ArialMT-65" transform="translate(200.048828 0)"/>
      </g>
     </g>
    </g>
    <g id="xtick_23">
     <g id="line2d_23">
      <g>
       <use xlink:href="#mde7dbe518f" x="360.303273" y="326.30735" style="stroke: #000000; stroke-width: 0.8"/>
      </g>
     </g>
     <g id="text_23">
      <!-- Resolution -->
      <g transform="translate(334.957829 377.804603) rotate(-60) scale(0.1 -0.1)">
       <defs>
        <path id="ArialMT-52" d="M 503 0 
L 503 4581 
L 2534 4581 
Q 3147 4581 3465 4457 
Q 3784 4334 3975 4021 
Q 4166 3709 4166 3331 
Q 4166 2844 3850 2509 
Q 3534 2175 2875 2084 
Q 3116 1969 3241 1856 
Q 3506 1613 3744 1247 
L 4541 0 
L 3778 0 
L 3172 953 
Q 2906 1366 2734 1584 
Q 2563 1803 2427 1890 
Q 2291 1978 2150 2013 
Q 2047 2034 1813 2034 
L 1109 2034 
L 1109 0 
L 503 0 
z
M 1109 2559 
L 2413 2559 
Q 2828 2559 3062 2645 
Q 3297 2731 3419 2920 
Q 3541 3109 3541 3331 
Q 3541 3656 3305 3865 
Q 3069 4075 2559 4075 
L 1109 4075 
L 1109 2559 
z
" transform="scale(0.015625)"/>
        <path id="ArialMT-6c" d="M 409 0 
L 409 4581 
L 972 4581 
L 972 0 
L 409 0 
z
" transform="scale(0.015625)"/>
       </defs>
       <use xlink:href="#ArialMT-52"/>
       <use xlink:href="#ArialMT-65" transform="translate(72.216797 0)"/>
       <use xlink:href="#ArialMT-73" transform="translate(127.832031 0)"/>
       <use xlink:href="#ArialMT-6f" transform="translate(177.832031 0)"/>
       <use xlink:href="#ArialMT-6c" transform="translate(233.447266 0)"/>
       <use xlink:href="#ArialMT-75" transform="translate(255.664062 0)"/>
       <use xlink:href="#ArialMT-74" transform="translate(311.279297 0)"/>
       <use xlink:href="#ArialMT-69" transform="translate(339.0625 0)"/>
       <use xlink:href="#ArialMT-6f" transform="translate(361.279297 0)"/>
       <use xlink:href="#ArialMT-6e" transform="translate(416.894531 0)"/>
      </g>
     </g>
    </g>
    <g id="xtick_24">
     <g id="line2d_24">
      <g>
       <use xlink:href="#mde7dbe518f" x="371.975964" y="326.30735" style="stroke: #000000; stroke-width: 0.8"/>
      </g>
     </g>
     <g id="text_24">
      <!-- um -->
      <g transform="translate(363.309426 348.91589) rotate(-60) scale(0.1 -0.1)">
       <use xlink:href="#ArialMT-75"/>
       <use xlink:href="#ArialMT-6d" transform="translate(55.615234 0)"/>
      </g>
     </g>
    </g>
    <g id="xtick_25">
     <g id="line2d_25">
      <g>
       <use xlink:href="#mde7dbe518f" x="383.648655" y="326.30735" style="stroke: #000000; stroke-width: 0.8"/>
      </g>
     </g>
     <g id="text_25">
      <!-- oder -->
      <g transform="translate(371.921179 354.217589) rotate(-60) scale(0.1 -0.1)">
       <use xlink:href="#ArialMT-6f"/>
       <use xlink:href="#ArialMT-64" transform="translate(55.615234 0)"/>
       <use xlink:href="#ArialMT-65" transform="translate(111.230469 0)"/>
       <use xlink:href="#ArialMT-72" transform="translate(166.845703 0)"/>
      </g>
     </g>
    </g>
    <g id="xtick_26">
     <g id="line2d_26">
      <g>
       <use xlink:href="#mde7dbe518f" x="395.321345" y="326.30735" style="stroke: #000000; stroke-width: 0.8"/>
      </g>
     </g>
     <g id="text_26">
      <!-- bei -->
      <g transform="translate(386.928245 348.442282) rotate(-60) scale(0.1 -0.1)">
       <use xlink:href="#ArialMT-62"/>
       <use xlink:href="#ArialMT-65" transform="translate(55.615234 0)"/>
       <use xlink:href="#ArialMT-69" transform="translate(111.230469 0)"/>
      </g>
     </g>
    </g>
    <g id="xtick_27">
     <g id="line2d_27">
      <g>
       <use xlink:href="#mde7dbe518f" x="406.994036" y="326.30735" style="stroke: #000000; stroke-width: 0.8"/>
      </g>
     </g>
     <g id="text_27">
      <!-- an -->
      <g transform="translate(399.711873 346.518082) rotate(-60) scale(0.1 -0.1)">
       <use xlink:href="#ArialMT-61"/>
       <use xlink:href="#ArialMT-6e" transform="translate(55.615234 0)"/>
      </g>
     </g>
    </g>
    <g id="xtick_28">
     <g id="line2d_28">
      <g>
       <use xlink:href="#mde7dbe518f" x="418.666727" y="326.30735" style="stroke: #000000; stroke-width: 0.8"/>
      </g>
     </g>
     <g id="text_28">
      <!-- eine -->
      <g transform="translate(407.493158 353.258195) rotate(-60) scale(0.1 -0.1)">
       <use xlink:href="#ArialMT-65"/>
       <use xlink:href="#ArialMT-69" transform="translate(55.615234 0)"/>
       <use xlink:href="#ArialMT-6e" transform="translate(77.832031 0)"/>
       <use xlink:href="#ArialMT-65" transform="translate(133.447266 0)"/>
      </g>
     </g>
    </g>
    <g id="xtick_29">
     <g id="line2d_29">
      <g>
       <use xlink:href="#mde7dbe518f" x="430.339418" y="326.30735" style="stroke: #000000; stroke-width: 0.8"/>
      </g>
     </g>
     <g id="text_29">
      <!-- ihre -->
      <g transform="translate(420.281473 351.325876) rotate(-60) scale(0.1 -0.1)">
       <defs>
        <path id="ArialMT-68" d="M 422 0 
L 422 4581 
L 984 4581 
L 984 2938 
Q 1378 3394 1978 3394 
Q 2347 3394 2619 3248 
Q 2891 3103 3008 2847 
Q 3125 2591 3125 2103 
L 3125 0 
L 2563 0 
L 2563 2103 
Q 2563 2525 2380 2717 
Q 2197 2909 1863 2909 
Q 1613 2909 1392 2779 
Q 1172 2650 1078 2428 
Q 984 2206 984 1816 
L 984 0 
L 422 0 
z
" transform="scale(0.015625)"/>
       </defs>
       <use xlink:href="#ArialMT-69"/>
       <use xlink:href="#ArialMT-68" transform="translate(22.216797 0)"/>
       <use xlink:href="#ArialMT-72" transform="translate(77.832031 0)"/>
       <use xlink:href="#ArialMT-65" transform="translate(111.132812 0)"/>
      </g>
     </g>
    </g>
    <g id="xtick_30">
     <g id="line2d_30">
      <g>
       <use xlink:href="#mde7dbe518f" x="442.012108" y="326.30735" style="stroke: #000000; stroke-width: 0.8"/>
      </g>
     </g>
     <g id="text_30">
      <!-- ihrer -->
      <g transform="translate(430.28932 354.20947) rotate(-60) scale(0.1 -0.1)">
       <use xlink:href="#ArialMT-69"/>
       <use xlink:href="#ArialMT-68" transform="translate(22.216797 0)"/>
       <use xlink:href="#ArialMT-72" transform="translate(77.832031 0)"/>
       <use xlink:href="#ArialMT-65" transform="translate(111.132812 0)"/>
       <use xlink:href="#ArialMT-72" transform="translate(166.748047 0)"/>
      </g>
     </g>
    </g>
    <g id="xtick_31">
     <g id="line2d_31">
      <g>
       <use xlink:href="#mde7dbe518f" x="453.684799" y="326.30735" style="stroke: #000000; stroke-width: 0.8"/>
      </g>
     </g>
     <g id="text_31">
      <!-- alle -->
      <g transform="translate(444.180761 350.366483) rotate(-60) scale(0.1 -0.1)">
       <use xlink:href="#ArialMT-61"/>
       <use xlink:href="#ArialMT-6c" transform="translate(55.615234 0)"/>
       <use xlink:href="#ArialMT-6c" transform="translate(77.832031 0)"/>
       <use xlink:href="#ArialMT-65" transform="translate(100.048828 0)"/>
      </g>
     </g>
    </g>
    <g id="xtick_32">
     <g id="line2d_32">
      <g>
       <use xlink:href="#mde7dbe518f" x="465.35749" y="326.30735" style="stroke: #000000; stroke-width: 0.8"/>
      </g>
     </g>
     <g id="text_32">
      <!-- durch -->
      <g transform="translate(451.130014 358.547716) rotate(-60) scale(0.1 -0.1)">
       <defs>
        <path id="ArialMT-63" d="M 2588 1216 
L 3141 1144 
Q 3050 572 2676 248 
Q 2303 -75 1759 -75 
Q 1078 -75 664 370 
Q 250 816 250 1647 
Q 250 2184 428 2587 
Q 606 2991 970 3192 
Q 1334 3394 1763 3394 
Q 2303 3394 2647 3120 
Q 2991 2847 3088 2344 
L 2541 2259 
Q 2463 2594 2264 2762 
Q 2066 2931 1784 2931 
Q 1359 2931 1093 2626 
Q 828 2322 828 1663 
Q 828 994 1084 691 
Q 1341 388 1753 388 
Q 2084 388 2306 591 
Q 2528 794 2588 1216 
z
" transform="scale(0.015625)"/>
       </defs>
       <use xlink:href="#ArialMT-64"/>
       <use xlink:href="#ArialMT-75" transform="translate(55.615234 0)"/>
       <use xlink:href="#ArialMT-72" transform="translate(111.230469 0)"/>
       <use xlink:href="#ArialMT-63" transform="translate(144.53125 0)"/>
       <use xlink:href="#ArialMT-68" transform="translate(194.53125 0)"/>
      </g>
     </g>
    </g>
    <g id="xtick_33">
     <g id="line2d_33">
      <g>
       <use xlink:href="#mde7dbe518f" x="477.030181" y="326.30735" style="stroke: #000000; stroke-width: 0.8"/>
      </g>
     </g>
     <g id="text_33">
      <!-- wie -->
      <g transform="translate(467.806611 349.880696) rotate(-60) scale(0.1 -0.1)">
       <use xlink:href="#ArialMT-77"/>
       <use xlink:href="#ArialMT-69" transform="translate(72.216797 0)"/>
       <use xlink:href="#ArialMT-65" transform="translate(94.433594 0)"/>
      </g>
     </g>
    </g>
    <g id="xtick_34">
     <g id="line2d_34">
      <g>
       <use xlink:href="#mde7dbe518f" x="488.702871" y="326.30735" style="stroke: #000000; stroke-width: 0.8"/>
      </g>
     </g>
     <g id="text_34">
      <!-- nach -->
      <g transform="translate(476.14024 355.664122) rotate(-60) scale(0.1 -0.1)">
       <use xlink:href="#ArialMT-6e"/>
       <use xlink:href="#ArialMT-61" transform="translate(55.615234 0)"/>
       <use xlink:href="#ArialMT-63" transform="translate(111.230469 0)"/>
       <use xlink:href="#ArialMT-68" transform="translate(161.230469 0)"/>
      </g>
     </g>
    </g>
    <g id="xtick_35">
     <g id="line2d_35">
      <g>
       <use xlink:href="#mde7dbe518f" x="500.375562" y="326.30735" style="stroke: #000000; stroke-width: 0.8"/>
      </g>
     </g>
     <g id="text_35">
      <!-- Dezember -->
      <g transform="translate(475.591837 376.831678) rotate(-60) scale(0.1 -0.1)">
       <defs>
        <path id="ArialMT-44" d="M 494 0 
L 494 4581 
L 2072 4581 
Q 2606 4581 2888 4516 
Q 3281 4425 3559 4188 
Q 3922 3881 4101 3404 
Q 4281 2928 4281 2316 
Q 4281 1794 4159 1391 
Q 4038 988 3847 723 
Q 3656 459 3429 307 
Q 3203 156 2883 78 
Q 2563 0 2147 0 
L 494 0 
z
M 1100 541 
L 2078 541 
Q 2531 541 2789 625 
Q 3047 709 3200 863 
Q 3416 1078 3536 1442 
Q 3656 1806 3656 2325 
Q 3656 3044 3420 3430 
Q 3184 3816 2847 3947 
Q 2603 4041 2063 4041 
L 1100 4041 
L 1100 541 
z
" transform="scale(0.015625)"/>
       </defs>
       <use xlink:href="#ArialMT-44"/>
       <use xlink:href="#ArialMT-65" transform="translate(72.216797 0)"/>
       <use xlink:href="#ArialMT-7a" transform="translate(127.832031 0)"/>
       <use xlink:href="#ArialMT-65" transform="translate(177.832031 0)"/>
       <use xlink:href="#ArialMT-6d" transform="translate(233.447266 0)"/>
       <use xlink:href="#ArialMT-62" transform="translate(316.748047 0)"/>
       <use xlink:href="#ArialMT-65" transform="translate(372.363281 0)"/>
       <use xlink:href="#ArialMT-72" transform="translate(427.978516 0)"/>
      </g>
     </g>
    </g>
    <g id="xtick_36">
     <g id="line2d_36">
      <g>
       <use xlink:href="#mde7dbe518f" x="512.048253" y="326.30735" style="stroke: #000000; stroke-width: 0.8"/>
      </g>
     </g>
     <g id="text_36">
      <!-- sich -->
      <g transform="translate(501.435621 352.286623) rotate(-60) scale(0.1 -0.1)">
       <use xlink:href="#ArialMT-73"/>
       <use xlink:href="#ArialMT-69" transform="translate(50 0)"/>
       <use xlink:href="#ArialMT-63" transform="translate(72.216797 0)"/>
       <use xlink:href="#ArialMT-68" transform="translate(122.216797 0)"/>
      </g>
     </g>
    </g>
    <g id="xtick_37">
     <g id="line2d_37">
      <g>
       <use xlink:href="#mde7dbe518f" x="523.720944" y="326.30735" style="stroke: #000000; stroke-width: 0.8"/>
      </g>
     </g>
     <g id="text_37">
      <!-- dieser -->
      <g transform="translate(508.382531 360.471916) rotate(-60) scale(0.1 -0.1)">
       <use xlink:href="#ArialMT-64"/>
       <use xlink:href="#ArialMT-69" transform="translate(55.615234 0)"/>
       <use xlink:href="#ArialMT-65" transform="translate(77.832031 0)"/>
       <use xlink:href="#ArialMT-73" transform="translate(133.447266 0)"/>
       <use xlink:href="#ArialMT-65" transform="translate(183.447266 0)"/>
       <use xlink:href="#ArialMT-72" transform="translate(239.0625 0)"/>
      </g>
     </g>
    </g>
    <g id="xtick_38">
     <g id="line2d_38">
      <g>
       <use xlink:href="#mde7dbe518f" x="535.393635" y="326.30735" style="stroke: #000000; stroke-width: 0.8"/>
      </g>
     </g>
     <g id="text_38">
      <!-- fordert -->
      <g transform="translate(519.22319 361.913037) rotate(-60) scale(0.1 -0.1)">
       <use xlink:href="#ArialMT-66"/>
       <use xlink:href="#ArialMT-6f" transform="translate(27.783203 0)"/>
       <use xlink:href="#ArialMT-72" transform="translate(83.398438 0)"/>
       <use xlink:href="#ArialMT-64" transform="translate(116.699219 0)"/>
       <use xlink:href="#ArialMT-65" transform="translate(172.314453 0)"/>
       <use xlink:href="#ArialMT-72" transform="translate(227.929688 0)"/>
       <use xlink:href="#ArialMT-74" transform="translate(261.230469 0)"/>
      </g>
     </g>
    </g>
    <g id="xtick_39">
     <g id="line2d_39">
      <g>
       <use xlink:href="#mde7dbe518f" x="547.066325" y="326.30735" style="stroke: #000000; stroke-width: 0.8"/>
      </g>
     </g>
     <g id="text_39">
      <!-- Maßnahmen -->
      <g transform="translate(517.278694 385.498697) rotate(-60) scale(0.1 -0.1)">
       <defs>
        <path id="ArialMT-4d" d="M 475 0 
L 475 4581 
L 1388 4581 
L 2472 1338 
Q 2622 884 2691 659 
Q 2769 909 2934 1394 
L 4031 4581 
L 4847 4581 
L 4847 0 
L 4263 0 
L 4263 3834 
L 2931 0 
L 2384 0 
L 1059 3900 
L 1059 0 
L 475 0 
z
" transform="scale(0.015625)"/>
        <path id="ArialMT-df" d="M 478 0 
L 478 3122 
Q 478 3694 617 4001 
Q 756 4309 1081 4484 
Q 1406 4659 1813 4659 
Q 2353 4659 2662 4389 
Q 2972 4119 2972 3763 
Q 2972 3603 2915 3434 
Q 2859 3266 2715 3014 
Q 2572 2763 2534 2664 
Q 2497 2566 2497 2491 
Q 2497 2391 2566 2294 
Q 2631 2194 2944 1991 
Q 3369 1713 3509 1544 
Q 3709 1303 3709 975 
Q 3709 541 3389 231 
Q 3069 -78 2569 -78 
Q 2175 -78 1878 133 
Q 1581 344 1434 675 
L 1919 900 
Q 2075 609 2231 496 
Q 2388 384 2559 384 
Q 2797 384 2965 546 
Q 3134 709 3134 928 
Q 3134 1103 3034 1228 
Q 2969 1309 2684 1503 
Q 2166 1859 2044 2038 
Q 1919 2216 1919 2403 
Q 1919 2525 1961 2650 
Q 2003 2775 2164 3050 
Q 2325 3325 2375 3462 
Q 2425 3600 2425 3706 
Q 2425 3900 2254 4048 
Q 2084 4197 1800 4197 
Q 1466 4197 1253 3990 
Q 1041 3784 1041 3097 
L 1041 0 
L 478 0 
z
" transform="scale(0.015625)"/>
       </defs>
       <use xlink:href="#ArialMT-4d"/>
       <use xlink:href="#ArialMT-61" transform="translate(83.300781 0)"/>
       <use xlink:href="#ArialMT-df" transform="translate(138.916016 0)"/>
       <use xlink:href="#ArialMT-6e" transform="translate(200 0)"/>
       <use xlink:href="#ArialMT-61" transform="translate(255.615234 0)"/>
       <use xlink:href="#ArialMT-68" transform="translate(311.230469 0)"/>
       <use xlink:href="#ArialMT-6d" transform="translate(366.845703 0)"/>
       <use xlink:href="#ArialMT-65" transform="translate(450.146484 0)"/>
       <use xlink:href="#ArialMT-6e" transform="translate(505.761719 0)"/>
      </g>
     </g>
    </g>
    <g id="xtick_40">
     <g id="line2d_40">
      <g>
       <use xlink:href="#mde7dbe518f" x="558.739016" y="326.30735" style="stroke: #000000; stroke-width: 0.8"/>
      </g>
     </g>
     <g id="text_40">
      <!-- sie -->
      <g transform="translate(550.626384 347.956496) rotate(-60) scale(0.1 -0.1)">
       <use xlink:href="#ArialMT-73"/>
       <use xlink:href="#ArialMT-69" transform="translate(50 0)"/>
       <use xlink:href="#ArialMT-65" transform="translate(72.216797 0)"/>
      </g>
     </g>
    </g>
    <g id="xtick_41">
     <g id="line2d_41">
      <g>
       <use xlink:href="#mde7dbe518f" x="570.411707" y="326.30735" style="stroke: #000000; stroke-width: 0.8"/>
      </g>
     </g>
     <g id="text_41">
      <!-- insbesondere -->
      <g transform="translate(538.67095 388.881609) rotate(-60) scale(0.1 -0.1)">
       <use xlink:href="#ArialMT-69"/>
       <use xlink:href="#ArialMT-6e" transform="translate(22.216797 0)"/>
       <use xlink:href="#ArialMT-73" transform="translate(77.832031 0)"/>
       <use xlink:href="#ArialMT-62" transform="translate(127.832031 0)"/>
       <use xlink:href="#ArialMT-65" transform="translate(183.447266 0)"/>
       <use xlink:href="#ArialMT-73" transform="translate(239.0625 0)"/>
       <use xlink:href="#ArialMT-6f" transform="translate(289.0625 0)"/>
       <use xlink:href="#ArialMT-6e" transform="translate(344.677734 0)"/>
       <use xlink:href="#ArialMT-64" transform="translate(400.292969 0)"/>
       <use xlink:href="#ArialMT-65" transform="translate(455.908203 0)"/>
       <use xlink:href="#ArialMT-72" transform="translate(511.523438 0)"/>
       <use xlink:href="#ArialMT-65" transform="translate(544.824219 0)"/>
      </g>
     </g>
    </g>
    <g id="xtick_42">
     <g id="line2d_42">
      <g>
       <use xlink:href="#mde7dbe518f" x="582.084398" y="326.30735" style="stroke: #000000; stroke-width: 0.8"/>
      </g>
     </g>
     <g id="text_42">
      <!-- auch -->
      <g transform="translate(569.521766 355.664122) rotate(-60) scale(0.1 -0.1)">
       <use xlink:href="#ArialMT-61"/>
       <use xlink:href="#ArialMT-75" transform="translate(55.615234 0)"/>
       <use xlink:href="#ArialMT-63" transform="translate(111.230469 0)"/>
       <use xlink:href="#ArialMT-68" transform="translate(161.230469 0)"/>
      </g>
     </g>
    </g>
    <g id="xtick_43">
     <g id="line2d_43">
      <g>
       <use xlink:href="#mde7dbe518f" x="593.757088" y="326.30735" style="stroke: #000000; stroke-width: 0.8"/>
      </g>
     </g>
     <g id="text_43">
      <!-- auf, -->
      <g transform="translate(583.6968 351.329936) rotate(-60) scale(0.1 -0.1)">
       <defs>
        <path id="ArialMT-2c" d="M 569 0 
L 569 641 
L 1209 641 
L 1209 0 
Q 1209 -353 1084 -570 
Q 959 -788 688 -906 
L 531 -666 
Q 709 -588 793 -436 
Q 878 -284 888 0 
L 569 0 
z
" transform="scale(0.015625)"/>
       </defs>
       <use xlink:href="#ArialMT-61"/>
       <use xlink:href="#ArialMT-75" transform="translate(55.615234 0)"/>
       <use xlink:href="#ArialMT-66" transform="translate(111.230469 0)"/>
       <use xlink:href="#ArialMT-2c" transform="translate(139.013672 0)"/>
      </g>
     </g>
    </g>
    <g id="xtick_44">
     <g id="line2d_44">
      <g>
       <use xlink:href="#mde7dbe518f" x="605.429779" y="326.30735" style="stroke: #000000; stroke-width: 0.8"/>
      </g>
     </g>
     <g id="text_44">
      <!-- internationalen -->
      <g transform="translate(570.908554 393.697522) rotate(-60) scale(0.1 -0.1)">
       <use xlink:href="#ArialMT-69"/>
       <use xlink:href="#ArialMT-6e" transform="translate(22.216797 0)"/>
       <use xlink:href="#ArialMT-74" transform="translate(77.832031 0)"/>
       <use xlink:href="#ArialMT-65" transform="translate(105.615234 0)"/>
       <use xlink:href="#ArialMT-72" transform="translate(161.230469 0)"/>
       <use xlink:href="#ArialMT-6e" transform="translate(194.53125 0)"/>
       <use xlink:href="#ArialMT-61" transform="translate(250.146484 0)"/>
       <use xlink:href="#ArialMT-74" transform="translate(305.761719 0)"/>
       <use xlink:href="#ArialMT-69" transform="translate(333.544922 0)"/>
       <use xlink:href="#ArialMT-6f" transform="translate(355.761719 0)"/>
       <use xlink:href="#ArialMT-6e" transform="translate(411.376953 0)"/>
       <use xlink:href="#ArialMT-61" transform="translate(466.992188 0)"/>
       <use xlink:href="#ArialMT-6c" transform="translate(522.607422 0)"/>
       <use xlink:href="#ArialMT-65" transform="translate(544.824219 0)"/>
       <use xlink:href="#ArialMT-6e" transform="translate(600.439453 0)"/>
      </g>
     </g>
    </g>
    <g id="xtick_45">
     <g id="line2d_45">
      <g>
       <use xlink:href="#mde7dbe518f" x="617.10247" y="326.30735" style="stroke: #000000; stroke-width: 0.8"/>
      </g>
     </g>
     <g id="text_45">
      <!-- einschließlich -->
      <g transform="translate(585.370307 388.866724) rotate(-60) scale(0.1 -0.1)">
       <use xlink:href="#ArialMT-65"/>
       <use xlink:href="#ArialMT-69" transform="translate(55.615234 0)"/>
       <use xlink:href="#ArialMT-6e" transform="translate(77.832031 0)"/>
       <use xlink:href="#ArialMT-73" transform="translate(133.447266 0)"/>
       <use xlink:href="#ArialMT-63" transform="translate(183.447266 0)"/>
       <use xlink:href="#ArialMT-68" transform="translate(233.447266 0)"/>
       <use xlink:href="#ArialMT-6c" transform="translate(289.0625 0)"/>
       <use xlink:href="#ArialMT-69" transform="translate(311.279297 0)"/>
       <use xlink:href="#ArialMT-65" transform="translate(333.496094 0)"/>
       <use xlink:href="#ArialMT-df" transform="translate(389.111328 0)"/>
       <use xlink:href="#ArialMT-6c" transform="translate(450.195312 0)"/>
       <use xlink:href="#ArialMT-69" transform="translate(472.412109 0)"/>
       <use xlink:href="#ArialMT-63" transform="translate(494.628906 0)"/>
       <use xlink:href="#ArialMT-68" transform="translate(544.628906 0)"/>
      </g>
     </g>
    </g>
    <g id="xtick_46">
     <g id="line2d_46">
      <g>
       <use xlink:href="#mde7dbe518f" x="628.775161" y="326.30735" style="stroke: #000000; stroke-width: 0.8"/>
      </g>
     </g>
     <g id="text_46">
      <!-- ist, -->
      <g transform="translate(620.664873 347.952437) rotate(-60) scale(0.1 -0.1)">
       <use xlink:href="#ArialMT-69"/>
       <use xlink:href="#ArialMT-73" transform="translate(22.216797 0)"/>
       <use xlink:href="#ArialMT-74" transform="translate(72.216797 0)"/>
       <use xlink:href="#ArialMT-2c" transform="translate(100 0)"/>
      </g>
     </g>
    </g>
    <g id="xtick_47">
     <g id="line2d_47">
      <g>
       <use xlink:href="#mde7dbe518f" x="640.447851" y="326.30735" style="stroke: #000000; stroke-width: 0.8"/>
      </g>
     </g>
     <g id="text_47">
      <!-- einer -->
      <g transform="translate(627.609438 356.141789) rotate(-60) scale(0.1 -0.1)">
       <use xlink:href="#ArialMT-65"/>
       <use xlink:href="#ArialMT-69" transform="translate(55.615234 0)"/>
       <use xlink:href="#ArialMT-6e" transform="translate(77.832031 0)"/>
       <use xlink:href="#ArialMT-65" transform="translate(133.447266 0)"/>
       <use xlink:href="#ArialMT-72" transform="translate(189.0625 0)"/>
      </g>
     </g>
    </g>
    <g id="xtick_48">
     <g id="line2d_48">
      <g>
       <use xlink:href="#mde7dbe518f" x="652.120542" y="326.30735" style="stroke: #000000; stroke-width: 0.8"/>
      </g>
     </g>
     <g id="text_48">
      <!-- Generalversammlung -->
      <g transform="translate(602.503298 419.72975) rotate(-60) scale(0.1 -0.1)">
       <defs>
        <path id="ArialMT-47" d="M 2638 1797 
L 2638 2334 
L 4578 2338 
L 4578 638 
Q 4131 281 3656 101 
Q 3181 -78 2681 -78 
Q 2006 -78 1454 211 
Q 903 500 622 1047 
Q 341 1594 341 2269 
Q 341 2938 620 3517 
Q 900 4097 1425 4378 
Q 1950 4659 2634 4659 
Q 3131 4659 3532 4498 
Q 3934 4338 4162 4050 
Q 4391 3763 4509 3300 
L 3963 3150 
Q 3859 3500 3706 3700 
Q 3553 3900 3268 4020 
Q 2984 4141 2638 4141 
Q 2222 4141 1919 4014 
Q 1616 3888 1430 3681 
Q 1244 3475 1141 3228 
Q 966 2803 966 2306 
Q 966 1694 1177 1281 
Q 1388 869 1791 669 
Q 2194 469 2647 469 
Q 3041 469 3416 620 
Q 3791 772 3984 944 
L 3984 1797 
L 2638 1797 
z
" transform="scale(0.015625)"/>
        <path id="ArialMT-67" d="M 319 -275 
L 866 -356 
Q 900 -609 1056 -725 
Q 1266 -881 1628 -881 
Q 2019 -881 2231 -725 
Q 2444 -569 2519 -288 
Q 2563 -116 2559 434 
Q 2191 0 1641 0 
Q 956 0 581 494 
Q 206 988 206 1678 
Q 206 2153 378 2554 
Q 550 2956 876 3175 
Q 1203 3394 1644 3394 
Q 2231 3394 2613 2919 
L 2613 3319 
L 3131 3319 
L 3131 450 
Q 3131 -325 2973 -648 
Q 2816 -972 2473 -1159 
Q 2131 -1347 1631 -1347 
Q 1038 -1347 672 -1080 
Q 306 -813 319 -275 
z
M 784 1719 
Q 784 1066 1043 766 
Q 1303 466 1694 466 
Q 2081 466 2343 764 
Q 2606 1063 2606 1700 
Q 2606 2309 2336 2618 
Q 2066 2928 1684 2928 
Q 1309 2928 1046 2623 
Q 784 2319 784 1719 
z
" transform="scale(0.015625)"/>
       </defs>
       <use xlink:href="#ArialMT-47"/>
       <use xlink:href="#ArialMT-65" transform="translate(77.783203 0)"/>
       <use xlink:href="#ArialMT-6e" transform="translate(133.398438 0)"/>
       <use xlink:href="#ArialMT-65" transform="translate(189.013672 0)"/>
       <use xlink:href="#ArialMT-72" transform="translate(244.628906 0)"/>
       <use xlink:href="#ArialMT-61" transform="translate(277.929688 0)"/>
       <use xlink:href="#ArialMT-6c" transform="translate(333.544922 0)"/>
       <use xlink:href="#ArialMT-76" transform="translate(355.761719 0)"/>
       <use xlink:href="#ArialMT-65" transform="translate(405.761719 0)"/>
       <use xlink:href="#ArialMT-72" transform="translate(461.376953 0)"/>
       <use xlink:href="#ArialMT-73" transform="translate(494.677734 0)"/>
       <use xlink:href="#ArialMT-61" transform="translate(544.677734 0)"/>
       <use xlink:href="#ArialMT-6d" transform="translate(600.292969 0)"/>
       <use xlink:href="#ArialMT-6d" transform="translate(683.59375 0)"/>
       <use xlink:href="#ArialMT-6c" transform="translate(766.894531 0)"/>
       <use xlink:href="#ArialMT-75" transform="translate(789.111328 0)"/>
       <use xlink:href="#ArialMT-6e" transform="translate(844.726562 0)"/>
       <use xlink:href="#ArialMT-67" transform="translate(900.341797 0)"/>
      </g>
     </g>
    </g>
    <g id="xtick_49">
     <g id="line2d_49">
      <g>
       <use xlink:href="#mde7dbe518f" x="663.793233" y="326.30735" style="stroke: #000000; stroke-width: 0.8"/>
      </g>
     </g>
     <g id="text_49">
      <!-- am -->
      <g transform="translate(655.126695 348.91589) rotate(-60) scale(0.1 -0.1)">
       <use xlink:href="#ArialMT-61"/>
       <use xlink:href="#ArialMT-6d" transform="translate(55.615234 0)"/>
      </g>
     </g>
    </g>
    <g id="xtick_50">
     <g id="line2d_50">
      <g>
       <use xlink:href="#mde7dbe518f" x="675.465924" y="326.30735" style="stroke: #000000; stroke-width: 0.8"/>
      </g>
     </g>
     <g id="text_50">
      <!-- Staaten -->
      <g transform="translate(656.509542 366.738422) rotate(-60) scale(0.1 -0.1)">
       <defs>
        <path id="ArialMT-53" d="M 288 1472 
L 859 1522 
Q 900 1178 1048 958 
Q 1197 738 1509 602 
Q 1822 466 2213 466 
Q 2559 466 2825 569 
Q 3091 672 3220 851 
Q 3350 1031 3350 1244 
Q 3350 1459 3225 1620 
Q 3100 1781 2813 1891 
Q 2628 1963 1997 2114 
Q 1366 2266 1113 2400 
Q 784 2572 623 2826 
Q 463 3081 463 3397 
Q 463 3744 659 4045 
Q 856 4347 1234 4503 
Q 1613 4659 2075 4659 
Q 2584 4659 2973 4495 
Q 3363 4331 3572 4012 
Q 3781 3694 3797 3291 
L 3216 3247 
Q 3169 3681 2898 3903 
Q 2628 4125 2100 4125 
Q 1550 4125 1298 3923 
Q 1047 3722 1047 3438 
Q 1047 3191 1225 3031 
Q 1400 2872 2139 2705 
Q 2878 2538 3153 2413 
Q 3553 2228 3743 1945 
Q 3934 1663 3934 1294 
Q 3934 928 3725 604 
Q 3516 281 3123 101 
Q 2731 -78 2241 -78 
Q 1619 -78 1198 103 
Q 778 284 539 648 
Q 300 1013 288 1472 
z
" transform="scale(0.015625)"/>
       </defs>
       <use xlink:href="#ArialMT-53"/>
       <use xlink:href="#ArialMT-74" transform="translate(66.699219 0)"/>
       <use xlink:href="#ArialMT-61" transform="translate(94.482422 0)"/>
       <use xlink:href="#ArialMT-61" transform="translate(150.097656 0)"/>
       <use xlink:href="#ArialMT-74" transform="translate(205.712891 0)"/>
       <use xlink:href="#ArialMT-65" transform="translate(233.496094 0)"/>
       <use xlink:href="#ArialMT-6e" transform="translate(289.111328 0)"/>
      </g>
     </g>
    </g>
   </g>
   <g id="matplotlib.axis_2">
    <g id="ytick_1">
     <g id="line2d_51">
      <defs>
       <path id="m16b8ff8129" d="M 0 0 
L -3.5 0 
" style="stroke: #000000; stroke-width: 0.8"/>
      </defs>
      <g>
       <use xlink:href="#m16b8ff8129" x="69.77" y="326.30735" style="stroke: #000000; stroke-width: 0.8"/>
      </g>
     </g>
     <g id="text_51">
      <!-- 0 -->
      <g transform="translate(56.4075 330.106568) scale(0.1 -0.1)">
       <defs>
        <path id="DejaVuSans-30" d="M 2034 4250 
Q 1547 4250 1301 3770 
Q 1056 3291 1056 2328 
Q 1056 1369 1301 889 
Q 1547 409 2034 409 
Q 2525 409 2770 889 
Q 3016 1369 3016 2328 
Q 3016 3291 2770 3770 
Q 2525 4250 2034 4250 
z
M 2034 4750 
Q 2819 4750 3233 4129 
Q 3647 3509 3647 2328 
Q 3647 1150 3233 529 
Q 2819 -91 2034 -91 
Q 1250 -91 836 529 
Q 422 1150 422 2328 
Q 422 3509 836 4129 
Q 1250 4750 2034 4750 
z
" transform="scale(0.015625)"/>
       </defs>
       <use xlink:href="#DejaVuSans-30"/>
      </g>
     </g>
    </g>
    <g id="ytick_2">
     <g id="line2d_52">
      <g>
       <use xlink:href="#m16b8ff8129" x="69.77" y="262.628083" style="stroke: #000000; stroke-width: 0.8"/>
      </g>
     </g>
     <g id="text_52">
      <!-- 200000 -->
      <g transform="translate(24.595 266.427302) scale(0.1 -0.1)">
       <defs>
        <path id="DejaVuSans-32" d="M 1228 531 
L 3431 531 
L 3431 0 
L 469 0 
L 469 531 
Q 828 903 1448 1529 
Q 2069 2156 2228 2338 
Q 2531 2678 2651 2914 
Q 2772 3150 2772 3378 
Q 2772 3750 2511 3984 
Q 2250 4219 1831 4219 
Q 1534 4219 1204 4116 
Q 875 4013 500 3803 
L 500 4441 
Q 881 4594 1212 4672 
Q 1544 4750 1819 4750 
Q 2544 4750 2975 4387 
Q 3406 4025 3406 3419 
Q 3406 3131 3298 2873 
Q 3191 2616 2906 2266 
Q 2828 2175 2409 1742 
Q 1991 1309 1228 531 
z
" transform="scale(0.015625)"/>
       </defs>
       <use xlink:href="#DejaVuSans-32"/>
       <use xlink:href="#DejaVuSans-30" transform="translate(63.623047 0)"/>
       <use xlink:href="#DejaVuSans-30" transform="translate(127.246094 0)"/>
       <use xlink:href="#DejaVuSans-30" transform="translate(190.869141 0)"/>
       <use xlink:href="#DejaVuSans-30" transform="translate(254.492188 0)"/>
       <use xlink:href="#DejaVuSans-30" transform="translate(318.115234 0)"/>
      </g>
     </g>
    </g>
    <g id="ytick_3">
     <g id="line2d_53">
      <g>
       <use xlink:href="#m16b8ff8129" x="69.77" y="198.948817" style="stroke: #000000; stroke-width: 0.8"/>
      </g>
     </g>
     <g id="text_53">
      <!-- 400000 -->
      <g transform="translate(24.595 202.748036) scale(0.1 -0.1)">
       <defs>
        <path id="DejaVuSans-34" d="M 2419 4116 
L 825 1625 
L 2419 1625 
L 2419 4116 
z
M 2253 4666 
L 3047 4666 
L 3047 1625 
L 3713 1625 
L 3713 1100 
L 3047 1100 
L 3047 0 
L 2419 0 
L 2419 1100 
L 313 1100 
L 313 1709 
L 2253 4666 
z
" transform="scale(0.015625)"/>
       </defs>
       <use xlink:href="#DejaVuSans-34"/>
       <use xlink:href="#DejaVuSans-30" transform="translate(63.623047 0)"/>
       <use xlink:href="#DejaVuSans-30" transform="translate(127.246094 0)"/>
       <use xlink:href="#DejaVuSans-30" transform="translate(190.869141 0)"/>
       <use xlink:href="#DejaVuSans-30" transform="translate(254.492188 0)"/>
       <use xlink:href="#DejaVuSans-30" transform="translate(318.115234 0)"/>
      </g>
     </g>
    </g>
    <g id="ytick_4">
     <g id="line2d_54">
      <g>
       <use xlink:href="#m16b8ff8129" x="69.77" y="135.269551" style="stroke: #000000; stroke-width: 0.8"/>
      </g>
     </g>
     <g id="text_54">
      <!-- 600000 -->
      <g transform="translate(24.595 139.068769) scale(0.1 -0.1)">
       <defs>
        <path id="DejaVuSans-36" d="M 2113 2584 
Q 1688 2584 1439 2293 
Q 1191 2003 1191 1497 
Q 1191 994 1439 701 
Q 1688 409 2113 409 
Q 2538 409 2786 701 
Q 3034 994 3034 1497 
Q 3034 2003 2786 2293 
Q 2538 2584 2113 2584 
z
M 3366 4563 
L 3366 3988 
Q 3128 4100 2886 4159 
Q 2644 4219 2406 4219 
Q 1781 4219 1451 3797 
Q 1122 3375 1075 2522 
Q 1259 2794 1537 2939 
Q 1816 3084 2150 3084 
Q 2853 3084 3261 2657 
Q 3669 2231 3669 1497 
Q 3669 778 3244 343 
Q 2819 -91 2113 -91 
Q 1303 -91 875 529 
Q 447 1150 447 2328 
Q 447 3434 972 4092 
Q 1497 4750 2381 4750 
Q 2619 4750 2861 4703 
Q 3103 4656 3366 4563 
z
" transform="scale(0.015625)"/>
       </defs>
       <use xlink:href="#DejaVuSans-36"/>
       <use xlink:href="#DejaVuSans-30" transform="translate(63.623047 0)"/>
       <use xlink:href="#DejaVuSans-30" transform="translate(127.246094 0)"/>
       <use xlink:href="#DejaVuSans-30" transform="translate(190.869141 0)"/>
       <use xlink:href="#DejaVuSans-30" transform="translate(254.492188 0)"/>
       <use xlink:href="#DejaVuSans-30" transform="translate(318.115234 0)"/>
      </g>
     </g>
    </g>
    <g id="ytick_5">
     <g id="line2d_55">
      <g>
       <use xlink:href="#m16b8ff8129" x="69.77" y="71.590284" style="stroke: #000000; stroke-width: 0.8"/>
      </g>
     </g>
     <g id="text_55">
      <!-- 800000 -->
      <g transform="translate(24.595 75.389503) scale(0.1 -0.1)">
       <defs>
        <path id="DejaVuSans-38" d="M 2034 2216 
Q 1584 2216 1326 1975 
Q 1069 1734 1069 1313 
Q 1069 891 1326 650 
Q 1584 409 2034 409 
Q 2484 409 2743 651 
Q 3003 894 3003 1313 
Q 3003 1734 2745 1975 
Q 2488 2216 2034 2216 
z
M 1403 2484 
Q 997 2584 770 2862 
Q 544 3141 544 3541 
Q 544 4100 942 4425 
Q 1341 4750 2034 4750 
Q 2731 4750 3128 4425 
Q 3525 4100 3525 3541 
Q 3525 3141 3298 2862 
Q 3072 2584 2669 2484 
Q 3125 2378 3379 2068 
Q 3634 1759 3634 1313 
Q 3634 634 3220 271 
Q 2806 -91 2034 -91 
Q 1263 -91 848 271 
Q 434 634 434 1313 
Q 434 1759 690 2068 
Q 947 2378 1403 2484 
z
M 1172 3481 
Q 1172 3119 1398 2916 
Q 1625 2713 2034 2713 
Q 2441 2713 2670 2916 
Q 2900 3119 2900 3481 
Q 2900 3844 2670 4047 
Q 2441 4250 2034 4250 
Q 1625 4250 1398 4047 
Q 1172 3844 1172 3481 
z
" transform="scale(0.015625)"/>
       </defs>
       <use xlink:href="#DejaVuSans-38"/>
       <use xlink:href="#DejaVuSans-30" transform="translate(63.623047 0)"/>
       <use xlink:href="#DejaVuSans-30" transform="translate(127.246094 0)"/>
       <use xlink:href="#DejaVuSans-30" transform="translate(190.869141 0)"/>
       <use xlink:href="#DejaVuSans-30" transform="translate(254.492188 0)"/>
       <use xlink:href="#DejaVuSans-30" transform="translate(318.115234 0)"/>
      </g>
     </g>
    </g>
    <g id="text_56">
     <!-- Frequency -->
     <g transform="translate(18.515313 203.143362) rotate(-90) scale(0.1 -0.1)">
      <defs>
       <path id="DejaVuSans-46" d="M 628 4666 
L 3309 4666 
L 3309 4134 
L 1259 4134 
L 1259 2759 
L 3109 2759 
L 3109 2228 
L 1259 2228 
L 1259 0 
L 628 0 
L 628 4666 
z
" transform="scale(0.015625)"/>
       <path id="DejaVuSans-72" d="M 2631 2963 
Q 2534 3019 2420 3045 
Q 2306 3072 2169 3072 
Q 1681 3072 1420 2755 
Q 1159 2438 1159 1844 
L 1159 0 
L 581 0 
L 581 3500 
L 1159 3500 
L 1159 2956 
Q 1341 3275 1631 3429 
Q 1922 3584 2338 3584 
Q 2397 3584 2469 3576 
Q 2541 3569 2628 3553 
L 2631 2963 
z
" transform="scale(0.015625)"/>
       <path id="DejaVuSans-65" d="M 3597 1894 
L 3597 1613 
L 953 1613 
Q 991 1019 1311 708 
Q 1631 397 2203 397 
Q 2534 397 2845 478 
Q 3156 559 3463 722 
L 3463 178 
Q 3153 47 2828 -22 
Q 2503 -91 2169 -91 
Q 1331 -91 842 396 
Q 353 884 353 1716 
Q 353 2575 817 3079 
Q 1281 3584 2069 3584 
Q 2775 3584 3186 3129 
Q 3597 2675 3597 1894 
z
M 3022 2063 
Q 3016 2534 2758 2815 
Q 2500 3097 2075 3097 
Q 1594 3097 1305 2825 
Q 1016 2553 972 2059 
L 3022 2063 
z
" transform="scale(0.015625)"/>
       <path id="DejaVuSans-71" d="M 947 1747 
Q 947 1113 1208 752 
Q 1469 391 1925 391 
Q 2381 391 2643 752 
Q 2906 1113 2906 1747 
Q 2906 2381 2643 2742 
Q 2381 3103 1925 3103 
Q 1469 3103 1208 2742 
Q 947 2381 947 1747 
z
M 2906 525 
Q 2725 213 2448 61 
Q 2172 -91 1784 -91 
Q 1150 -91 751 415 
Q 353 922 353 1747 
Q 353 2572 751 3078 
Q 1150 3584 1784 3584 
Q 2172 3584 2448 3432 
Q 2725 3281 2906 2969 
L 2906 3500 
L 3481 3500 
L 3481 -1331 
L 2906 -1331 
L 2906 525 
z
" transform="scale(0.015625)"/>
       <path id="DejaVuSans-75" d="M 544 1381 
L 544 3500 
L 1119 3500 
L 1119 1403 
Q 1119 906 1312 657 
Q 1506 409 1894 409 
Q 2359 409 2629 706 
Q 2900 1003 2900 1516 
L 2900 3500 
L 3475 3500 
L 3475 0 
L 2900 0 
L 2900 538 
Q 2691 219 2414 64 
Q 2138 -91 1772 -91 
Q 1169 -91 856 284 
Q 544 659 544 1381 
z
M 1991 3584 
L 1991 3584 
z
" transform="scale(0.015625)"/>
       <path id="DejaVuSans-6e" d="M 3513 2113 
L 3513 0 
L 2938 0 
L 2938 2094 
Q 2938 2591 2744 2837 
Q 2550 3084 2163 3084 
Q 1697 3084 1428 2787 
Q 1159 2491 1159 1978 
L 1159 0 
L 581 0 
L 581 3500 
L 1159 3500 
L 1159 2956 
Q 1366 3272 1645 3428 
Q 1925 3584 2291 3584 
Q 2894 3584 3203 3211 
Q 3513 2838 3513 2113 
z
" transform="scale(0.015625)"/>
       <path id="DejaVuSans-63" d="M 3122 3366 
L 3122 2828 
Q 2878 2963 2633 3030 
Q 2388 3097 2138 3097 
Q 1578 3097 1268 2742 
Q 959 2388 959 1747 
Q 959 1106 1268 751 
Q 1578 397 2138 397 
Q 2388 397 2633 464 
Q 2878 531 3122 666 
L 3122 134 
Q 2881 22 2623 -34 
Q 2366 -91 2075 -91 
Q 1284 -91 818 406 
Q 353 903 353 1747 
Q 353 2603 823 3093 
Q 1294 3584 2113 3584 
Q 2378 3584 2631 3529 
Q 2884 3475 3122 3366 
z
" transform="scale(0.015625)"/>
       <path id="DejaVuSans-79" d="M 2059 -325 
Q 1816 -950 1584 -1140 
Q 1353 -1331 966 -1331 
L 506 -1331 
L 506 -850 
L 844 -850 
Q 1081 -850 1212 -737 
Q 1344 -625 1503 -206 
L 1606 56 
L 191 3500 
L 800 3500 
L 1894 763 
L 2988 3500 
L 3597 3500 
L 2059 -325 
z
" transform="scale(0.015625)"/>
      </defs>
      <use xlink:href="#DejaVuSans-46"/>
      <use xlink:href="#DejaVuSans-72" transform="translate(50.269531 0)"/>
      <use xlink:href="#DejaVuSans-65" transform="translate(89.132812 0)"/>
      <use xlink:href="#DejaVuSans-71" transform="translate(150.65625 0)"/>
      <use xlink:href="#DejaVuSans-75" transform="translate(214.132812 0)"/>
      <use xlink:href="#DejaVuSans-65" transform="translate(277.511719 0)"/>
      <use xlink:href="#DejaVuSans-6e" transform="translate(339.035156 0)"/>
      <use xlink:href="#DejaVuSans-63" transform="translate(402.414062 0)"/>
      <use xlink:href="#DejaVuSans-79" transform="translate(457.394531 0)"/>
     </g>
    </g>
   </g>
   <g id="patch_53">
    <path d="M 69.77 326.30735 
L 69.77 28.32 
" style="fill: none; stroke: #000000; stroke-width: 0.8; stroke-linejoin: miter; stroke-linecap: square"/>
   </g>
   <g id="patch_54">
    <path d="M 709.2 326.30735 
L 709.2 28.32 
" style="fill: none; stroke: #000000; stroke-width: 0.8; stroke-linejoin: miter; stroke-linecap: square"/>
   </g>
   <g id="patch_55">
    <path d="M 69.77 326.30735 
L 709.2 326.30735 
" style="fill: none; stroke: #000000; stroke-width: 0.8; stroke-linejoin: miter; stroke-linecap: square"/>
   </g>
   <g id="patch_56">
    <path d="M 69.77 28.32 
L 709.2 28.32 
" style="fill: none; stroke: #000000; stroke-width: 0.8; stroke-linejoin: miter; stroke-linecap: square"/>
   </g>
   <g id="text_57">
    <!-- Top 50 words in de -->
    <g transform="translate(322.34125 22.32) scale(0.16 -0.16)">
     <defs>
      <path id="ArialMT-54" d="M 1659 0 
L 1659 4041 
L 150 4041 
L 150 4581 
L 3781 4581 
L 3781 4041 
L 2266 4041 
L 2266 0 
L 1659 0 
z
" transform="scale(0.015625)"/>
      <path id="ArialMT-70" d="M 422 -1272 
L 422 3319 
L 934 3319 
L 934 2888 
Q 1116 3141 1344 3267 
Q 1572 3394 1897 3394 
Q 2322 3394 2647 3175 
Q 2972 2956 3137 2557 
Q 3303 2159 3303 1684 
Q 3303 1175 3120 767 
Q 2938 359 2589 142 
Q 2241 -75 1856 -75 
Q 1575 -75 1351 44 
Q 1128 163 984 344 
L 984 -1272 
L 422 -1272 
z
M 931 1641 
Q 931 1000 1190 694 
Q 1450 388 1819 388 
Q 2194 388 2461 705 
Q 2728 1022 2728 1688 
Q 2728 2322 2467 2637 
Q 2206 2953 1844 2953 
Q 1484 2953 1207 2617 
Q 931 2281 931 1641 
z
" transform="scale(0.015625)"/>
      <path id="ArialMT-20" transform="scale(0.015625)"/>
      <path id="ArialMT-35" d="M 266 1200 
L 856 1250 
Q 922 819 1161 601 
Q 1400 384 1738 384 
Q 2144 384 2425 690 
Q 2706 997 2706 1503 
Q 2706 1984 2436 2262 
Q 2166 2541 1728 2541 
Q 1456 2541 1237 2417 
Q 1019 2294 894 2097 
L 366 2166 
L 809 4519 
L 3088 4519 
L 3088 3981 
L 1259 3981 
L 1013 2750 
Q 1425 3038 1878 3038 
Q 2478 3038 2890 2622 
Q 3303 2206 3303 1553 
Q 3303 931 2941 478 
Q 2500 -78 1738 -78 
Q 1113 -78 717 272 
Q 322 622 266 1200 
z
" transform="scale(0.015625)"/>
      <path id="ArialMT-30" d="M 266 2259 
Q 266 3072 433 3567 
Q 600 4063 929 4331 
Q 1259 4600 1759 4600 
Q 2128 4600 2406 4451 
Q 2684 4303 2865 4023 
Q 3047 3744 3150 3342 
Q 3253 2941 3253 2259 
Q 3253 1453 3087 958 
Q 2922 463 2592 192 
Q 2263 -78 1759 -78 
Q 1097 -78 719 397 
Q 266 969 266 2259 
z
M 844 2259 
Q 844 1131 1108 757 
Q 1372 384 1759 384 
Q 2147 384 2411 759 
Q 2675 1134 2675 2259 
Q 2675 3391 2411 3762 
Q 2147 4134 1753 4134 
Q 1366 4134 1134 3806 
Q 844 3388 844 2259 
z
" transform="scale(0.015625)"/>
     </defs>
     <use xlink:href="#ArialMT-54"/>
     <use xlink:href="#ArialMT-6f" transform="translate(49.958984 0)"/>
     <use xlink:href="#ArialMT-70" transform="translate(105.574219 0)"/>
     <use xlink:href="#ArialMT-20" transform="translate(161.189453 0)"/>
     <use xlink:href="#ArialMT-35" transform="translate(188.972656 0)"/>
     <use xlink:href="#ArialMT-30" transform="translate(244.587891 0)"/>
     <use xlink:href="#ArialMT-20" transform="translate(300.203125 0)"/>
     <use xlink:href="#ArialMT-77" transform="translate(327.986328 0)"/>
     <use xlink:href="#ArialMT-6f" transform="translate(400.203125 0)"/>
     <use xlink:href="#ArialMT-72" transform="translate(455.818359 0)"/>
     <use xlink:href="#ArialMT-64" transform="translate(489.119141 0)"/>
     <use xlink:href="#ArialMT-73" transform="translate(544.734375 0)"/>
     <use xlink:href="#ArialMT-20" transform="translate(594.734375 0)"/>
     <use xlink:href="#ArialMT-69" transform="translate(622.517578 0)"/>
     <use xlink:href="#ArialMT-6e" transform="translate(644.734375 0)"/>
     <use xlink:href="#ArialMT-20" transform="translate(700.349609 0)"/>
     <use xlink:href="#ArialMT-64" transform="translate(728.132812 0)"/>
     <use xlink:href="#ArialMT-65" transform="translate(783.748047 0)"/>
    </g>
   </g>
  </g>
 </g>
 <defs>
  <clipPath id="p608d719ec3">
   <rect x="69.77" y="28.32" width="639.43" height="297.98735"/>
  </clipPath>
 </defs>
</svg>
