<?xml version="1.0" encoding="utf-8" standalone="no"?>
<!DOCTYPE svg PUBLIC "-//W3C//DTD SVG 1.1//EN"
  "http://www.w3.org/Graphics/SVG/1.1/DTD/svg11.dtd">
<svg xmlns:xlink="http://www.w3.org/1999/xlink" width="720pt" height="432pt" viewBox="0 0 720 432" xmlns="http://www.w3.org/2000/svg" version="1.1">
 <metadata>
  <rdf:RDF xmlns:dc="http://purl.org/dc/elements/1.1/" xmlns:cc="http://creativecommons.org/ns#" xmlns:rdf="http://www.w3.org/1999/02/22-rdf-syntax-ns#">
   <cc:Work>
    <dc:type rdf:resource="http://purl.org/dc/dcmitype/StillImage"/>
    <dc:date>2025-09-01T19:41:47.902949</dc:date>
    <dc:format>image/svg+xml</dc:format>
    <dc:creator>
     <cc:Agent>
      <dc:title>Matplotlib v3.10.3, https://matplotlib.org/</dc:title>
     </cc:Agent>
    </dc:creator>
   </cc:Work>
  </rdf:RDF>
 </metadata>
 <defs>
  <style type="text/css">*{stroke-linejoin: round; stroke-linecap: butt}</style>
 </defs>
 <g id="figure_1">
  <g id="patch_1">
   <path d="M 0 432 
L 720 432 
L 720 0 
L 0 0 
z
" style="fill: #ffffff"/>
  </g>
  <g id="axes_1">
   <g id="patch_2">
    <path d="M 38.27 349.923862 
L 709.2 349.923862 
L 709.2 28.32 
L 38.27 28.32 
z
" style="fill: #ffffff"/>
   </g>
   <g id="patch_3">
    <path d="M 68.766818 349.923862 
L 78.564993 349.923862 
L 78.564993 43.63447 
L 68.766818 43.63447 
z
" clip-path="url(#pb8b69aa851)" style="fill: #1f77b4"/>
   </g>
   <g id="patch_4">
    <path d="M 81.014536 349.923862 
L 90.812711 349.923862 
L 90.812711 182.131649 
L 81.014536 182.131649 
z
" clip-path="url(#pb8b69aa851)" style="fill: #1f77b4"/>
   </g>
   <g id="patch_5">
    <path d="M 93.262254 349.923862 
L 103.060429 349.923862 
L 103.060429 191.543054 
L 93.262254 191.543054 
z
" clip-path="url(#pb8b69aa851)" style="fill: #1f77b4"/>
   </g>
   <g id="patch_6">
    <path d="M 105.509973 349.923862 
L 115.308147 349.923862 
L 115.308147 203.01838 
L 105.509973 203.01838 
z
" clip-path="url(#pb8b69aa851)" style="fill: #1f77b4"/>
   </g>
   <g id="patch_7">
    <path d="M 117.757691 349.923862 
L 127.555865 349.923862 
L 127.555865 237.713971 
L 117.757691 237.713971 
z
" clip-path="url(#pb8b69aa851)" style="fill: #1f77b4"/>
   </g>
   <g id="patch_8">
    <path d="M 130.005409 349.923862 
L 139.803583 349.923862 
L 139.803583 248.275292 
L 130.005409 248.275292 
z
" clip-path="url(#pb8b69aa851)" style="fill: #1f77b4"/>
   </g>
   <g id="patch_9">
    <path d="M 142.253127 349.923862 
L 152.051302 349.923862 
L 152.051302 257.737225 
L 142.253127 257.737225 
z
" clip-path="url(#pb8b69aa851)" style="fill: #1f77b4"/>
   </g>
   <g id="patch_10">
    <path d="M 154.500845 349.923862 
L 164.29902 349.923862 
L 164.29902 270.362772 
L 154.500845 270.362772 
z
" clip-path="url(#pb8b69aa851)" style="fill: #1f77b4"/>
   </g>
   <g id="patch_11">
    <path d="M 166.748563 349.923862 
L 176.546738 349.923862 
L 176.546738 284.921122 
L 166.748563 284.921122 
z
" clip-path="url(#pb8b69aa851)" style="fill: #1f77b4"/>
   </g>
   <g id="patch_12">
    <path d="M 178.996281 349.923862 
L 188.794456 349.923862 
L 188.794456 307.11048 
L 178.996281 307.11048 
z
" clip-path="url(#pb8b69aa851)" style="fill: #1f77b4"/>
   </g>
   <g id="patch_13">
    <path d="M 191.244 349.923862 
L 201.042174 349.923862 
L 201.042174 309.652999 
L 191.244 309.652999 
z
" clip-path="url(#pb8b69aa851)" style="fill: #1f77b4"/>
   </g>
   <g id="patch_14">
    <path d="M 203.491718 349.923862 
L 213.289892 349.923862 
L 213.289892 311.781945 
L 203.491718 311.781945 
z
" clip-path="url(#pb8b69aa851)" style="fill: #1f77b4"/>
   </g>
   <g id="patch_15">
    <path d="M 215.739436 349.923862 
L 225.53761 349.923862 
L 225.53761 313.957911 
L 215.739436 313.957911 
z
" clip-path="url(#pb8b69aa851)" style="fill: #1f77b4"/>
   </g>
   <g id="patch_16">
    <path d="M 227.987154 349.923862 
L 237.785329 349.923862 
L 237.785329 314.461891 
L 227.987154 314.461891 
z
" clip-path="url(#pb8b69aa851)" style="fill: #1f77b4"/>
   </g>
   <g id="patch_17">
    <path d="M 240.234872 349.923862 
L 250.033047 349.923862 
L 250.033047 314.932979 
L 240.234872 314.932979 
z
" clip-path="url(#pb8b69aa851)" style="fill: #1f77b4"/>
   </g>
   <g id="patch_18">
    <path d="M 252.48259 349.923862 
L 262.280765 349.923862 
L 262.280765 319.775319 
L 252.48259 319.775319 
z
" clip-path="url(#pb8b69aa851)" style="fill: #1f77b4"/>
   </g>
   <g id="patch_19">
    <path d="M 264.730309 349.923862 
L 274.528483 349.923862 
L 274.528483 322.10655 
L 264.730309 322.10655 
z
" clip-path="url(#pb8b69aa851)" style="fill: #1f77b4"/>
   </g>
   <g id="patch_20">
    <path d="M 276.978027 349.923862 
L 286.776201 349.923862 
L 286.776201 324.412044 
L 276.978027 324.412044 
z
" clip-path="url(#pb8b69aa851)" style="fill: #1f77b4"/>
   </g>
   <g id="patch_21">
    <path d="M 289.225745 349.923862 
L 299.023919 349.923862 
L 299.023919 328.291786 
L 289.225745 328.291786 
z
" clip-path="url(#pb8b69aa851)" style="fill: #1f77b4"/>
   </g>
   <g id="patch_22">
    <path d="M 301.473463 349.923862 
L 311.271637 349.923862 
L 311.271637 329.508093 
L 301.473463 329.508093 
z
" clip-path="url(#pb8b69aa851)" style="fill: #1f77b4"/>
   </g>
   <g id="patch_23">
    <path d="M 313.721181 349.923862 
L 323.519356 349.923862 
L 323.519356 333.323144 
L 313.721181 333.323144 
z
" clip-path="url(#pb8b69aa851)" style="fill: #1f77b4"/>
   </g>
   <g id="patch_24">
    <path d="M 325.968899 349.923862 
L 335.767074 349.923862 
L 335.767074 334.355021 
L 325.968899 334.355021 
z
" clip-path="url(#pb8b69aa851)" style="fill: #1f77b4"/>
   </g>
   <g id="patch_25">
    <path d="M 338.216617 349.923862 
L 348.014792 349.923862 
L 348.014792 336.013108 
L 338.216617 336.013108 
z
" clip-path="url(#pb8b69aa851)" style="fill: #1f77b4"/>
   </g>
   <g id="patch_26">
    <path d="M 350.464336 349.923862 
L 360.26251 349.923862 
L 360.26251 336.236957 
L 350.464336 336.236957 
z
" clip-path="url(#pb8b69aa851)" style="fill: #1f77b4"/>
   </g>
   <g id="patch_27">
    <path d="M 362.712054 349.923862 
L 372.510228 349.923862 
L 372.510228 336.440707 
L 362.712054 336.440707 
z
" clip-path="url(#pb8b69aa851)" style="fill: #1f77b4"/>
   </g>
   <g id="patch_28">
    <path d="M 374.959772 349.923862 
L 384.757946 349.923862 
L 384.757946 337.355854 
L 374.959772 337.355854 
z
" clip-path="url(#pb8b69aa851)" style="fill: #1f77b4"/>
   </g>
   <g id="patch_29">
    <path d="M 387.20749 349.923862 
L 397.005664 349.923862 
L 397.005664 337.82336 
L 387.20749 337.82336 
z
" clip-path="url(#pb8b69aa851)" style="fill: #1f77b4"/>
   </g>
   <g id="patch_30">
    <path d="M 399.455208 349.923862 
L 409.253383 349.923862 
L 409.253383 338.414273 
L 399.455208 338.414273 
z
" clip-path="url(#pb8b69aa851)" style="fill: #1f77b4"/>
   </g>
   <g id="patch_31">
    <path d="M 411.702926 349.923862 
L 421.501101 349.923862 
L 421.501101 338.519589 
L 411.702926 338.519589 
z
" clip-path="url(#pb8b69aa851)" style="fill: #1f77b4"/>
   </g>
   <g id="patch_32">
    <path d="M 423.950644 349.923862 
L 433.748819 349.923862 
L 433.748819 338.748348 
L 423.950644 338.748348 
z
" clip-path="url(#pb8b69aa851)" style="fill: #1f77b4"/>
   </g>
   <g id="patch_33">
    <path d="M 436.198363 349.923862 
L 445.996537 349.923862 
L 445.996537 339.762129 
L 436.198363 339.762129 
z
" clip-path="url(#pb8b69aa851)" style="fill: #1f77b4"/>
   </g>
   <g id="patch_34">
    <path d="M 448.446081 349.923862 
L 458.244255 349.923862 
L 458.244255 339.783187 
L 448.446081 339.783187 
z
" clip-path="url(#pb8b69aa851)" style="fill: #1f77b4"/>
   </g>
   <g id="patch_35">
    <path d="M 460.693799 349.923862 
L 470.491973 349.923862 
L 470.491973 339.936173 
L 460.693799 339.936173 
z
" clip-path="url(#pb8b69aa851)" style="fill: #1f77b4"/>
   </g>
   <g id="patch_36">
    <path d="M 472.941517 349.923862 
L 482.739691 349.923862 
L 482.739691 339.958569 
L 472.941517 339.958569 
z
" clip-path="url(#pb8b69aa851)" style="fill: #1f77b4"/>
   </g>
   <g id="patch_37">
    <path d="M 485.189235 349.923862 
L 494.98741 349.923862 
L 494.98741 340.086954 
L 485.189235 340.086954 
z
" clip-path="url(#pb8b69aa851)" style="fill: #1f77b4"/>
   </g>
   <g id="patch_38">
    <path d="M 497.436953 349.923862 
L 507.235128 349.923862 
L 507.235128 340.142058 
L 497.436953 340.142058 
z
" clip-path="url(#pb8b69aa851)" style="fill: #1f77b4"/>
   </g>
   <g id="patch_39">
    <path d="M 509.684671 349.923862 
L 519.482846 349.923862 
L 519.482846 340.176 
L 509.684671 340.176 
z
" clip-path="url(#pb8b69aa851)" style="fill: #1f77b4"/>
   </g>
   <g id="patch_40">
    <path d="M 521.93239 349.923862 
L 531.730564 349.923862 
L 531.730564 340.758761 
L 521.93239 340.758761 
z
" clip-path="url(#pb8b69aa851)" style="fill: #1f77b4"/>
   </g>
   <g id="patch_41">
    <path d="M 534.180108 349.923862 
L 543.978282 349.923862 
L 543.978282 341.150448 
L 534.180108 341.150448 
z
" clip-path="url(#pb8b69aa851)" style="fill: #1f77b4"/>
   </g>
   <g id="patch_42">
    <path d="M 546.427826 349.923862 
L 556.226 349.923862 
L 556.226 341.338495 
L 546.427826 341.338495 
z
" clip-path="url(#pb8b69aa851)" style="fill: #1f77b4"/>
   </g>
   <g id="patch_43">
    <path d="M 558.675544 349.923862 
L 568.473719 349.923862 
L 568.473719 341.446315 
L 558.675544 341.446315 
z
" clip-path="url(#pb8b69aa851)" style="fill: #1f77b4"/>
   </g>
   <g id="patch_44">
    <path d="M 570.923262 349.923862 
L 580.721437 349.923862 
L 580.721437 341.524045 
L 570.923262 341.524045 
z
" clip-path="url(#pb8b69aa851)" style="fill: #1f77b4"/>
   </g>
   <g id="patch_45">
    <path d="M 583.17098 349.923862 
L 592.969155 349.923862 
L 592.969155 341.60998 
L 583.17098 341.60998 
z
" clip-path="url(#pb8b69aa851)" style="fill: #1f77b4"/>
   </g>
   <g id="patch_46">
    <path d="M 595.418698 349.923862 
L 605.216873 349.923862 
L 605.216873 341.857672 
L 595.418698 341.857672 
z
" clip-path="url(#pb8b69aa851)" style="fill: #1f77b4"/>
   </g>
   <g id="patch_47">
    <path d="M 607.666417 349.923862 
L 617.464591 349.923862 
L 617.464591 341.985707 
L 607.666417 341.985707 
z
" clip-path="url(#pb8b69aa851)" style="fill: #1f77b4"/>
   </g>
   <g id="patch_48">
    <path d="M 619.914135 349.923862 
L 629.712309 349.923862 
L 629.712309 342.148562 
L 619.914135 342.148562 
z
" clip-path="url(#pb8b69aa851)" style="fill: #1f77b4"/>
   </g>
   <g id="patch_49">
    <path d="M 632.161853 349.923862 
L 641.960027 349.923862 
L 641.960027 342.216778 
L 632.161853 342.216778 
z
" clip-path="url(#pb8b69aa851)" style="fill: #1f77b4"/>
   </g>
   <g id="patch_50">
    <path d="M 644.409571 349.923862 
L 654.207746 349.923862 
L 654.207746 342.763926 
L 644.409571 342.763926 
z
" clip-path="url(#pb8b69aa851)" style="fill: #1f77b4"/>
   </g>
   <g id="patch_51">
    <path d="M 656.657289 349.923862 
L 666.455464 349.923862 
L 666.455464 342.93119 
L 656.657289 342.93119 
z
" clip-path="url(#pb8b69aa851)" style="fill: #1f77b4"/>
   </g>
   <g id="patch_52">
    <path d="M 668.905007 349.923862 
L 678.703182 349.923862 
L 678.703182 342.974284 
L 668.905007 342.974284 
z
" clip-path="url(#pb8b69aa851)" style="fill: #1f77b4"/>
   </g>
   <g id="matplotlib.axis_1">
    <g id="xtick_1">
     <g id="line2d_1">
      <defs>
       <path id="m3ee7724c85" d="M 0 0 
L 0 3.5 
" style="stroke: #000000; stroke-width: 0.8"/>
      </defs>
      <g>
       <use xlink:href="#m3ee7724c85" x="73.665905" y="349.923862" style="stroke: #000000; stroke-width: 0.8"/>
      </g>
     </g>
     <g id="text_1">
      <!-- de -->
      <g transform="translate(66.383742 370.134595) rotate(-60) scale(0.1 -0.1)">
       <defs>
        <path id="ArialMT-64" d="M 2575 0 
L 2575 419 
Q 2259 -75 1647 -75 
Q 1250 -75 917 144 
Q 584 363 401 755 
Q 219 1147 219 1656 
Q 219 2153 384 2558 
Q 550 2963 881 3178 
Q 1213 3394 1622 3394 
Q 1922 3394 2156 3267 
Q 2391 3141 2538 2938 
L 2538 4581 
L 3097 4581 
L 3097 0 
L 2575 0 
z
M 797 1656 
Q 797 1019 1065 703 
Q 1334 388 1700 388 
Q 2069 388 2326 689 
Q 2584 991 2584 1609 
Q 2584 2291 2321 2609 
Q 2059 2928 1675 2928 
Q 1300 2928 1048 2622 
Q 797 2316 797 1656 
z
" transform="scale(0.015625)"/>
        <path id="ArialMT-65" d="M 2694 1069 
L 3275 997 
Q 3138 488 2766 206 
Q 2394 -75 1816 -75 
Q 1088 -75 661 373 
Q 234 822 234 1631 
Q 234 2469 665 2931 
Q 1097 3394 1784 3394 
Q 2450 3394 2872 2941 
Q 3294 2488 3294 1666 
Q 3294 1616 3291 1516 
L 816 1516 
Q 847 969 1125 678 
Q 1403 388 1819 388 
Q 2128 388 2347 550 
Q 2566 713 2694 1069 
z
M 847 1978 
L 2700 1978 
Q 2663 2397 2488 2606 
Q 2219 2931 1791 2931 
Q 1403 2931 1139 2672 
Q 875 2413 847 1978 
z
" transform="scale(0.015625)"/>
       </defs>
       <use xlink:href="#ArialMT-64"/>
       <use xlink:href="#ArialMT-65" transform="translate(55.615234 0)"/>
      </g>
     </g>
    </g>
    <g id="xtick_2">
     <g id="line2d_2">
      <g>
       <use xlink:href="#m3ee7724c85" x="85.913624" y="349.923862" style="stroke: #000000; stroke-width: 0.8"/>
      </g>
     </g>
     <g id="text_2">
      <!-- la -->
      <g transform="translate(80.300992 367.242882) rotate(-60) scale(0.1 -0.1)">
       <defs>
        <path id="ArialMT-6c" d="M 409 0 
L 409 4581 
L 972 4581 
L 972 0 
L 409 0 
z
" transform="scale(0.015625)"/>
        <path id="ArialMT-61" d="M 2588 409 
Q 2275 144 1986 34 
Q 1697 -75 1366 -75 
Q 819 -75 525 192 
Q 231 459 231 875 
Q 231 1119 342 1320 
Q 453 1522 633 1644 
Q 813 1766 1038 1828 
Q 1203 1872 1538 1913 
Q 2219 1994 2541 2106 
Q 2544 2222 2544 2253 
Q 2544 2597 2384 2738 
Q 2169 2928 1744 2928 
Q 1347 2928 1158 2789 
Q 969 2650 878 2297 
L 328 2372 
Q 403 2725 575 2942 
Q 747 3159 1072 3276 
Q 1397 3394 1825 3394 
Q 2250 3394 2515 3294 
Q 2781 3194 2906 3042 
Q 3031 2891 3081 2659 
Q 3109 2516 3109 2141 
L 3109 1391 
Q 3109 606 3145 398 
Q 3181 191 3288 0 
L 2700 0 
Q 2613 175 2588 409 
z
M 2541 1666 
Q 2234 1541 1622 1453 
Q 1275 1403 1131 1340 
Q 988 1278 909 1158 
Q 831 1038 831 891 
Q 831 666 1001 516 
Q 1172 366 1500 366 
Q 1825 366 2078 508 
Q 2331 650 2450 897 
Q 2541 1088 2541 1459 
L 2541 1666 
z
" transform="scale(0.015625)"/>
       </defs>
       <use xlink:href="#ArialMT-6c"/>
       <use xlink:href="#ArialMT-61" transform="translate(22.216797 0)"/>
      </g>
     </g>
    </g>
    <g id="xtick_3">
     <g id="line2d_3">
      <g>
       <use xlink:href="#m3ee7724c85" x="98.161342" y="349.923862" style="stroke: #000000; stroke-width: 0.8"/>
      </g>
     </g>
     <g id="text_3">
      <!-- et -->
      <g transform="translate(92.270585 367.724609) rotate(-60) scale(0.1 -0.1)">
       <defs>
        <path id="ArialMT-74" d="M 1650 503 
L 1731 6 
Q 1494 -44 1306 -44 
Q 1000 -44 831 53 
Q 663 150 594 308 
Q 525 466 525 972 
L 525 2881 
L 113 2881 
L 113 3319 
L 525 3319 
L 525 4141 
L 1084 4478 
L 1084 3319 
L 1650 3319 
L 1650 2881 
L 1084 2881 
L 1084 941 
Q 1084 700 1114 631 
Q 1144 563 1211 522 
Q 1278 481 1403 481 
Q 1497 481 1650 503 
z
" transform="scale(0.015625)"/>
       </defs>
       <use xlink:href="#ArialMT-65"/>
       <use xlink:href="#ArialMT-74" transform="translate(55.615234 0)"/>
      </g>
     </g>
    </g>
    <g id="xtick_4">
     <g id="line2d_4">
      <g>
       <use xlink:href="#m3ee7724c85" x="110.40906" y="349.923862" style="stroke: #000000; stroke-width: 0.8"/>
      </g>
     </g>
     <g id="text_4">
      <!-- des -->
      <g transform="translate(100.626897 374.464722) rotate(-60) scale(0.1 -0.1)">
       <defs>
        <path id="ArialMT-73" d="M 197 991 
L 753 1078 
Q 800 744 1014 566 
Q 1228 388 1613 388 
Q 2000 388 2187 545 
Q 2375 703 2375 916 
Q 2375 1106 2209 1216 
Q 2094 1291 1634 1406 
Q 1016 1563 777 1677 
Q 538 1791 414 1992 
Q 291 2194 291 2438 
Q 291 2659 392 2848 
Q 494 3038 669 3163 
Q 800 3259 1026 3326 
Q 1253 3394 1513 3394 
Q 1903 3394 2198 3281 
Q 2494 3169 2634 2976 
Q 2775 2784 2828 2463 
L 2278 2388 
Q 2241 2644 2061 2787 
Q 1881 2931 1553 2931 
Q 1166 2931 1000 2803 
Q 834 2675 834 2503 
Q 834 2394 903 2306 
Q 972 2216 1119 2156 
Q 1203 2125 1616 2013 
Q 2213 1853 2448 1751 
Q 2684 1650 2818 1456 
Q 2953 1263 2953 975 
Q 2953 694 2789 445 
Q 2625 197 2315 61 
Q 2006 -75 1616 -75 
Q 969 -75 630 194 
Q 291 463 197 991 
z
" transform="scale(0.015625)"/>
       </defs>
       <use xlink:href="#ArialMT-64"/>
       <use xlink:href="#ArialMT-65" transform="translate(55.615234 0)"/>
       <use xlink:href="#ArialMT-73" transform="translate(111.230469 0)"/>
      </g>
     </g>
    </g>
    <g id="xtick_5">
     <g id="line2d_5">
      <g>
       <use xlink:href="#m3ee7724c85" x="122.656778" y="349.923862" style="stroke: #000000; stroke-width: 0.8"/>
      </g>
     </g>
     <g id="text_5">
      <!-- les -->
      <g transform="translate(114.544146 371.573009) rotate(-60) scale(0.1 -0.1)">
       <use xlink:href="#ArialMT-6c"/>
       <use xlink:href="#ArialMT-65" transform="translate(22.216797 0)"/>
       <use xlink:href="#ArialMT-73" transform="translate(77.832031 0)"/>
      </g>
     </g>
    </g>
    <g id="xtick_6">
     <g id="line2d_6">
      <g>
       <use xlink:href="#m3ee7724c85" x="134.904496" y="349.923862" style="stroke: #000000; stroke-width: 0.8"/>
      </g>
     </g>
     <g id="text_6">
      <!-- à -->
      <g transform="translate(130.402802 365.318682) rotate(-60) scale(0.1 -0.1)">
       <defs>
        <path id="ArialMT-e0" d="M 2588 409 
Q 2275 144 1986 34 
Q 1697 -75 1366 -75 
Q 819 -75 525 192 
Q 231 459 231 875 
Q 231 1119 342 1320 
Q 453 1522 633 1644 
Q 813 1766 1038 1828 
Q 1203 1872 1538 1913 
Q 2219 1994 2541 2106 
Q 2544 2222 2544 2253 
Q 2544 2597 2384 2738 
Q 2169 2928 1744 2928 
Q 1347 2928 1158 2789 
Q 969 2650 878 2297 
L 328 2372 
Q 403 2725 575 2942 
Q 747 3159 1072 3276 
Q 1397 3394 1825 3394 
Q 2250 3394 2515 3294 
Q 2781 3194 2906 3042 
Q 3031 2891 3081 2659 
Q 3109 2516 3109 2141 
L 3109 1391 
Q 3109 606 3145 398 
Q 3181 191 3288 0 
L 2700 0 
Q 2613 175 2588 409 
z
M 2541 1666 
Q 2234 1541 1622 1453 
Q 1275 1403 1131 1340 
Q 988 1278 909 1158 
Q 831 1038 831 891 
Q 831 666 1001 516 
Q 1172 366 1500 366 
Q 1825 366 2078 508 
Q 2331 650 2450 897 
Q 2541 1088 2541 1459 
L 2541 1666 
z
M 2237 3731 
L 1784 3731 
L 1062 4606 
L 1815 4606 
L 2237 3731 
z
" transform="scale(0.015625)"/>
       </defs>
       <use xlink:href="#ArialMT-e0"/>
      </g>
     </g>
    </g>
    <g id="xtick_7">
     <g id="line2d_7">
      <g>
       <use xlink:href="#m3ee7724c85" x="147.152214" y="349.923862" style="stroke: #000000; stroke-width: 0.8"/>
      </g>
     </g>
     <g id="text_7">
      <!-- le -->
      <g transform="translate(141.539583 367.242882) rotate(-60) scale(0.1 -0.1)">
       <use xlink:href="#ArialMT-6c"/>
       <use xlink:href="#ArialMT-65" transform="translate(22.216797 0)"/>
      </g>
     </g>
    </g>
    <g id="xtick_8">
     <g id="line2d_8">
      <g>
       <use xlink:href="#m3ee7724c85" x="159.399932" y="349.923862" style="stroke: #000000; stroke-width: 0.8"/>
      </g>
     </g>
     <g id="text_8">
      <!-- du -->
      <g transform="translate(152.117769 370.134595) rotate(-60) scale(0.1 -0.1)">
       <defs>
        <path id="ArialMT-75" d="M 2597 0 
L 2597 488 
Q 2209 -75 1544 -75 
Q 1250 -75 995 37 
Q 741 150 617 320 
Q 494 491 444 738 
Q 409 903 409 1263 
L 409 3319 
L 972 3319 
L 972 1478 
Q 972 1038 1006 884 
Q 1059 663 1231 536 
Q 1403 409 1656 409 
Q 1909 409 2131 539 
Q 2353 669 2445 892 
Q 2538 1116 2538 1541 
L 2538 3319 
L 3100 3319 
L 3100 0 
L 2597 0 
z
" transform="scale(0.015625)"/>
       </defs>
       <use xlink:href="#ArialMT-64"/>
       <use xlink:href="#ArialMT-75" transform="translate(55.615234 0)"/>
      </g>
     </g>
    </g>
    <g id="xtick_9">
     <g id="line2d_9">
      <g>
       <use xlink:href="#m3ee7724c85" x="171.647651" y="349.923862" style="stroke: #000000; stroke-width: 0.8"/>
      </g>
     </g>
     <g id="text_9">
      <!-- en -->
      <g transform="translate(164.365488 370.134595) rotate(-60) scale(0.1 -0.1)">
       <defs>
        <path id="ArialMT-6e" d="M 422 0 
L 422 3319 
L 928 3319 
L 928 2847 
Q 1294 3394 1984 3394 
Q 2284 3394 2536 3286 
Q 2788 3178 2913 3003 
Q 3038 2828 3088 2588 
Q 3119 2431 3119 2041 
L 3119 0 
L 2556 0 
L 2556 2019 
Q 2556 2363 2490 2533 
Q 2425 2703 2258 2804 
Q 2091 2906 1866 2906 
Q 1506 2906 1245 2678 
Q 984 2450 984 1813 
L 984 0 
L 422 0 
z
" transform="scale(0.015625)"/>
       </defs>
       <use xlink:href="#ArialMT-65"/>
       <use xlink:href="#ArialMT-6e" transform="translate(55.615234 0)"/>
      </g>
     </g>
    </g>
    <g id="xtick_10">
     <g id="line2d_10">
      <g>
       <use xlink:href="#m3ee7724c85" x="183.895369" y="349.923862" style="stroke: #000000; stroke-width: 0.8"/>
      </g>
     </g>
     <g id="text_10">
      <!-- pour -->
      <g transform="translate(172.167893 377.834102) rotate(-60) scale(0.1 -0.1)">
       <defs>
        <path id="ArialMT-70" d="M 422 -1272 
L 422 3319 
L 934 3319 
L 934 2888 
Q 1116 3141 1344 3267 
Q 1572 3394 1897 3394 
Q 2322 3394 2647 3175 
Q 2972 2956 3137 2557 
Q 3303 2159 3303 1684 
Q 3303 1175 3120 767 
Q 2938 359 2589 142 
Q 2241 -75 1856 -75 
Q 1575 -75 1351 44 
Q 1128 163 984 344 
L 984 -1272 
L 422 -1272 
z
M 931 1641 
Q 931 1000 1190 694 
Q 1450 388 1819 388 
Q 2194 388 2461 705 
Q 2728 1022 2728 1688 
Q 2728 2322 2467 2637 
Q 2206 2953 1844 2953 
Q 1484 2953 1207 2617 
Q 931 2281 931 1641 
z
" transform="scale(0.015625)"/>
        <path id="ArialMT-6f" d="M 213 1659 
Q 213 2581 725 3025 
Q 1153 3394 1769 3394 
Q 2453 3394 2887 2945 
Q 3322 2497 3322 1706 
Q 3322 1066 3130 698 
Q 2938 331 2570 128 
Q 2203 -75 1769 -75 
Q 1072 -75 642 372 
Q 213 819 213 1659 
z
M 791 1659 
Q 791 1022 1069 705 
Q 1347 388 1769 388 
Q 2188 388 2466 706 
Q 2744 1025 2744 1678 
Q 2744 2294 2464 2611 
Q 2184 2928 1769 2928 
Q 1347 2928 1069 2612 
Q 791 2297 791 1659 
z
" transform="scale(0.015625)"/>
        <path id="ArialMT-72" d="M 416 0 
L 416 3319 
L 922 3319 
L 922 2816 
Q 1116 3169 1280 3281 
Q 1444 3394 1641 3394 
Q 1925 3394 2219 3213 
L 2025 2691 
Q 1819 2813 1613 2813 
Q 1428 2813 1281 2702 
Q 1134 2591 1072 2394 
Q 978 2094 978 1738 
L 978 0 
L 416 0 
z
" transform="scale(0.015625)"/>
       </defs>
       <use xlink:href="#ArialMT-70"/>
       <use xlink:href="#ArialMT-6f" transform="translate(55.615234 0)"/>
       <use xlink:href="#ArialMT-75" transform="translate(111.230469 0)"/>
       <use xlink:href="#ArialMT-72" transform="translate(166.845703 0)"/>
      </g>
     </g>
    </g>
    <g id="xtick_11">
     <g id="line2d_11">
      <g>
       <use xlink:href="#m3ee7724c85" x="196.143087" y="349.923862" style="stroke: #000000; stroke-width: 0.8"/>
      </g>
     </g>
     <g id="text_11">
      <!-- dans -->
      <g transform="translate(183.580455 379.280635) rotate(-60) scale(0.1 -0.1)">
       <use xlink:href="#ArialMT-64"/>
       <use xlink:href="#ArialMT-61" transform="translate(55.615234 0)"/>
       <use xlink:href="#ArialMT-6e" transform="translate(111.230469 0)"/>
       <use xlink:href="#ArialMT-73" transform="translate(166.845703 0)"/>
      </g>
     </g>
    </g>
    <g id="xtick_12">
     <g id="line2d_12">
      <g>
       <use xlink:href="#m3ee7724c85" x="208.390805" y="349.923862" style="stroke: #000000; stroke-width: 0.8"/>
      </g>
     </g>
     <g id="text_12">
      <!-- que -->
      <g transform="translate(198.328173 374.950508) rotate(-60) scale(0.1 -0.1)">
       <defs>
        <path id="ArialMT-71" d="M 2538 -1272 
L 2538 353 
Q 2406 169 2170 47 
Q 1934 -75 1669 -75 
Q 1078 -75 651 397 
Q 225 869 225 1691 
Q 225 2191 398 2587 
Q 572 2984 901 3189 
Q 1231 3394 1625 3394 
Q 2241 3394 2594 2875 
L 2594 3319 
L 3100 3319 
L 3100 -1272 
L 2538 -1272 
z
M 803 1669 
Q 803 1028 1072 708 
Q 1341 388 1716 388 
Q 2075 388 2334 692 
Q 2594 997 2594 1619 
Q 2594 2281 2320 2615 
Q 2047 2950 1678 2950 
Q 1313 2950 1058 2639 
Q 803 2328 803 1669 
z
" transform="scale(0.015625)"/>
       </defs>
       <use xlink:href="#ArialMT-71"/>
       <use xlink:href="#ArialMT-75" transform="translate(55.615234 0)"/>
       <use xlink:href="#ArialMT-65" transform="translate(111.230469 0)"/>
      </g>
     </g>
    </g>
    <g id="xtick_13">
     <g id="line2d_13">
      <g>
       <use xlink:href="#m3ee7724c85" x="220.638523" y="349.923862" style="stroke: #000000; stroke-width: 0.8"/>
      </g>
     </g>
     <g id="text_13">
      <!-- sur -->
      <g transform="translate(211.971985 372.532403) rotate(-60) scale(0.1 -0.1)">
       <use xlink:href="#ArialMT-73"/>
       <use xlink:href="#ArialMT-75" transform="translate(50 0)"/>
       <use xlink:href="#ArialMT-72" transform="translate(105.615234 0)"/>
      </g>
     </g>
    </g>
    <g id="xtick_14">
     <g id="line2d_14">
      <g>
       <use xlink:href="#m3ee7724c85" x="232.886241" y="349.923862" style="stroke: #000000; stroke-width: 0.8"/>
      </g>
     </g>
     <g id="text_14">
      <!-- a -->
      <g transform="translate(228.384547 365.318682) rotate(-60) scale(0.1 -0.1)">
       <use xlink:href="#ArialMT-61"/>
      </g>
     </g>
    </g>
    <g id="xtick_15">
     <g id="line2d_15">
      <g>
       <use xlink:href="#m3ee7724c85" x="245.133959" y="349.923862" style="stroke: #000000; stroke-width: 0.8"/>
      </g>
     </g>
     <g id="text_15">
      <!-- au -->
      <g transform="translate(237.851796 370.134595) rotate(-60) scale(0.1 -0.1)">
       <use xlink:href="#ArialMT-61"/>
       <use xlink:href="#ArialMT-75" transform="translate(55.615234 0)"/>
      </g>
     </g>
    </g>
    <g id="xtick_16">
     <g id="line2d_16">
      <g>
       <use xlink:href="#m3ee7724c85" x="257.381678" y="349.923862" style="stroke: #000000; stroke-width: 0.8"/>
      </g>
     </g>
     <g id="text_16">
      <!-- par -->
      <g transform="translate(248.434671 373.018189) rotate(-60) scale(0.1 -0.1)">
       <use xlink:href="#ArialMT-70"/>
       <use xlink:href="#ArialMT-61" transform="translate(55.615234 0)"/>
       <use xlink:href="#ArialMT-72" transform="translate(111.230469 0)"/>
      </g>
     </g>
    </g>
    <g id="xtick_17">
     <g id="line2d_17">
      <g>
       <use xlink:href="#m3ee7724c85" x="269.629396" y="349.923862" style="stroke: #000000; stroke-width: 0.8"/>
      </g>
     </g>
     <g id="text_17">
      <!-- aux -->
      <g transform="translate(259.847233 374.464722) rotate(-60) scale(0.1 -0.1)">
       <defs>
        <path id="ArialMT-78" d="M 47 0 
L 1259 1725 
L 138 3319 
L 841 3319 
L 1350 2541 
Q 1494 2319 1581 2169 
Q 1719 2375 1834 2534 
L 2394 3319 
L 3066 3319 
L 1919 1756 
L 3153 0 
L 2463 0 
L 1781 1031 
L 1600 1309 
L 728 0 
L 47 0 
z
" transform="scale(0.015625)"/>
       </defs>
       <use xlink:href="#ArialMT-61"/>
       <use xlink:href="#ArialMT-75" transform="translate(55.615234 0)"/>
       <use xlink:href="#ArialMT-78" transform="translate(111.230469 0)"/>
      </g>
     </g>
    </g>
    <g id="xtick_18">
     <g id="line2d_18">
      <g>
       <use xlink:href="#m3ee7724c85" x="281.877114" y="349.923862" style="stroke: #000000; stroke-width: 0.8"/>
      </g>
     </g>
     <g id="text_18">
      <!-- qui -->
      <g transform="translate(273.484013 372.058795) rotate(-60) scale(0.1 -0.1)">
       <defs>
        <path id="ArialMT-69" d="M 425 3934 
L 425 4581 
L 988 4581 
L 988 3934 
L 425 3934 
z
M 425 0 
L 425 3319 
L 988 3319 
L 988 0 
L 425 0 
z
" transform="scale(0.015625)"/>
       </defs>
       <use xlink:href="#ArialMT-71"/>
       <use xlink:href="#ArialMT-75" transform="translate(55.615234 0)"/>
       <use xlink:href="#ArialMT-69" transform="translate(111.230469 0)"/>
      </g>
     </g>
    </g>
    <g id="xtick_19">
     <g id="line2d_19">
      <g>
       <use xlink:href="#m3ee7724c85" x="294.124832" y="349.923862" style="stroke: #000000; stroke-width: 0.8"/>
      </g>
     </g>
     <g id="text_19">
      <!-- un -->
      <g transform="translate(286.842669 370.134595) rotate(-60) scale(0.1 -0.1)">
       <use xlink:href="#ArialMT-75"/>
       <use xlink:href="#ArialMT-6e" transform="translate(55.615234 0)"/>
      </g>
     </g>
    </g>
    <g id="xtick_20">
     <g id="line2d_20">
      <g>
       <use xlink:href="#m3ee7724c85" x="306.37255" y="349.923862" style="stroke: #000000; stroke-width: 0.8"/>
      </g>
     </g>
     <g id="text_20">
      <!-- une -->
      <g transform="translate(296.309918 374.950508) rotate(-60) scale(0.1 -0.1)">
       <use xlink:href="#ArialMT-75"/>
       <use xlink:href="#ArialMT-6e" transform="translate(55.615234 0)"/>
       <use xlink:href="#ArialMT-65" transform="translate(111.230469 0)"/>
      </g>
     </g>
    </g>
    <g id="xtick_21">
     <g id="line2d_21">
      <g>
       <use xlink:href="#m3ee7724c85" x="318.620268" y="349.923862" style="stroke: #000000; stroke-width: 0.8"/>
      </g>
     </g>
     <g id="text_21">
      <!-- Le -->
      <g transform="translate(311.338105 370.134595) rotate(-60) scale(0.1 -0.1)">
       <defs>
        <path id="ArialMT-4c" d="M 469 0 
L 469 4581 
L 1075 4581 
L 1075 541 
L 3331 541 
L 3331 0 
L 469 0 
z
" transform="scale(0.015625)"/>
       </defs>
       <use xlink:href="#ArialMT-4c"/>
       <use xlink:href="#ArialMT-65" transform="translate(55.615234 0)"/>
      </g>
     </g>
    </g>
    <g id="xtick_22">
     <g id="line2d_22">
      <g>
       <use xlink:href="#m3ee7724c85" x="330.867986" y="349.923862" style="stroke: #000000; stroke-width: 0.8"/>
      </g>
     </g>
     <g id="text_22">
      <!-- est -->
      <g transform="translate(322.47723 372.054736) rotate(-60) scale(0.1 -0.1)">
       <use xlink:href="#ArialMT-65"/>
       <use xlink:href="#ArialMT-73" transform="translate(55.615234 0)"/>
       <use xlink:href="#ArialMT-74" transform="translate(105.615234 0)"/>
      </g>
     </g>
    </g>
    <g id="xtick_23">
     <g id="line2d_23">
      <g>
       <use xlink:href="#m3ee7724c85" x="343.115705" y="349.923862" style="stroke: #000000; stroke-width: 0.8"/>
      </g>
     </g>
     <g id="text_23">
      <!-- ou -->
      <g transform="translate(335.833542 370.134595) rotate(-60) scale(0.1 -0.1)">
       <use xlink:href="#ArialMT-6f"/>
       <use xlink:href="#ArialMT-75" transform="translate(55.615234 0)"/>
      </g>
     </g>
    </g>
    <g id="xtick_24">
     <g id="line2d_24">
      <g>
       <use xlink:href="#m3ee7724c85" x="355.363423" y="349.923862" style="stroke: #000000; stroke-width: 0.8"/>
      </g>
     </g>
     <g id="text_24">
      <!-- ont -->
      <g transform="translate(346.692197 372.540522) rotate(-60) scale(0.1 -0.1)">
       <use xlink:href="#ArialMT-6f"/>
       <use xlink:href="#ArialMT-6e" transform="translate(55.615234 0)"/>
       <use xlink:href="#ArialMT-74" transform="translate(111.230469 0)"/>
      </g>
     </g>
    </g>
    <g id="xtick_25">
     <g id="line2d_25">
      <g>
       <use xlink:href="#m3ee7724c85" x="367.611141" y="349.923862" style="stroke: #000000; stroke-width: 0.8"/>
      </g>
     </g>
     <g id="text_25">
      <!-- été -->
      <g transform="translate(358.939915 372.540522) rotate(-60) scale(0.1 -0.1)">
       <defs>
        <path id="ArialMT-e9" d="M 2694 1069 
L 3275 997 
Q 3138 488 2766 206 
Q 2394 -75 1816 -75 
Q 1088 -75 661 373 
Q 234 822 234 1631 
Q 234 2469 665 2931 
Q 1097 3394 1784 3394 
Q 2450 3394 2872 2941 
Q 3294 2488 3294 1666 
Q 3294 1616 3291 1516 
L 816 1516 
Q 847 969 1125 678 
Q 1403 388 1819 388 
Q 2128 388 2347 550 
Q 2566 713 2694 1069 
z
M 847 1978 
L 2700 1978 
Q 2663 2397 2488 2606 
Q 2219 2931 1791 2931 
Q 1403 2931 1139 2672 
Q 875 2413 847 1978 
z
M 1454 3731 
L 1869 4606 
L 2607 4606 
L 1919 3731 
L 1454 3731 
z
" transform="scale(0.015625)"/>
       </defs>
       <use xlink:href="#ArialMT-e9"/>
       <use xlink:href="#ArialMT-74" transform="translate(55.615234 0)"/>
       <use xlink:href="#ArialMT-e9" transform="translate(83.398438 0)"/>
      </g>
     </g>
    </g>
    <g id="xtick_26">
     <g id="line2d_26">
      <g>
       <use xlink:href="#m3ee7724c85" x="379.858859" y="349.923862" style="stroke: #000000; stroke-width: 0.8"/>
      </g>
     </g>
     <g id="text_26">
      <!-- Nations -->
      <g transform="translate(361.18529 389.865089) rotate(-60) scale(0.1 -0.1)">
       <defs>
        <path id="ArialMT-4e" d="M 488 0 
L 488 4581 
L 1109 4581 
L 3516 984 
L 3516 4581 
L 4097 4581 
L 4097 0 
L 3475 0 
L 1069 3600 
L 1069 0 
L 488 0 
z
" transform="scale(0.015625)"/>
       </defs>
       <use xlink:href="#ArialMT-4e"/>
       <use xlink:href="#ArialMT-61" transform="translate(72.216797 0)"/>
       <use xlink:href="#ArialMT-74" transform="translate(127.832031 0)"/>
       <use xlink:href="#ArialMT-69" transform="translate(155.615234 0)"/>
       <use xlink:href="#ArialMT-6f" transform="translate(177.832031 0)"/>
       <use xlink:href="#ArialMT-6e" transform="translate(233.447266 0)"/>
       <use xlink:href="#ArialMT-73" transform="translate(289.0625 0)"/>
      </g>
     </g>
    </g>
    <g id="xtick_27">
     <g id="line2d_27">
      <g>
       <use xlink:href="#m3ee7724c85" x="392.106577" y="349.923862" style="stroke: #000000; stroke-width: 0.8"/>
      </g>
     </g>
     <g id="text_27">
      <!-- ce -->
      <g transform="translate(385.104883 369.648809) rotate(-60) scale(0.1 -0.1)">
       <defs>
        <path id="ArialMT-63" d="M 2588 1216 
L 3141 1144 
Q 3050 572 2676 248 
Q 2303 -75 1759 -75 
Q 1078 -75 664 370 
Q 250 816 250 1647 
Q 250 2184 428 2587 
Q 606 2991 970 3192 
Q 1334 3394 1763 3394 
Q 2303 3394 2647 3120 
Q 2991 2847 3088 2344 
L 2541 2259 
Q 2463 2594 2264 2762 
Q 2066 2931 1784 2931 
Q 1359 2931 1093 2626 
Q 828 2322 828 1663 
Q 828 994 1084 691 
Q 1341 388 1753 388 
Q 2084 388 2306 591 
Q 2528 794 2588 1216 
z
" transform="scale(0.015625)"/>
       </defs>
       <use xlink:href="#ArialMT-63"/>
       <use xlink:href="#ArialMT-65" transform="translate(50 0)"/>
      </g>
     </g>
    </g>
    <g id="xtick_28">
     <g id="line2d_28">
      <g>
       <use xlink:href="#m3ee7724c85" x="404.354295" y="349.923862" style="stroke: #000000; stroke-width: 0.8"/>
      </g>
     </g>
     <g id="text_28">
      <!-- sont -->
      <g transform="translate(393.18307 376.870649) rotate(-60) scale(0.1 -0.1)">
       <use xlink:href="#ArialMT-73"/>
       <use xlink:href="#ArialMT-6f" transform="translate(50 0)"/>
       <use xlink:href="#ArialMT-6e" transform="translate(105.615234 0)"/>
       <use xlink:href="#ArialMT-74" transform="translate(161.230469 0)"/>
      </g>
     </g>
    </g>
    <g id="xtick_29">
     <g id="line2d_29">
      <g>
       <use xlink:href="#m3ee7724c85" x="416.602014" y="349.923862" style="stroke: #000000; stroke-width: 0.8"/>
      </g>
     </g>
     <g id="text_29">
      <!-- droits -->
      <g transform="translate(402.655007 381.678443) rotate(-60) scale(0.1 -0.1)">
       <use xlink:href="#ArialMT-64"/>
       <use xlink:href="#ArialMT-72" transform="translate(55.615234 0)"/>
       <use xlink:href="#ArialMT-6f" transform="translate(88.916016 0)"/>
       <use xlink:href="#ArialMT-69" transform="translate(144.53125 0)"/>
       <use xlink:href="#ArialMT-74" transform="translate(166.748047 0)"/>
       <use xlink:href="#ArialMT-73" transform="translate(194.53125 0)"/>
      </g>
     </g>
    </g>
    <g id="xtick_30">
     <g id="line2d_30">
      <g>
       <use xlink:href="#m3ee7724c85" x="428.849732" y="349.923862" style="stroke: #000000; stroke-width: 0.8"/>
      </g>
     </g>
     <g id="text_30">
      <!-- avec -->
      <g transform="translate(416.567569 378.794849) rotate(-60) scale(0.1 -0.1)">
       <defs>
        <path id="ArialMT-76" d="M 1344 0 
L 81 3319 
L 675 3319 
L 1388 1331 
Q 1503 1009 1600 663 
Q 1675 925 1809 1294 
L 2547 3319 
L 3125 3319 
L 1869 0 
L 1344 0 
z
" transform="scale(0.015625)"/>
       </defs>
       <use xlink:href="#ArialMT-61"/>
       <use xlink:href="#ArialMT-76" transform="translate(55.615234 0)"/>
       <use xlink:href="#ArialMT-65" transform="translate(105.615234 0)"/>
       <use xlink:href="#ArialMT-63" transform="translate(161.230469 0)"/>
      </g>
     </g>
    </g>
    <g id="xtick_31">
     <g id="line2d_31">
      <g>
       <use xlink:href="#m3ee7724c85" x="441.09745" y="349.923862" style="stroke: #000000; stroke-width: 0.8"/>
      </g>
     </g>
     <g id="text_31">
      <!-- pays -->
      <g transform="translate(428.713799 378.736255) rotate(-60) scale(0.1 -0.1)">
       <defs>
        <path id="ArialMT-79" d="M 397 -1278 
L 334 -750 
Q 519 -800 656 -800 
Q 844 -800 956 -737 
Q 1069 -675 1141 -563 
Q 1194 -478 1313 -144 
Q 1328 -97 1363 -6 
L 103 3319 
L 709 3319 
L 1400 1397 
Q 1534 1031 1641 628 
Q 1738 1016 1872 1384 
L 2581 3319 
L 3144 3319 
L 1881 -56 
Q 1678 -603 1566 -809 
Q 1416 -1088 1222 -1217 
Q 1028 -1347 759 -1347 
Q 597 -1347 397 -1278 
z
" transform="scale(0.015625)"/>
       </defs>
       <use xlink:href="#ArialMT-70"/>
       <use xlink:href="#ArialMT-61" transform="translate(55.615234 0)"/>
       <use xlink:href="#ArialMT-79" transform="translate(111.230469 0)"/>
       <use xlink:href="#ArialMT-73" transform="translate(161.230469 0)"/>
      </g>
     </g>
    </g>
    <g id="xtick_32">
     <g id="line2d_32">
      <g>
       <use xlink:href="#m3ee7724c85" x="453.345168" y="349.923862" style="stroke: #000000; stroke-width: 0.8"/>
      </g>
     </g>
     <g id="text_32">
      <!-- plus -->
      <g transform="translate(442.452067 376.388922) rotate(-60) scale(0.1 -0.1)">
       <use xlink:href="#ArialMT-70"/>
       <use xlink:href="#ArialMT-6c" transform="translate(55.615234 0)"/>
       <use xlink:href="#ArialMT-75" transform="translate(77.832031 0)"/>
       <use xlink:href="#ArialMT-73" transform="translate(133.447266 0)"/>
      </g>
     </g>
    </g>
    <g id="xtick_33">
     <g id="line2d_33">
      <g>
       <use xlink:href="#m3ee7724c85" x="465.592886" y="349.923862" style="stroke: #000000; stroke-width: 0.8"/>
      </g>
     </g>
     <g id="text_33">
      <!-- Les -->
      <g transform="translate(455.810723 374.464722) rotate(-60) scale(0.1 -0.1)">
       <use xlink:href="#ArialMT-4c"/>
       <use xlink:href="#ArialMT-65" transform="translate(55.615234 0)"/>
       <use xlink:href="#ArialMT-73" transform="translate(111.230469 0)"/>
      </g>
     </g>
    </g>
    <g id="xtick_34">
     <g id="line2d_34">
      <g>
       <use xlink:href="#m3ee7724c85" x="477.840604" y="349.923862" style="stroke: #000000; stroke-width: 0.8"/>
      </g>
     </g>
     <g id="text_34">
      <!-- pas -->
      <g transform="translate(468.058441 374.464722) rotate(-60) scale(0.1 -0.1)">
       <use xlink:href="#ArialMT-70"/>
       <use xlink:href="#ArialMT-61" transform="translate(55.615234 0)"/>
       <use xlink:href="#ArialMT-73" transform="translate(111.230469 0)"/>
      </g>
     </g>
    </g>
    <g id="xtick_35">
     <g id="line2d_35">
      <g>
       <use xlink:href="#m3ee7724c85" x="490.088322" y="349.923862" style="stroke: #000000; stroke-width: 0.8"/>
      </g>
     </g>
     <g id="text_35">
      <!-- La -->
      <g transform="translate(482.806159 370.134595) rotate(-60) scale(0.1 -0.1)">
       <use xlink:href="#ArialMT-4c"/>
       <use xlink:href="#ArialMT-61" transform="translate(55.615234 0)"/>
      </g>
     </g>
    </g>
    <g id="xtick_36">
     <g id="line2d_36">
      <g>
       <use xlink:href="#m3ee7724c85" x="502.336041" y="349.923862" style="stroke: #000000; stroke-width: 0.8"/>
      </g>
     </g>
     <g id="text_36">
      <!-- the -->
      <g transform="translate(493.664815 372.540522) rotate(-60) scale(0.1 -0.1)">
       <defs>
        <path id="ArialMT-68" d="M 422 0 
L 422 4581 
L 984 4581 
L 984 2938 
Q 1378 3394 1978 3394 
Q 2347 3394 2619 3248 
Q 2891 3103 3008 2847 
Q 3125 2591 3125 2103 
L 3125 0 
L 2563 0 
L 2563 2103 
Q 2563 2525 2380 2717 
Q 2197 2909 1863 2909 
Q 1613 2909 1392 2779 
Q 1172 2650 1078 2428 
Q 984 2206 984 1816 
L 984 0 
L 422 0 
z
" transform="scale(0.015625)"/>
       </defs>
       <use xlink:href="#ArialMT-74"/>
       <use xlink:href="#ArialMT-68" transform="translate(27.783203 0)"/>
       <use xlink:href="#ArialMT-65" transform="translate(83.398438 0)"/>
      </g>
     </g>
    </g>
    <g id="xtick_37">
     <g id="line2d_37">
      <g>
       <use xlink:href="#m3ee7724c85" x="514.583759" y="349.923862" style="stroke: #000000; stroke-width: 0.8"/>
      </g>
     </g>
     <g id="text_37">
      <!-- Unies -->
      <g transform="translate(500.079721 382.643249) rotate(-60) scale(0.1 -0.1)">
       <defs>
        <path id="ArialMT-55" d="M 3500 4581 
L 4106 4581 
L 4106 1934 
Q 4106 1244 3950 837 
Q 3794 431 3386 176 
Q 2978 -78 2316 -78 
Q 1672 -78 1262 144 
Q 853 366 678 786 
Q 503 1206 503 1934 
L 503 4581 
L 1109 4581 
L 1109 1938 
Q 1109 1341 1220 1058 
Q 1331 775 1601 622 
Q 1872 469 2263 469 
Q 2931 469 3215 772 
Q 3500 1075 3500 1938 
L 3500 4581 
z
" transform="scale(0.015625)"/>
       </defs>
       <use xlink:href="#ArialMT-55"/>
       <use xlink:href="#ArialMT-6e" transform="translate(72.216797 0)"/>
       <use xlink:href="#ArialMT-69" transform="translate(127.832031 0)"/>
       <use xlink:href="#ArialMT-65" transform="translate(150.048828 0)"/>
       <use xlink:href="#ArialMT-73" transform="translate(205.664062 0)"/>
      </g>
     </g>
    </g>
    <g id="xtick_38">
     <g id="line2d_38">
      <g>
       <use xlink:href="#m3ee7724c85" x="526.831477" y="349.923862" style="stroke: #000000; stroke-width: 0.8"/>
      </g>
     </g>
     <g id="text_38">
      <!-- développement -->
      <g transform="translate(490.921189 419.739493) rotate(-60) scale(0.1 -0.1)">
       <defs>
        <path id="ArialMT-6d" d="M 422 0 
L 422 3319 
L 925 3319 
L 925 2853 
Q 1081 3097 1340 3245 
Q 1600 3394 1931 3394 
Q 2300 3394 2536 3241 
Q 2772 3088 2869 2813 
Q 3263 3394 3894 3394 
Q 4388 3394 4653 3120 
Q 4919 2847 4919 2278 
L 4919 0 
L 4359 0 
L 4359 2091 
Q 4359 2428 4304 2576 
Q 4250 2725 4106 2815 
Q 3963 2906 3769 2906 
Q 3419 2906 3187 2673 
Q 2956 2441 2956 1928 
L 2956 0 
L 2394 0 
L 2394 2156 
Q 2394 2531 2256 2718 
Q 2119 2906 1806 2906 
Q 1569 2906 1367 2781 
Q 1166 2656 1075 2415 
Q 984 2175 984 1722 
L 984 0 
L 422 0 
z
" transform="scale(0.015625)"/>
       </defs>
       <use xlink:href="#ArialMT-64"/>
       <use xlink:href="#ArialMT-e9" transform="translate(55.615234 0)"/>
       <use xlink:href="#ArialMT-76" transform="translate(111.230469 0)"/>
       <use xlink:href="#ArialMT-65" transform="translate(161.230469 0)"/>
       <use xlink:href="#ArialMT-6c" transform="translate(216.845703 0)"/>
       <use xlink:href="#ArialMT-6f" transform="translate(239.0625 0)"/>
       <use xlink:href="#ArialMT-70" transform="translate(294.677734 0)"/>
       <use xlink:href="#ArialMT-70" transform="translate(350.292969 0)"/>
       <use xlink:href="#ArialMT-65" transform="translate(405.908203 0)"/>
       <use xlink:href="#ArialMT-6d" transform="translate(461.523438 0)"/>
       <use xlink:href="#ArialMT-65" transform="translate(544.824219 0)"/>
       <use xlink:href="#ArialMT-6e" transform="translate(600.439453 0)"/>
       <use xlink:href="#ArialMT-74" transform="translate(656.054688 0)"/>
      </g>
     </g>
    </g>
    <g id="xtick_39">
     <g id="line2d_39">
      <g>
       <use xlink:href="#m3ee7724c85" x="539.079195" y="349.923862" style="stroke: #000000; stroke-width: 0.8"/>
      </g>
     </g>
     <g id="text_39">
      <!-- Comité -->
      <g transform="translate(521.521251 387.93277) rotate(-60) scale(0.1 -0.1)">
       <defs>
        <path id="ArialMT-43" d="M 3763 1606 
L 4369 1453 
Q 4178 706 3683 314 
Q 3188 -78 2472 -78 
Q 1731 -78 1267 223 
Q 803 525 561 1097 
Q 319 1669 319 2325 
Q 319 3041 592 3573 
Q 866 4106 1370 4382 
Q 1875 4659 2481 4659 
Q 3169 4659 3637 4309 
Q 4106 3959 4291 3325 
L 3694 3184 
Q 3534 3684 3231 3912 
Q 2928 4141 2469 4141 
Q 1941 4141 1586 3887 
Q 1231 3634 1087 3207 
Q 944 2781 944 2328 
Q 944 1744 1114 1308 
Q 1284 872 1643 656 
Q 2003 441 2422 441 
Q 2931 441 3284 734 
Q 3638 1028 3763 1606 
z
" transform="scale(0.015625)"/>
       </defs>
       <use xlink:href="#ArialMT-43"/>
       <use xlink:href="#ArialMT-6f" transform="translate(72.216797 0)"/>
       <use xlink:href="#ArialMT-6d" transform="translate(127.832031 0)"/>
       <use xlink:href="#ArialMT-69" transform="translate(211.132812 0)"/>
       <use xlink:href="#ArialMT-74" transform="translate(233.349609 0)"/>
       <use xlink:href="#ArialMT-e9" transform="translate(261.132812 0)"/>
      </g>
     </g>
    </g>
    <g id="xtick_40">
     <g id="line2d_40">
      <g>
       <use xlink:href="#m3ee7724c85" x="551.326913" y="349.923862" style="stroke: #000000; stroke-width: 0.8"/>
      </g>
     </g>
     <g id="text_40">
      <!-- États -->
      <g transform="translate(538.211938 380.237323) rotate(-60) scale(0.1 -0.1)">
       <defs>
        <path id="ArialMT-c9" d="M 506 0 
L 506 4581 
L 3819 4581 
L 3819 4041 
L 1113 4041 
L 1113 2638 
L 3647 2638 
L 3647 2100 
L 1113 2100 
L 1113 541 
L 3925 541 
L 3925 0 
L 506 0 
z
M 1758 4883 
L 2173 5758 
L 2911 5758 
L 2223 4883 
L 1758 4883 
z
" transform="scale(0.015625)"/>
       </defs>
       <use xlink:href="#ArialMT-c9"/>
       <use xlink:href="#ArialMT-74" transform="translate(66.699219 0)"/>
       <use xlink:href="#ArialMT-61" transform="translate(94.482422 0)"/>
       <use xlink:href="#ArialMT-74" transform="translate(150.097656 0)"/>
       <use xlink:href="#ArialMT-73" transform="translate(177.880859 0)"/>
      </g>
     </g>
    </g>
    <g id="xtick_41">
     <g id="line2d_41">
      <g>
       <use xlink:href="#m3ee7724c85" x="563.574631" y="349.923862" style="stroke: #000000; stroke-width: 0.8"/>
      </g>
     </g>
     <g id="text_41">
      <!-- leur -->
      <g transform="translate(553.516687 374.942389) rotate(-60) scale(0.1 -0.1)">
       <use xlink:href="#ArialMT-6c"/>
       <use xlink:href="#ArialMT-65" transform="translate(22.216797 0)"/>
       <use xlink:href="#ArialMT-75" transform="translate(77.832031 0)"/>
       <use xlink:href="#ArialMT-72" transform="translate(133.447266 0)"/>
      </g>
     </g>
    </g>
    <g id="xtick_42">
     <g id="line2d_42">
      <g>
       <use xlink:href="#m3ee7724c85" x="575.822349" y="349.923862" style="stroke: #000000; stroke-width: 0.8"/>
      </g>
     </g>
     <g id="text_42">
      <!-- se -->
      <g transform="translate(568.820655 369.648809) rotate(-60) scale(0.1 -0.1)">
       <use xlink:href="#ArialMT-73"/>
       <use xlink:href="#ArialMT-65" transform="translate(50 0)"/>
      </g>
     </g>
    </g>
    <g id="xtick_43">
     <g id="line2d_43">
      <g>
       <use xlink:href="#m3ee7724c85" x="588.070068" y="349.923862" style="stroke: #000000; stroke-width: 0.8"/>
      </g>
     </g>
     <g id="text_43">
      <!-- sa -->
      <g transform="translate(581.068373 369.648809) rotate(-60) scale(0.1 -0.1)">
       <use xlink:href="#ArialMT-73"/>
       <use xlink:href="#ArialMT-61" transform="translate(50 0)"/>
      </g>
     </g>
    </g>
    <g id="xtick_44">
     <g id="line2d_44">
      <g>
       <use xlink:href="#m3ee7724c85" x="600.317786" y="349.923862" style="stroke: #000000; stroke-width: 0.8"/>
      </g>
     </g>
     <g id="text_44">
      <!-- Conseil -->
      <g transform="translate(581.922341 389.383363) rotate(-60) scale(0.1 -0.1)">
       <use xlink:href="#ArialMT-43"/>
       <use xlink:href="#ArialMT-6f" transform="translate(72.216797 0)"/>
       <use xlink:href="#ArialMT-6e" transform="translate(127.832031 0)"/>
       <use xlink:href="#ArialMT-73" transform="translate(183.447266 0)"/>
       <use xlink:href="#ArialMT-65" transform="translate(233.447266 0)"/>
       <use xlink:href="#ArialMT-69" transform="translate(289.0625 0)"/>
       <use xlink:href="#ArialMT-6c" transform="translate(311.279297 0)"/>
      </g>
     </g>
    </g>
    <g id="xtick_45">
     <g id="line2d_45">
      <g>
       <use xlink:href="#m3ee7724c85" x="612.565504" y="349.923862" style="stroke: #000000; stroke-width: 0.8"/>
      </g>
     </g>
     <g id="text_45">
      <!-- ne -->
      <g transform="translate(605.283341 370.134595) rotate(-60) scale(0.1 -0.1)">
       <use xlink:href="#ArialMT-6e"/>
       <use xlink:href="#ArialMT-65" transform="translate(55.615234 0)"/>
      </g>
     </g>
    </g>
    <g id="xtick_46">
     <g id="line2d_46">
      <g>
       <use xlink:href="#m3ee7724c85" x="624.813222" y="349.923862" style="stroke: #000000; stroke-width: 0.8"/>
      </g>
     </g>
     <g id="text_46">
      <!-- son -->
      <g transform="translate(615.031059 374.464722) rotate(-60) scale(0.1 -0.1)">
       <use xlink:href="#ArialMT-73"/>
       <use xlink:href="#ArialMT-6f" transform="translate(50 0)"/>
       <use xlink:href="#ArialMT-6e" transform="translate(105.615234 0)"/>
      </g>
     </g>
    </g>
    <g id="xtick_47">
     <g id="line2d_47">
      <g>
       <use xlink:href="#m3ee7724c85" x="637.06094" y="349.923862" style="stroke: #000000; stroke-width: 0.8"/>
      </g>
     </g>
     <g id="text_47">
      <!-- of -->
      <g transform="translate(631.170183 367.724609) rotate(-60) scale(0.1 -0.1)">
       <defs>
        <path id="ArialMT-66" d="M 556 0 
L 556 2881 
L 59 2881 
L 59 3319 
L 556 3319 
L 556 3672 
Q 556 4006 616 4169 
Q 697 4388 901 4523 
Q 1106 4659 1475 4659 
Q 1713 4659 2000 4603 
L 1916 4113 
Q 1741 4144 1584 4144 
Q 1328 4144 1222 4034 
Q 1116 3925 1116 3625 
L 1116 3319 
L 1763 3319 
L 1763 2881 
L 1116 2881 
L 1116 0 
L 556 0 
z
" transform="scale(0.015625)"/>
       </defs>
       <use xlink:href="#ArialMT-6f"/>
       <use xlink:href="#ArialMT-66" transform="translate(55.615234 0)"/>
      </g>
     </g>
    </g>
    <g id="xtick_48">
     <g id="line2d_48">
      <g>
       <use xlink:href="#m3ee7724c85" x="649.308658" y="349.923862" style="stroke: #000000; stroke-width: 0.8"/>
      </g>
     </g>
     <g id="text_48">
      <!-- ces -->
      <g transform="translate(639.806964 373.978936) rotate(-60) scale(0.1 -0.1)">
       <use xlink:href="#ArialMT-63"/>
       <use xlink:href="#ArialMT-65" transform="translate(50 0)"/>
       <use xlink:href="#ArialMT-73" transform="translate(105.615234 0)"/>
      </g>
     </g>
    </g>
    <g id="xtick_49">
     <g id="line2d_49">
      <g>
       <use xlink:href="#m3ee7724c85" x="661.556376" y="349.923862" style="stroke: #000000; stroke-width: 0.8"/>
      </g>
     </g>
     <g id="text_49">
      <!-- ses -->
      <g transform="translate(652.054682 373.978936) rotate(-60) scale(0.1 -0.1)">
       <use xlink:href="#ArialMT-73"/>
       <use xlink:href="#ArialMT-65" transform="translate(50 0)"/>
       <use xlink:href="#ArialMT-73" transform="translate(105.615234 0)"/>
      </g>
     </g>
    </g>
    <g id="xtick_50">
     <g id="line2d_50">
      <g>
       <use xlink:href="#m3ee7724c85" x="673.804095" y="349.923862" style="stroke: #000000; stroke-width: 0.8"/>
      </g>
     </g>
     <g id="text_50">
      <!-- être -->
      <g transform="translate(663.468025 375.424116) rotate(-60) scale(0.1 -0.1)">
       <defs>
        <path id="ArialMT-ea" d="M 2694 1069 
L 3275 997 
Q 3138 488 2766 206 
Q 2394 -75 1816 -75 
Q 1088 -75 661 373 
Q 234 822 234 1631 
Q 234 2469 665 2931 
Q 1097 3394 1784 3394 
Q 2450 3394 2872 2941 
Q 3294 2488 3294 1666 
Q 3294 1616 3291 1516 
L 816 1516 
Q 847 969 1125 678 
Q 1403 388 1819 388 
Q 2128 388 2347 550 
Q 2566 713 2694 1069 
z
M 847 1978 
L 2700 1978 
Q 2663 2397 2488 2606 
Q 2219 2931 1791 2931 
Q 1403 2931 1139 2672 
Q 875 2413 847 1978 
z
M 1771 4263 
L 1418 3731 
L 774 3731 
L 1449 4606 
L 2049 4606 
L 2752 3731 
L 2115 3731 
L 1771 4263 
z
" transform="scale(0.015625)"/>
       </defs>
       <use xlink:href="#ArialMT-ea"/>
       <use xlink:href="#ArialMT-74" transform="translate(55.615234 0)"/>
       <use xlink:href="#ArialMT-72" transform="translate(83.398438 0)"/>
       <use xlink:href="#ArialMT-65" transform="translate(116.699219 0)"/>
      </g>
     </g>
    </g>
   </g>
   <g id="matplotlib.axis_2">
    <g id="ytick_1">
     <g id="line2d_51">
      <defs>
       <path id="m250b6ec823" d="M 0 0 
L -3.5 0 
" style="stroke: #000000; stroke-width: 0.8"/>
      </defs>
      <g>
       <use xlink:href="#m250b6ec823" x="38.27" y="349.923862" style="stroke: #000000; stroke-width: 0.8"/>
      </g>
     </g>
     <g id="text_51">
      <!-- 0 -->
      <g transform="translate(24.9075 353.723081) scale(0.1 -0.1)">
       <defs>
        <path id="DejaVuSans-30" d="M 2034 4250 
Q 1547 4250 1301 3770 
Q 1056 3291 1056 2328 
Q 1056 1369 1301 889 
Q 1547 409 2034 409 
Q 2525 409 2770 889 
Q 3016 1369 3016 2328 
Q 3016 3291 2770 3770 
Q 2525 4250 2034 4250 
z
M 2034 4750 
Q 2819 4750 3233 4129 
Q 3647 3509 3647 2328 
Q 3647 1150 3233 529 
Q 2819 -91 2034 -91 
Q 1250 -91 836 529 
Q 422 1150 422 2328 
Q 422 3509 836 4129 
Q 1250 4750 2034 4750 
z
" transform="scale(0.015625)"/>
       </defs>
       <use xlink:href="#DejaVuSans-30"/>
      </g>
     </g>
    </g>
    <g id="ytick_2">
     <g id="line2d_52">
      <g>
       <use xlink:href="#m250b6ec823" x="38.27" y="292.511866" style="stroke: #000000; stroke-width: 0.8"/>
      </g>
     </g>
     <g id="text_52">
      <!-- 1 -->
      <g transform="translate(24.9075 296.311085) scale(0.1 -0.1)">
       <defs>
        <path id="DejaVuSans-31" d="M 794 531 
L 1825 531 
L 1825 4091 
L 703 3866 
L 703 4441 
L 1819 4666 
L 2450 4666 
L 2450 531 
L 3481 531 
L 3481 0 
L 794 0 
L 794 531 
z
" transform="scale(0.015625)"/>
       </defs>
       <use xlink:href="#DejaVuSans-31"/>
      </g>
     </g>
    </g>
    <g id="ytick_3">
     <g id="line2d_53">
      <g>
       <use xlink:href="#m250b6ec823" x="38.27" y="235.099871" style="stroke: #000000; stroke-width: 0.8"/>
      </g>
     </g>
     <g id="text_53">
      <!-- 2 -->
      <g transform="translate(24.9075 238.899089) scale(0.1 -0.1)">
       <defs>
        <path id="DejaVuSans-32" d="M 1228 531 
L 3431 531 
L 3431 0 
L 469 0 
L 469 531 
Q 828 903 1448 1529 
Q 2069 2156 2228 2338 
Q 2531 2678 2651 2914 
Q 2772 3150 2772 3378 
Q 2772 3750 2511 3984 
Q 2250 4219 1831 4219 
Q 1534 4219 1204 4116 
Q 875 4013 500 3803 
L 500 4441 
Q 881 4594 1212 4672 
Q 1544 4750 1819 4750 
Q 2544 4750 2975 4387 
Q 3406 4025 3406 3419 
Q 3406 3131 3298 2873 
Q 3191 2616 2906 2266 
Q 2828 2175 2409 1742 
Q 1991 1309 1228 531 
z
" transform="scale(0.015625)"/>
       </defs>
       <use xlink:href="#DejaVuSans-32"/>
      </g>
     </g>
    </g>
    <g id="ytick_4">
     <g id="line2d_54">
      <g>
       <use xlink:href="#m250b6ec823" x="38.27" y="177.687875" style="stroke: #000000; stroke-width: 0.8"/>
      </g>
     </g>
     <g id="text_54">
      <!-- 3 -->
      <g transform="translate(24.9075 181.487093) scale(0.1 -0.1)">
       <defs>
        <path id="DejaVuSans-33" d="M 2597 2516 
Q 3050 2419 3304 2112 
Q 3559 1806 3559 1356 
Q 3559 666 3084 287 
Q 2609 -91 1734 -91 
Q 1441 -91 1130 -33 
Q 819 25 488 141 
L 488 750 
Q 750 597 1062 519 
Q 1375 441 1716 441 
Q 2309 441 2620 675 
Q 2931 909 2931 1356 
Q 2931 1769 2642 2001 
Q 2353 2234 1838 2234 
L 1294 2234 
L 1294 2753 
L 1863 2753 
Q 2328 2753 2575 2939 
Q 2822 3125 2822 3475 
Q 2822 3834 2567 4026 
Q 2313 4219 1838 4219 
Q 1578 4219 1281 4162 
Q 984 4106 628 3988 
L 628 4550 
Q 988 4650 1302 4700 
Q 1616 4750 1894 4750 
Q 2613 4750 3031 4423 
Q 3450 4097 3450 3541 
Q 3450 3153 3228 2886 
Q 3006 2619 2597 2516 
z
" transform="scale(0.015625)"/>
       </defs>
       <use xlink:href="#DejaVuSans-33"/>
      </g>
     </g>
    </g>
    <g id="ytick_5">
     <g id="line2d_55">
      <g>
       <use xlink:href="#m250b6ec823" x="38.27" y="120.275879" style="stroke: #000000; stroke-width: 0.8"/>
      </g>
     </g>
     <g id="text_55">
      <!-- 4 -->
      <g transform="translate(24.9075 124.075097) scale(0.1 -0.1)">
       <defs>
        <path id="DejaVuSans-34" d="M 2419 4116 
L 825 1625 
L 2419 1625 
L 2419 4116 
z
M 2253 4666 
L 3047 4666 
L 3047 1625 
L 3713 1625 
L 3713 1100 
L 3047 1100 
L 3047 0 
L 2419 0 
L 2419 1100 
L 313 1100 
L 313 1709 
L 2253 4666 
z
" transform="scale(0.015625)"/>
       </defs>
       <use xlink:href="#DejaVuSans-34"/>
      </g>
     </g>
    </g>
    <g id="ytick_6">
     <g id="line2d_56">
      <g>
       <use xlink:href="#m250b6ec823" x="38.27" y="62.863883" style="stroke: #000000; stroke-width: 0.8"/>
      </g>
     </g>
     <g id="text_56">
      <!-- 5 -->
      <g transform="translate(24.9075 66.663102) scale(0.1 -0.1)">
       <defs>
        <path id="DejaVuSans-35" d="M 691 4666 
L 3169 4666 
L 3169 4134 
L 1269 4134 
L 1269 2991 
Q 1406 3038 1543 3061 
Q 1681 3084 1819 3084 
Q 2600 3084 3056 2656 
Q 3513 2228 3513 1497 
Q 3513 744 3044 326 
Q 2575 -91 1722 -91 
Q 1428 -91 1123 -41 
Q 819 9 494 109 
L 494 744 
Q 775 591 1075 516 
Q 1375 441 1709 441 
Q 2250 441 2565 725 
Q 2881 1009 2881 1497 
Q 2881 1984 2565 2268 
Q 2250 2553 1709 2553 
Q 1456 2553 1204 2497 
Q 953 2441 691 2322 
L 691 4666 
z
" transform="scale(0.015625)"/>
       </defs>
       <use xlink:href="#DejaVuSans-35"/>
      </g>
     </g>
    </g>
    <g id="text_57">
     <!-- Frequency -->
     <g transform="translate(18.827813 214.951619) rotate(-90) scale(0.1 -0.1)">
      <defs>
       <path id="DejaVuSans-46" d="M 628 4666 
L 3309 4666 
L 3309 4134 
L 1259 4134 
L 1259 2759 
L 3109 2759 
L 3109 2228 
L 1259 2228 
L 1259 0 
L 628 0 
L 628 4666 
z
" transform="scale(0.015625)"/>
       <path id="DejaVuSans-72" d="M 2631 2963 
Q 2534 3019 2420 3045 
Q 2306 3072 2169 3072 
Q 1681 3072 1420 2755 
Q 1159 2438 1159 1844 
L 1159 0 
L 581 0 
L 581 3500 
L 1159 3500 
L 1159 2956 
Q 1341 3275 1631 3429 
Q 1922 3584 2338 3584 
Q 2397 3584 2469 3576 
Q 2541 3569 2628 3553 
L 2631 2963 
z
" transform="scale(0.015625)"/>
       <path id="DejaVuSans-65" d="M 3597 1894 
L 3597 1613 
L 953 1613 
Q 991 1019 1311 708 
Q 1631 397 2203 397 
Q 2534 397 2845 478 
Q 3156 559 3463 722 
L 3463 178 
Q 3153 47 2828 -22 
Q 2503 -91 2169 -91 
Q 1331 -91 842 396 
Q 353 884 353 1716 
Q 353 2575 817 3079 
Q 1281 3584 2069 3584 
Q 2775 3584 3186 3129 
Q 3597 2675 3597 1894 
z
M 3022 2063 
Q 3016 2534 2758 2815 
Q 2500 3097 2075 3097 
Q 1594 3097 1305 2825 
Q 1016 2553 972 2059 
L 3022 2063 
z
" transform="scale(0.015625)"/>
       <path id="DejaVuSans-71" d="M 947 1747 
Q 947 1113 1208 752 
Q 1469 391 1925 391 
Q 2381 391 2643 752 
Q 2906 1113 2906 1747 
Q 2906 2381 2643 2742 
Q 2381 3103 1925 3103 
Q 1469 3103 1208 2742 
Q 947 2381 947 1747 
z
M 2906 525 
Q 2725 213 2448 61 
Q 2172 -91 1784 -91 
Q 1150 -91 751 415 
Q 353 922 353 1747 
Q 353 2572 751 3078 
Q 1150 3584 1784 3584 
Q 2172 3584 2448 3432 
Q 2725 3281 2906 2969 
L 2906 3500 
L 3481 3500 
L 3481 -1331 
L 2906 -1331 
L 2906 525 
z
" transform="scale(0.015625)"/>
       <path id="DejaVuSans-75" d="M 544 1381 
L 544 3500 
L 1119 3500 
L 1119 1403 
Q 1119 906 1312 657 
Q 1506 409 1894 409 
Q 2359 409 2629 706 
Q 2900 1003 2900 1516 
L 2900 3500 
L 3475 3500 
L 3475 0 
L 2900 0 
L 2900 538 
Q 2691 219 2414 64 
Q 2138 -91 1772 -91 
Q 1169 -91 856 284 
Q 544 659 544 1381 
z
M 1991 3584 
L 1991 3584 
z
" transform="scale(0.015625)"/>
       <path id="DejaVuSans-6e" d="M 3513 2113 
L 3513 0 
L 2938 0 
L 2938 2094 
Q 2938 2591 2744 2837 
Q 2550 3084 2163 3084 
Q 1697 3084 1428 2787 
Q 1159 2491 1159 1978 
L 1159 0 
L 581 0 
L 581 3500 
L 1159 3500 
L 1159 2956 
Q 1366 3272 1645 3428 
Q 1925 3584 2291 3584 
Q 2894 3584 3203 3211 
Q 3513 2838 3513 2113 
z
" transform="scale(0.015625)"/>
       <path id="DejaVuSans-63" d="M 3122 3366 
L 3122 2828 
Q 2878 2963 2633 3030 
Q 2388 3097 2138 3097 
Q 1578 3097 1268 2742 
Q 959 2388 959 1747 
Q 959 1106 1268 751 
Q 1578 397 2138 397 
Q 2388 397 2633 464 
Q 2878 531 3122 666 
L 3122 134 
Q 2881 22 2623 -34 
Q 2366 -91 2075 -91 
Q 1284 -91 818 406 
Q 353 903 353 1747 
Q 353 2603 823 3093 
Q 1294 3584 2113 3584 
Q 2378 3584 2631 3529 
Q 2884 3475 3122 3366 
z
" transform="scale(0.015625)"/>
       <path id="DejaVuSans-79" d="M 2059 -325 
Q 1816 -950 1584 -1140 
Q 1353 -1331 966 -1331 
L 506 -1331 
L 506 -850 
L 844 -850 
Q 1081 -850 1212 -737 
Q 1344 -625 1503 -206 
L 1606 56 
L 191 3500 
L 800 3500 
L 1894 763 
L 2988 3500 
L 3597 3500 
L 2059 -325 
z
" transform="scale(0.015625)"/>
      </defs>
      <use xlink:href="#DejaVuSans-46"/>
      <use xlink:href="#DejaVuSans-72" transform="translate(50.269531 0)"/>
      <use xlink:href="#DejaVuSans-65" transform="translate(89.132812 0)"/>
      <use xlink:href="#DejaVuSans-71" transform="translate(150.65625 0)"/>
      <use xlink:href="#DejaVuSans-75" transform="translate(214.132812 0)"/>
      <use xlink:href="#DejaVuSans-65" transform="translate(277.511719 0)"/>
      <use xlink:href="#DejaVuSans-6e" transform="translate(339.035156 0)"/>
      <use xlink:href="#DejaVuSans-63" transform="translate(402.414062 0)"/>
      <use xlink:href="#DejaVuSans-79" transform="translate(457.394531 0)"/>
     </g>
    </g>
    <g id="text_58">
     <!-- 1e7 -->
     <g transform="translate(38.27 25.32) scale(0.1 -0.1)">
      <defs>
       <path id="DejaVuSans-37" d="M 525 4666 
L 3525 4666 
L 3525 4397 
L 1831 0 
L 1172 0 
L 2766 4134 
L 525 4134 
L 525 4666 
z
" transform="scale(0.015625)"/>
      </defs>
      <use xlink:href="#DejaVuSans-31"/>
      <use xlink:href="#DejaVuSans-65" transform="translate(63.623047 0)"/>
      <use xlink:href="#DejaVuSans-37" transform="translate(125.146484 0)"/>
     </g>
    </g>
   </g>
   <g id="patch_53">
    <path d="M 38.27 349.923862 
L 38.27 28.32 
" style="fill: none; stroke: #000000; stroke-width: 0.8; stroke-linejoin: miter; stroke-linecap: square"/>
   </g>
   <g id="patch_54">
    <path d="M 709.2 349.923862 
L 709.2 28.32 
" style="fill: none; stroke: #000000; stroke-width: 0.8; stroke-linejoin: miter; stroke-linecap: square"/>
   </g>
   <g id="patch_55">
    <path d="M 38.27 349.923862 
L 709.2 349.923862 
" style="fill: none; stroke: #000000; stroke-width: 0.8; stroke-linejoin: miter; stroke-linecap: square"/>
   </g>
   <g id="patch_56">
    <path d="M 38.27 28.32 
L 709.2 28.32 
" style="fill: none; stroke: #000000; stroke-width: 0.8; stroke-linejoin: miter; stroke-linecap: square"/>
   </g>
   <g id="text_59">
    <!-- Top 50 words in fr -->
    <g transform="translate(310.6025 22.32) scale(0.16 -0.16)">
     <defs>
      <path id="ArialMT-54" d="M 1659 0 
L 1659 4041 
L 150 4041 
L 150 4581 
L 3781 4581 
L 3781 4041 
L 2266 4041 
L 2266 0 
L 1659 0 
z
" transform="scale(0.015625)"/>
      <path id="ArialMT-20" transform="scale(0.015625)"/>
      <path id="ArialMT-35" d="M 266 1200 
L 856 1250 
Q 922 819 1161 601 
Q 1400 384 1738 384 
Q 2144 384 2425 690 
Q 2706 997 2706 1503 
Q 2706 1984 2436 2262 
Q 2166 2541 1728 2541 
Q 1456 2541 1237 2417 
Q 1019 2294 894 2097 
L 366 2166 
L 809 4519 
L 3088 4519 
L 3088 3981 
L 1259 3981 
L 1013 2750 
Q 1425 3038 1878 3038 
Q 2478 3038 2890 2622 
Q 3303 2206 3303 1553 
Q 3303 931 2941 478 
Q 2500 -78 1738 -78 
Q 1113 -78 717 272 
Q 322 622 266 1200 
z
" transform="scale(0.015625)"/>
      <path id="ArialMT-30" d="M 266 2259 
Q 266 3072 433 3567 
Q 600 4063 929 4331 
Q 1259 4600 1759 4600 
Q 2128 4600 2406 4451 
Q 2684 4303 2865 4023 
Q 3047 3744 3150 3342 
Q 3253 2941 3253 2259 
Q 3253 1453 3087 958 
Q 2922 463 2592 192 
Q 2263 -78 1759 -78 
Q 1097 -78 719 397 
Q 266 969 266 2259 
z
M 844 2259 
Q 844 1131 1108 757 
Q 1372 384 1759 384 
Q 2147 384 2411 759 
Q 2675 1134 2675 2259 
Q 2675 3391 2411 3762 
Q 2147 4134 1753 4134 
Q 1366 4134 1134 3806 
Q 844 3388 844 2259 
z
" transform="scale(0.015625)"/>
      <path id="ArialMT-77" d="M 1034 0 
L 19 3319 
L 600 3319 
L 1128 1403 
L 1325 691 
Q 1338 744 1497 1375 
L 2025 3319 
L 2603 3319 
L 3100 1394 
L 3266 759 
L 3456 1400 
L 4025 3319 
L 4572 3319 
L 3534 0 
L 2950 0 
L 2422 1988 
L 2294 2553 
L 1622 0 
L 1034 0 
z
" transform="scale(0.015625)"/>
     </defs>
     <use xlink:href="#ArialMT-54"/>
     <use xlink:href="#ArialMT-6f" transform="translate(49.958984 0)"/>
     <use xlink:href="#ArialMT-70" transform="translate(105.574219 0)"/>
     <use xlink:href="#ArialMT-20" transform="translate(161.189453 0)"/>
     <use xlink:href="#ArialMT-35" transform="translate(188.972656 0)"/>
     <use xlink:href="#ArialMT-30" transform="translate(244.587891 0)"/>
     <use xlink:href="#ArialMT-20" transform="translate(300.203125 0)"/>
     <use xlink:href="#ArialMT-77" transform="translate(327.986328 0)"/>
     <use xlink:href="#ArialMT-6f" transform="translate(400.203125 0)"/>
     <use xlink:href="#ArialMT-72" transform="translate(455.818359 0)"/>
     <use xlink:href="#ArialMT-64" transform="translate(489.119141 0)"/>
     <use xlink:href="#ArialMT-73" transform="translate(544.734375 0)"/>
     <use xlink:href="#ArialMT-20" transform="translate(594.734375 0)"/>
     <use xlink:href="#ArialMT-69" transform="translate(622.517578 0)"/>
     <use xlink:href="#ArialMT-6e" transform="translate(644.734375 0)"/>
     <use xlink:href="#ArialMT-20" transform="translate(700.349609 0)"/>
     <use xlink:href="#ArialMT-66" transform="translate(728.132812 0)"/>
     <use xlink:href="#ArialMT-72" transform="translate(755.916016 0)"/>
    </g>
   </g>
  </g>
 </g>
 <defs>
  <clipPath id="pb8b69aa851">
   <rect x="38.27" y="28.32" width="670.93" height="321.603862"/>
  </clipPath>
 </defs>
</svg>
