<?xml version="1.0" encoding="utf-8" standalone="no"?>
<!DOCTYPE svg PUBLIC "-//W3C//DTD SVG 1.1//EN"
  "http://www.w3.org/Graphics/SVG/1.1/DTD/svg11.dtd">
<svg xmlns:xlink="http://www.w3.org/1999/xlink" width="720pt" height="432pt" viewBox="0 0 720 432" xmlns="http://www.w3.org/2000/svg" version="1.1">
 <metadata>
  <rdf:RDF xmlns:dc="http://purl.org/dc/elements/1.1/" xmlns:cc="http://creativecommons.org/ns#" xmlns:rdf="http://www.w3.org/1999/02/22-rdf-syntax-ns#">
   <cc:Work>
    <dc:type rdf:resource="http://purl.org/dc/dcmitype/StillImage"/>
    <dc:date>2025-09-01T19:41:50.596815</dc:date>
    <dc:format>image/svg+xml</dc:format>
    <dc:creator>
     <cc:Agent>
      <dc:title>Matplotlib v3.10.3, https://matplotlib.org/</dc:title>
     </cc:Agent>
    </dc:creator>
   </cc:Work>
  </rdf:RDF>
 </metadata>
 <defs>
  <style type="text/css">*{stroke-linejoin: round; stroke-linecap: butt}</style>
 </defs>
 <g id="figure_1">
  <g id="patch_1">
   <path d="M 0 432 
L 720 432 
L 720 0 
L 0 0 
z
" style="fill: #ffffff"/>
  </g>
  <g id="axes_1">
   <g id="patch_2">
    <path d="M 47.72 348.365017 
L 709.2 348.365017 
L 709.2 28.32 
L 47.72 28.32 
z
" style="fill: #ffffff"/>
   </g>
   <g id="patch_3">
    <path d="M 77.787273 348.365017 
L 87.447441 348.365017 
L 87.447441 43.560239 
L 77.787273 43.560239 
z
" clip-path="url(#p2b079a0de4)" style="fill: #1f77b4"/>
   </g>
   <g id="patch_4">
    <path d="M 89.862483 348.365017 
L 99.522651 348.365017 
L 99.522651 71.937893 
L 89.862483 71.937893 
z
" clip-path="url(#p2b079a0de4)" style="fill: #1f77b4"/>
   </g>
   <g id="patch_5">
    <path d="M 101.937693 348.365017 
L 111.597861 348.365017 
L 111.597861 249.871798 
L 101.937693 249.871798 
z
" clip-path="url(#p2b079a0de4)" style="fill: #1f77b4"/>
   </g>
   <g id="patch_6">
    <path d="M 114.012903 348.365017 
L 123.67307 348.365017 
L 123.67307 253.742731 
L 114.012903 253.742731 
z
" clip-path="url(#p2b079a0de4)" style="fill: #1f77b4"/>
   </g>
   <g id="patch_7">
    <path d="M 126.088112 348.365017 
L 135.74828 348.365017 
L 135.74828 262.609183 
L 126.088112 262.609183 
z
" clip-path="url(#p2b079a0de4)" style="fill: #1f77b4"/>
   </g>
   <g id="patch_8">
    <path d="M 138.163322 348.365017 
L 147.82349 348.365017 
L 147.82349 292.495973 
L 138.163322 292.495973 
z
" clip-path="url(#p2b079a0de4)" style="fill: #1f77b4"/>
   </g>
   <g id="patch_9">
    <path d="M 150.238532 348.365017 
L 159.8987 348.365017 
L 159.8987 299.346065 
L 150.238532 299.346065 
z
" clip-path="url(#p2b079a0de4)" style="fill: #1f77b4"/>
   </g>
   <g id="patch_10">
    <path d="M 162.313742 348.365017 
L 171.97391 348.365017 
L 171.97391 304.877569 
L 162.313742 304.877569 
z
" clip-path="url(#p2b079a0de4)" style="fill: #1f77b4"/>
   </g>
   <g id="patch_11">
    <path d="M 174.388952 348.365017 
L 184.04912 348.365017 
L 184.04912 310.140834 
L 174.388952 310.140834 
z
" clip-path="url(#p2b079a0de4)" style="fill: #1f77b4"/>
   </g>
   <g id="patch_12">
    <path d="M 186.464162 348.365017 
L 196.12433 348.365017 
L 196.12433 318.616907 
L 186.464162 318.616907 
z
" clip-path="url(#p2b079a0de4)" style="fill: #1f77b4"/>
   </g>
   <g id="patch_13">
    <path d="M 198.539372 348.365017 
L 208.19954 348.365017 
L 208.19954 318.707063 
L 198.539372 318.707063 
z
" clip-path="url(#p2b079a0de4)" style="fill: #1f77b4"/>
   </g>
   <g id="patch_14">
    <path d="M 210.614582 348.365017 
L 220.27475 348.365017 
L 220.27475 321.42316 
L 210.614582 321.42316 
z
" clip-path="url(#p2b079a0de4)" style="fill: #1f77b4"/>
   </g>
   <g id="patch_15">
    <path d="M 222.689792 348.365017 
L 232.34996 348.365017 
L 232.34996 322.283153 
L 222.689792 322.283153 
z
" clip-path="url(#p2b079a0de4)" style="fill: #1f77b4"/>
   </g>
   <g id="patch_16">
    <path d="M 234.765002 348.365017 
L 244.42517 348.365017 
L 244.42517 322.303111 
L 234.765002 322.303111 
z
" clip-path="url(#p2b079a0de4)" style="fill: #1f77b4"/>
   </g>
   <g id="patch_17">
    <path d="M 246.840212 348.365017 
L 256.50038 348.365017 
L 256.50038 323.047705 
L 246.840212 323.047705 
z
" clip-path="url(#p2b079a0de4)" style="fill: #1f77b4"/>
   </g>
   <g id="patch_18">
    <path d="M 258.915422 348.365017 
L 268.57559 348.365017 
L 268.57559 325.02832 
L 258.915422 325.02832 
z
" clip-path="url(#p2b079a0de4)" style="fill: #1f77b4"/>
   </g>
   <g id="patch_19">
    <path d="M 270.990632 348.365017 
L 280.6508 348.365017 
L 280.6508 326.752164 
L 270.990632 326.752164 
z
" clip-path="url(#p2b079a0de4)" style="fill: #1f77b4"/>
   </g>
   <g id="patch_20">
    <path d="M 283.065842 348.365017 
L 292.726009 348.365017 
L 292.726009 327.575413 
L 283.065842 327.575413 
z
" clip-path="url(#p2b079a0de4)" style="fill: #1f77b4"/>
   </g>
   <g id="patch_21">
    <path d="M 295.141051 348.365017 
L 304.801219 348.365017 
L 304.801219 328.381672 
L 295.141051 328.381672 
z
" clip-path="url(#p2b079a0de4)" style="fill: #1f77b4"/>
   </g>
   <g id="patch_22">
    <path d="M 307.216261 348.365017 
L 316.876429 348.365017 
L 316.876429 329.049605 
L 307.216261 329.049605 
z
" clip-path="url(#p2b079a0de4)" style="fill: #1f77b4"/>
   </g>
   <g id="patch_23">
    <path d="M 319.291471 348.365017 
L 328.951639 348.365017 
L 328.951639 329.175219 
L 319.291471 329.175219 
z
" clip-path="url(#p2b079a0de4)" style="fill: #1f77b4"/>
   </g>
   <g id="patch_24">
    <path d="M 331.366681 348.365017 
L 341.026849 348.365017 
L 341.026849 331.453902 
L 331.366681 331.453902 
z
" clip-path="url(#p2b079a0de4)" style="fill: #1f77b4"/>
   </g>
   <g id="patch_25">
    <path d="M 343.441891 348.365017 
L 353.102059 348.365017 
L 353.102059 331.97324 
L 343.441891 331.97324 
z
" clip-path="url(#p2b079a0de4)" style="fill: #1f77b4"/>
   </g>
   <g id="patch_26">
    <path d="M 355.517101 348.365017 
L 365.177269 348.365017 
L 365.177269 332.613144 
L 355.517101 332.613144 
z
" clip-path="url(#p2b079a0de4)" style="fill: #1f77b4"/>
   </g>
   <g id="patch_27">
    <path d="M 367.592311 348.365017 
L 377.252479 348.365017 
L 377.252479 333.361703 
L 367.592311 333.361703 
z
" clip-path="url(#p2b079a0de4)" style="fill: #1f77b4"/>
   </g>
   <g id="patch_28">
    <path d="M 379.667521 348.365017 
L 389.327689 348.365017 
L 389.327689 334.133352 
L 379.667521 334.133352 
z
" clip-path="url(#p2b079a0de4)" style="fill: #1f77b4"/>
   </g>
   <g id="patch_29">
    <path d="M 391.742731 348.365017 
L 401.402899 348.365017 
L 401.402899 334.206101 
L 391.742731 334.206101 
z
" clip-path="url(#p2b079a0de4)" style="fill: #1f77b4"/>
   </g>
   <g id="patch_30">
    <path d="M 403.817941 348.365017 
L 413.478109 348.365017 
L 413.478109 334.434669 
L 403.817941 334.434669 
z
" clip-path="url(#p2b079a0de4)" style="fill: #1f77b4"/>
   </g>
   <g id="patch_31">
    <path d="M 415.893151 348.365017 
L 425.553319 348.365017 
L 425.553319 335.979005 
L 415.893151 335.979005 
z
" clip-path="url(#p2b079a0de4)" style="fill: #1f77b4"/>
   </g>
   <g id="patch_32">
    <path d="M 427.968361 348.365017 
L 437.628529 348.365017 
L 437.628529 336.070919 
L 427.968361 336.070919 
z
" clip-path="url(#p2b079a0de4)" style="fill: #1f77b4"/>
   </g>
   <g id="patch_33">
    <path d="M 440.043571 348.365017 
L 449.703739 348.365017 
L 449.703739 337.350575 
L 440.043571 337.350575 
z
" clip-path="url(#p2b079a0de4)" style="fill: #1f77b4"/>
   </g>
   <g id="patch_34">
    <path d="M 452.118781 348.365017 
L 461.778949 348.365017 
L 461.778949 337.73819 
L 452.118781 337.73819 
z
" clip-path="url(#p2b079a0de4)" style="fill: #1f77b4"/>
   </g>
   <g id="patch_35">
    <path d="M 464.193991 348.365017 
L 473.854158 348.365017 
L 473.854158 337.785824 
L 464.193991 337.785824 
z
" clip-path="url(#p2b079a0de4)" style="fill: #1f77b4"/>
   </g>
   <g id="patch_36">
    <path d="M 476.2692 348.365017 
L 485.929368 348.365017 
L 485.929368 338.543902 
L 476.2692 338.543902 
z
" clip-path="url(#p2b079a0de4)" style="fill: #1f77b4"/>
   </g>
   <g id="patch_37">
    <path d="M 488.34441 348.365017 
L 498.004578 348.365017 
L 498.004578 338.592512 
L 488.34441 338.592512 
z
" clip-path="url(#p2b079a0de4)" style="fill: #1f77b4"/>
   </g>
   <g id="patch_38">
    <path d="M 500.41962 348.365017 
L 510.079788 348.365017 
L 510.079788 338.783843 
L 500.41962 338.783843 
z
" clip-path="url(#p2b079a0de4)" style="fill: #1f77b4"/>
   </g>
   <g id="patch_39">
    <path d="M 512.49483 348.365017 
L 522.154998 348.365017 
L 522.154998 338.918622 
L 512.49483 338.918622 
z
" clip-path="url(#p2b079a0de4)" style="fill: #1f77b4"/>
   </g>
   <g id="patch_40">
    <path d="M 524.57004 348.365017 
L 534.230208 348.365017 
L 534.230208 338.965452 
L 524.57004 338.965452 
z
" clip-path="url(#p2b079a0de4)" style="fill: #1f77b4"/>
   </g>
   <g id="patch_41">
    <path d="M 536.64525 348.365017 
L 546.305418 348.365017 
L 546.305418 338.977425 
L 536.64525 338.977425 
z
" clip-path="url(#p2b079a0de4)" style="fill: #1f77b4"/>
   </g>
   <g id="patch_42">
    <path d="M 548.72046 348.365017 
L 558.380628 348.365017 
L 558.380628 339.032509 
L 548.72046 339.032509 
z
" clip-path="url(#p2b079a0de4)" style="fill: #1f77b4"/>
   </g>
   <g id="patch_43">
    <path d="M 560.79567 348.365017 
L 570.455838 348.365017 
L 570.455838 339.065116 
L 560.79567 339.065116 
z
" clip-path="url(#p2b079a0de4)" style="fill: #1f77b4"/>
   </g>
   <g id="patch_44">
    <path d="M 572.87088 348.365017 
L 582.531048 348.365017 
L 582.531048 339.370935 
L 572.87088 339.370935 
z
" clip-path="url(#p2b079a0de4)" style="fill: #1f77b4"/>
   </g>
   <g id="patch_45">
    <path d="M 584.94609 348.365017 
L 594.606258 348.365017 
L 594.606258 339.451315 
L 584.94609 339.451315 
z
" clip-path="url(#p2b079a0de4)" style="fill: #1f77b4"/>
   </g>
   <g id="patch_46">
    <path d="M 597.0213 348.365017 
L 606.681468 348.365017 
L 606.681468 339.483054 
L 597.0213 339.483054 
z
" clip-path="url(#p2b079a0de4)" style="fill: #1f77b4"/>
   </g>
   <g id="patch_47">
    <path d="M 609.09651 348.365017 
L 618.756678 348.365017 
L 618.756678 339.696176 
L 609.09651 339.696176 
z
" clip-path="url(#p2b079a0de4)" style="fill: #1f77b4"/>
   </g>
   <g id="patch_48">
    <path d="M 621.17172 348.365017 
L 630.831888 348.365017 
L 630.831888 339.88263 
L 621.17172 339.88263 
z
" clip-path="url(#p2b079a0de4)" style="fill: #1f77b4"/>
   </g>
   <g id="patch_49">
    <path d="M 633.24693 348.365017 
L 642.907097 348.365017 
L 642.907097 339.941016 
L 633.24693 339.941016 
z
" clip-path="url(#p2b079a0de4)" style="fill: #1f77b4"/>
   </g>
   <g id="patch_50">
    <path d="M 645.322139 348.365017 
L 654.982307 348.365017 
L 654.982307 340.133376 
L 645.322139 340.133376 
z
" clip-path="url(#p2b079a0de4)" style="fill: #1f77b4"/>
   </g>
   <g id="patch_51">
    <path d="M 657.397349 348.365017 
L 667.057517 348.365017 
L 667.057517 340.345083 
L 657.397349 340.345083 
z
" clip-path="url(#p2b079a0de4)" style="fill: #1f77b4"/>
   </g>
   <g id="patch_52">
    <path d="M 669.472559 348.365017 
L 679.132727 348.365017 
L 679.132727 340.414381 
L 669.472559 340.414381 
z
" clip-path="url(#p2b079a0de4)" style="fill: #1f77b4"/>
   </g>
   <g id="matplotlib.axis_1">
    <g id="xtick_1">
     <g id="line2d_1">
      <defs>
       <path id="m3296ed9321" d="M 0 0 
L 0 3.5 
" style="stroke: #000000; stroke-width: 0.8"/>
      </defs>
      <g>
       <use xlink:href="#m3296ed9321" x="82.617357" y="348.365017" style="stroke: #000000; stroke-width: 0.8"/>
      </g>
     </g>
     <g id="text_1">
      <!-- и -->
      <g transform="translate(78.103162 363.781487) rotate(-60) scale(0.1 -0.1)">
       <defs>
        <path id="ArialMT-438" d="M 422 3319 
L 984 3319 
L 984 788 
L 2544 3319 
L 3150 3319 
L 3150 0 
L 2588 0 
L 2588 2516 
L 1028 0 
L 422 0 
L 422 3319 
z
" transform="scale(0.015625)"/>
       </defs>
       <use xlink:href="#ArialMT-438"/>
      </g>
     </g>
    </g>
    <g id="xtick_2">
     <g id="line2d_2">
      <g>
       <use xlink:href="#m3296ed9321" x="94.692567" y="348.365017" style="stroke: #000000; stroke-width: 0.8"/>
      </g>
     </g>
     <g id="text_2">
      <!-- в -->
      <g transform="translate(90.315091 363.544683) rotate(-60) scale(0.1 -0.1)">
       <defs>
        <path id="ArialMT-432" d="M 425 3319 
L 1722 3319 
Q 2200 3319 2433 3239 
Q 2666 3159 2833 2946 
Q 3000 2734 3000 2438 
Q 3000 2200 2901 2023 
Q 2803 1847 2606 1728 
Q 2841 1650 2995 1436 
Q 3150 1222 3150 928 
Q 3119 456 2812 228 
Q 2506 0 1922 0 
L 425 0 
L 425 3319 
z
M 988 1922 
L 1588 1922 
Q 1947 1922 2081 1959 
Q 2216 1997 2322 2111 
Q 2428 2225 2428 2384 
Q 2428 2647 2242 2750 
Q 2056 2853 1606 2853 
L 988 2853 
L 988 1922 
z
M 988 463 
L 1728 463 
Q 2206 463 2384 573 
Q 2563 684 2572 956 
Q 2572 1116 2469 1252 
Q 2366 1388 2200 1423 
Q 2034 1459 1669 1459 
L 988 1459 
L 988 463 
z
" transform="scale(0.015625)"/>
       </defs>
       <use xlink:href="#ArialMT-432"/>
      </g>
     </g>
    </g>
    <g id="xtick_3">
     <g id="line2d_3">
      <g>
       <use xlink:href="#m3296ed9321" x="106.767777" y="348.365017" style="stroke: #000000; stroke-width: 0.8"/>
      </g>
     </g>
     <g id="text_3">
      <!-- по -->
      <g transform="translate(99.55827 368.449905) rotate(-60) scale(0.1 -0.1)">
       <defs>
        <path id="ArialMT-43f" d="M 425 3319 
L 3044 3319 
L 3044 0 
L 2481 0 
L 2481 2853 
L 988 2853 
L 988 0 
L 425 0 
L 425 3319 
z
" transform="scale(0.015625)"/>
        <path id="ArialMT-43e" d="M 213 1659 
Q 213 2581 725 3025 
Q 1153 3394 1769 3394 
Q 2453 3394 2887 2945 
Q 3322 2497 3322 1706 
Q 3322 1066 3130 698 
Q 2938 331 2570 128 
Q 2203 -75 1769 -75 
Q 1072 -75 642 372 
Q 213 819 213 1659 
z
M 791 1659 
Q 791 1022 1069 705 
Q 1347 388 1769 388 
Q 2188 388 2466 706 
Q 2744 1025 2744 1678 
Q 2744 2294 2464 2611 
Q 2184 2928 1769 2928 
Q 1347 2928 1069 2612 
Q 791 2297 791 1659 
z
" transform="scale(0.015625)"/>
       </defs>
       <use xlink:href="#ArialMT-43f"/>
       <use xlink:href="#ArialMT-43e" transform="translate(54.150391 0)"/>
      </g>
     </g>
    </g>
    <g id="xtick_4">
     <g id="line2d_4">
      <g>
       <use xlink:href="#m3296ed9321" x="118.842986" y="348.365017" style="stroke: #000000; stroke-width: 0.8"/>
      </g>
     </g>
     <g id="text_4">
      <!-- на -->
      <g transform="translate(111.580355 368.54192) rotate(-60) scale(0.1 -0.1)">
       <defs>
        <path id="ArialMT-43d" d="M 425 3319 
L 988 3319 
L 988 1938 
L 2547 1938 
L 2547 3319 
L 3109 3319 
L 3109 0 
L 2547 0 
L 2547 1472 
L 988 1472 
L 988 0 
L 425 0 
L 425 3319 
z
" transform="scale(0.015625)"/>
        <path id="ArialMT-430" d="M 2588 409 
Q 2275 144 1986 34 
Q 1697 -75 1366 -75 
Q 819 -75 525 192 
Q 231 459 231 875 
Q 231 1119 342 1320 
Q 453 1522 633 1644 
Q 813 1766 1038 1828 
Q 1203 1872 1538 1913 
Q 2219 1994 2541 2106 
Q 2544 2222 2544 2253 
Q 2544 2597 2384 2738 
Q 2169 2928 1744 2928 
Q 1347 2928 1158 2789 
Q 969 2650 878 2297 
L 328 2372 
Q 403 2725 575 2942 
Q 747 3159 1072 3276 
Q 1397 3394 1825 3394 
Q 2250 3394 2515 3294 
Q 2781 3194 2906 3042 
Q 3031 2891 3081 2659 
Q 3109 2516 3109 2141 
L 3109 1391 
Q 3109 606 3145 398 
Q 3181 191 3288 0 
L 2700 0 
Q 2613 175 2588 409 
z
M 2541 1666 
Q 2234 1541 1622 1453 
Q 1275 1403 1131 1340 
Q 988 1278 909 1158 
Q 831 1038 831 891 
Q 831 666 1001 516 
Q 1172 366 1500 366 
Q 1825 366 2078 508 
Q 2331 650 2450 897 
Q 2541 1088 2541 1459 
L 2541 1666 
z
" transform="scale(0.015625)"/>
       </defs>
       <use xlink:href="#ArialMT-43d"/>
       <use xlink:href="#ArialMT-430" transform="translate(55.224609 0)"/>
      </g>
     </g>
    </g>
    <g id="xtick_5">
     <g id="line2d_5">
      <g>
       <use xlink:href="#m3296ed9321" x="130.918196" y="348.365017" style="stroke: #000000; stroke-width: 0.8"/>
      </g>
     </g>
     <g id="text_5">
      <!-- с -->
      <g transform="translate(126.696971 363.27405) rotate(-60) scale(0.1 -0.1)">
       <defs>
        <path id="ArialMT-441" d="M 2588 1216 
L 3141 1144 
Q 3050 572 2676 248 
Q 2303 -75 1759 -75 
Q 1078 -75 664 370 
Q 250 816 250 1647 
Q 250 2184 428 2587 
Q 606 2991 970 3192 
Q 1334 3394 1763 3394 
Q 2303 3394 2647 3120 
Q 2991 2847 3088 2344 
L 2541 2259 
Q 2463 2594 2264 2762 
Q 2066 2931 1784 2931 
Q 1359 2931 1093 2626 
Q 828 2322 828 1663 
Q 828 994 1084 691 
Q 1341 388 1753 388 
Q 2084 388 2306 591 
Q 2528 794 2588 1216 
z
" transform="scale(0.015625)"/>
       </defs>
       <use xlink:href="#ArialMT-441"/>
      </g>
     </g>
    </g>
    <g id="xtick_6">
     <g id="line2d_6">
      <g>
       <use xlink:href="#m3296ed9321" x="142.993406" y="348.365017" style="stroke: #000000; stroke-width: 0.8"/>
      </g>
     </g>
     <g id="text_6">
      <!-- о -->
      <g transform="translate(138.491712 363.759836) rotate(-60) scale(0.1 -0.1)">
       <use xlink:href="#ArialMT-43e"/>
      </g>
     </g>
    </g>
    <g id="xtick_7">
     <g id="line2d_7">
      <g>
       <use xlink:href="#m3296ed9321" x="155.068616" y="348.365017" style="stroke: #000000; stroke-width: 0.8"/>
      </g>
     </g>
     <g id="text_7">
      <!-- для -->
      <g transform="translate(144.805203 373.739426) rotate(-60) scale(0.1 -0.1)">
       <defs>
        <path id="ArialMT-434" d="M 866 3319 
L 3178 3319 
L 3178 463 
L 3538 463 
L 3538 -941 
L 3075 -941 
L 3075 0 
L 463 0 
L 463 -941 
L 0 -941 
L 0 463 
L 297 463 
Q 891 1269 866 3319 
z
M 1334 2853 
Q 1272 1238 834 463 
L 2619 463 
L 2619 2853 
L 1334 2853 
z
" transform="scale(0.015625)"/>
        <path id="ArialMT-43b" d="M 697 3319 
L 3309 3319 
L 3309 0 
L 2750 0 
L 2750 2853 
L 1259 2853 
L 1259 1200 
Q 1259 622 1221 437 
Q 1184 253 1015 115 
Q 847 -22 528 -22 
Q 331 -22 75 3 
L 75 472 
L 322 472 
Q 497 472 572 508 
Q 647 544 672 622 
Q 697 700 697 1131 
L 697 3319 
z
" transform="scale(0.015625)"/>
        <path id="ArialMT-44f" d="M 3034 3319 
L 3034 0 
L 2475 0 
L 2475 1294 
L 2150 1294 
Q 1853 1294 1708 1217 
Q 1563 1141 1284 725 
L 794 0 
L 97 0 
L 703 894 
Q 981 1303 1256 1356 
Q 775 1422 542 1703 
Q 309 1984 309 2350 
Q 309 2781 614 3050 
Q 919 3319 1497 3319 
L 3034 3319 
z
M 2475 2853 
L 1675 2853 
Q 1172 2853 1026 2697 
Q 881 2541 881 2331 
Q 881 2034 1095 1895 
Q 1309 1756 1853 1756 
L 2475 1756 
L 2475 2853 
z
" transform="scale(0.015625)"/>
       </defs>
       <use xlink:href="#ArialMT-434"/>
       <use xlink:href="#ArialMT-43b" transform="translate(58.349609 0)"/>
       <use xlink:href="#ArialMT-44f" transform="translate(116.699219 0)"/>
      </g>
     </g>
    </g>
    <g id="xtick_8">
     <g id="line2d_8">
      <g>
       <use xlink:href="#m3296ed9321" x="167.143826" y="348.365017" style="stroke: #000000; stroke-width: 0.8"/>
      </g>
     </g>
     <g id="text_8">
      <!-- что -->
      <g transform="translate(157.803851 372.139985) rotate(-60) scale(0.1 -0.1)">
       <defs>
        <path id="ArialMT-447" d="M 216 3319 
L 778 3319 
L 778 2691 
Q 778 2284 826 2101 
Q 875 1919 1059 1783 
Q 1244 1647 1522 1647 
Q 1841 1647 2347 1816 
L 2347 3319 
L 2909 3319 
L 2909 0 
L 2347 0 
L 2347 1338 
Q 1828 1175 1378 1175 
Q 1000 1175 711 1367 
Q 422 1559 319 1837 
Q 216 2116 216 2450 
L 216 3319 
z
" transform="scale(0.015625)"/>
        <path id="ArialMT-442" d="M 119 3319 
L 2816 3319 
L 2816 2853 
L 1747 2853 
L 1747 0 
L 1188 0 
L 1188 2853 
L 119 2853 
L 119 3319 
z
" transform="scale(0.015625)"/>
       </defs>
       <use xlink:href="#ArialMT-447"/>
       <use xlink:href="#ArialMT-442" transform="translate(52.099609 0)"/>
       <use xlink:href="#ArialMT-43e" transform="translate(96.775391 0)"/>
      </g>
     </g>
    </g>
    <g id="xtick_9">
     <g id="line2d_9">
      <g>
       <use xlink:href="#m3296ed9321" x="179.219036" y="348.365017" style="stroke: #000000; stroke-width: 0.8"/>
      </g>
     </g>
     <g id="text_9">
      <!-- к -->
      <g transform="translate(175.310311 362.732784) rotate(-60) scale(0.1 -0.1)">
       <defs>
        <path id="ArialMT-43a" d="M 419 3319 
L 981 3319 
L 981 1884 
Q 1250 1884 1358 1987 
Q 1466 2091 1675 2588 
Q 1841 2981 1944 3106 
Q 2047 3231 2181 3275 
Q 2316 3319 2613 3319 
L 2725 3319 
L 2725 2853 
L 2569 2856 
Q 2347 2856 2284 2791 
Q 2219 2722 2084 2381 
Q 1956 2056 1850 1931 
Q 1744 1806 1522 1703 
Q 1884 1606 2234 1028 
L 2850 0 
L 2231 0 
L 1631 1028 
Q 1447 1338 1309 1436 
Q 1172 1534 981 1534 
L 981 0 
L 419 0 
L 419 3319 
z
" transform="scale(0.015625)"/>
       </defs>
       <use xlink:href="#ArialMT-43a"/>
      </g>
     </g>
    </g>
    <g id="xtick_10">
     <g id="line2d_10">
      <g>
       <use xlink:href="#m3296ed9321" x="191.294246" y="348.365017" style="stroke: #000000; stroke-width: 0.8"/>
      </g>
     </g>
     <g id="text_10">
      <!-- не -->
      <g transform="translate(184.031614 368.54192) rotate(-60) scale(0.1 -0.1)">
       <defs>
        <path id="ArialMT-435" d="M 2694 1069 
L 3275 997 
Q 3138 488 2766 206 
Q 2394 -75 1816 -75 
Q 1088 -75 661 373 
Q 234 822 234 1631 
Q 234 2469 665 2931 
Q 1097 3394 1784 3394 
Q 2450 3394 2872 2941 
Q 3294 2488 3294 1666 
Q 3294 1616 3291 1516 
L 816 1516 
Q 847 969 1125 678 
Q 1403 388 1819 388 
Q 2128 388 2347 550 
Q 2566 713 2694 1069 
z
M 847 1978 
L 2700 1978 
Q 2663 2397 2488 2606 
Q 2219 2931 1791 2931 
Q 1403 2931 1139 2672 
Q 875 2413 847 1978 
z
" transform="scale(0.015625)"/>
       </defs>
       <use xlink:href="#ArialMT-43d"/>
       <use xlink:href="#ArialMT-435" transform="translate(55.224609 0)"/>
      </g>
     </g>
    </g>
    <g id="xtick_11">
     <g id="line2d_11">
      <g>
       <use xlink:href="#m3296ed9321" x="203.369456" y="348.365017" style="stroke: #000000; stroke-width: 0.8"/>
      </g>
     </g>
     <g id="text_11">
      <!-- В -->
      <g transform="translate(198.313074 364.720583) rotate(-60) scale(0.1 -0.1)">
       <defs>
        <path id="ArialMT-412" d="M 469 0 
L 469 4581 
L 2188 4581 
Q 2713 4581 3030 4442 
Q 3347 4303 3526 4014 
Q 3706 3725 3706 3409 
Q 3706 3116 3547 2856 
Q 3388 2597 3066 2438 
Q 3481 2316 3704 2022 
Q 3928 1728 3928 1328 
Q 3928 1006 3792 729 
Q 3656 453 3456 303 
Q 3256 153 2954 76 
Q 2653 0 2216 0 
L 469 0 
z
M 1075 2656 
L 2066 2656 
Q 2469 2656 2644 2709 
Q 2875 2778 2992 2937 
Q 3109 3097 3109 3338 
Q 3109 3566 3000 3739 
Q 2891 3913 2687 3977 
Q 2484 4041 1991 4041 
L 1075 4041 
L 1075 2656 
z
M 1075 541 
L 2216 541 
Q 2509 541 2628 563 
Q 2838 600 2978 687 
Q 3119 775 3209 942 
Q 3300 1109 3300 1328 
Q 3300 1584 3169 1773 
Q 3038 1963 2805 2039 
Q 2572 2116 2134 2116 
L 1075 2116 
L 1075 541 
z
" transform="scale(0.015625)"/>
       </defs>
       <use xlink:href="#ArialMT-412"/>
      </g>
     </g>
    </g>
    <g id="xtick_12">
     <g id="line2d_12">
      <g>
       <use xlink:href="#m3296ed9321" x="215.444666" y="348.365017" style="stroke: #000000; stroke-width: 0.8"/>
      </g>
     </g>
     <g id="text_12">
      <!-- Объединенных -->
      <g transform="translate(178.478909 419.989242) rotate(-60) scale(0.1 -0.1)">
       <defs>
        <path id="ArialMT-41e" d="M 309 2231 
Q 309 3372 921 4017 
Q 1534 4663 2503 4663 
Q 3138 4663 3647 4359 
Q 4156 4056 4423 3514 
Q 4691 2972 4691 2284 
Q 4691 1588 4409 1038 
Q 4128 488 3612 205 
Q 3097 -78 2500 -78 
Q 1853 -78 1343 234 
Q 834 547 571 1087 
Q 309 1628 309 2231 
z
M 934 2222 
Q 934 1394 1379 917 
Q 1825 441 2497 441 
Q 3181 441 3623 922 
Q 4066 1403 4066 2288 
Q 4066 2847 3877 3264 
Q 3688 3681 3323 3911 
Q 2959 4141 2506 4141 
Q 1863 4141 1398 3698 
Q 934 3256 934 2222 
z
" transform="scale(0.015625)"/>
        <path id="ArialMT-431" d="M 2853 4691 
L 3350 4684 
Q 3316 4350 3202 4219 
Q 3088 4088 2908 4050 
Q 2728 4013 2203 4013 
Q 1506 4013 1253 3878 
Q 1000 3744 889 3448 
Q 778 3153 766 2688 
Q 978 3003 1262 3161 
Q 1547 3319 1903 3319 
Q 2556 3319 2984 2870 
Q 3413 2422 3413 1656 
Q 3413 1075 3197 703 
Q 2981 331 2686 128 
Q 2391 -75 1881 -75 
Q 1291 -75 962 195 
Q 634 466 459 887 
Q 284 1309 284 2356 
Q 284 3672 729 4128 
Q 1175 4584 2100 4584 
Q 2675 4584 2753 4603 
Q 2831 4622 2853 4691 
z
M 2825 1672 
Q 2825 2191 2579 2522 
Q 2334 2853 1888 2853 
Q 1422 2853 1169 2503 
Q 916 2153 916 1569 
Q 916 991 1195 684 
Q 1475 378 1884 378 
Q 2303 378 2564 733 
Q 2825 1088 2825 1672 
z
" transform="scale(0.015625)"/>
        <path id="ArialMT-44a" d="M 125 3319 
L 1609 3319 
L 1609 2022 
L 2325 2022 
Q 3084 2022 3428 1726 
Q 3772 1431 3772 1003 
Q 3772 559 3439 279 
Q 3106 0 2456 0 
L 1047 0 
L 1047 2853 
L 125 2853 
L 125 3319 
z
M 1609 456 
L 2200 456 
Q 2738 456 2963 586 
Q 3188 716 3188 1003 
Q 3188 1266 2995 1409 
Q 2803 1553 2275 1553 
L 1609 1553 
L 1609 456 
z
" transform="scale(0.015625)"/>
        <path id="ArialMT-44b" d="M 3581 3319 
L 4144 3319 
L 4144 0 
L 3581 0 
L 3581 3319 
z
M 434 3319 
L 997 3319 
L 997 2022 
L 1709 2022 
Q 2406 2022 2782 1751 
Q 3159 1481 3159 1006 
Q 3159 591 2845 295 
Q 2531 0 1841 0 
L 434 0 
L 434 3319 
z
M 997 463 
L 1588 463 
Q 2122 463 2350 594 
Q 2578 725 2578 1003 
Q 2578 1219 2409 1387 
Q 2241 1556 1663 1556 
L 997 1556 
L 997 463 
z
" transform="scale(0.015625)"/>
        <path id="ArialMT-445" d="M 47 0 
L 1259 1725 
L 138 3319 
L 841 3319 
L 1350 2541 
Q 1494 2319 1581 2169 
Q 1719 2375 1834 2534 
L 2394 3319 
L 3066 3319 
L 1919 1756 
L 3153 0 
L 2463 0 
L 1781 1031 
L 1600 1309 
L 728 0 
L 47 0 
z
" transform="scale(0.015625)"/>
       </defs>
       <use xlink:href="#ArialMT-41e"/>
       <use xlink:href="#ArialMT-431" transform="translate(77.783203 0)"/>
       <use xlink:href="#ArialMT-44a" transform="translate(131.683594 0)"/>
       <use xlink:href="#ArialMT-435" transform="translate(194.183594 0)"/>
       <use xlink:href="#ArialMT-434" transform="translate(247.548828 0)"/>
       <use xlink:href="#ArialMT-438" transform="translate(305.898438 0)"/>
       <use xlink:href="#ArialMT-43d" transform="translate(361.757812 0)"/>
       <use xlink:href="#ArialMT-435" transform="translate(416.982422 0)"/>
       <use xlink:href="#ArialMT-43d" transform="translate(472.597656 0)"/>
       <use xlink:href="#ArialMT-43d" transform="translate(527.822266 0)"/>
       <use xlink:href="#ArialMT-44b" transform="translate(583.046875 0)"/>
       <use xlink:href="#ArialMT-445" transform="translate(654.921875 0)"/>
      </g>
     </g>
    </g>
    <g id="xtick_13">
     <g id="line2d_13">
      <g>
       <use xlink:href="#m3296ed9321" x="227.519876" y="348.365017" style="stroke: #000000; stroke-width: 0.8"/>
      </g>
     </g>
     <g id="text_13">
      <!-- а -->
      <g transform="translate(223.018182 363.759836) rotate(-60) scale(0.1 -0.1)">
       <use xlink:href="#ArialMT-430"/>
      </g>
     </g>
    </g>
    <g id="xtick_14">
     <g id="line2d_14">
      <g>
       <use xlink:href="#m3296ed9321" x="239.595086" y="348.365017" style="stroke: #000000; stroke-width: 0.8"/>
      </g>
     </g>
     <g id="text_14">
      <!-- также -->
      <g transform="translate(224.547298 382.026206) rotate(-60) scale(0.1 -0.1)">
       <defs>
        <path id="ArialMT-436" d="M 2428 3319 
L 2428 1884 
Q 2697 1884 2806 1987 
Q 2916 2091 3125 2588 
Q 3322 3059 3478 3191 
Q 3631 3319 3966 3319 
L 4172 3319 
L 4172 2853 
L 4019 2856 
Q 3794 2856 3731 2791 
Q 3666 2722 3531 2381 
Q 3406 2056 3300 1931 
Q 3194 1806 2969 1703 
Q 3334 1606 3681 1028 
L 4300 0 
L 3681 0 
L 3078 1028 
Q 2894 1341 2756 1437 
Q 2619 1534 2428 1534 
L 2428 0 
L 1853 0 
L 1853 1534 
Q 1666 1534 1528 1439 
Q 1391 1344 1206 1028 
L 603 0 
L -16 0 
L 600 1028 
Q 950 1606 1316 1703 
Q 1066 1819 966 1955 
Q 866 2091 666 2603 
Q 597 2775 519 2816 
Q 438 2856 278 2856 
Q 238 2856 113 2853 
L 113 3319 
L 191 3319 
Q 516 3319 648 3280 
Q 781 3241 886 3114 
Q 991 2988 1159 2588 
Q 1366 2097 1473 1990 
Q 1581 1884 1853 1884 
L 1853 3319 
L 2428 3319 
z
" transform="scale(0.015625)"/>
       </defs>
       <use xlink:href="#ArialMT-442"/>
       <use xlink:href="#ArialMT-430" transform="translate(44.675781 0)"/>
       <use xlink:href="#ArialMT-43a" transform="translate(100.291016 0)"/>
       <use xlink:href="#ArialMT-436" transform="translate(144.041016 0)"/>
       <use xlink:href="#ArialMT-435" transform="translate(210.935547 0)"/>
      </g>
     </g>
    </g>
    <g id="xtick_15">
     <g id="line2d_15">
      <g>
       <use xlink:href="#m3296ed9321" x="251.670296" y="348.365017" style="stroke: #000000; stroke-width: 0.8"/>
      </g>
     </g>
     <g id="text_15">
      <!-- Организации -->
      <g transform="translate(219.71157 411.380872) rotate(-60) scale(0.1 -0.1)">
       <defs>
        <path id="ArialMT-440" d="M 422 -1272 
L 422 3319 
L 934 3319 
L 934 2888 
Q 1116 3141 1344 3267 
Q 1572 3394 1897 3394 
Q 2322 3394 2647 3175 
Q 2972 2956 3137 2557 
Q 3303 2159 3303 1684 
Q 3303 1175 3120 767 
Q 2938 359 2589 142 
Q 2241 -75 1856 -75 
Q 1575 -75 1351 44 
Q 1128 163 984 344 
L 984 -1272 
L 422 -1272 
z
M 931 1641 
Q 931 1000 1190 694 
Q 1450 388 1819 388 
Q 2194 388 2461 705 
Q 2728 1022 2728 1688 
Q 2728 2322 2467 2637 
Q 2206 2953 1844 2953 
Q 1484 2953 1207 2617 
Q 931 2281 931 1641 
z
" transform="scale(0.015625)"/>
        <path id="ArialMT-433" d="M 425 3319 
L 2334 3319 
L 2334 2853 
L 988 2853 
L 988 0 
L 425 0 
L 425 3319 
z
" transform="scale(0.015625)"/>
        <path id="ArialMT-437" d="M 1156 1500 
L 1156 1941 
Q 1513 1944 1642 1969 
Q 1772 1994 1887 2119 
Q 2003 2244 2003 2431 
Q 2003 2659 1851 2795 
Q 1700 2931 1459 2931 
Q 984 2931 794 2372 
L 259 2459 
Q 509 3394 1466 3394 
Q 1997 3394 2298 3103 
Q 2600 2813 2600 2409 
Q 2600 2003 2206 1763 
Q 2456 1628 2581 1420 
Q 2706 1213 2706 928 
Q 2706 481 2381 203 
Q 2056 -75 1472 -75 
Q 338 -75 156 934 
L 684 1047 
Q 756 728 976 553 
Q 1197 378 1481 378 
Q 1766 378 1955 539 
Q 2144 700 2144 950 
Q 2144 1144 2025 1287 
Q 1906 1431 1772 1467 
Q 1638 1503 1284 1503 
Q 1256 1503 1156 1500 
z
" transform="scale(0.015625)"/>
        <path id="ArialMT-446" d="M 431 3319 
L 994 3319 
L 994 463 
L 2550 463 
L 2550 3319 
L 3113 3319 
L 3113 463 
L 3475 463 
L 3475 -941 
L 3013 -941 
L 3013 0 
L 431 0 
L 431 3319 
z
" transform="scale(0.015625)"/>
       </defs>
       <use xlink:href="#ArialMT-41e"/>
       <use xlink:href="#ArialMT-440" transform="translate(77.783203 0)"/>
       <use xlink:href="#ArialMT-433" transform="translate(133.398438 0)"/>
       <use xlink:href="#ArialMT-430" transform="translate(167.623047 0)"/>
       <use xlink:href="#ArialMT-43d" transform="translate(223.238281 0)"/>
       <use xlink:href="#ArialMT-438" transform="translate(278.462891 0)"/>
       <use xlink:href="#ArialMT-437" transform="translate(334.322266 0)"/>
       <use xlink:href="#ArialMT-430" transform="translate(380.171875 0)"/>
       <use xlink:href="#ArialMT-446" transform="translate(435.787109 0)"/>
       <use xlink:href="#ArialMT-438" transform="translate(493.0625 0)"/>
       <use xlink:href="#ArialMT-438" transform="translate(548.921875 0)"/>
      </g>
     </g>
    </g>
    <g id="xtick_16">
     <g id="line2d_16">
      <g>
       <use xlink:href="#m3296ed9321" x="263.745506" y="348.365017" style="stroke: #000000; stroke-width: 0.8"/>
      </g>
     </g>
     <g id="text_16">
      <!-- года -->
      <g transform="translate(251.947718 376.397041) rotate(-60) scale(0.1 -0.1)">
       <use xlink:href="#ArialMT-433"/>
       <use xlink:href="#ArialMT-43e" transform="translate(34.224609 0)"/>
       <use xlink:href="#ArialMT-434" transform="translate(87.589844 0)"/>
       <use xlink:href="#ArialMT-430" transform="translate(145.939453 0)"/>
      </g>
     </g>
    </g>
    <g id="xtick_17">
     <g id="line2d_17">
      <g>
       <use xlink:href="#m3296ed9321" x="275.820716" y="348.365017" style="stroke: #000000; stroke-width: 0.8"/>
      </g>
     </g>
     <g id="text_17">
      <!-- или -->
      <g transform="translate(265.596365 373.671767) rotate(-60) scale(0.1 -0.1)">
       <use xlink:href="#ArialMT-438"/>
       <use xlink:href="#ArialMT-43b" transform="translate(55.859375 0)"/>
       <use xlink:href="#ArialMT-438" transform="translate(114.208984 0)"/>
      </g>
     </g>
    </g>
    <g id="xtick_18">
     <g id="line2d_18">
      <g>
       <use xlink:href="#m3296ed9321" x="287.895926" y="348.365017" style="stroke: #000000; stroke-width: 0.8"/>
      </g>
     </g>
     <g id="text_18">
      <!-- от -->
      <g transform="translate(281.216888 367.531106) rotate(-60) scale(0.1 -0.1)">
       <use xlink:href="#ArialMT-43e"/>
       <use xlink:href="#ArialMT-442" transform="translate(53.365234 0)"/>
      </g>
     </g>
    </g>
    <g id="xtick_19">
     <g id="line2d_19">
      <g>
       <use xlink:href="#m3296ed9321" x="299.971135" y="348.365017" style="stroke: #000000; stroke-width: 0.8"/>
      </g>
     </g>
     <g id="text_19">
      <!-- Наций -->
      <g transform="translate(283.408504 384.649993) rotate(-60) scale(0.1 -0.1)">
       <defs>
        <path id="ArialMT-41d" d="M 513 0 
L 513 4581 
L 1119 4581 
L 1119 2700 
L 3500 2700 
L 3500 4581 
L 4106 4581 
L 4106 0 
L 3500 0 
L 3500 2159 
L 1119 2159 
L 1119 0 
L 513 0 
z
" transform="scale(0.015625)"/>
        <path id="ArialMT-439" d="M 422 3319 
L 984 3319 
L 984 788 
L 2544 3319 
L 3150 3319 
L 3150 0 
L 2588 0 
L 2588 2516 
L 1028 0 
L 422 0 
L 422 3319 
z
M 2374 4575 
L 2759 4575 
Q 2712 4184 2473 3975 
Q 2234 3766 1837 3766 
Q 1437 3766 1198 3973 
Q 959 4181 912 4575 
L 1296 4575 
Q 1340 4363 1469 4258 
Q 1599 4153 1818 4153 
Q 2071 4153 2201 4254 
Q 2331 4356 2374 4575 
z
" transform="scale(0.015625)"/>
       </defs>
       <use xlink:href="#ArialMT-41d"/>
       <use xlink:href="#ArialMT-430" transform="translate(72.216797 0)"/>
       <use xlink:href="#ArialMT-446" transform="translate(127.832031 0)"/>
       <use xlink:href="#ArialMT-438" transform="translate(185.107422 0)"/>
       <use xlink:href="#ArialMT-439" transform="translate(240.966797 0)"/>
      </g>
     </g>
    </g>
    <g id="xtick_20">
     <g id="line2d_20">
      <g>
       <use xlink:href="#m3296ed9321" x="312.046345" y="348.365017" style="stroke: #000000; stroke-width: 0.8"/>
      </g>
     </g>
     <g id="text_20">
      <!-- the -->
      <g transform="translate(303.37512 370.981676) rotate(-60) scale(0.1 -0.1)">
       <defs>
        <path id="ArialMT-74" d="M 1650 503 
L 1731 6 
Q 1494 -44 1306 -44 
Q 1000 -44 831 53 
Q 663 150 594 308 
Q 525 466 525 972 
L 525 2881 
L 113 2881 
L 113 3319 
L 525 3319 
L 525 4141 
L 1084 4478 
L 1084 3319 
L 1650 3319 
L 1650 2881 
L 1084 2881 
L 1084 941 
Q 1084 700 1114 631 
Q 1144 563 1211 522 
Q 1278 481 1403 481 
Q 1497 481 1650 503 
z
" transform="scale(0.015625)"/>
        <path id="ArialMT-68" d="M 422 0 
L 422 4581 
L 984 4581 
L 984 2938 
Q 1378 3394 1978 3394 
Q 2347 3394 2619 3248 
Q 2891 3103 3008 2847 
Q 3125 2591 3125 2103 
L 3125 0 
L 2563 0 
L 2563 2103 
Q 2563 2525 2380 2717 
Q 2197 2909 1863 2909 
Q 1613 2909 1392 2779 
Q 1172 2650 1078 2428 
Q 984 2206 984 1816 
L 984 0 
L 422 0 
z
" transform="scale(0.015625)"/>
        <path id="ArialMT-65" d="M 2694 1069 
L 3275 997 
Q 3138 488 2766 206 
Q 2394 -75 1816 -75 
Q 1088 -75 661 373 
Q 234 822 234 1631 
Q 234 2469 665 2931 
Q 1097 3394 1784 3394 
Q 2450 3394 2872 2941 
Q 3294 2488 3294 1666 
Q 3294 1616 3291 1516 
L 816 1516 
Q 847 969 1125 678 
Q 1403 388 1819 388 
Q 2128 388 2347 550 
Q 2566 713 2694 1069 
z
M 847 1978 
L 2700 1978 
Q 2663 2397 2488 2606 
Q 2219 2931 1791 2931 
Q 1403 2931 1139 2672 
Q 875 2413 847 1978 
z
" transform="scale(0.015625)"/>
       </defs>
       <use xlink:href="#ArialMT-74"/>
       <use xlink:href="#ArialMT-68" transform="translate(27.783203 0)"/>
       <use xlink:href="#ArialMT-65" transform="translate(83.398438 0)"/>
      </g>
     </g>
    </g>
    <g id="xtick_21">
     <g id="line2d_21">
      <g>
       <use xlink:href="#m3296ed9321" x="324.121555" y="348.365017" style="stroke: #000000; stroke-width: 0.8"/>
      </g>
     </g>
     <g id="text_21">
      <!-- за -->
      <g transform="translate(317.327674 367.730021) rotate(-60) scale(0.1 -0.1)">
       <use xlink:href="#ArialMT-437"/>
       <use xlink:href="#ArialMT-430" transform="translate(45.849609 0)"/>
      </g>
     </g>
    </g>
    <g id="xtick_22">
     <g id="line2d_22">
      <g>
       <use xlink:href="#m3296ed9321" x="336.196765" y="348.365017" style="stroke: #000000; stroke-width: 0.8"/>
      </g>
     </g>
     <g id="text_22">
      <!-- их -->
      <g transform="translate(329.182571 368.111614) rotate(-60) scale(0.1 -0.1)">
       <use xlink:href="#ArialMT-438"/>
       <use xlink:href="#ArialMT-445" transform="translate(55.859375 0)"/>
      </g>
     </g>
    </g>
    <g id="xtick_23">
     <g id="line2d_23">
      <g>
       <use xlink:href="#m3296ed9321" x="348.271975" y="348.365017" style="stroke: #000000; stroke-width: 0.8"/>
      </g>
     </g>
     <g id="text_23">
      <!-- как -->
      <g transform="translate(339.282781 371.532414) rotate(-60) scale(0.1 -0.1)">
       <use xlink:href="#ArialMT-43a"/>
       <use xlink:href="#ArialMT-430" transform="translate(46 0)"/>
       <use xlink:href="#ArialMT-43a" transform="translate(101.615234 0)"/>
      </g>
     </g>
    </g>
    <g id="xtick_24">
     <g id="line2d_24">
      <g>
       <use xlink:href="#m3296ed9321" x="360.347185" y="348.365017" style="stroke: #000000; stroke-width: 0.8"/>
      </g>
     </g>
     <g id="text_24">
      <!-- из -->
      <g transform="translate(353.540803 367.751672) rotate(-60) scale(0.1 -0.1)">
       <use xlink:href="#ArialMT-438"/>
       <use xlink:href="#ArialMT-437" transform="translate(55.859375 0)"/>
      </g>
     </g>
    </g>
    <g id="xtick_25">
     <g id="line2d_25">
      <g>
       <use xlink:href="#m3296ed9321" x="372.422395" y="348.365017" style="stroke: #000000; stroke-width: 0.8"/>
      </g>
     </g>
     <g id="text_25">
      <!-- of -->
      <g transform="translate(366.531638 366.165763) rotate(-60) scale(0.1 -0.1)">
       <defs>
        <path id="ArialMT-6f" d="M 213 1659 
Q 213 2581 725 3025 
Q 1153 3394 1769 3394 
Q 2453 3394 2887 2945 
Q 3322 2497 3322 1706 
Q 3322 1066 3130 698 
Q 2938 331 2570 128 
Q 2203 -75 1769 -75 
Q 1072 -75 642 372 
Q 213 819 213 1659 
z
M 791 1659 
Q 791 1022 1069 705 
Q 1347 388 1769 388 
Q 2188 388 2466 706 
Q 2744 1025 2744 1678 
Q 2744 2294 2464 2611 
Q 2184 2928 1769 2928 
Q 1347 2928 1069 2612 
Q 791 2297 791 1659 
z
" transform="scale(0.015625)"/>
        <path id="ArialMT-66" d="M 556 0 
L 556 2881 
L 59 2881 
L 59 3319 
L 556 3319 
L 556 3672 
Q 556 4006 616 4169 
Q 697 4388 901 4523 
Q 1106 4659 1475 4659 
Q 1713 4659 2000 4603 
L 1916 4113 
Q 1741 4144 1584 4144 
Q 1328 4144 1222 4034 
Q 1116 3925 1116 3625 
L 1116 3319 
L 1763 3319 
L 1763 2881 
L 1116 2881 
L 1116 0 
L 556 0 
z
" transform="scale(0.015625)"/>
       </defs>
       <use xlink:href="#ArialMT-6f"/>
       <use xlink:href="#ArialMT-66" transform="translate(55.615234 0)"/>
      </g>
     </g>
    </g>
    <g id="xtick_26">
     <g id="line2d_26">
      <g>
       <use xlink:href="#m3296ed9321" x="384.497605" y="348.365017" style="stroke: #000000; stroke-width: 0.8"/>
      </g>
     </g>
     <g id="text_26">
      <!-- области -->
      <g transform="translate(364.076379 391.333273) rotate(-60) scale(0.1 -0.1)">
       <use xlink:href="#ArialMT-43e"/>
       <use xlink:href="#ArialMT-431" transform="translate(55.615234 0)"/>
       <use xlink:href="#ArialMT-43b" transform="translate(108.390625 0)"/>
       <use xlink:href="#ArialMT-430" transform="translate(166.740234 0)"/>
       <use xlink:href="#ArialMT-441" transform="translate(222.355469 0)"/>
       <use xlink:href="#ArialMT-442" transform="translate(272.355469 0)"/>
       <use xlink:href="#ArialMT-438" transform="translate(318.15625 0)"/>
      </g>
     </g>
    </g>
    <g id="xtick_27">
     <g id="line2d_27">
      <g>
       <use xlink:href="#m3296ed9321" x="396.572815" y="348.365017" style="stroke: #000000; stroke-width: 0.8"/>
      </g>
     </g>
     <g id="text_27">
      <!-- которые -->
      <g transform="translate(375.771121 391.992264) rotate(-60) scale(0.1 -0.1)">
       <use xlink:href="#ArialMT-43a"/>
       <use xlink:href="#ArialMT-43e" transform="translate(44.875 0)"/>
       <use xlink:href="#ArialMT-442" transform="translate(98.240234 0)"/>
       <use xlink:href="#ArialMT-43e" transform="translate(142.916016 0)"/>
       <use xlink:href="#ArialMT-440" transform="translate(198.53125 0)"/>
       <use xlink:href="#ArialMT-44b" transform="translate(254.146484 0)"/>
       <use xlink:href="#ArialMT-435" transform="translate(326.021484 0)"/>
      </g>
     </g>
    </g>
    <g id="xtick_28">
     <g id="line2d_28">
      <g>
       <use xlink:href="#m3296ed9321" x="408.648025" y="348.365017" style="stroke: #000000; stroke-width: 0.8"/>
      </g>
     </g>
     <g id="text_28">
      <!-- его -->
      <g transform="translate(399.654924 371.53918) rotate(-60) scale(0.1 -0.1)">
       <use xlink:href="#ArialMT-435"/>
       <use xlink:href="#ArialMT-433" transform="translate(55.615234 0)"/>
       <use xlink:href="#ArialMT-43e" transform="translate(89.839844 0)"/>
      </g>
     </g>
    </g>
    <g id="xtick_29">
     <g id="line2d_29">
      <g>
       <use xlink:href="#m3296ed9321" x="420.723235" y="348.365017" style="stroke: #000000; stroke-width: 0.8"/>
      </g>
     </g>
     <g id="text_29">
      <!-- and -->
      <g transform="translate(410.660603 373.391662) rotate(-60) scale(0.1 -0.1)">
       <defs>
        <path id="ArialMT-61" d="M 2588 409 
Q 2275 144 1986 34 
Q 1697 -75 1366 -75 
Q 819 -75 525 192 
Q 231 459 231 875 
Q 231 1119 342 1320 
Q 453 1522 633 1644 
Q 813 1766 1038 1828 
Q 1203 1872 1538 1913 
Q 2219 1994 2541 2106 
Q 2544 2222 2544 2253 
Q 2544 2597 2384 2738 
Q 2169 2928 1744 2928 
Q 1347 2928 1158 2789 
Q 969 2650 878 2297 
L 328 2372 
Q 403 2725 575 2942 
Q 747 3159 1072 3276 
Q 1397 3394 1825 3394 
Q 2250 3394 2515 3294 
Q 2781 3194 2906 3042 
Q 3031 2891 3081 2659 
Q 3109 2516 3109 2141 
L 3109 1391 
Q 3109 606 3145 398 
Q 3181 191 3288 0 
L 2700 0 
Q 2613 175 2588 409 
z
M 2541 1666 
Q 2234 1541 1622 1453 
Q 1275 1403 1131 1340 
Q 988 1278 909 1158 
Q 831 1038 831 891 
Q 831 666 1001 516 
Q 1172 366 1500 366 
Q 1825 366 2078 508 
Q 2331 650 2450 897 
Q 2541 1088 2541 1459 
L 2541 1666 
z
" transform="scale(0.015625)"/>
        <path id="ArialMT-6e" d="M 422 0 
L 422 3319 
L 928 3319 
L 928 2847 
Q 1294 3394 1984 3394 
Q 2284 3394 2536 3286 
Q 2788 3178 2913 3003 
Q 3038 2828 3088 2588 
Q 3119 2431 3119 2041 
L 3119 0 
L 2556 0 
L 2556 2019 
Q 2556 2363 2490 2533 
Q 2425 2703 2258 2804 
Q 2091 2906 1866 2906 
Q 1506 2906 1245 2678 
Q 984 2450 984 1813 
L 984 0 
L 422 0 
z
" transform="scale(0.015625)"/>
        <path id="ArialMT-64" d="M 2575 0 
L 2575 419 
Q 2259 -75 1647 -75 
Q 1250 -75 917 144 
Q 584 363 401 755 
Q 219 1147 219 1656 
Q 219 2153 384 2558 
Q 550 2963 881 3178 
Q 1213 3394 1622 3394 
Q 1922 3394 2156 3267 
Q 2391 3141 2538 2938 
L 2538 4581 
L 3097 4581 
L 3097 0 
L 2575 0 
z
M 797 1656 
Q 797 1019 1065 703 
Q 1334 388 1700 388 
Q 2069 388 2326 689 
Q 2584 991 2584 1609 
Q 2584 2291 2321 2609 
Q 2059 2928 1675 2928 
Q 1300 2928 1048 2622 
Q 797 2316 797 1656 
z
" transform="scale(0.015625)"/>
       </defs>
       <use xlink:href="#ArialMT-61"/>
       <use xlink:href="#ArialMT-6e" transform="translate(55.615234 0)"/>
       <use xlink:href="#ArialMT-64" transform="translate(111.230469 0)"/>
      </g>
     </g>
    </g>
    <g id="xtick_30">
     <g id="line2d_30">
      <g>
       <use xlink:href="#m3296ed9321" x="432.798445" y="348.365017" style="stroke: #000000; stroke-width: 0.8"/>
      </g>
     </g>
     <g id="text_30">
      <!-- чтобы -->
      <g transform="translate(417.000657 383.325244) rotate(-60) scale(0.1 -0.1)">
       <use xlink:href="#ArialMT-447"/>
       <use xlink:href="#ArialMT-442" transform="translate(52.099609 0)"/>
       <use xlink:href="#ArialMT-43e" transform="translate(96.775391 0)"/>
       <use xlink:href="#ArialMT-431" transform="translate(152.390625 0)"/>
       <use xlink:href="#ArialMT-44b" transform="translate(209.666016 0)"/>
      </g>
     </g>
    </g>
    <g id="xtick_31">
     <g id="line2d_31">
      <g>
       <use xlink:href="#m3296ed9321" x="444.873655" y="348.365017" style="stroke: #000000; stroke-width: 0.8"/>
      </g>
     </g>
     <g id="text_31">
      <!-- отношении -->
      <g transform="translate(417.514929 403.349375) rotate(-60) scale(0.1 -0.1)">
       <defs>
        <path id="ArialMT-448" d="M 441 3319 
L 1003 3319 
L 1003 466 
L 2284 466 
L 2284 3319 
L 2847 3319 
L 2847 466 
L 4131 466 
L 4131 3319 
L 4691 3319 
L 4691 0 
L 441 0 
L 441 3319 
z
" transform="scale(0.015625)"/>
       </defs>
       <use xlink:href="#ArialMT-43e"/>
       <use xlink:href="#ArialMT-442" transform="translate(53.365234 0)"/>
       <use xlink:href="#ArialMT-43d" transform="translate(99.166016 0)"/>
       <use xlink:href="#ArialMT-43e" transform="translate(154.390625 0)"/>
       <use xlink:href="#ArialMT-448" transform="translate(210.005859 0)"/>
       <use xlink:href="#ArialMT-435" transform="translate(290.230469 0)"/>
       <use xlink:href="#ArialMT-43d" transform="translate(345.845703 0)"/>
       <use xlink:href="#ArialMT-438" transform="translate(401.070312 0)"/>
       <use xlink:href="#ArialMT-438" transform="translate(456.929688 0)"/>
      </g>
     </g>
    </g>
    <g id="xtick_32">
     <g id="line2d_32">
      <g>
       <use xlink:href="#m3296ed9321" x="456.948865" y="348.365017" style="stroke: #000000; stroke-width: 0.8"/>
      </g>
     </g>
     <g id="text_32">
      <!-- при -->
      <g transform="translate(446.946389 373.287469) rotate(-60) scale(0.1 -0.1)">
       <use xlink:href="#ArialMT-43f"/>
       <use xlink:href="#ArialMT-440" transform="translate(54.150391 0)"/>
       <use xlink:href="#ArialMT-438" transform="translate(109.765625 0)"/>
      </g>
     </g>
    </g>
    <g id="xtick_33">
     <g id="line2d_33">
      <g>
       <use xlink:href="#m3296ed9321" x="469.024074" y="348.365017" style="stroke: #000000; stroke-width: 0.8"/>
      </g>
     </g>
     <g id="text_33">
      <!-- прав -->
      <g transform="translate(456.377849 377.866578) rotate(-60) scale(0.1 -0.1)">
       <use xlink:href="#ArialMT-43f"/>
       <use xlink:href="#ArialMT-440" transform="translate(54.150391 0)"/>
       <use xlink:href="#ArialMT-430" transform="translate(109.765625 0)"/>
       <use xlink:href="#ArialMT-432" transform="translate(165.380859 0)"/>
      </g>
     </g>
    </g>
    <g id="xtick_34">
     <g id="line2d_34">
      <g>
       <use xlink:href="#m3296ed9321" x="481.099284" y="348.365017" style="stroke: #000000; stroke-width: 0.8"/>
      </g>
     </g>
     <g id="text_34">
      <!-- того, -->
      <g transform="translate(468.483528 377.813805) rotate(-60) scale(0.1 -0.1)">
       <defs>
        <path id="ArialMT-2c" d="M 569 0 
L 569 641 
L 1209 641 
L 1209 0 
Q 1209 -353 1084 -570 
Q 959 -788 688 -906 
L 531 -666 
Q 709 -588 793 -436 
Q 878 -284 888 0 
L 569 0 
z
" transform="scale(0.015625)"/>
       </defs>
       <use xlink:href="#ArialMT-442"/>
       <use xlink:href="#ArialMT-43e" transform="translate(44.675781 0)"/>
       <use xlink:href="#ArialMT-433" transform="translate(100.291016 0)"/>
       <use xlink:href="#ArialMT-43e" transform="translate(134.515625 0)"/>
       <use xlink:href="#ArialMT-2c" transform="translate(190.130859 0)"/>
      </g>
     </g>
    </g>
    <g id="xtick_35">
     <g id="line2d_35">
      <g>
       <use xlink:href="#m3296ed9321" x="493.174494" y="348.365017" style="stroke: #000000; stroke-width: 0.8"/>
      </g>
     </g>
     <g id="text_35">
      <!-- связи -->
      <g transform="translate(478.5603 381.2752) rotate(-60) scale(0.1 -0.1)">
       <use xlink:href="#ArialMT-441"/>
       <use xlink:href="#ArialMT-432" transform="translate(50 0)"/>
       <use xlink:href="#ArialMT-44f" transform="translate(102 0)"/>
       <use xlink:href="#ArialMT-437" transform="translate(156.150391 0)"/>
       <use xlink:href="#ArialMT-438" transform="translate(202 0)"/>
      </g>
     </g>
    </g>
    <g id="xtick_36">
     <g id="line2d_36">
      <g>
       <use xlink:href="#m3296ed9321" x="505.249704" y="348.365017" style="stroke: #000000; stroke-width: 0.8"/>
      </g>
     </g>
     <g id="text_36">
      <!-- ее -->
      <g transform="translate(497.967541 368.575749) rotate(-60) scale(0.1 -0.1)">
       <use xlink:href="#ArialMT-435"/>
       <use xlink:href="#ArialMT-435" transform="translate(55.615234 0)"/>
      </g>
     </g>
    </g>
    <g id="xtick_37">
     <g id="line2d_37">
      <g>
       <use xlink:href="#m3296ed9321" x="517.324914" y="348.365017" style="stroke: #000000; stroke-width: 0.8"/>
      </g>
     </g>
     <g id="text_37">
      <!-- этой -->
      <g transform="translate(505.357595 376.690678) rotate(-60) scale(0.1 -0.1)">
       <defs>
        <path id="ArialMT-44d" d="M 1263 1931 
L 1263 1469 
L 2434 1469 
Q 2381 928 2154 658 
Q 1928 388 1525 388 
Q 813 388 684 1213 
L 134 1141 
Q 222 594 589 259 
Q 956 -75 1550 -75 
Q 2256 -116 2643 373 
Q 3031 863 3013 1659 
Q 3013 2469 2609 2931 
Q 2206 3394 1509 3394 
Q 953 3394 609 3098 
Q 266 2803 191 2338 
L 738 2250 
Q 875 2928 1528 2928 
Q 1903 2928 2142 2651 
Q 2381 2375 2434 1931 
L 1263 1931 
z
" transform="scale(0.015625)"/>
       </defs>
       <use xlink:href="#ArialMT-44d"/>
       <use xlink:href="#ArialMT-442" transform="translate(48.775391 0)"/>
       <use xlink:href="#ArialMT-43e" transform="translate(93.451172 0)"/>
       <use xlink:href="#ArialMT-439" transform="translate(149.066406 0)"/>
      </g>
     </g>
    </g>
    <g id="xtick_38">
     <g id="line2d_38">
      <g>
       <use xlink:href="#m3296ed9321" x="529.400124" y="348.365017" style="stroke: #000000; stroke-width: 0.8"/>
      </g>
     </g>
     <g id="text_38">
      <!-- соответствии -->
      <g transform="translate(496.907024 412.242374) rotate(-60) scale(0.1 -0.1)">
       <use xlink:href="#ArialMT-441"/>
       <use xlink:href="#ArialMT-43e" transform="translate(51.125 0)"/>
       <use xlink:href="#ArialMT-43e" transform="translate(106.740234 0)"/>
       <use xlink:href="#ArialMT-442" transform="translate(160.105469 0)"/>
       <use xlink:href="#ArialMT-432" transform="translate(205.90625 0)"/>
       <use xlink:href="#ArialMT-435" transform="translate(257.90625 0)"/>
       <use xlink:href="#ArialMT-442" transform="translate(310.146484 0)"/>
       <use xlink:href="#ArialMT-441" transform="translate(354.822266 0)"/>
       <use xlink:href="#ArialMT-442" transform="translate(404.822266 0)"/>
       <use xlink:href="#ArialMT-432" transform="translate(450.623047 0)"/>
       <use xlink:href="#ArialMT-438" transform="translate(503.748047 0)"/>
       <use xlink:href="#ArialMT-438" transform="translate(559.607422 0)"/>
      </g>
     </g>
    </g>
    <g id="xtick_39">
     <g id="line2d_39">
      <g>
       <use xlink:href="#m3296ed9321" x="541.475334" y="348.365017" style="stroke: #000000; stroke-width: 0.8"/>
      </g>
     </g>
     <g id="text_39">
      <!-- более -->
      <g transform="translate(525.743952 383.210225) rotate(-60) scale(0.1 -0.1)">
       <use xlink:href="#ArialMT-431"/>
       <use xlink:href="#ArialMT-43e" transform="translate(57.275391 0)"/>
       <use xlink:href="#ArialMT-43b" transform="translate(110.640625 0)"/>
       <use xlink:href="#ArialMT-435" transform="translate(168.990234 0)"/>
       <use xlink:href="#ArialMT-435" transform="translate(224.605469 0)"/>
      </g>
     </g>
    </g>
    <g id="xtick_40">
     <g id="line2d_40">
      <g>
       <use xlink:href="#m3296ed9321" x="553.550544" y="348.365017" style="stroke: #000000; stroke-width: 0.8"/>
      </g>
     </g>
     <g id="text_40">
      <!-- всех -->
      <g transform="translate(541.56135 376.728566) rotate(-60) scale(0.1 -0.1)">
       <use xlink:href="#ArialMT-432"/>
       <use xlink:href="#ArialMT-441" transform="translate(52 0)"/>
       <use xlink:href="#ArialMT-435" transform="translate(102 0)"/>
       <use xlink:href="#ArialMT-445" transform="translate(155.365234 0)"/>
      </g>
     </g>
    </g>
    <g id="xtick_41">
     <g id="line2d_41">
      <g>
       <use xlink:href="#m3296ed9321" x="565.625754" y="348.365017" style="stroke: #000000; stroke-width: 0.8"/>
      </g>
     </g>
     <g id="text_41">
      <!-- вопросам -->
      <g transform="translate(541.537341 397.685028) rotate(-60) scale(0.1 -0.1)">
       <defs>
        <path id="ArialMT-43c" d="M 438 3319 
L 1313 3319 
L 2184 663 
L 3153 3319 
L 3963 3319 
L 3963 0 
L 3400 0 
L 3400 2672 
L 2419 0 
L 1916 0 
L 988 2800 
L 988 0 
L 438 0 
L 438 3319 
z
" transform="scale(0.015625)"/>
       </defs>
       <use xlink:href="#ArialMT-432"/>
       <use xlink:href="#ArialMT-43e" transform="translate(52 0)"/>
       <use xlink:href="#ArialMT-43f" transform="translate(107.615234 0)"/>
       <use xlink:href="#ArialMT-440" transform="translate(161.765625 0)"/>
       <use xlink:href="#ArialMT-43e" transform="translate(217.380859 0)"/>
       <use xlink:href="#ArialMT-441" transform="translate(272.996094 0)"/>
       <use xlink:href="#ArialMT-430" transform="translate(322.996094 0)"/>
       <use xlink:href="#ArialMT-43c" transform="translate(378.611328 0)"/>
      </g>
     </g>
    </g>
    <g id="xtick_42">
     <g id="line2d_42">
      <g>
       <use xlink:href="#m3296ed9321" x="577.700964" y="348.365017" style="stroke: #000000; stroke-width: 0.8"/>
      </g>
     </g>
     <g id="text_42">
      <!-- будет -->
      <g transform="translate(562.976689 381.376022) rotate(-60) scale(0.1 -0.1)">
       <defs>
        <path id="ArialMT-443" d="M 397 -1278 
L 334 -750 
Q 519 -800 656 -800 
Q 844 -800 956 -737 
Q 1069 -675 1141 -563 
Q 1194 -478 1313 -144 
Q 1328 -97 1363 -6 
L 103 3319 
L 709 3319 
L 1400 1397 
Q 1534 1031 1641 628 
Q 1738 1016 1872 1384 
L 2581 3319 
L 3144 3319 
L 1881 -56 
Q 1678 -603 1566 -809 
Q 1416 -1088 1222 -1217 
Q 1028 -1347 759 -1347 
Q 597 -1347 397 -1278 
z
" transform="scale(0.015625)"/>
       </defs>
       <use xlink:href="#ArialMT-431"/>
       <use xlink:href="#ArialMT-443" transform="translate(55.025391 0)"/>
       <use xlink:href="#ArialMT-434" transform="translate(101.650391 0)"/>
       <use xlink:href="#ArialMT-435" transform="translate(160 0)"/>
       <use xlink:href="#ArialMT-442" transform="translate(212.240234 0)"/>
      </g>
     </g>
    </g>
    <g id="xtick_43">
     <g id="line2d_43">
      <g>
       <use xlink:href="#m3296ed9321" x="589.776174" y="348.365017" style="stroke: #000000; stroke-width: 0.8"/>
      </g>
     </g>
     <g id="text_43">
      <!-- рамках -->
      <g transform="translate(571.476042 387.659431) rotate(-60) scale(0.1 -0.1)">
       <use xlink:href="#ArialMT-440"/>
       <use xlink:href="#ArialMT-430" transform="translate(55.615234 0)"/>
       <use xlink:href="#ArialMT-43c" transform="translate(111.230469 0)"/>
       <use xlink:href="#ArialMT-43a" transform="translate(179.980469 0)"/>
       <use xlink:href="#ArialMT-430" transform="translate(225.980469 0)"/>
       <use xlink:href="#ArialMT-445" transform="translate(281.595703 0)"/>
      </g>
     </g>
    </g>
    <g id="xtick_44">
     <g id="line2d_44">
      <g>
       <use xlink:href="#m3296ed9321" x="601.851384" y="348.365017" style="stroke: #000000; stroke-width: 0.8"/>
      </g>
     </g>
     <g id="text_44">
      <!-- об -->
      <g transform="translate(594.485627 368.720538) rotate(-60) scale(0.1 -0.1)">
       <use xlink:href="#ArialMT-43e"/>
       <use xlink:href="#ArialMT-431" transform="translate(55.615234 0)"/>
      </g>
     </g>
    </g>
    <g id="xtick_45">
     <g id="line2d_45">
      <g>
       <use xlink:href="#m3296ed9321" x="613.926594" y="348.365017" style="stroke: #000000; stroke-width: 0.8"/>
      </g>
     </g>
     <g id="text_45">
      <!-- развития -->
      <g transform="translate(591.168649 395.380589) rotate(-60) scale(0.1 -0.1)">
       <use xlink:href="#ArialMT-440"/>
       <use xlink:href="#ArialMT-430" transform="translate(55.615234 0)"/>
       <use xlink:href="#ArialMT-437" transform="translate(110.105469 0)"/>
       <use xlink:href="#ArialMT-432" transform="translate(155.955078 0)"/>
       <use xlink:href="#ArialMT-438" transform="translate(209.080078 0)"/>
       <use xlink:href="#ArialMT-442" transform="translate(264.939453 0)"/>
       <use xlink:href="#ArialMT-438" transform="translate(310.740234 0)"/>
       <use xlink:href="#ArialMT-44f" transform="translate(366.599609 0)"/>
      </g>
     </g>
    </g>
    <g id="xtick_46">
     <g id="line2d_46">
      <g>
       <use xlink:href="#m3296ed9321" x="626.001804" y="348.365017" style="stroke: #000000; stroke-width: 0.8"/>
      </g>
     </g>
     <g id="text_46">
      <!-- целях -->
      <g transform="translate(610.736047 382.403739) rotate(-60) scale(0.1 -0.1)">
       <use xlink:href="#ArialMT-446"/>
       <use xlink:href="#ArialMT-435" transform="translate(56.150391 0)"/>
       <use xlink:href="#ArialMT-43b" transform="translate(108.390625 0)"/>
       <use xlink:href="#ArialMT-44f" transform="translate(166.740234 0)"/>
       <use xlink:href="#ArialMT-445" transform="translate(220.890625 0)"/>
      </g>
     </g>
    </g>
    <g id="xtick_47">
     <g id="line2d_47">
      <g>
       <use xlink:href="#m3296ed9321" x="638.077014" y="348.365017" style="stroke: #000000; stroke-width: 0.8"/>
      </g>
     </g>
     <g id="text_47">
      <!-- человека -->
      <g transform="translate(614.924538 396.063937) rotate(-60) scale(0.1 -0.1)">
       <use xlink:href="#ArialMT-447"/>
       <use xlink:href="#ArialMT-435" transform="translate(52.099609 0)"/>
       <use xlink:href="#ArialMT-43b" transform="translate(104.339844 0)"/>
       <use xlink:href="#ArialMT-43e" transform="translate(163.814453 0)"/>
       <use xlink:href="#ArialMT-432" transform="translate(219.429688 0)"/>
       <use xlink:href="#ArialMT-435" transform="translate(271.429688 0)"/>
       <use xlink:href="#ArialMT-43a" transform="translate(327.044922 0)"/>
       <use xlink:href="#ArialMT-430" transform="translate(373.044922 0)"/>
      </g>
     </g>
    </g>
    <g id="xtick_48">
     <g id="line2d_48">
      <g>
       <use xlink:href="#m3296ed9321" x="650.152223" y="348.365017" style="stroke: #000000; stroke-width: 0.8"/>
      </g>
     </g>
     <g id="text_48">
      <!-- включая -->
      <g transform="translate(628.883342 392.801457) rotate(-60) scale(0.1 -0.1)">
       <defs>
        <path id="ArialMT-44e" d="M 428 3319 
L 991 3319 
L 991 1931 
L 1672 1931 
Q 1747 2644 2117 3019 
Q 2488 3394 3078 3394 
Q 3581 3394 3872 3191 
Q 4163 2988 4352 2631 
Q 4541 2275 4541 1672 
Q 4541 813 4150 369 
Q 3759 -75 3091 -75 
Q 2469 -75 2094 337 
Q 1719 750 1672 1469 
L 991 1469 
L 991 0 
L 428 0 
L 428 3319 
z
M 3109 2916 
Q 2697 2916 2467 2598 
Q 2238 2281 2238 1709 
Q 2238 1025 2469 706 
Q 2700 388 3088 388 
Q 3472 388 3717 683 
Q 3963 978 3963 1634 
Q 3963 2275 3750 2595 
Q 3538 2916 3109 2916 
z
" transform="scale(0.015625)"/>
       </defs>
       <use xlink:href="#ArialMT-432"/>
       <use xlink:href="#ArialMT-43a" transform="translate(53.125 0)"/>
       <use xlink:href="#ArialMT-43b" transform="translate(98 0)"/>
       <use xlink:href="#ArialMT-44e" transform="translate(156.349609 0)"/>
       <use xlink:href="#ArialMT-447" transform="translate(229.099609 0)"/>
       <use xlink:href="#ArialMT-430" transform="translate(281.199219 0)"/>
       <use xlink:href="#ArialMT-44f" transform="translate(336.814453 0)"/>
      </g>
     </g>
    </g>
    <g id="xtick_49">
     <g id="line2d_49">
      <g>
       <use xlink:href="#m3296ed9321" x="662.227433" y="348.365017" style="stroke: #000000; stroke-width: 0.8"/>
      </g>
     </g>
     <g id="text_49">
      <!-- между -->
      <g transform="translate(645.481283 384.733481) rotate(-60) scale(0.1 -0.1)">
       <use xlink:href="#ArialMT-43c"/>
       <use xlink:href="#ArialMT-435" transform="translate(68.75 0)"/>
       <use xlink:href="#ArialMT-436" transform="translate(123.240234 0)"/>
       <use xlink:href="#ArialMT-434" transform="translate(190.134766 0)"/>
       <use xlink:href="#ArialMT-443" transform="translate(248.484375 0)"/>
      </g>
     </g>
    </g>
    <g id="xtick_50">
     <g id="line2d_50">
      <g>
       <use xlink:href="#m3296ed9321" x="674.302643" y="348.365017" style="stroke: #000000; stroke-width: 0.8"/>
      </g>
     </g>
     <g id="text_50">
      <!-- до -->
      <g transform="translate(666.883762 368.812553) rotate(-60) scale(0.1 -0.1)">
       <use xlink:href="#ArialMT-434"/>
       <use xlink:href="#ArialMT-43e" transform="translate(58.349609 0)"/>
      </g>
     </g>
    </g>
   </g>
   <g id="matplotlib.axis_2">
    <g id="ytick_1">
     <g id="line2d_51">
      <defs>
       <path id="m431caa18a8" d="M 0 0 
L -3.5 0 
" style="stroke: #000000; stroke-width: 0.8"/>
      </defs>
      <g>
       <use xlink:href="#m431caa18a8" x="47.72" y="348.365017" style="stroke: #000000; stroke-width: 0.8"/>
      </g>
     </g>
     <g id="text_51">
      <!-- 0.0 -->
      <g transform="translate(24.816875 352.164235) scale(0.1 -0.1)">
       <defs>
        <path id="DejaVuSans-30" d="M 2034 4250 
Q 1547 4250 1301 3770 
Q 1056 3291 1056 2328 
Q 1056 1369 1301 889 
Q 1547 409 2034 409 
Q 2525 409 2770 889 
Q 3016 1369 3016 2328 
Q 3016 3291 2770 3770 
Q 2525 4250 2034 4250 
z
M 2034 4750 
Q 2819 4750 3233 4129 
Q 3647 3509 3647 2328 
Q 3647 1150 3233 529 
Q 2819 -91 2034 -91 
Q 1250 -91 836 529 
Q 422 1150 422 2328 
Q 422 3509 836 4129 
Q 1250 4750 2034 4750 
z
" transform="scale(0.015625)"/>
        <path id="DejaVuSans-2e" d="M 684 794 
L 1344 794 
L 1344 0 
L 684 0 
L 684 794 
z
" transform="scale(0.015625)"/>
       </defs>
       <use xlink:href="#DejaVuSans-30"/>
       <use xlink:href="#DejaVuSans-2e" transform="translate(63.623047 0)"/>
       <use xlink:href="#DejaVuSans-30" transform="translate(95.410156 0)"/>
      </g>
     </g>
    </g>
    <g id="ytick_2">
     <g id="line2d_52">
      <g>
       <use xlink:href="#m431caa18a8" x="47.72" y="294.770883" style="stroke: #000000; stroke-width: 0.8"/>
      </g>
     </g>
     <g id="text_52">
      <!-- 0.5 -->
      <g transform="translate(24.816875 298.570102) scale(0.1 -0.1)">
       <defs>
        <path id="DejaVuSans-35" d="M 691 4666 
L 3169 4666 
L 3169 4134 
L 1269 4134 
L 1269 2991 
Q 1406 3038 1543 3061 
Q 1681 3084 1819 3084 
Q 2600 3084 3056 2656 
Q 3513 2228 3513 1497 
Q 3513 744 3044 326 
Q 2575 -91 1722 -91 
Q 1428 -91 1123 -41 
Q 819 9 494 109 
L 494 744 
Q 775 591 1075 516 
Q 1375 441 1709 441 
Q 2250 441 2565 725 
Q 2881 1009 2881 1497 
Q 2881 1984 2565 2268 
Q 2250 2553 1709 2553 
Q 1456 2553 1204 2497 
Q 953 2441 691 2322 
L 691 4666 
z
" transform="scale(0.015625)"/>
       </defs>
       <use xlink:href="#DejaVuSans-30"/>
       <use xlink:href="#DejaVuSans-2e" transform="translate(63.623047 0)"/>
       <use xlink:href="#DejaVuSans-35" transform="translate(95.410156 0)"/>
      </g>
     </g>
    </g>
    <g id="ytick_3">
     <g id="line2d_53">
      <g>
       <use xlink:href="#m431caa18a8" x="47.72" y="241.17675" style="stroke: #000000; stroke-width: 0.8"/>
      </g>
     </g>
     <g id="text_53">
      <!-- 1.0 -->
      <g transform="translate(24.816875 244.975969) scale(0.1 -0.1)">
       <defs>
        <path id="DejaVuSans-31" d="M 794 531 
L 1825 531 
L 1825 4091 
L 703 3866 
L 703 4441 
L 1819 4666 
L 2450 4666 
L 2450 531 
L 3481 531 
L 3481 0 
L 794 0 
L 794 531 
z
" transform="scale(0.015625)"/>
       </defs>
       <use xlink:href="#DejaVuSans-31"/>
       <use xlink:href="#DejaVuSans-2e" transform="translate(63.623047 0)"/>
       <use xlink:href="#DejaVuSans-30" transform="translate(95.410156 0)"/>
      </g>
     </g>
    </g>
    <g id="ytick_4">
     <g id="line2d_54">
      <g>
       <use xlink:href="#m431caa18a8" x="47.72" y="187.582617" style="stroke: #000000; stroke-width: 0.8"/>
      </g>
     </g>
     <g id="text_54">
      <!-- 1.5 -->
      <g transform="translate(24.816875 191.381836) scale(0.1 -0.1)">
       <use xlink:href="#DejaVuSans-31"/>
       <use xlink:href="#DejaVuSans-2e" transform="translate(63.623047 0)"/>
       <use xlink:href="#DejaVuSans-35" transform="translate(95.410156 0)"/>
      </g>
     </g>
    </g>
    <g id="ytick_5">
     <g id="line2d_55">
      <g>
       <use xlink:href="#m431caa18a8" x="47.72" y="133.988484" style="stroke: #000000; stroke-width: 0.8"/>
      </g>
     </g>
     <g id="text_55">
      <!-- 2.0 -->
      <g transform="translate(24.816875 137.787702) scale(0.1 -0.1)">
       <defs>
        <path id="DejaVuSans-32" d="M 1228 531 
L 3431 531 
L 3431 0 
L 469 0 
L 469 531 
Q 828 903 1448 1529 
Q 2069 2156 2228 2338 
Q 2531 2678 2651 2914 
Q 2772 3150 2772 3378 
Q 2772 3750 2511 3984 
Q 2250 4219 1831 4219 
Q 1534 4219 1204 4116 
Q 875 4013 500 3803 
L 500 4441 
Q 881 4594 1212 4672 
Q 1544 4750 1819 4750 
Q 2544 4750 2975 4387 
Q 3406 4025 3406 3419 
Q 3406 3131 3298 2873 
Q 3191 2616 2906 2266 
Q 2828 2175 2409 1742 
Q 1991 1309 1228 531 
z
" transform="scale(0.015625)"/>
       </defs>
       <use xlink:href="#DejaVuSans-32"/>
       <use xlink:href="#DejaVuSans-2e" transform="translate(63.623047 0)"/>
       <use xlink:href="#DejaVuSans-30" transform="translate(95.410156 0)"/>
      </g>
     </g>
    </g>
    <g id="ytick_6">
     <g id="line2d_56">
      <g>
       <use xlink:href="#m431caa18a8" x="47.72" y="80.39435" style="stroke: #000000; stroke-width: 0.8"/>
      </g>
     </g>
     <g id="text_56">
      <!-- 2.5 -->
      <g transform="translate(24.816875 84.193569) scale(0.1 -0.1)">
       <use xlink:href="#DejaVuSans-32"/>
       <use xlink:href="#DejaVuSans-2e" transform="translate(63.623047 0)"/>
       <use xlink:href="#DejaVuSans-35" transform="translate(95.410156 0)"/>
      </g>
     </g>
    </g>
    <g id="text_57">
     <!-- Frequency -->
     <g transform="translate(18.737188 214.172196) rotate(-90) scale(0.1 -0.1)">
      <defs>
       <path id="DejaVuSans-46" d="M 628 4666 
L 3309 4666 
L 3309 4134 
L 1259 4134 
L 1259 2759 
L 3109 2759 
L 3109 2228 
L 1259 2228 
L 1259 0 
L 628 0 
L 628 4666 
z
" transform="scale(0.015625)"/>
       <path id="DejaVuSans-72" d="M 2631 2963 
Q 2534 3019 2420 3045 
Q 2306 3072 2169 3072 
Q 1681 3072 1420 2755 
Q 1159 2438 1159 1844 
L 1159 0 
L 581 0 
L 581 3500 
L 1159 3500 
L 1159 2956 
Q 1341 3275 1631 3429 
Q 1922 3584 2338 3584 
Q 2397 3584 2469 3576 
Q 2541 3569 2628 3553 
L 2631 2963 
z
" transform="scale(0.015625)"/>
       <path id="DejaVuSans-65" d="M 3597 1894 
L 3597 1613 
L 953 1613 
Q 991 1019 1311 708 
Q 1631 397 2203 397 
Q 2534 397 2845 478 
Q 3156 559 3463 722 
L 3463 178 
Q 3153 47 2828 -22 
Q 2503 -91 2169 -91 
Q 1331 -91 842 396 
Q 353 884 353 1716 
Q 353 2575 817 3079 
Q 1281 3584 2069 3584 
Q 2775 3584 3186 3129 
Q 3597 2675 3597 1894 
z
M 3022 2063 
Q 3016 2534 2758 2815 
Q 2500 3097 2075 3097 
Q 1594 3097 1305 2825 
Q 1016 2553 972 2059 
L 3022 2063 
z
" transform="scale(0.015625)"/>
       <path id="DejaVuSans-71" d="M 947 1747 
Q 947 1113 1208 752 
Q 1469 391 1925 391 
Q 2381 391 2643 752 
Q 2906 1113 2906 1747 
Q 2906 2381 2643 2742 
Q 2381 3103 1925 3103 
Q 1469 3103 1208 2742 
Q 947 2381 947 1747 
z
M 2906 525 
Q 2725 213 2448 61 
Q 2172 -91 1784 -91 
Q 1150 -91 751 415 
Q 353 922 353 1747 
Q 353 2572 751 3078 
Q 1150 3584 1784 3584 
Q 2172 3584 2448 3432 
Q 2725 3281 2906 2969 
L 2906 3500 
L 3481 3500 
L 3481 -1331 
L 2906 -1331 
L 2906 525 
z
" transform="scale(0.015625)"/>
       <path id="DejaVuSans-75" d="M 544 1381 
L 544 3500 
L 1119 3500 
L 1119 1403 
Q 1119 906 1312 657 
Q 1506 409 1894 409 
Q 2359 409 2629 706 
Q 2900 1003 2900 1516 
L 2900 3500 
L 3475 3500 
L 3475 0 
L 2900 0 
L 2900 538 
Q 2691 219 2414 64 
Q 2138 -91 1772 -91 
Q 1169 -91 856 284 
Q 544 659 544 1381 
z
M 1991 3584 
L 1991 3584 
z
" transform="scale(0.015625)"/>
       <path id="DejaVuSans-6e" d="M 3513 2113 
L 3513 0 
L 2938 0 
L 2938 2094 
Q 2938 2591 2744 2837 
Q 2550 3084 2163 3084 
Q 1697 3084 1428 2787 
Q 1159 2491 1159 1978 
L 1159 0 
L 581 0 
L 581 3500 
L 1159 3500 
L 1159 2956 
Q 1366 3272 1645 3428 
Q 1925 3584 2291 3584 
Q 2894 3584 3203 3211 
Q 3513 2838 3513 2113 
z
" transform="scale(0.015625)"/>
       <path id="DejaVuSans-63" d="M 3122 3366 
L 3122 2828 
Q 2878 2963 2633 3030 
Q 2388 3097 2138 3097 
Q 1578 3097 1268 2742 
Q 959 2388 959 1747 
Q 959 1106 1268 751 
Q 1578 397 2138 397 
Q 2388 397 2633 464 
Q 2878 531 3122 666 
L 3122 134 
Q 2881 22 2623 -34 
Q 2366 -91 2075 -91 
Q 1284 -91 818 406 
Q 353 903 353 1747 
Q 353 2603 823 3093 
Q 1294 3584 2113 3584 
Q 2378 3584 2631 3529 
Q 2884 3475 3122 3366 
z
" transform="scale(0.015625)"/>
       <path id="DejaVuSans-79" d="M 2059 -325 
Q 1816 -950 1584 -1140 
Q 1353 -1331 966 -1331 
L 506 -1331 
L 506 -850 
L 844 -850 
Q 1081 -850 1212 -737 
Q 1344 -625 1503 -206 
L 1606 56 
L 191 3500 
L 800 3500 
L 1894 763 
L 2988 3500 
L 3597 3500 
L 2059 -325 
z
" transform="scale(0.015625)"/>
      </defs>
      <use xlink:href="#DejaVuSans-46"/>
      <use xlink:href="#DejaVuSans-72" transform="translate(50.269531 0)"/>
      <use xlink:href="#DejaVuSans-65" transform="translate(89.132812 0)"/>
      <use xlink:href="#DejaVuSans-71" transform="translate(150.65625 0)"/>
      <use xlink:href="#DejaVuSans-75" transform="translate(214.132812 0)"/>
      <use xlink:href="#DejaVuSans-65" transform="translate(277.511719 0)"/>
      <use xlink:href="#DejaVuSans-6e" transform="translate(339.035156 0)"/>
      <use xlink:href="#DejaVuSans-63" transform="translate(402.414062 0)"/>
      <use xlink:href="#DejaVuSans-79" transform="translate(457.394531 0)"/>
     </g>
    </g>
    <g id="text_58">
     <!-- 1e7 -->
     <g transform="translate(47.72 25.32) scale(0.1 -0.1)">
      <defs>
       <path id="DejaVuSans-37" d="M 525 4666 
L 3525 4666 
L 3525 4397 
L 1831 0 
L 1172 0 
L 2766 4134 
L 525 4134 
L 525 4666 
z
" transform="scale(0.015625)"/>
      </defs>
      <use xlink:href="#DejaVuSans-31"/>
      <use xlink:href="#DejaVuSans-65" transform="translate(63.623047 0)"/>
      <use xlink:href="#DejaVuSans-37" transform="translate(125.146484 0)"/>
     </g>
    </g>
   </g>
   <g id="patch_53">
    <path d="M 47.72 348.365017 
L 47.72 28.32 
" style="fill: none; stroke: #000000; stroke-width: 0.8; stroke-linejoin: miter; stroke-linecap: square"/>
   </g>
   <g id="patch_54">
    <path d="M 709.2 348.365017 
L 709.2 28.32 
" style="fill: none; stroke: #000000; stroke-width: 0.8; stroke-linejoin: miter; stroke-linecap: square"/>
   </g>
   <g id="patch_55">
    <path d="M 47.72 348.365017 
L 709.2 348.365017 
" style="fill: none; stroke: #000000; stroke-width: 0.8; stroke-linejoin: miter; stroke-linecap: square"/>
   </g>
   <g id="patch_56">
    <path d="M 47.72 28.32 
L 709.2 28.32 
" style="fill: none; stroke: #000000; stroke-width: 0.8; stroke-linejoin: miter; stroke-linecap: square"/>
   </g>
   <g id="text_59">
    <!-- Top 50 words in ru -->
    <g transform="translate(313.10125 22.32) scale(0.16 -0.16)">
     <defs>
      <path id="ArialMT-54" d="M 1659 0 
L 1659 4041 
L 150 4041 
L 150 4581 
L 3781 4581 
L 3781 4041 
L 2266 4041 
L 2266 0 
L 1659 0 
z
" transform="scale(0.015625)"/>
      <path id="ArialMT-70" d="M 422 -1272 
L 422 3319 
L 934 3319 
L 934 2888 
Q 1116 3141 1344 3267 
Q 1572 3394 1897 3394 
Q 2322 3394 2647 3175 
Q 2972 2956 3137 2557 
Q 3303 2159 3303 1684 
Q 3303 1175 3120 767 
Q 2938 359 2589 142 
Q 2241 -75 1856 -75 
Q 1575 -75 1351 44 
Q 1128 163 984 344 
L 984 -1272 
L 422 -1272 
z
M 931 1641 
Q 931 1000 1190 694 
Q 1450 388 1819 388 
Q 2194 388 2461 705 
Q 2728 1022 2728 1688 
Q 2728 2322 2467 2637 
Q 2206 2953 1844 2953 
Q 1484 2953 1207 2617 
Q 931 2281 931 1641 
z
" transform="scale(0.015625)"/>
      <path id="ArialMT-20" transform="scale(0.015625)"/>
      <path id="ArialMT-35" d="M 266 1200 
L 856 1250 
Q 922 819 1161 601 
Q 1400 384 1738 384 
Q 2144 384 2425 690 
Q 2706 997 2706 1503 
Q 2706 1984 2436 2262 
Q 2166 2541 1728 2541 
Q 1456 2541 1237 2417 
Q 1019 2294 894 2097 
L 366 2166 
L 809 4519 
L 3088 4519 
L 3088 3981 
L 1259 3981 
L 1013 2750 
Q 1425 3038 1878 3038 
Q 2478 3038 2890 2622 
Q 3303 2206 3303 1553 
Q 3303 931 2941 478 
Q 2500 -78 1738 -78 
Q 1113 -78 717 272 
Q 322 622 266 1200 
z
" transform="scale(0.015625)"/>
      <path id="ArialMT-30" d="M 266 2259 
Q 266 3072 433 3567 
Q 600 4063 929 4331 
Q 1259 4600 1759 4600 
Q 2128 4600 2406 4451 
Q 2684 4303 2865 4023 
Q 3047 3744 3150 3342 
Q 3253 2941 3253 2259 
Q 3253 1453 3087 958 
Q 2922 463 2592 192 
Q 2263 -78 1759 -78 
Q 1097 -78 719 397 
Q 266 969 266 2259 
z
M 844 2259 
Q 844 1131 1108 757 
Q 1372 384 1759 384 
Q 2147 384 2411 759 
Q 2675 1134 2675 2259 
Q 2675 3391 2411 3762 
Q 2147 4134 1753 4134 
Q 1366 4134 1134 3806 
Q 844 3388 844 2259 
z
" transform="scale(0.015625)"/>
      <path id="ArialMT-77" d="M 1034 0 
L 19 3319 
L 600 3319 
L 1128 1403 
L 1325 691 
Q 1338 744 1497 1375 
L 2025 3319 
L 2603 3319 
L 3100 1394 
L 3266 759 
L 3456 1400 
L 4025 3319 
L 4572 3319 
L 3534 0 
L 2950 0 
L 2422 1988 
L 2294 2553 
L 1622 0 
L 1034 0 
z
" transform="scale(0.015625)"/>
      <path id="ArialMT-72" d="M 416 0 
L 416 3319 
L 922 3319 
L 922 2816 
Q 1116 3169 1280 3281 
Q 1444 3394 1641 3394 
Q 1925 3394 2219 3213 
L 2025 2691 
Q 1819 2813 1613 2813 
Q 1428 2813 1281 2702 
Q 1134 2591 1072 2394 
Q 978 2094 978 1738 
L 978 0 
L 416 0 
z
" transform="scale(0.015625)"/>
      <path id="ArialMT-73" d="M 197 991 
L 753 1078 
Q 800 744 1014 566 
Q 1228 388 1613 388 
Q 2000 388 2187 545 
Q 2375 703 2375 916 
Q 2375 1106 2209 1216 
Q 2094 1291 1634 1406 
Q 1016 1563 777 1677 
Q 538 1791 414 1992 
Q 291 2194 291 2438 
Q 291 2659 392 2848 
Q 494 3038 669 3163 
Q 800 3259 1026 3326 
Q 1253 3394 1513 3394 
Q 1903 3394 2198 3281 
Q 2494 3169 2634 2976 
Q 2775 2784 2828 2463 
L 2278 2388 
Q 2241 2644 2061 2787 
Q 1881 2931 1553 2931 
Q 1166 2931 1000 2803 
Q 834 2675 834 2503 
Q 834 2394 903 2306 
Q 972 2216 1119 2156 
Q 1203 2125 1616 2013 
Q 2213 1853 2448 1751 
Q 2684 1650 2818 1456 
Q 2953 1263 2953 975 
Q 2953 694 2789 445 
Q 2625 197 2315 61 
Q 2006 -75 1616 -75 
Q 969 -75 630 194 
Q 291 463 197 991 
z
" transform="scale(0.015625)"/>
      <path id="ArialMT-69" d="M 425 3934 
L 425 4581 
L 988 4581 
L 988 3934 
L 425 3934 
z
M 425 0 
L 425 3319 
L 988 3319 
L 988 0 
L 425 0 
z
" transform="scale(0.015625)"/>
      <path id="ArialMT-75" d="M 2597 0 
L 2597 488 
Q 2209 -75 1544 -75 
Q 1250 -75 995 37 
Q 741 150 617 320 
Q 494 491 444 738 
Q 409 903 409 1263 
L 409 3319 
L 972 3319 
L 972 1478 
Q 972 1038 1006 884 
Q 1059 663 1231 536 
Q 1403 409 1656 409 
Q 1909 409 2131 539 
Q 2353 669 2445 892 
Q 2538 1116 2538 1541 
L 2538 3319 
L 3100 3319 
L 3100 0 
L 2597 0 
z
" transform="scale(0.015625)"/>
     </defs>
     <use xlink:href="#ArialMT-54"/>
     <use xlink:href="#ArialMT-6f" transform="translate(49.958984 0)"/>
     <use xlink:href="#ArialMT-70" transform="translate(105.574219 0)"/>
     <use xlink:href="#ArialMT-20" transform="translate(161.189453 0)"/>
     <use xlink:href="#ArialMT-35" transform="translate(188.972656 0)"/>
     <use xlink:href="#ArialMT-30" transform="translate(244.587891 0)"/>
     <use xlink:href="#ArialMT-20" transform="translate(300.203125 0)"/>
     <use xlink:href="#ArialMT-77" transform="translate(327.986328 0)"/>
     <use xlink:href="#ArialMT-6f" transform="translate(400.203125 0)"/>
     <use xlink:href="#ArialMT-72" transform="translate(455.818359 0)"/>
     <use xlink:href="#ArialMT-64" transform="translate(489.119141 0)"/>
     <use xlink:href="#ArialMT-73" transform="translate(544.734375 0)"/>
     <use xlink:href="#ArialMT-20" transform="translate(594.734375 0)"/>
     <use xlink:href="#ArialMT-69" transform="translate(622.517578 0)"/>
     <use xlink:href="#ArialMT-6e" transform="translate(644.734375 0)"/>
     <use xlink:href="#ArialMT-20" transform="translate(700.349609 0)"/>
     <use xlink:href="#ArialMT-72" transform="translate(728.132812 0)"/>
     <use xlink:href="#ArialMT-75" transform="translate(761.433594 0)"/>
    </g>
   </g>
  </g>
 </g>
 <defs>
  <clipPath id="p2b079a0de4">
   <rect x="47.72" y="28.32" width="661.48" height="320.045017"/>
  </clipPath>
 </defs>
</svg>
