<?xml version="1.0" encoding="utf-8" standalone="no"?>
<!DOCTYPE svg PUBLIC "-//W3C//DTD SVG 1.1//EN"
  "http://www.w3.org/Graphics/SVG/1.1/DTD/svg11.dtd">
<svg xmlns:xlink="http://www.w3.org/1999/xlink" width="720pt" height="432pt" viewBox="0 0 720 432" xmlns="http://www.w3.org/2000/svg" version="1.1">
 <metadata>
  <rdf:RDF xmlns:dc="http://purl.org/dc/elements/1.1/" xmlns:cc="http://creativecommons.org/ns#" xmlns:rdf="http://www.w3.org/1999/02/22-rdf-syntax-ns#">
   <cc:Work>
    <dc:type rdf:resource="http://purl.org/dc/dcmitype/StillImage"/>
    <dc:date>2025-09-01T19:41:41.334949</dc:date>
    <dc:format>image/svg+xml</dc:format>
    <dc:creator>
     <cc:Agent>
      <dc:title>Matplotlib v3.10.3, https://matplotlib.org/</dc:title>
     </cc:Agent>
    </dc:creator>
   </cc:Work>
  </rdf:RDF>
 </metadata>
 <defs>
  <style type="text/css">*{stroke-linejoin: round; stroke-linecap: butt}</style>
 </defs>
 <g id="figure_1">
  <g id="patch_1">
   <path d="M 0 432 
L 720 432 
L 720 0 
L 0 0 
z
" style="fill: #ffffff"/>
  </g>
  <g id="axes_1">
   <g id="patch_2">
    <path d="M 47.72 366.748146 
L 709.2 366.748146 
L 709.2 28.32 
L 47.72 28.32 
z
" style="fill: #ffffff"/>
   </g>
   <g id="patch_3">
    <path d="M 77.787273 366.748146 
L 87.447441 366.748146 
L 87.447441 44.435626 
L 77.787273 44.435626 
z
" clip-path="url(#p05f6b4632d)" style="fill: #1f77b4"/>
   </g>
   <g id="patch_4">
    <path d="M 89.862483 366.748146 
L 99.522651 366.748146 
L 99.522651 166.289484 
L 89.862483 166.289484 
z
" clip-path="url(#p05f6b4632d)" style="fill: #1f77b4"/>
   </g>
   <g id="patch_5">
    <path d="M 101.937693 366.748146 
L 111.597861 366.748146 
L 111.597861 231.668712 
L 101.937693 231.668712 
z
" clip-path="url(#p05f6b4632d)" style="fill: #1f77b4"/>
   </g>
   <g id="patch_6">
    <path d="M 114.012903 366.748146 
L 123.67307 366.748146 
L 123.67307 264.706285 
L 114.012903 264.706285 
z
" clip-path="url(#p05f6b4632d)" style="fill: #1f77b4"/>
   </g>
   <g id="patch_7">
    <path d="M 126.088112 366.748146 
L 135.74828 366.748146 
L 135.74828 282.333158 
L 126.088112 282.333158 
z
" clip-path="url(#p05f6b4632d)" style="fill: #1f77b4"/>
   </g>
   <g id="patch_8">
    <path d="M 138.163322 366.748146 
L 147.82349 366.748146 
L 147.82349 303.200243 
L 138.163322 303.200243 
z
" clip-path="url(#p05f6b4632d)" style="fill: #1f77b4"/>
   </g>
   <g id="patch_9">
    <path d="M 150.238532 366.748146 
L 159.8987 366.748146 
L 159.8987 313.54905 
L 150.238532 313.54905 
z
" clip-path="url(#p05f6b4632d)" style="fill: #1f77b4"/>
   </g>
   <g id="patch_10">
    <path d="M 162.313742 366.748146 
L 171.97391 366.748146 
L 171.97391 322.696118 
L 162.313742 322.696118 
z
" clip-path="url(#p05f6b4632d)" style="fill: #1f77b4"/>
   </g>
   <g id="patch_11">
    <path d="M 174.388952 366.748146 
L 184.04912 366.748146 
L 184.04912 326.481803 
L 174.388952 326.481803 
z
" clip-path="url(#p05f6b4632d)" style="fill: #1f77b4"/>
   </g>
   <g id="patch_12">
    <path d="M 186.464162 366.748146 
L 196.12433 366.748146 
L 196.12433 327.52562 
L 186.464162 327.52562 
z
" clip-path="url(#p05f6b4632d)" style="fill: #1f77b4"/>
   </g>
   <g id="patch_13">
    <path d="M 198.539372 366.748146 
L 208.19954 366.748146 
L 208.19954 336.971162 
L 198.539372 336.971162 
z
" clip-path="url(#p05f6b4632d)" style="fill: #1f77b4"/>
   </g>
   <g id="patch_14">
    <path d="M 210.614582 366.748146 
L 220.27475 366.748146 
L 220.27475 340.695162 
L 210.614582 340.695162 
z
" clip-path="url(#p05f6b4632d)" style="fill: #1f77b4"/>
   </g>
   <g id="patch_15">
    <path d="M 222.689792 366.748146 
L 232.34996 366.748146 
L 232.34996 341.013927 
L 222.689792 341.013927 
z
" clip-path="url(#p05f6b4632d)" style="fill: #1f77b4"/>
   </g>
   <g id="patch_16">
    <path d="M 234.765002 366.748146 
L 244.42517 366.748146 
L 244.42517 341.34479 
L 234.765002 341.34479 
z
" clip-path="url(#p05f6b4632d)" style="fill: #1f77b4"/>
   </g>
   <g id="patch_17">
    <path d="M 246.840212 366.748146 
L 256.50038 366.748146 
L 256.50038 341.716307 
L 246.840212 341.716307 
z
" clip-path="url(#p05f6b4632d)" style="fill: #1f77b4"/>
   </g>
   <g id="patch_18">
    <path d="M 258.915422 366.748146 
L 268.57559 366.748146 
L 268.57559 342.96467 
L 258.915422 342.96467 
z
" clip-path="url(#p05f6b4632d)" style="fill: #1f77b4"/>
   </g>
   <g id="patch_19">
    <path d="M 270.990632 366.748146 
L 280.6508 366.748146 
L 280.6508 343.069928 
L 270.990632 343.069928 
z
" clip-path="url(#p05f6b4632d)" style="fill: #1f77b4"/>
   </g>
   <g id="patch_20">
    <path d="M 283.065842 366.748146 
L 292.726009 366.748146 
L 292.726009 343.306935 
L 283.065842 343.306935 
z
" clip-path="url(#p05f6b4632d)" style="fill: #1f77b4"/>
   </g>
   <g id="patch_21">
    <path d="M 295.141051 366.748146 
L 304.801219 366.748146 
L 304.801219 343.648794 
L 295.141051 343.648794 
z
" clip-path="url(#p05f6b4632d)" style="fill: #1f77b4"/>
   </g>
   <g id="patch_22">
    <path d="M 307.216261 366.748146 
L 316.876429 366.748146 
L 316.876429 343.730624 
L 307.216261 343.730624 
z
" clip-path="url(#p05f6b4632d)" style="fill: #1f77b4"/>
   </g>
   <g id="patch_23">
    <path d="M 319.291471 366.748146 
L 328.951639 366.748146 
L 328.951639 343.748227 
L 319.291471 343.748227 
z
" clip-path="url(#p05f6b4632d)" style="fill: #1f77b4"/>
   </g>
   <g id="patch_24">
    <path d="M 331.366681 366.748146 
L 341.026849 366.748146 
L 341.026849 345.173307 
L 331.366681 345.173307 
z
" clip-path="url(#p05f6b4632d)" style="fill: #1f77b4"/>
   </g>
   <g id="patch_25">
    <path d="M 343.441891 366.748146 
L 353.102059 366.748146 
L 353.102059 345.601934 
L 343.441891 345.601934 
z
" clip-path="url(#p05f6b4632d)" style="fill: #1f77b4"/>
   </g>
   <g id="patch_26">
    <path d="M 355.517101 366.748146 
L 365.177269 366.748146 
L 365.177269 346.315774 
L 355.517101 346.315774 
z
" clip-path="url(#p05f6b4632d)" style="fill: #1f77b4"/>
   </g>
   <g id="patch_27">
    <path d="M 367.592311 366.748146 
L 377.252479 366.748146 
L 377.252479 346.856092 
L 367.592311 346.856092 
z
" clip-path="url(#p05f6b4632d)" style="fill: #1f77b4"/>
   </g>
   <g id="patch_28">
    <path d="M 379.667521 366.748146 
L 389.327689 366.748146 
L 389.327689 347.599475 
L 379.667521 347.599475 
z
" clip-path="url(#p05f6b4632d)" style="fill: #1f77b4"/>
   </g>
   <g id="patch_29">
    <path d="M 391.742731 366.748146 
L 401.402899 366.748146 
L 401.402899 347.874608 
L 391.742731 347.874608 
z
" clip-path="url(#p05f6b4632d)" style="fill: #1f77b4"/>
   </g>
   <g id="patch_30">
    <path d="M 403.817941 366.748146 
L 413.478109 366.748146 
L 413.478109 348.419124 
L 403.817941 348.419124 
z
" clip-path="url(#p05f6b4632d)" style="fill: #1f77b4"/>
   </g>
   <g id="patch_31">
    <path d="M 415.893151 366.748146 
L 425.553319 366.748146 
L 425.553319 348.479023 
L 415.893151 348.479023 
z
" clip-path="url(#p05f6b4632d)" style="fill: #1f77b4"/>
   </g>
   <g id="patch_32">
    <path d="M 427.968361 366.748146 
L 437.628529 366.748146 
L 437.628529 349.355143 
L 427.968361 349.355143 
z
" clip-path="url(#p05f6b4632d)" style="fill: #1f77b4"/>
   </g>
   <g id="patch_33">
    <path d="M 440.043571 366.748146 
L 449.703739 366.748146 
L 449.703739 350.143681 
L 440.043571 350.143681 
z
" clip-path="url(#p05f6b4632d)" style="fill: #1f77b4"/>
   </g>
   <g id="patch_34">
    <path d="M 452.118781 366.748146 
L 461.778949 366.748146 
L 461.778949 350.270115 
L 452.118781 350.270115 
z
" clip-path="url(#p05f6b4632d)" style="fill: #1f77b4"/>
   </g>
   <g id="patch_35">
    <path d="M 464.193991 366.748146 
L 473.854158 366.748146 
L 473.854158 350.33087 
L 464.193991 350.33087 
z
" clip-path="url(#p05f6b4632d)" style="fill: #1f77b4"/>
   </g>
   <g id="patch_36">
    <path d="M 476.2692 366.748146 
L 485.929368 366.748146 
L 485.929368 350.932234 
L 476.2692 350.932234 
z
" clip-path="url(#p05f6b4632d)" style="fill: #1f77b4"/>
   </g>
   <g id="patch_37">
    <path d="M 488.34441 366.748146 
L 498.004578 366.748146 
L 498.004578 351.663503 
L 488.34441 351.663503 
z
" clip-path="url(#p05f6b4632d)" style="fill: #1f77b4"/>
   </g>
   <g id="patch_38">
    <path d="M 500.41962 366.748146 
L 510.079788 366.748146 
L 510.079788 352.275761 
L 500.41962 352.275761 
z
" clip-path="url(#p05f6b4632d)" style="fill: #1f77b4"/>
   </g>
   <g id="patch_39">
    <path d="M 512.49483 366.748146 
L 522.154998 366.748146 
L 522.154998 352.477852 
L 512.49483 352.477852 
z
" clip-path="url(#p05f6b4632d)" style="fill: #1f77b4"/>
   </g>
   <g id="patch_40">
    <path d="M 524.57004 366.748146 
L 534.230208 366.748146 
L 534.230208 352.499783 
L 524.57004 352.499783 
z
" clip-path="url(#p05f6b4632d)" style="fill: #1f77b4"/>
   </g>
   <g id="patch_41">
    <path d="M 536.64525 366.748146 
L 546.305418 366.748146 
L 546.305418 352.731228 
L 536.64525 352.731228 
z
" clip-path="url(#p05f6b4632d)" style="fill: #1f77b4"/>
   </g>
   <g id="patch_42">
    <path d="M 548.72046 366.748146 
L 558.380628 366.748146 
L 558.380628 352.769558 
L 548.72046 352.769558 
z
" clip-path="url(#p05f6b4632d)" style="fill: #1f77b4"/>
   </g>
   <g id="patch_43">
    <path d="M 560.79567 366.748146 
L 570.455838 366.748146 
L 570.455838 353.495583 
L 560.79567 353.495583 
z
" clip-path="url(#p05f6b4632d)" style="fill: #1f77b4"/>
   </g>
   <g id="patch_44">
    <path d="M 572.87088 366.748146 
L 582.531048 366.748146 
L 582.531048 354.065125 
L 572.87088 354.065125 
z
" clip-path="url(#p05f6b4632d)" style="fill: #1f77b4"/>
   </g>
   <g id="patch_45">
    <path d="M 584.94609 366.748146 
L 594.606258 366.748146 
L 594.606258 354.448479 
L 584.94609 354.448479 
z
" clip-path="url(#p05f6b4632d)" style="fill: #1f77b4"/>
   </g>
   <g id="patch_46">
    <path d="M 597.0213 366.748146 
L 606.681468 366.748146 
L 606.681468 354.67423 
L 597.0213 354.67423 
z
" clip-path="url(#p05f6b4632d)" style="fill: #1f77b4"/>
   </g>
   <g id="patch_47">
    <path d="M 609.09651 366.748146 
L 618.756678 366.748146 
L 618.756678 354.935624 
L 609.09651 354.935624 
z
" clip-path="url(#p05f6b4632d)" style="fill: #1f77b4"/>
   </g>
   <g id="patch_48">
    <path d="M 621.17172 366.748146 
L 630.831888 366.748146 
L 630.831888 354.945762 
L 621.17172 354.945762 
z
" clip-path="url(#p05f6b4632d)" style="fill: #1f77b4"/>
   </g>
   <g id="patch_49">
    <path d="M 633.24693 366.748146 
L 642.907097 366.748146 
L 642.907097 355.921751 
L 633.24693 355.921751 
z
" clip-path="url(#p05f6b4632d)" style="fill: #1f77b4"/>
   </g>
   <g id="patch_50">
    <path d="M 645.322139 366.748146 
L 654.982307 366.748146 
L 654.982307 356.073951 
L 645.322139 356.073951 
z
" clip-path="url(#p05f6b4632d)" style="fill: #1f77b4"/>
   </g>
   <g id="patch_51">
    <path d="M 657.397349 366.748146 
L 667.057517 366.748146 
L 667.057517 356.20846 
L 657.397349 356.20846 
z
" clip-path="url(#p05f6b4632d)" style="fill: #1f77b4"/>
   </g>
   <g id="patch_52">
    <path d="M 669.472559 366.748146 
L 679.132727 366.748146 
L 679.132727 356.21671 
L 669.472559 356.21671 
z
" clip-path="url(#p05f6b4632d)" style="fill: #1f77b4"/>
   </g>
   <g id="matplotlib.axis_1">
    <g id="xtick_1">
     <g id="line2d_1">
      <defs>
       <path id="m47cd8a9125" d="M 0 0 
L 0 3.5 
" style="stroke: #000000; stroke-width: 0.8"/>
      </defs>
      <g>
       <use xlink:href="#m47cd8a9125" x="82.617357" y="366.748146" style="stroke: #000000; stroke-width: 0.8"/>
      </g>
     </g>
     <g id="text_1">
      <!-- في -->
      <g transform="translate(70.217544 395.685409) rotate(-60) scale(0.1 -0.1)">
       <defs>
        <path id="ae_AlMothnna-Bold-641" d="M 6275 4419 
Q 6275 4222 6137 4089 
Q 6000 3956 5803 3956 
Q 5613 3956 5477 4098 
Q 5341 4241 5341 4419 
Q 5341 4613 5478 4752 
Q 5616 4891 5803 4891 
Q 5997 4891 6136 4753 
Q 6275 4616 6275 4419 
z
M 6988 1844 
L 6978 1550 
L 6969 1281 
L 6953 1028 
L 6941 944 
Q 6941 894 6934 884 
Q 6934 856 6916 819 
Q 6900 756 6872 690 
Q 6844 625 6788 528 
Q 6694 350 6556 244 
Q 6453 153 6344 106 
L 6238 69 
L 6116 56 
L 5884 38 
L 4153 38 
L 1516 38 
L 1434 38 
L 1366 50 
L 1294 63 
L 1203 84 
Q 856 169 625 419 
Q 313 759 313 1334 
Q 313 1909 625 2244 
Q 825 2466 1203 2578 
Q 1422 2628 1516 2628 
L 2956 2628 
Q 3000 2628 3092 2604 
Q 3184 2581 3275 2497 
Q 3388 2378 3388 2188 
Q 3388 1994 3278 1875 
Q 3213 1803 3078 1756 
Q 3022 1741 2966 1741 
L 1616 1741 
L 1578 1738 
L 1506 1725 
Q 1384 1697 1303 1616 
Q 1191 1506 1191 1316 
Q 1191 1153 1313 1041 
Q 1381 981 1531 944 
L 1653 934 
L 4153 934 
L 5666 934 
Q 6041 934 6128 1288 
L 5934 1244 
L 5744 1228 
Q 5238 1228 4877 1587 
Q 4516 1947 4516 2459 
Q 4516 2966 4878 3330 
Q 5241 3694 5744 3694 
Q 6169 3694 6487 3437 
Q 6806 3181 6928 2775 
L 6953 2666 
L 6972 2366 
L 6981 2119 
L 6984 1963 
L 6988 1844 
z
M 6144 2478 
Q 6144 2644 6020 2772 
Q 5897 2900 5725 2900 
Q 5556 2900 5434 2776 
Q 5313 2653 5313 2478 
Q 5313 2309 5428 2181 
Q 5563 2056 5725 2056 
Q 5894 2056 6019 2181 
Q 6084 2247 6114 2320 
Q 6144 2394 6144 2478 
z
" transform="scale(0.015625)"/>
        <path id="ae_AlMothnna-Bold-64a" d="M 5681 2738 
L 5728 2669 
Q 5775 2584 5775 2488 
Q 5775 2406 5734 2322 
Q 5716 2278 5681 2241 
Q 5656 2206 5597 2163 
Q 5522 2097 5447 2069 
L 5378 2050 
L 5303 2044 
Q 5200 2044 5097 2100 
L 5019 2156 
L 4544 2628 
L 4453 2691 
Q 4338 2753 4234 2753 
Q 4156 2753 4103 2728 
Q 4047 2709 3975 2638 
Q 3906 2575 3881 2508 
Q 3856 2441 3856 2378 
Q 3856 2281 3909 2188 
L 3966 2113 
L 5419 678 
L 5475 581 
Q 5534 447 5534 359 
Q 5534 300 5528 272 
Q 5522 244 5503 216 
Q 5434 78 5231 22 
L 5141 6 
L 5047 3 
L 1619 3 
Q 1469 3 1281 50 
Q 897 150 653 406 
Q 313 766 313 1381 
Q 313 1916 650 2234 
Q 878 2447 1278 2547 
Q 1475 2594 1619 2594 
L 1728 2594 
Q 1863 2575 1938 2538 
Q 2150 2425 2150 2144 
Q 2150 1884 1941 1763 
Q 1881 1725 1728 1703 
L 1672 1706 
Q 1513 1706 1406 1647 
Q 1234 1550 1234 1319 
Q 1234 1075 1406 969 
Q 1516 903 1675 903 
L 1709 903 
L 1728 906 
L 3903 906 
L 3278 1522 
Q 3166 1659 3109 1756 
Q 3031 1897 2984 2056 
Q 2938 2216 2938 2366 
Q 2938 2606 3028 2806 
Q 3138 3069 3372 3294 
Q 3575 3491 3819 3600 
Q 4022 3684 4241 3684 
Q 4481 3684 4725 3578 
Q 4888 3503 5059 3378 
L 5188 3269 
L 5681 2738 
z
M 4291 -956 
Q 4291 -1156 4153 -1295 
Q 4016 -1434 3819 -1434 
Q 3634 -1434 3487 -1295 
Q 3341 -1156 3341 -956 
Q 3341 -759 3483 -620 
Q 3625 -481 3819 -481 
Q 4016 -481 4153 -618 
Q 4291 -756 4291 -956 
z
M 3028 -956 
Q 3028 -1156 2895 -1295 
Q 2763 -1434 2559 -1434 
Q 2369 -1434 2223 -1290 
Q 2078 -1147 2078 -956 
Q 2078 -772 2218 -626 
Q 2359 -481 2559 -481 
Q 2753 -481 2890 -623 
Q 3028 -766 3028 -956 
z
" transform="scale(0.015625)"/>
       </defs>
       <use xlink:href="#ae_AlMothnna-Bold-641"/>
       <use xlink:href="#ae_AlMothnna-Bold-64a" transform="translate(114.0625 0)"/>
      </g>
     </g>
    </g>
    <g id="xtick_2">
     <g id="line2d_2">
      <g>
       <use xlink:href="#m47cd8a9125" x="94.692567" y="366.748146" style="stroke: #000000; stroke-width: 0.8"/>
      </g>
     </g>
     <g id="text_2">
      <!-- من -->
      <g transform="translate(86.41994 388.675193) rotate(-60) scale(0.1 -0.1)">
       <defs>
        <path id="ae_AlMothnna-Bold-645" d="M 3056 -9 
L 3025 -9 
L 2941 3 
L 2875 3 
L 2822 16 
L 2769 28 
L 2663 59 
Q 2500 97 2319 191 
Q 2275 213 2240 231 
Q 2206 250 2159 288 
Q 2088 344 2016 438 
Q 1856 634 1797 838 
L 1744 1025 
L 1716 1200 
L 1713 1291 
L 1713 1375 
L 1713 1419 
L 1719 1463 
L 1738 1563 
L 1616 1500 
Q 1503 1438 1378 1278 
Q 1353 1244 1326 1191 
Q 1300 1138 1278 1097 
Q 1234 991 1203 859 
Q 1184 769 1184 666 
Q 1184 559 1201 450 
Q 1219 341 1226 309 
Q 1234 278 1266 175 
Q 1350 -106 1565 -254 
Q 1781 -403 2006 -464 
Q 2231 -525 2409 -525 
L 2581 -522 
L 2653 -522 
Q 2728 -522 2811 -550 
Q 2894 -578 2973 -675 
Q 3053 -772 3053 -934 
Q 3053 -1019 3038 -1059 
Q 3028 -1109 2988 -1153 
Q 2931 -1228 2838 -1284 
L 2772 -1313 
L 2684 -1347 
L 2613 -1366 
L 2466 -1381 
L 2266 -1378 
L 2200 -1378 
L 2147 -1378 
L 2078 -1369 
L 1997 -1356 
L 1844 -1328 
Q 1750 -1309 1588 -1253 
Q 1303 -1159 1050 -947 
Q 700 -659 528 -291 
Q 450 -122 398 62 
Q 347 247 325 422 
L 316 534 
L 313 659 
L 322 869 
Q 328 938 334 978 
Q 341 1019 356 1075 
Q 422 1372 525 1553 
Q 784 2009 1196 2293 
Q 1609 2578 2025 2625 
L 2447 2653 
L 2631 2653 
L 2781 2653 
L 2947 2644 
Q 3072 2644 3192 2619 
Q 3313 2594 3456 2544 
Q 3691 2469 3866 2291 
Q 4091 2084 4175 1828 
L 4213 1716 
L 4244 1600 
L 4266 1488 
L 4272 1378 
L 4272 1328 
L 4272 1284 
Q 4272 1119 4250 1028 
L 4222 891 
Q 4081 416 3734 209 
Q 3563 113 3386 52 
Q 3209 -9 3056 -9 
z
M 3000 1738 
Q 2819 1738 2692 1613 
Q 2566 1488 2566 1313 
Q 2566 1138 2695 1011 
Q 2825 884 3000 884 
Q 3175 884 3303 1006 
Q 3431 1128 3431 1313 
Q 3431 1481 3307 1609 
Q 3184 1738 3000 1738 
z
" transform="scale(0.015625)"/>
        <path id="ae_AlMothnna-Bold-646" d="M 1903 4431 
Q 1903 4247 1761 4101 
Q 1619 3956 1425 3956 
Q 1228 3956 1089 4098 
Q 950 4241 950 4431 
Q 950 4631 1087 4770 
Q 1225 4909 1425 4909 
Q 1622 4909 1762 4768 
Q 1903 4628 1903 4431 
z
M 3300 213 
L 3247 -175 
Q 3144 -606 2863 -894 
Q 2475 -1281 1819 -1281 
Q 1156 -1281 756 -897 
Q 491 -631 369 -181 
L 313 206 
L 313 1522 
Q 331 1672 369 1763 
Q 488 2006 788 2006 
Q 1075 2006 1191 1766 
Q 1222 1700 1250 1522 
L 1250 206 
Q 1269 9 1316 -94 
Q 1447 -397 1791 -397 
Q 2131 -397 2281 -97 
Q 2319 -16 2353 206 
L 2353 2369 
Q 2372 2522 2413 2594 
Q 2534 2819 2838 2819 
Q 3119 2819 3241 2594 
Q 3272 2528 3300 2369 
L 3300 213 
z
" transform="scale(0.015625)"/>
       </defs>
       <use xlink:href="#ae_AlMothnna-Bold-645"/>
       <use xlink:href="#ae_AlMothnna-Bold-646" transform="translate(71.630859 0)"/>
      </g>
     </g>
    </g>
    <g id="xtick_3">
     <g id="line2d_3">
      <g>
       <use xlink:href="#m47cd8a9125" x="106.767777" y="366.748146" style="stroke: #000000; stroke-width: 0.8"/>
      </g>
     </g>
     <g id="text_3">
      <!-- على -->
      <g transform="translate(94.409736 395.5279) rotate(-60) scale(0.1 -0.1)">
       <defs>
        <path id="ae_AlMothnna-Bold-639" d="M 3219 -1028 
Q 3219 -1309 2972 -1425 
Q 2900 -1456 2722 -1484 
L 1550 -1488 
L 1550 -1456 
L 1500 -1456 
Q 1297 -1456 1116 -1406 
Q 819 -1331 616 -1134 
Q 366 -891 319 -456 
Q 319 -400 313 -378 
L 313 -313 
Q 313 0 450 238 
Q 547 403 706 525 
Q 803 594 847 606 
Q 831 616 822 625 
Q 788 653 750 691 
Q 644 806 572 969 
Q 472 1197 472 1466 
L 472 1591 
L 484 1669 
Q 538 2113 781 2394 
Q 1081 2741 1647 2819 
L 1744 2828 
L 1847 2831 
Q 2150 2831 2416 2703 
Q 2619 2606 2763 2463 
L 2878 2331 
L 2978 2150 
Q 3078 1931 3078 1759 
Q 3078 1625 3015 1522 
Q 2953 1419 2809 1362 
Q 2666 1306 2553 1306 
L 2475 1309 
Q 2453 1309 2412 1334 
Q 2372 1359 2331 1400 
Q 2303 1434 2250 1556 
L 2188 1719 
Q 2150 1806 2109 1850 
Q 1991 1984 1806 1984 
Q 1522 1984 1400 1788 
Q 1328 1663 1328 1488 
L 1328 1444 
Q 1328 1391 1334 1362 
Q 1341 1334 1363 1281 
Q 1397 1197 1497 1081 
Q 1566 1003 1697 906 
L 2728 906 
L 2859 884 
Q 2919 875 2953 853 
Q 3178 741 3178 456 
Q 3178 175 2956 56 
Q 2903 28 2734 -6 
L 1438 0 
Q 1344 -9 1300 -31 
Q 1159 -97 1159 -278 
Q 1159 -456 1297 -528 
L 1438 -563 
L 1766 -572 
L 2222 -572 
L 2728 -575 
Q 2903 -600 2972 -638 
Q 3219 -756 3219 -1028 
z
" transform="scale(0.015625)"/>
        <path id="ae_AlMothnna-Bold-644" d="M 3309 -6 
L 3253 -375 
Q 3141 -791 2859 -1063 
Q 2463 -1434 1784 -1434 
Q 1131 -1434 750 -1066 
Q 478 -797 366 -378 
L 313 -6 
L 313 1278 
Q 331 1431 375 1497 
Q 506 1719 831 1719 
Q 1100 1719 1206 1500 
Q 1231 1447 1259 1278 
L 1259 -6 
Q 1278 -166 1325 -256 
Q 1463 -506 1806 -506 
Q 2144 -506 2291 -263 
Q 2325 -191 2359 -16 
L 2359 4494 
Q 2359 4578 2381 4634 
Q 2475 4944 2834 4944 
Q 3122 4944 3250 4719 
Q 3281 4653 3309 4491 
L 3309 4503 
L 3309 -6 
z
" transform="scale(0.015625)"/>
        <path id="ae_AlMothnna-Bold-649" d="M 5681 2716 
L 5728 2647 
Q 5775 2563 5775 2466 
Q 5775 2384 5734 2300 
Q 5716 2256 5681 2219 
Q 5656 2184 5597 2141 
Q 5522 2075 5447 2047 
L 5378 2028 
L 5303 2022 
Q 5200 2022 5097 2078 
L 5019 2134 
L 4544 2606 
L 4453 2669 
Q 4338 2731 4234 2731 
Q 4156 2731 4103 2706 
Q 4047 2688 3975 2616 
Q 3906 2553 3881 2486 
Q 3856 2419 3856 2356 
Q 3856 2259 3909 2166 
L 3966 2091 
L 5419 656 
L 5475 559 
Q 5534 425 5534 338 
Q 5534 278 5528 250 
Q 5522 222 5503 194 
Q 5434 56 5231 0 
L 5141 -16 
L 5047 -19 
L 1619 -19 
Q 1469 -19 1281 28 
Q 897 128 653 384 
Q 313 744 313 1359 
Q 313 1894 650 2213 
Q 878 2425 1278 2525 
Q 1475 2572 1619 2572 
L 1728 2572 
Q 1863 2553 1938 2516 
Q 2150 2403 2150 2122 
Q 2150 1863 1941 1741 
Q 1881 1703 1728 1681 
L 1672 1684 
Q 1513 1684 1406 1625 
Q 1234 1528 1234 1297 
Q 1234 1053 1406 947 
Q 1516 881 1675 881 
L 1709 881 
L 1728 884 
L 3903 884 
L 3278 1500 
Q 3166 1638 3109 1734 
Q 3031 1875 2984 2034 
Q 2938 2194 2938 2344 
Q 2938 2584 3028 2784 
Q 3138 3047 3372 3272 
Q 3575 3469 3819 3578 
Q 4022 3663 4241 3663 
Q 4481 3663 4725 3556 
Q 4888 3481 5059 3356 
L 5188 3247 
L 5681 2716 
z
" transform="scale(0.015625)"/>
       </defs>
       <use xlink:href="#ae_AlMothnna-Bold-639"/>
       <use xlink:href="#ae_AlMothnna-Bold-644" transform="translate(55.175781 0)"/>
       <use xlink:href="#ae_AlMothnna-Bold-649" transform="translate(111.767578 0)"/>
      </g>
     </g>
    </g>
    <g id="xtick_4">
     <g id="line2d_4">
      <g>
       <use xlink:href="#m47cd8a9125" x="118.842986" y="366.748146" style="stroke: #000000; stroke-width: 0.8"/>
      </g>
     </g>
     <g id="text_4">
      <!-- إلى -->
      <g transform="translate(107.393712 393.794496) rotate(-60) scale(0.1 -0.1)">
       <defs>
        <path id="ae_AlMothnna-Bold-625" d="M 1581 681 
Q 1563 516 1525 422 
Q 1413 163 1113 163 
Q 813 163 694 375 
Q 663 431 634 591 
L 634 681 
L 644 4428 
Q 663 4591 703 4672 
Q 825 4916 1128 4916 
Q 1409 4916 1531 4672 
Q 1563 4603 1591 4428 
L 1581 681 
z
M 1938 -1303 
Q 1938 -1463 1819 -1525 
L 1700 -1556 
L 569 -1556 
L 491 -1544 
Q 313 -1491 313 -1303 
Q 313 -1172 444 -1100 
L 575 -1069 
L 541 -991 
Q 503 -891 503 -819 
L 506 -734 
Q 506 -713 506 -695 
Q 506 -678 519 -641 
Q 519 -606 534 -566 
L 563 -488 
L 594 -428 
Q 675 -284 819 -172 
Q 894 -116 1025 -81 
L 1134 -63 
L 1244 -56 
L 1309 -59 
L 1356 -63 
L 1478 -100 
Q 1606 -156 1700 -253 
Q 1766 -325 1838 -456 
L 1884 -566 
L 1891 -622 
Q 1891 -691 1866 -738 
Q 1828 -813 1738 -850 
Q 1681 -869 1638 -869 
Q 1553 -869 1494 -806 
L 1450 -741 
L 1447 -728 
Q 1438 -684 1413 -653 
Q 1378 -575 1359 -559 
Q 1313 -513 1209 -513 
Q 1097 -513 1022 -606 
L 969 -700 
L 966 -731 
L 963 -775 
Q 963 -834 972 -872 
L 1009 -941 
Q 1059 -1016 1159 -1059 
L 1200 -1069 
L 1700 -1066 
Q 1772 -1075 1819 -1094 
Q 1938 -1150 1938 -1303 
z
" transform="scale(0.015625)"/>
       </defs>
       <use xlink:href="#ae_AlMothnna-Bold-625"/>
       <use xlink:href="#ae_AlMothnna-Bold-644" transform="translate(35.15625 0)"/>
       <use xlink:href="#ae_AlMothnna-Bold-649" transform="translate(91.748047 0)"/>
      </g>
     </g>
    </g>
    <g id="xtick_5">
     <g id="line2d_5">
      <g>
       <use xlink:href="#m47cd8a9125" x="130.918196" y="366.748146" style="stroke: #000000; stroke-width: 0.8"/>
      </g>
     </g>
     <g id="text_5">
      <!-- أن -->
      <g transform="translate(124.536665 385.548938) rotate(-60) scale(0.1 -0.1)">
       <defs>
        <path id="ae_AlMothnna-Bold-623" d="M 1613 -703 
Q 1594 -869 1556 -963 
Q 1444 -1222 1144 -1222 
Q 844 -1222 725 -1009 
Q 694 -953 666 -794 
L 666 -703 
L 659 2850 
Q 678 3013 719 3094 
Q 841 3338 1144 3338 
Q 1425 3338 1547 3094 
Q 1578 3025 1606 2850 
L 1613 -703 
z
M 1938 3753 
Q 1938 3594 1819 3531 
L 1700 3500 
L 569 3500 
L 491 3513 
Q 313 3566 313 3753 
Q 313 3884 444 3956 
L 575 3988 
L 541 4066 
Q 503 4166 503 4238 
L 506 4322 
Q 506 4344 506 4361 
Q 506 4378 519 4416 
Q 519 4450 534 4491 
L 563 4569 
L 594 4628 
Q 675 4772 819 4884 
Q 894 4941 1025 4975 
L 1134 4994 
L 1244 5000 
L 1309 4997 
L 1356 4994 
L 1478 4956 
Q 1606 4900 1700 4803 
Q 1766 4731 1838 4600 
L 1884 4491 
L 1891 4434 
Q 1891 4366 1866 4319 
Q 1828 4244 1738 4206 
Q 1681 4188 1638 4188 
Q 1553 4188 1494 4250 
L 1450 4316 
L 1447 4328 
Q 1438 4372 1413 4403 
Q 1378 4481 1359 4497 
Q 1313 4544 1209 4544 
Q 1097 4544 1022 4450 
L 969 4356 
L 966 4325 
L 963 4281 
Q 963 4222 972 4184 
L 1009 4116 
Q 1059 4041 1159 3997 
L 1200 3988 
L 1700 3991 
Q 1772 3981 1819 3963 
Q 1938 3906 1938 3753 
z
" transform="scale(0.015625)"/>
       </defs>
       <use xlink:href="#ae_AlMothnna-Bold-623"/>
       <use xlink:href="#ae_AlMothnna-Bold-646" transform="translate(35.15625 0)"/>
      </g>
     </g>
    </g>
    <g id="xtick_6">
     <g id="line2d_6">
      <g>
       <use xlink:href="#m47cd8a9125" x="142.993406" y="366.748146" style="stroke: #000000; stroke-width: 0.8"/>
      </g>
     </g>
     <g id="text_6">
      <!-- التي -->
      <g transform="translate(127.209218 401.625443) rotate(-60) scale(0.1 -0.1)">
       <defs>
        <path id="ae_AlMothnna-Bold-627" d="M 1259 -706 
Q 1241 -872 1203 -966 
Q 1091 -1225 791 -1225 
Q 491 -1225 372 -1013 
Q 341 -956 313 -797 
L 313 -706 
L 313 4409 
Q 331 4572 372 4653 
Q 494 4897 797 4897 
Q 1078 4897 1200 4653 
Q 1231 4584 1259 4409 
L 1259 -706 
z
" transform="scale(0.015625)"/>
        <path id="ae_AlMothnna-Bold-62a" d="M 5081 4509 
Q 5081 4325 4939 4179 
Q 4797 4034 4603 4034 
Q 4406 4034 4268 4171 
Q 4131 4309 4131 4509 
Q 4131 4709 4268 4850 
Q 4406 4991 4603 4991 
Q 4800 4991 4940 4850 
Q 5081 4709 5081 4509 
z
M 5081 3328 
Q 5081 3144 4939 2998 
Q 4797 2853 4603 2853 
Q 4416 2853 4269 2994 
Q 4131 3138 4131 3328 
Q 4131 3528 4268 3667 
Q 4406 3806 4603 3806 
Q 4800 3806 4940 3665 
Q 5081 3525 5081 3328 
z
M 6125 625 
Q 6125 566 6114 522 
Q 6103 478 6078 428 
Q 6031 313 5909 191 
Q 5800 81 5638 28 
L 5513 6 
L 1631 3 
Q 1488 3 1291 50 
Q 909 144 656 388 
Q 313 725 313 1306 
Q 313 1881 650 2228 
Q 891 2469 1281 2566 
Q 1500 2616 1625 2616 
L 3600 2616 
L 3728 2594 
Q 3784 2584 3828 2563 
Q 4056 2447 4056 2169 
Q 4056 1888 3828 1775 
Q 3753 1738 3600 1719 
L 1681 1719 
Q 1591 1709 1528 1696 
Q 1466 1684 1428 1666 
Q 1175 1563 1175 1288 
Q 1175 1053 1428 944 
Q 1494 925 1681 894 
L 5006 894 
Q 5053 894 5063 900 
Q 5116 909 5155 942 
Q 5194 975 5206 1038 
L 5213 1094 
L 5213 2166 
Q 5231 2316 5269 2391 
Q 5381 2616 5666 2616 
Q 5941 2616 6066 2388 
Q 6103 2313 6122 2159 
L 6122 894 
L 6125 625 
z
" transform="scale(0.015625)"/>
       </defs>
       <use xlink:href="#ae_AlMothnna-Bold-627"/>
       <use xlink:href="#ae_AlMothnna-Bold-644" transform="translate(24.560547 0)"/>
       <use xlink:href="#ae_AlMothnna-Bold-62a" transform="translate(81.152344 0)"/>
       <use xlink:href="#ae_AlMothnna-Bold-64a" transform="translate(181.738281 0)"/>
      </g>
     </g>
    </g>
    <g id="xtick_7">
     <g id="line2d_7">
      <g>
       <use xlink:href="#m47cd8a9125" x="155.068616" y="366.748146" style="stroke: #000000; stroke-width: 0.8"/>
      </g>
     </g>
     <g id="text_7">
      <!-- عن -->
      <g transform="translate(147.473857 387.250311) rotate(-60) scale(0.1 -0.1)">
       <use xlink:href="#ae_AlMothnna-Bold-639"/>
       <use xlink:href="#ae_AlMothnna-Bold-646" transform="translate(55.175781 0)"/>
      </g>
     </g>
    </g>
    <g id="xtick_8">
     <g id="line2d_8">
      <g>
       <use xlink:href="#m47cd8a9125" x="167.143826" y="366.748146" style="stroke: #000000; stroke-width: 0.8"/>
      </g>
     </g>
     <g id="text_8">
      <!-- المتحدة -->
      <g transform="translate(143.841965 414.564404) rotate(-60) scale(0.1 -0.1)">
       <defs>
        <path id="ae_AlMothnna-Bold-62d" d="M 4206 422 
Q 4206 138 3984 22 
Q 3925 -3 3759 -28 
L 1434 -28 
Q 1350 -38 1309 -59 
Q 1184 -128 1184 -294 
Q 1184 -450 1309 -525 
L 1434 -559 
L 3075 -559 
L 3203 -581 
Q 3259 -591 3303 -613 
Q 3534 -722 3534 -991 
Q 3534 -1281 3306 -1406 
Q 3250 -1434 3075 -1469 
L 1431 -1469 
Q 1306 -1469 1144 -1428 
Q 816 -1344 603 -1138 
Q 313 -841 313 -331 
Q 313 200 600 506 
Q 806 728 1141 816 
Q 1316 859 1431 859 
L 2434 859 
Q 2622 888 2719 984 
Q 2838 1103 2838 1306 
Q 2838 1556 2631 1669 
L 2550 1694 
L 2422 1722 
L 822 1722 
Q 631 1759 531 1890 
Q 431 2022 431 2175 
Q 431 2344 531 2464 
Q 631 2584 822 2622 
L 2684 2622 
L 2747 2613 
L 2878 2575 
Q 2963 2550 3064 2501 
Q 3166 2453 3253 2394 
Q 3488 2238 3616 1988 
Q 3647 1919 3678 1828 
Q 3709 1738 3734 1641 
L 3759 1472 
L 3769 1300 
Q 3769 1100 3728 938 
L 3706 866 
L 3756 859 
L 3888 838 
Q 3947 828 3981 806 
Q 4206 697 4206 422 
z
" transform="scale(0.015625)"/>
        <path id="ae_AlMothnna-Bold-62f" d="M 2953 0 
L 769 0 
Q 606 25 544 63 
Q 316 188 316 469 
Q 316 747 544 853 
Q 609 878 775 903 
L 2075 903 
L 2075 1119 
L 2075 1419 
L 2066 1550 
Q 2066 1600 2050 1641 
L 2047 1697 
L 2031 1744 
L 2022 1775 
L 2009 1806 
Q 1909 2000 1628 2000 
Q 1491 2000 1372 1903 
Q 1281 1828 1209 1700 
L 1159 1594 
L 1091 1466 
Q 1025 1350 894 1284 
L 784 1263 
Q 703 1263 553 1319 
Q 422 1381 356 1497 
Q 313 1584 313 1700 
Q 313 1763 319 1781 
L 331 1841 
L 344 1884 
Q 381 2000 426 2087 
Q 472 2175 531 2244 
L 563 2278 
L 691 2419 
Q 859 2578 1063 2684 
Q 1197 2747 1342 2787 
Q 1488 2828 1634 2828 
Q 1766 2828 1872 2806 
Q 2300 2722 2578 2469 
Q 2763 2300 2866 2034 
L 2922 1819 
L 2938 1675 
L 2953 1353 
L 2953 0 
z
" transform="scale(0.015625)"/>
        <path id="ae_AlMothnna-Bold-629" d="M 1644 2678 
Q 1919 2678 2156 2569 
Q 2391 2475 2581 2284 
Q 2659 2206 2732 2098 
Q 2806 1991 2869 1856 
Q 2916 1731 2944 1606 
Q 2956 1544 2962 1483 
Q 2969 1422 2969 1338 
Q 2969 1063 2869 816 
Q 2809 678 2742 586 
Q 2675 494 2581 391 
Q 2409 219 2154 108 
Q 1900 -3 1644 -3 
Q 1528 -3 1486 1 
Q 1444 6 1348 25 
Q 1253 44 1125 106 
Q 884 200 706 379 
Q 528 559 420 807 
Q 313 1056 313 1338 
Q 313 1613 414 1853 
Q 516 2094 695 2283 
Q 875 2472 1125 2569 
Q 1363 2678 1644 2678 
z
M 1644 1775 
Q 1469 1775 1331 1644 
Q 1269 1578 1237 1500 
Q 1206 1422 1206 1338 
Q 1206 1159 1339 1029 
Q 1472 900 1644 900 
Q 1822 900 1951 1033 
Q 2081 1166 2081 1338 
Q 2081 1513 1953 1644 
Q 1825 1775 1644 1775 
z
M 1019 4903 
Q 1213 4903 1358 4761 
Q 1503 4619 1503 4419 
Q 1503 4222 1364 4081 
Q 1225 3941 1019 3941 
Q 822 3941 680 4077 
Q 538 4213 538 4419 
Q 538 4613 680 4758 
Q 822 4903 1019 4903 
z
M 2256 4903 
Q 2453 4903 2594 4759 
Q 2738 4625 2738 4419 
Q 2738 4222 2594 4081 
Q 2463 3941 2256 3941 
Q 2056 3941 1916 4081 
Q 1769 4213 1769 4419 
Q 1769 4622 1916 4759 
Q 2050 4903 2256 4903 
z
" transform="scale(0.015625)"/>
       </defs>
       <use xlink:href="#ae_AlMothnna-Bold-627"/>
       <use xlink:href="#ae_AlMothnna-Bold-644" transform="translate(24.560547 0)"/>
       <use xlink:href="#ae_AlMothnna-Bold-645" transform="translate(81.152344 0)"/>
       <use xlink:href="#ae_AlMothnna-Bold-62a" transform="translate(152.783203 0)"/>
       <use xlink:href="#ae_AlMothnna-Bold-62d" transform="translate(253.369141 0)"/>
       <use xlink:href="#ae_AlMothnna-Bold-62f" transform="translate(323.974609 0)"/>
       <use xlink:href="#ae_AlMothnna-Bold-629" transform="translate(375 0)"/>
      </g>
     </g>
    </g>
    <g id="xtick_9">
     <g id="line2d_9">
      <g>
       <use xlink:href="#m47cd8a9125" x="179.219036" y="366.748146" style="stroke: #000000; stroke-width: 0.8"/>
      </g>
     </g>
     <g id="text_9">
      <!-- الأمم -->
      <g transform="translate(164.300473 400.133168) rotate(-60) scale(0.1 -0.1)">
       <use xlink:href="#ae_AlMothnna-Bold-627"/>
       <use xlink:href="#ae_AlMothnna-Bold-644" transform="translate(24.560547 0)"/>
       <use xlink:href="#ae_AlMothnna-Bold-623" transform="translate(81.152344 0)"/>
       <use xlink:href="#ae_AlMothnna-Bold-645" transform="translate(116.308594 0)"/>
       <use xlink:href="#ae_AlMothnna-Bold-645" transform="translate(187.939453 0)"/>
      </g>
     </g>
    </g>
    <g id="xtick_10">
     <g id="line2d_10">
      <g>
       <use xlink:href="#m47cd8a9125" x="191.294246" y="366.748146" style="stroke: #000000; stroke-width: 0.8"/>
      </g>
     </g>
     <g id="text_10">
      <!-- أو -->
      <g transform="translate(185.183809 385.057515) rotate(-60) scale(0.1 -0.1)">
       <defs>
        <path id="ae_AlMothnna-Bold-648" d="M 2953 1288 
Q 2953 1116 2903 962 
Q 2853 809 2784 694 
L 2109 -513 
L 1959 -769 
L 1831 -997 
L 1788 -1059 
L 1738 -1119 
L 1703 -1144 
Q 1625 -1200 1491 -1244 
L 1425 -1253 
Q 1322 -1253 1197 -1175 
Q 1022 -1072 1022 -931 
L 1022 -822 
L 1025 -756 
L 1047 -700 
L 1078 -628 
Q 1097 -584 1119 -559 
L 1222 -375 
L 1428 -25 
L 1413 -22 
Q 981 59 731 294 
Q 597 419 515 555 
Q 434 691 373 886 
Q 313 1081 313 1278 
L 322 1444 
Q 325 1475 334 1522 
Q 344 1569 356 1613 
Q 459 2025 815 2306 
Q 1172 2588 1634 2588 
Q 1900 2588 2134 2494 
Q 2369 2400 2563 2206 
Q 2953 1825 2953 1288 
z
M 2038 1281 
Q 2038 1450 1914 1578 
Q 1791 1706 1609 1706 
Q 1431 1706 1304 1581 
Q 1178 1456 1178 1281 
Q 1178 1109 1301 982 
Q 1425 856 1609 856 
Q 1781 856 1909 978 
Q 2038 1100 2038 1281 
z
" transform="scale(0.015625)"/>
       </defs>
       <use xlink:href="#ae_AlMothnna-Bold-623"/>
       <use xlink:href="#ae_AlMothnna-Bold-648" transform="translate(35.15625 0)"/>
      </g>
     </g>
    </g>
    <g id="xtick_11">
     <g id="line2d_11">
      <g>
       <use xlink:href="#m47cd8a9125" x="203.369456" y="366.748146" style="stroke: #000000; stroke-width: 0.8"/>
      </g>
     </g>
     <g id="text_11">
      <!-- مع -->
      <g transform="translate(195.016103 388.40564) rotate(-60) scale(0.1 -0.1)">
       <use xlink:href="#ae_AlMothnna-Bold-645"/>
       <use xlink:href="#ae_AlMothnna-Bold-639" transform="translate(71.630859 0)"/>
      </g>
     </g>
    </g>
    <g id="xtick_12">
     <g id="line2d_12">
      <g>
       <use xlink:href="#m47cd8a9125" x="215.444666" y="366.748146" style="stroke: #000000; stroke-width: 0.8"/>
      </g>
     </g>
     <g id="text_12">
      <!-- اللجنة -->
      <g transform="translate(197.694909 404.983815) rotate(-60) scale(0.1 -0.1)">
       <defs>
        <path id="ae_AlMothnna-Bold-62c" d="M 4206 463 
Q 4206 172 3984 56 
Q 3919 19 3759 0 
L 2672 0 
L 2625 94 
Q 2481 303 2184 303 
Q 1969 303 1828 153 
Q 1794 113 1731 0 
L 1434 0 
Q 1350 -9 1309 -31 
Q 1184 -100 1184 -266 
Q 1184 -431 1309 -500 
L 1434 -534 
L 1813 -534 
L 1856 -588 
Q 1981 -706 2194 -706 
Q 2372 -706 2509 -622 
L 2600 -534 
L 3075 -534 
L 3203 -556 
Q 3259 -566 3303 -588 
Q 3531 -691 3531 -966 
Q 3531 -1256 3303 -1378 
Q 3238 -1409 3075 -1438 
L 1431 -1438 
Q 1303 -1438 1144 -1397 
Q 816 -1313 603 -1100 
Q 313 -803 313 -294 
Q 313 234 600 541 
Q 806 763 1141 850 
Q 1316 894 1431 894 
L 2434 894 
Q 2622 922 2719 1019 
Q 2838 1138 2838 1344 
Q 2838 1594 2631 1706 
L 2550 1731 
L 2422 1759 
L 822 1759 
Q 634 1803 532 1929 
Q 431 2056 431 2216 
Q 431 2388 532 2508 
Q 634 2628 822 2666 
L 2684 2666 
L 2750 2656 
L 2866 2622 
Q 3069 2556 3253 2434 
Q 3491 2272 3616 2025 
Q 3688 1869 3728 1683 
Q 3769 1497 3769 1341 
Q 3769 1141 3728 978 
L 3706 906 
L 3731 897 
L 3756 894 
L 3888 872 
Q 3947 863 3981 841 
Q 4206 738 4206 463 
z
M 2600 -203 
Q 2600 -369 2481 -487 
Q 2363 -606 2197 -606 
Q 2028 -606 1909 -487 
Q 1791 -369 1791 -203 
Q 1791 -31 1909 87 
Q 2028 206 2197 206 
Q 2363 206 2481 87 
Q 2600 -31 2600 -203 
z
" transform="scale(0.015625)"/>
       </defs>
       <use xlink:href="#ae_AlMothnna-Bold-627"/>
       <use xlink:href="#ae_AlMothnna-Bold-644" transform="translate(24.560547 0)"/>
       <use xlink:href="#ae_AlMothnna-Bold-644" transform="translate(81.152344 0)"/>
       <use xlink:href="#ae_AlMothnna-Bold-62c" transform="translate(137.744141 0)"/>
       <use xlink:href="#ae_AlMothnna-Bold-646" transform="translate(208.349609 0)"/>
       <use xlink:href="#ae_AlMothnna-Bold-629" transform="translate(264.794922 0)"/>
      </g>
     </g>
    </g>
    <g id="xtick_13">
     <g id="line2d_13">
      <g>
       <use xlink:href="#m47cd8a9125" x="227.519876" y="366.748146" style="stroke: #000000; stroke-width: 0.8"/>
      </g>
     </g>
     <g id="text_13">
      <!-- بشأن -->
      <g transform="translate(210.552094 403.687207) rotate(-60) scale(0.1 -0.1)">
       <defs>
        <path id="ae_AlMothnna-Bold-628" d="M 5916 188 
Q 5822 94 5703 44 
Q 5681 34 5631 25 
Q 5522 0 5516 0 
L 1628 0 
Q 1484 0 1288 47 
Q 906 141 653 388 
Q 313 728 313 1313 
Q 313 1888 650 2234 
Q 884 2469 1281 2572 
Q 1500 2622 1622 2622 
L 3600 2622 
Q 3750 2603 3825 2566 
Q 4053 2450 4053 2172 
Q 4053 1897 3828 1775 
Q 3753 1738 3600 1719 
L 1678 1719 
Q 1588 1709 1525 1696 
Q 1463 1684 1425 1666 
Q 1172 1556 1172 1284 
Q 1172 1050 1425 947 
Q 1491 928 1678 897 
L 5003 897 
Q 5050 897 5059 903 
Q 5113 913 5156 950 
Q 5184 969 5197 1003 
L 5216 1097 
L 5216 2169 
Q 5234 2319 5272 2394 
Q 5388 2622 5666 2622 
Q 5947 2622 6063 2394 
Q 6100 2319 6119 2166 
L 6119 897 
L 6119 616 
Q 6119 559 6108 512 
Q 6097 466 6075 422 
Q 6028 300 5916 188 
z
M 4041 -956 
Q 4041 -1156 3908 -1295 
Q 3775 -1434 3572 -1434 
Q 3381 -1434 3236 -1290 
Q 3091 -1147 3091 -956 
Q 3091 -759 3233 -620 
Q 3375 -481 3572 -481 
Q 3766 -481 3903 -623 
Q 4041 -766 4041 -956 
z
" transform="scale(0.015625)"/>
        <path id="ae_AlMothnna-Bold-634" d="M 4934 4509 
Q 4934 4306 4789 4161 
Q 4644 4016 4434 4016 
Q 4228 4016 4084 4159 
Q 3941 4303 3941 4509 
Q 3941 4709 4081 4857 
Q 4222 5006 4434 5006 
Q 4641 5006 4787 4859 
Q 4934 4713 4934 4509 
z
M 5600 3447 
Q 5600 3244 5456 3100 
Q 5313 2956 5109 2956 
Q 4909 2956 4761 3097 
Q 4613 3238 4613 3447 
Q 4613 3653 4758 3798 
Q 4903 3944 5109 3944 
Q 5313 3944 5456 3800 
Q 5600 3656 5600 3447 
z
M 4381 3447 
Q 4381 3244 4237 3100 
Q 4094 2956 3888 2956 
Q 3694 2956 3547 3098 
Q 3400 3241 3400 3447 
Q 3400 3647 3540 3795 
Q 3681 3944 3888 3944 
Q 4094 3944 4237 3800 
Q 4381 3656 4381 3447 
z
M 6628 763 
Q 6628 656 6617 600 
Q 6606 544 6569 444 
L 6503 328 
Q 6472 275 6409 213 
Q 6309 122 6144 63 
L 5975 13 
L 5872 0 
L 3272 0 
L 3188 -372 
Q 3047 -794 2778 -1063 
Q 2397 -1434 1803 -1434 
Q 1203 -1434 813 -1066 
Q 541 -803 397 -378 
L 313 -6 
L 313 1463 
Q 331 1588 366 1647 
Q 478 1834 759 1834 
Q 1041 1834 1150 1650 
Q 1184 1594 1206 1463 
L 1200 50 
Q 1209 -38 1225 -100 
Q 1241 -163 1247 -180 
Q 1253 -197 1272 -234 
Q 1416 -519 1763 -519 
Q 2119 -519 2275 -238 
Q 2313 -163 2347 44 
L 2347 2309 
Q 2366 2447 2403 2516 
Q 2519 2725 2797 2725 
Q 3078 2725 3191 2519 
Q 3228 2453 3247 2309 
L 3247 897 
L 4025 897 
L 4025 2309 
Q 4044 2447 4081 2516 
Q 4197 2725 4475 2725 
Q 4756 2725 4869 2519 
Q 4906 2453 4925 2309 
L 4925 897 
L 5709 897 
L 5709 2309 
Q 5719 2381 5731 2432 
Q 5744 2484 5763 2516 
Q 5878 2725 6153 2725 
Q 6431 2725 6563 2525 
Q 6600 2456 6628 2322 
L 6628 763 
z
" transform="scale(0.015625)"/>
       </defs>
       <use xlink:href="#ae_AlMothnna-Bold-628"/>
       <use xlink:href="#ae_AlMothnna-Bold-634" transform="translate(100.488281 0)"/>
       <use xlink:href="#ae_AlMothnna-Bold-623" transform="translate(208.935547 0)"/>
       <use xlink:href="#ae_AlMothnna-Bold-646" transform="translate(244.091797 0)"/>
      </g>
     </g>
    </g>
    <g id="xtick_14">
     <g id="line2d_14">
      <g>
       <use xlink:href="#m47cd8a9125" x="239.595086" y="366.748146" style="stroke: #000000; stroke-width: 0.8"/>
      </g>
     </g>
     <g id="text_14">
      <!-- the -->
      <g transform="translate(228.453399 393.725802) rotate(-60) scale(0.1 -0.1)">
       <defs>
        <path id="ae_AlMothnna-Bold-74" d="M 1759 4494 
L 1759 3500 
L 2913 3500 
L 2913 2700 
L 1759 2700 
L 1759 1216 
Q 1759 972 1856 886 
Q 1953 800 2241 800 
L 2816 800 
L 2816 0 
L 1856 0 
Q 1194 0 917 276 
Q 641 553 641 1216 
L 641 2700 
L 84 2700 
L 84 3500 
L 641 3500 
L 641 4494 
L 1759 4494 
z
" transform="scale(0.015625)"/>
        <path id="ae_AlMothnna-Bold-68" d="M 4056 2131 
L 4056 0 
L 2931 0 
L 2931 347 
L 2931 1625 
Q 2931 2084 2911 2256 
Q 2891 2428 2841 2509 
Q 2775 2619 2662 2680 
Q 2550 2741 2406 2741 
Q 2056 2741 1856 2470 
Q 1656 2200 1656 1722 
L 1656 0 
L 538 0 
L 538 4863 
L 1656 4863 
L 1656 2988 
Q 1909 3294 2193 3439 
Q 2478 3584 2822 3584 
Q 3428 3584 3742 3212 
Q 4056 2841 4056 2131 
z
" transform="scale(0.015625)"/>
        <path id="ae_AlMothnna-Bold-65" d="M 4031 1759 
L 4031 1441 
L 1416 1441 
Q 1456 1047 1700 850 
Q 1944 653 2381 653 
Q 2734 653 3104 758 
Q 3475 863 3866 1075 
L 3866 213 
Q 3469 63 3072 -14 
Q 2675 -91 2278 -91 
Q 1328 -91 801 392 
Q 275 875 275 1747 
Q 275 2603 792 3093 
Q 1309 3584 2216 3584 
Q 3041 3584 3536 3087 
Q 4031 2591 4031 1759 
z
M 2881 2131 
Q 2881 2450 2695 2645 
Q 2509 2841 2209 2841 
Q 1884 2841 1681 2658 
Q 1478 2475 1428 2131 
L 2881 2131 
z
" transform="scale(0.015625)"/>
       </defs>
       <use xlink:href="#ae_AlMothnna-Bold-74"/>
       <use xlink:href="#ae_AlMothnna-Bold-68" transform="translate(47.802734 0)"/>
       <use xlink:href="#ae_AlMothnna-Bold-65" transform="translate(118.994141 0)"/>
      </g>
     </g>
    </g>
    <g id="xtick_15">
     <g id="line2d_15">
      <g>
       <use xlink:href="#m47cd8a9125" x="251.670296" y="366.748146" style="stroke: #000000; stroke-width: 0.8"/>
      </g>
     </g>
     <g id="text_15">
      <!-- هذه -->
      <g transform="translate(242.191109 390.846268) rotate(-60) scale(0.1 -0.1)">
       <defs>
        <path id="ae_AlMothnna-Bold-647" d="M 1644 2678 
Q 1919 2678 2156 2569 
Q 2391 2475 2581 2284 
Q 2659 2206 2732 2098 
Q 2806 1991 2869 1856 
Q 2916 1731 2944 1606 
Q 2956 1544 2962 1483 
Q 2969 1422 2969 1338 
Q 2969 1063 2869 816 
Q 2809 678 2742 586 
Q 2675 494 2581 391 
Q 2409 219 2154 108 
Q 1900 -3 1644 -3 
Q 1528 -3 1486 1 
Q 1444 6 1348 25 
Q 1253 44 1125 106 
Q 884 200 706 379 
Q 528 559 420 807 
Q 313 1056 313 1338 
Q 313 1613 414 1853 
Q 516 2094 695 2283 
Q 875 2472 1125 2569 
Q 1363 2678 1644 2678 
z
M 1644 1775 
Q 1469 1775 1331 1644 
Q 1269 1578 1237 1500 
Q 1206 1422 1206 1338 
Q 1206 1159 1339 1029 
Q 1472 900 1644 900 
Q 1822 900 1951 1033 
Q 2081 1166 2081 1338 
Q 2081 1513 1953 1644 
Q 1825 1775 1644 1775 
z
" transform="scale(0.015625)"/>
        <path id="ae_AlMothnna-Bold-630" d="M 1966 3913 
Q 1966 3716 1825 3575 
Q 1684 3434 1491 3434 
Q 1306 3434 1161 3576 
Q 1016 3719 1016 3913 
Q 1016 4113 1153 4253 
Q 1291 4394 1491 4394 
Q 1675 4394 1820 4251 
Q 1966 4109 1966 3913 
z
M 2953 0 
L 769 0 
Q 606 25 544 63 
Q 316 188 316 469 
Q 316 747 544 853 
Q 609 878 775 903 
L 2075 903 
L 2075 1119 
L 2075 1419 
L 2066 1550 
Q 2066 1600 2050 1641 
L 2047 1697 
L 2031 1744 
L 2022 1775 
L 2009 1806 
Q 1909 2000 1628 2000 
Q 1491 2000 1372 1903 
Q 1281 1828 1209 1700 
L 1159 1594 
L 1091 1466 
Q 1025 1350 894 1284 
L 784 1263 
Q 703 1263 553 1319 
Q 422 1381 356 1497 
Q 313 1584 313 1700 
Q 313 1763 319 1781 
L 331 1841 
L 344 1884 
Q 381 2000 426 2087 
Q 472 2175 531 2244 
L 563 2278 
L 691 2419 
Q 859 2578 1063 2684 
Q 1197 2747 1342 2787 
Q 1488 2828 1634 2828 
Q 1766 2828 1872 2806 
Q 2300 2722 2578 2469 
Q 2763 2300 2866 2034 
L 2922 1819 
L 2938 1675 
L 2953 1353 
L 2953 0 
z
" transform="scale(0.015625)"/>
       </defs>
       <use xlink:href="#ae_AlMothnna-Bold-647"/>
       <use xlink:href="#ae_AlMothnna-Bold-630" transform="translate(51.269531 0)"/>
       <use xlink:href="#ae_AlMothnna-Bold-647" transform="translate(102.294922 0)"/>
      </g>
     </g>
    </g>
    <g id="xtick_16">
     <g id="line2d_16">
      <g>
       <use xlink:href="#m47cd8a9125" x="263.745506" y="366.748146" style="stroke: #000000; stroke-width: 0.8"/>
      </g>
     </g>
     <g id="text_16">
      <!-- هذا -->
      <g transform="translate(255.601475 388.533709) rotate(-60) scale(0.1 -0.1)">
       <use xlink:href="#ae_AlMothnna-Bold-647"/>
       <use xlink:href="#ae_AlMothnna-Bold-630" transform="translate(51.269531 0)"/>
       <use xlink:href="#ae_AlMothnna-Bold-627" transform="translate(102.294922 0)"/>
      </g>
     </g>
    </g>
    <g id="xtick_17">
     <g id="line2d_17">
      <g>
       <use xlink:href="#m47cd8a9125" x="275.820716" y="366.748146" style="stroke: #000000; stroke-width: 0.8"/>
      </g>
     </g>
     <g id="text_17">
      <!-- ذلك -->
      <g transform="translate(264.749027 393.470185) rotate(-60) scale(0.1 -0.1)">
       <defs>
        <path id="ae_AlMothnna-Bold-643" d="M 2647 3288 
Q 2647 3031 2444 2922 
Q 2388 2897 2241 2863 
L 1375 2863 
Q 1325 2863 1294 2878 
Q 1213 2916 1213 3016 
Q 1213 3100 1294 3141 
L 1375 3156 
L 2250 3156 
Q 2291 3156 2306 3169 
Q 2366 3200 2366 3269 
Q 2366 3344 2288 3372 
L 2250 3378 
L 1563 3378 
Q 1431 3397 1369 3438 
Q 1172 3550 1172 3800 
Q 1172 4041 1363 4147 
Q 1416 4172 1553 4206 
L 2325 4206 
Q 2406 4197 2438 4175 
Q 2494 4138 2494 4056 
Q 2494 3972 2409 3919 
L 2325 3894 
L 1613 3894 
L 1547 3884 
Q 1478 3859 1478 3788 
Q 1478 3719 1544 3681 
L 1613 3663 
L 2241 3656 
Q 2306 3656 2350 3647 
Q 2388 3644 2444 3619 
Q 2647 3534 2647 3288 
z
M 4488 994 
L 4484 806 
Q 4484 688 4434 556 
Q 4369 391 4225 231 
Q 4147 144 4000 75 
Q 3953 59 3906 46 
Q 3859 34 3775 16 
L 3638 3 
L 3488 0 
L 1466 0 
Q 1319 0 1169 44 
Q 825 138 613 378 
Q 313 716 313 1297 
Q 313 1856 609 2181 
Q 825 2416 1166 2509 
Q 1334 2556 1466 2556 
L 2569 2556 
Q 2709 2538 2781 2506 
Q 2994 2406 2994 2150 
Q 2994 1891 2781 1784 
Q 2734 1759 2569 1731 
L 2569 1747 
L 1606 1747 
Q 1481 1747 1394 1697 
Q 1181 1594 1181 1334 
Q 1181 1072 1394 966 
Q 1441 941 1606 913 
L 3372 913 
Q 3419 913 3438 919 
Q 3472 919 3500 948 
Q 3528 978 3541 1041 
L 3547 1094 
L 3547 4544 
Q 3566 4688 3603 4772 
Q 3722 5000 4019 5000 
Q 4303 5000 4428 4772 
Q 4459 4706 4488 4544 
L 4488 994 
z
" transform="scale(0.015625)"/>
       </defs>
       <use xlink:href="#ae_AlMothnna-Bold-630"/>
       <use xlink:href="#ae_AlMothnna-Bold-644" transform="translate(51.025391 0)"/>
       <use xlink:href="#ae_AlMothnna-Bold-643" transform="translate(107.617188 0)"/>
      </g>
     </g>
    </g>
    <g id="xtick_18">
     <g id="line2d_18">
      <g>
       <use xlink:href="#m47cd8a9125" x="287.895926" y="366.748146" style="stroke: #000000; stroke-width: 0.8"/>
      </g>
     </g>
     <g id="text_18">
      <!-- بين -->
      <g transform="translate(273.352362 399.412555) rotate(-60) scale(0.1 -0.1)">
       <use xlink:href="#ae_AlMothnna-Bold-628"/>
       <use xlink:href="#ae_AlMothnna-Bold-64a" transform="translate(100.488281 0)"/>
       <use xlink:href="#ae_AlMothnna-Bold-646" transform="translate(195.605469 0)"/>
      </g>
     </g>
    </g>
    <g id="xtick_19">
     <g id="line2d_19">
      <g>
       <use xlink:href="#m47cd8a9125" x="299.971135" y="366.748146" style="stroke: #000000; stroke-width: 0.8"/>
      </g>
     </g>
     <g id="text_19">
      <!-- غير -->
      <g transform="translate(288.831064 393.398785) rotate(-60) scale(0.1 -0.1)">
       <defs>
        <path id="ae_AlMothnna-Bold-63a" d="M 2091 4444 
Q 2091 4247 1950 4106 
Q 1809 3966 1616 3966 
Q 1419 3966 1280 4108 
Q 1141 4250 1141 4444 
Q 1141 4641 1277 4780 
Q 1413 4919 1616 4919 
Q 1803 4919 1947 4780 
Q 2091 4641 2091 4444 
z
M 3219 -1028 
Q 3219 -1309 2972 -1425 
Q 2900 -1456 2722 -1484 
L 1550 -1488 
L 1550 -1456 
L 1500 -1456 
Q 1297 -1456 1116 -1406 
Q 819 -1331 616 -1134 
Q 366 -891 319 -456 
Q 319 -400 313 -378 
L 313 -313 
Q 313 0 450 238 
Q 547 403 706 525 
Q 803 594 847 606 
Q 831 616 822 625 
Q 788 653 750 691 
Q 644 806 572 969 
Q 472 1197 472 1466 
L 472 1591 
L 484 1669 
Q 538 2113 781 2394 
Q 1081 2741 1647 2819 
L 1744 2828 
L 1847 2831 
Q 2150 2831 2416 2703 
Q 2619 2606 2763 2463 
L 2878 2331 
L 2978 2150 
Q 3078 1931 3078 1759 
Q 3078 1625 3015 1522 
Q 2953 1419 2809 1362 
Q 2666 1306 2553 1306 
L 2475 1309 
Q 2453 1309 2412 1334 
Q 2372 1359 2331 1400 
Q 2303 1434 2250 1556 
L 2188 1719 
Q 2150 1806 2109 1850 
Q 1991 1984 1806 1984 
Q 1522 1984 1400 1788 
Q 1328 1663 1328 1488 
L 1328 1444 
Q 1328 1391 1334 1362 
Q 1341 1334 1363 1281 
Q 1397 1197 1497 1081 
Q 1566 1003 1697 906 
L 2728 906 
L 2859 884 
Q 2919 875 2953 853 
Q 3178 741 3178 456 
Q 3178 175 2956 56 
Q 2903 28 2734 -6 
L 1438 0 
Q 1344 -9 1300 -31 
Q 1159 -97 1159 -278 
Q 1159 -456 1297 -528 
L 1438 -563 
L 1766 -572 
L 2222 -572 
L 2728 -575 
Q 2903 -600 2972 -638 
Q 3219 -756 3219 -1028 
z
" transform="scale(0.015625)"/>
        <path id="ae_AlMothnna-Bold-631" d="M 1750 -531 
L 1750 -569 
Q 1750 -594 1744 -638 
L 1731 -731 
Q 1691 -956 1575 -1087 
Q 1459 -1219 1259 -1275 
L 1091 -1303 
L 806 -1303 
Q 728 -1294 662 -1281 
Q 597 -1269 559 -1250 
Q 313 -1141 313 -856 
Q 313 -578 488 -469 
Q 544 -441 666 -413 
Q 697 -413 703 -406 
Q 738 -397 775 -366 
L 800 -306 
L 806 -234 
L 806 2194 
Q 825 2356 863 2450 
Q 981 2709 1278 2709 
Q 1569 2709 1691 2453 
Q 1722 2378 1750 2194 
L 1750 2216 
L 1750 -531 
z
" transform="scale(0.015625)"/>
       </defs>
       <use xlink:href="#ae_AlMothnna-Bold-63a"/>
       <use xlink:href="#ae_AlMothnna-Bold-64a" transform="translate(55.175781 0)"/>
       <use xlink:href="#ae_AlMothnna-Bold-631" transform="translate(150.292969 0)"/>
      </g>
     </g>
    </g>
    <g id="xtick_20">
     <g id="line2d_20">
      <g>
       <use xlink:href="#m47cd8a9125" x="312.046345" y="366.748146" style="stroke: #000000; stroke-width: 0.8"/>
      </g>
     </g>
     <g id="text_20">
      <!-- و -->
      <g transform="translate(307.693721 381.966801) rotate(-60) scale(0.1 -0.1)">
       <use xlink:href="#ae_AlMothnna-Bold-648"/>
      </g>
     </g>
    </g>
    <g id="xtick_21">
     <g id="line2d_21">
      <g>
       <use xlink:href="#m47cd8a9125" x="324.121555" y="366.748146" style="stroke: #000000; stroke-width: 0.8"/>
      </g>
     </g>
     <g id="text_21">
      <!-- الذي -->
      <g transform="translate(310.815492 397.296486) rotate(-60) scale(0.1 -0.1)">
       <use xlink:href="#ae_AlMothnna-Bold-627"/>
       <use xlink:href="#ae_AlMothnna-Bold-644" transform="translate(24.560547 0)"/>
       <use xlink:href="#ae_AlMothnna-Bold-630" transform="translate(81.152344 0)"/>
       <use xlink:href="#ae_AlMothnna-Bold-64a" transform="translate(132.177734 0)"/>
      </g>
     </g>
    </g>
    <g id="xtick_22">
     <g id="line2d_22">
      <g>
       <use xlink:href="#m47cd8a9125" x="336.196765" y="366.748146" style="stroke: #000000; stroke-width: 0.8"/>
      </g>
     </g>
     <g id="text_22">
      <!-- وفي -->
      <g transform="translate(321.24539 400.104845) rotate(-60) scale(0.1 -0.1)">
       <use xlink:href="#ae_AlMothnna-Bold-648"/>
       <use xlink:href="#ae_AlMothnna-Bold-641" transform="translate(51.025391 0)"/>
       <use xlink:href="#ae_AlMothnna-Bold-64a" transform="translate(165.087891 0)"/>
      </g>
     </g>
    </g>
    <g id="xtick_23">
     <g id="line2d_23">
      <g>
       <use xlink:href="#m47cd8a9125" x="348.271975" y="366.748146" style="stroke: #000000; stroke-width: 0.8"/>
      </g>
     </g>
     <g id="text_23">
      <!-- ما -->
      <g transform="translate(341.59388 385.904009) rotate(-60) scale(0.1 -0.1)">
       <use xlink:href="#ae_AlMothnna-Bold-645"/>
       <use xlink:href="#ae_AlMothnna-Bold-627" transform="translate(71.630859 0)"/>
      </g>
     </g>
    </g>
    <g id="xtick_24">
     <g id="line2d_24">
      <g>
       <use xlink:href="#m47cd8a9125" x="360.347185" y="366.748146" style="stroke: #000000; stroke-width: 0.8"/>
      </g>
     </g>
     <g id="text_24">
      <!-- لا -->
      <g transform="translate(354.348934 384.638984) rotate(-60) scale(0.1 -0.1)">
       <use xlink:href="#ae_AlMothnna-Bold-644"/>
       <use xlink:href="#ae_AlMothnna-Bold-627" transform="translate(56.591797 0)"/>
      </g>
     </g>
    </g>
    <g id="xtick_25">
     <g id="line2d_25">
      <g>
       <use xlink:href="#m47cd8a9125" x="372.422395" y="366.748146" style="stroke: #000000; stroke-width: 0.8"/>
      </g>
     </g>
     <g id="text_25">
      <!-- of -->
      <g transform="translate(365.011177 387.264441) rotate(-60) scale(0.1 -0.1)">
       <defs>
        <path id="ae_AlMothnna-Bold-6f" d="M 2203 2784 
Q 1831 2784 1636 2517 
Q 1441 2250 1441 1747 
Q 1441 1244 1636 976 
Q 1831 709 2203 709 
Q 2569 709 2762 976 
Q 2956 1244 2956 1747 
Q 2956 2250 2762 2517 
Q 2569 2784 2203 2784 
z
M 2203 3584 
Q 3106 3584 3614 3096 
Q 4122 2609 4122 1747 
Q 4122 884 3614 396 
Q 3106 -91 2203 -91 
Q 1297 -91 786 396 
Q 275 884 275 1747 
Q 275 2609 786 3096 
Q 1297 3584 2203 3584 
z
" transform="scale(0.015625)"/>
        <path id="ae_AlMothnna-Bold-66" d="M 2841 4863 
L 2841 4128 
L 2222 4128 
Q 1984 4128 1890 4042 
Q 1797 3956 1797 3744 
L 1797 3500 
L 2753 3500 
L 2753 2700 
L 1797 2700 
L 1797 0 
L 678 0 
L 678 2700 
L 122 2700 
L 122 3500 
L 678 3500 
L 678 3744 
Q 678 4316 997 4589 
Q 1316 4863 1984 4863 
L 2841 4863 
z
" transform="scale(0.015625)"/>
       </defs>
       <use xlink:href="#ae_AlMothnna-Bold-6f"/>
       <use xlink:href="#ae_AlMothnna-Bold-66" transform="translate(68.701172 0)"/>
      </g>
     </g>
    </g>
    <g id="xtick_26">
     <g id="line2d_26">
      <g>
       <use xlink:href="#m47cd8a9125" x="384.497605" y="366.748146" style="stroke: #000000; stroke-width: 0.8"/>
      </g>
     </g>
     <g id="text_26">
      <!-- العامة -->
      <g transform="translate(368.295033 402.186823) rotate(-60) scale(0.1 -0.1)">
       <use xlink:href="#ae_AlMothnna-Bold-627"/>
       <use xlink:href="#ae_AlMothnna-Bold-644" transform="translate(24.560547 0)"/>
       <use xlink:href="#ae_AlMothnna-Bold-639" transform="translate(81.152344 0)"/>
       <use xlink:href="#ae_AlMothnna-Bold-627" transform="translate(136.328125 0)"/>
       <use xlink:href="#ae_AlMothnna-Bold-645" transform="translate(160.888672 0)"/>
       <use xlink:href="#ae_AlMothnna-Bold-629" transform="translate(232.519531 0)"/>
      </g>
     </g>
    </g>
    <g id="xtick_27">
     <g id="line2d_27">
      <g>
       <use xlink:href="#m47cd8a9125" x="396.572815" y="366.748146" style="stroke: #000000; stroke-width: 0.8"/>
      </g>
     </g>
     <g id="text_27">
      <!-- عام -->
      <g transform="translate(386.991337 390.682034) rotate(-60) scale(0.1 -0.1)">
       <use xlink:href="#ae_AlMothnna-Bold-639"/>
       <use xlink:href="#ae_AlMothnna-Bold-627" transform="translate(55.175781 0)"/>
       <use xlink:href="#ae_AlMothnna-Bold-645" transform="translate(79.736328 0)"/>
      </g>
     </g>
    </g>
    <g id="xtick_28">
     <g id="line2d_28">
      <g>
       <use xlink:href="#m47cd8a9125" x="408.648025" y="366.748146" style="stroke: #000000; stroke-width: 0.8"/>
      </g>
     </g>
     <g id="text_28">
      <!-- بما -->
      <g transform="translate(396.873993 394.606211) rotate(-60) scale(0.1 -0.1)">
       <use xlink:href="#ae_AlMothnna-Bold-628"/>
       <use xlink:href="#ae_AlMothnna-Bold-645" transform="translate(100.488281 0)"/>
       <use xlink:href="#ae_AlMothnna-Bold-627" transform="translate(172.119141 0)"/>
      </g>
     </g>
    </g>
    <g id="xtick_29">
     <g id="line2d_29">
      <g>
       <use xlink:href="#m47cd8a9125" x="420.723235" y="366.748146" style="stroke: #000000; stroke-width: 0.8"/>
      </g>
     </g>
     <g id="text_29">
      <!-- الدول -->
      <g transform="translate(406.792172 398.379018) rotate(-60) scale(0.1 -0.1)">
       <use xlink:href="#ae_AlMothnna-Bold-627"/>
       <use xlink:href="#ae_AlMothnna-Bold-644" transform="translate(24.560547 0)"/>
       <use xlink:href="#ae_AlMothnna-Bold-62f" transform="translate(81.152344 0)"/>
       <use xlink:href="#ae_AlMothnna-Bold-648" transform="translate(132.177734 0)"/>
       <use xlink:href="#ae_AlMothnna-Bold-644" transform="translate(183.203125 0)"/>
      </g>
     </g>
    </g>
    <g id="xtick_30">
     <g id="line2d_30">
      <g>
       <use xlink:href="#m47cd8a9125" x="432.798445" y="366.748146" style="stroke: #000000; stroke-width: 0.8"/>
      </g>
     </g>
     <g id="text_30">
      <!-- جميع -->
      <g transform="translate(416.158373 402.758658) rotate(-60) scale(0.1 -0.1)">
       <use xlink:href="#ae_AlMothnna-Bold-62c"/>
       <use xlink:href="#ae_AlMothnna-Bold-645" transform="translate(70.605469 0)"/>
       <use xlink:href="#ae_AlMothnna-Bold-64a" transform="translate(142.236328 0)"/>
       <use xlink:href="#ae_AlMothnna-Bold-639" transform="translate(237.353516 0)"/>
      </g>
     </g>
    </g>
    <g id="xtick_31">
     <g id="line2d_31">
      <g>
       <use xlink:href="#m47cd8a9125" x="444.873655" y="366.748146" style="stroke: #000000; stroke-width: 0.8"/>
      </g>
     </g>
     <g id="text_31">
      <!-- العام -->
      <g transform="translate(431.234364 397.74709) rotate(-60) scale(0.1 -0.1)">
       <use xlink:href="#ae_AlMothnna-Bold-627"/>
       <use xlink:href="#ae_AlMothnna-Bold-644" transform="translate(24.560547 0)"/>
       <use xlink:href="#ae_AlMothnna-Bold-639" transform="translate(81.152344 0)"/>
       <use xlink:href="#ae_AlMothnna-Bold-627" transform="translate(136.328125 0)"/>
       <use xlink:href="#ae_AlMothnna-Bold-645" transform="translate(160.888672 0)"/>
      </g>
     </g>
    </g>
    <g id="xtick_32">
     <g id="line2d_32">
      <g>
       <use xlink:href="#m47cd8a9125" x="456.948865" y="366.748146" style="stroke: #000000; stroke-width: 0.8"/>
      </g>
     </g>
     <g id="text_32">
      <!-- حقوق -->
      <g transform="translate(441.149347 401.523089) rotate(-60) scale(0.1 -0.1)">
       <defs>
        <path id="ae_AlMothnna-Bold-642" d="M 4450 4453 
Q 4450 4269 4308 4123 
Q 4166 3978 3972 3978 
Q 3775 3978 3636 4120 
Q 3497 4263 3497 4453 
Q 3497 4653 3634 4792 
Q 3772 4931 3972 4931 
Q 4169 4931 4309 4790 
Q 4450 4650 4450 4453 
z
M 3272 4453 
Q 3272 4256 3128 4117 
Q 2984 3978 2794 3978 
Q 2597 3978 2459 4115 
Q 2322 4253 2322 4453 
Q 2322 4653 2459 4792 
Q 2597 4931 2794 4931 
Q 2978 4931 3125 4792 
Q 3272 4653 3272 4453 
z
M 4634 1781 
L 4625 1278 
L 4606 903 
Q 4606 819 4591 759 
Q 4581 694 4550 628 
Q 4475 453 4306 284 
Q 4138 116 3900 34 
L 3703 0 
L 1656 0 
Q 1303 0 1125 38 
Q 850 94 644 287 
Q 438 481 353 822 
L 313 1125 
L 313 2475 
Q 331 2634 369 2719 
Q 488 2966 781 2966 
Q 1069 2966 1197 2722 
Q 1228 2653 1256 2475 
L 1256 1275 
L 1269 1166 
Q 1288 1041 1350 986 
Q 1413 931 1547 913 
L 1663 906 
L 3278 906 
L 3384 906 
Q 3478 906 3547 925 
Q 3616 944 3675 1013 
Q 3709 1056 3734 1128 
L 3756 1247 
L 3756 1269 
L 3753 1284 
L 3631 1247 
Q 3438 1206 3309 1206 
Q 3097 1206 2928 1259 
Q 2703 1325 2509 1473 
Q 2316 1622 2205 1887 
Q 2094 2153 2094 2434 
Q 2094 2950 2397 3313 
Q 2741 3719 3350 3719 
Q 3756 3719 4047 3525 
Q 4259 3388 4425 3113 
Q 4531 2931 4584 2741 
L 4600 2650 
L 4606 2559 
L 4625 2225 
L 4634 1781 
z
M 3813 2475 
Q 3813 2653 3683 2784 
Q 3553 2916 3369 2916 
Q 3194 2916 3059 2786 
Q 2925 2656 2925 2475 
Q 2925 2297 3058 2169 
Q 3191 2041 3369 2041 
Q 3553 2041 3683 2167 
Q 3813 2294 3813 2475 
z
" transform="scale(0.015625)"/>
       </defs>
       <use xlink:href="#ae_AlMothnna-Bold-62d"/>
       <use xlink:href="#ae_AlMothnna-Bold-642" transform="translate(70.605469 0)"/>
       <use xlink:href="#ae_AlMothnna-Bold-648" transform="translate(147.900391 0)"/>
       <use xlink:href="#ae_AlMothnna-Bold-642" transform="translate(198.925781 0)"/>
      </g>
     </g>
    </g>
    <g id="xtick_33">
     <g id="line2d_33">
      <g>
       <use xlink:href="#m47cd8a9125" x="469.024074" y="366.748146" style="stroke: #000000; stroke-width: 0.8"/>
      </g>
     </g>
     <g id="text_33">
      <!-- and -->
      <g transform="translate(456.710512 395.755549) rotate(-60) scale(0.1 -0.1)">
       <defs>
        <path id="ae_AlMothnna-Bold-61" d="M 2106 1575 
Q 1756 1575 1579 1456 
Q 1403 1338 1403 1106 
Q 1403 894 1545 773 
Q 1688 653 1941 653 
Q 2256 653 2472 879 
Q 2688 1106 2688 1447 
L 2688 1575 
L 2106 1575 
z
M 3816 1997 
L 3816 0 
L 2688 0 
L 2688 519 
Q 2463 200 2181 54 
Q 1900 -91 1497 -91 
Q 953 -91 614 226 
Q 275 544 275 1050 
Q 275 1666 698 1953 
Q 1122 2241 2028 2241 
L 2688 2241 
L 2688 2328 
Q 2688 2594 2478 2717 
Q 2269 2841 1825 2841 
Q 1466 2841 1156 2769 
Q 847 2697 581 2553 
L 581 3406 
Q 941 3494 1303 3539 
Q 1666 3584 2028 3584 
Q 2975 3584 3395 3211 
Q 3816 2838 3816 1997 
z
" transform="scale(0.015625)"/>
        <path id="ae_AlMothnna-Bold-6e" d="M 4056 2131 
L 4056 0 
L 2931 0 
L 2931 347 
L 2931 1631 
Q 2931 2084 2911 2256 
Q 2891 2428 2841 2509 
Q 2775 2619 2662 2680 
Q 2550 2741 2406 2741 
Q 2056 2741 1856 2470 
Q 1656 2200 1656 1722 
L 1656 0 
L 538 0 
L 538 3500 
L 1656 3500 
L 1656 2988 
Q 1909 3294 2193 3439 
Q 2478 3584 2822 3584 
Q 3428 3584 3742 3212 
Q 4056 2841 4056 2131 
z
" transform="scale(0.015625)"/>
        <path id="ae_AlMothnna-Bold-64" d="M 2919 2988 
L 2919 4863 
L 4044 4863 
L 4044 0 
L 2919 0 
L 2919 506 
Q 2688 197 2409 53 
Q 2131 -91 1766 -91 
Q 1119 -91 703 423 
Q 288 938 288 1747 
Q 288 2556 703 3070 
Q 1119 3584 1766 3584 
Q 2128 3584 2408 3439 
Q 2688 3294 2919 2988 
z
M 2181 722 
Q 2541 722 2730 984 
Q 2919 1247 2919 1747 
Q 2919 2247 2730 2509 
Q 2541 2772 2181 2772 
Q 1825 2772 1636 2509 
Q 1447 2247 1447 1747 
Q 1447 1247 1636 984 
Q 1825 722 2181 722 
z
" transform="scale(0.015625)"/>
       </defs>
       <use xlink:href="#ae_AlMothnna-Bold-61"/>
       <use xlink:href="#ae_AlMothnna-Bold-6e" transform="translate(67.480469 0)"/>
       <use xlink:href="#ae_AlMothnna-Bold-64" transform="translate(138.671875 0)"/>
      </g>
     </g>
    </g>
    <g id="xtick_34">
     <g id="line2d_34">
      <g>
       <use xlink:href="#m47cd8a9125" x="481.099284" y="366.748146" style="stroke: #000000; stroke-width: 0.8"/>
      </g>
     </g>
     <g id="text_34">
      <!-- ا -->
      <g transform="translate(478.070097 379.67454) rotate(-60) scale(0.1 -0.1)">
       <use xlink:href="#ae_AlMothnna-Bold-627"/>
      </g>
     </g>
    </g>
    <g id="xtick_35">
     <g id="line2d_35">
      <g>
       <use xlink:href="#m47cd8a9125" x="493.174494" y="366.748146" style="stroke: #000000; stroke-width: 0.8"/>
      </g>
     </g>
     <g id="text_35">
      <!-- الدولية -->
      <g transform="translate(471.9239 411.056818) rotate(-60) scale(0.1 -0.1)">
       <use xlink:href="#ae_AlMothnna-Bold-627"/>
       <use xlink:href="#ae_AlMothnna-Bold-644" transform="translate(24.560547 0)"/>
       <use xlink:href="#ae_AlMothnna-Bold-62f" transform="translate(81.152344 0)"/>
       <use xlink:href="#ae_AlMothnna-Bold-648" transform="translate(132.177734 0)"/>
       <use xlink:href="#ae_AlMothnna-Bold-644" transform="translate(183.203125 0)"/>
       <use xlink:href="#ae_AlMothnna-Bold-64a" transform="translate(239.794922 0)"/>
       <use xlink:href="#ae_AlMothnna-Bold-629" transform="translate(334.912109 0)"/>
      </g>
     </g>
    </g>
    <g id="xtick_36">
     <g id="line2d_36">
      <g>
       <use xlink:href="#m47cd8a9125" x="505.249704" y="366.748146" style="stroke: #000000; stroke-width: 0.8"/>
      </g>
     </g>
     <g id="text_36">
      <!-- العمل -->
      <g transform="translate(490.008851 400.521078) rotate(-60) scale(0.1 -0.1)">
       <use xlink:href="#ae_AlMothnna-Bold-627"/>
       <use xlink:href="#ae_AlMothnna-Bold-644" transform="translate(24.560547 0)"/>
       <use xlink:href="#ae_AlMothnna-Bold-639" transform="translate(81.152344 0)"/>
       <use xlink:href="#ae_AlMothnna-Bold-645" transform="translate(136.328125 0)"/>
       <use xlink:href="#ae_AlMothnna-Bold-644" transform="translate(207.958984 0)"/>
      </g>
     </g>
    </g>
    <g id="xtick_37">
     <g id="line2d_37">
      <g>
       <use xlink:href="#m47cd8a9125" x="517.324914" y="366.748146" style="stroke: #000000; stroke-width: 0.8"/>
      </g>
     </g>
     <g id="text_37">
      <!-- الإنسان -->
      <g transform="translate(497.107671 408.981063) rotate(-60) scale(0.1 -0.1)">
       <defs>
        <path id="ae_AlMothnna-Bold-633" d="M 6628 763 
Q 6628 656 6617 600 
Q 6606 544 6569 444 
L 6503 328 
Q 6472 275 6409 213 
Q 6309 122 6144 63 
L 5975 13 
L 5872 0 
L 3272 0 
L 3188 -372 
Q 3047 -794 2778 -1063 
Q 2397 -1434 1803 -1434 
Q 1203 -1434 813 -1066 
Q 541 -803 397 -378 
L 313 -6 
L 313 1463 
Q 331 1588 366 1647 
Q 478 1834 759 1834 
Q 1041 1834 1150 1650 
Q 1184 1594 1206 1463 
L 1200 50 
Q 1209 -38 1225 -100 
Q 1241 -163 1247 -180 
Q 1253 -197 1272 -234 
Q 1416 -519 1763 -519 
Q 2119 -519 2275 -238 
Q 2313 -163 2347 44 
L 2347 2309 
Q 2366 2447 2403 2516 
Q 2519 2725 2797 2725 
Q 3078 2725 3191 2519 
Q 3228 2453 3247 2309 
L 3247 897 
L 4025 897 
L 4025 2309 
Q 4044 2447 4081 2516 
Q 4197 2725 4475 2725 
Q 4756 2725 4869 2519 
Q 4906 2453 4925 2309 
L 4925 897 
L 5709 897 
L 5709 2309 
Q 5719 2381 5731 2432 
Q 5744 2484 5763 2516 
Q 5878 2725 6153 2725 
Q 6431 2725 6563 2525 
Q 6600 2456 6628 2322 
L 6628 763 
z
" transform="scale(0.015625)"/>
       </defs>
       <use xlink:href="#ae_AlMothnna-Bold-627"/>
       <use xlink:href="#ae_AlMothnna-Bold-644" transform="translate(24.560547 0)"/>
       <use xlink:href="#ae_AlMothnna-Bold-625" transform="translate(81.152344 0)"/>
       <use xlink:href="#ae_AlMothnna-Bold-646" transform="translate(116.308594 0)"/>
       <use xlink:href="#ae_AlMothnna-Bold-633" transform="translate(172.753906 0)"/>
       <use xlink:href="#ae_AlMothnna-Bold-627" transform="translate(281.201172 0)"/>
       <use xlink:href="#ae_AlMothnna-Bold-646" transform="translate(305.761719 0)"/>
      </g>
     </g>
    </g>
    <g id="xtick_38">
     <g id="line2d_38">
      <g>
       <use xlink:href="#m47cd8a9125" x="529.400124" y="366.748146" style="stroke: #000000; stroke-width: 0.8"/>
      </g>
     </g>
     <g id="text_38">
      <!-- الدولي -->
      <g transform="translate(510.712811 406.617085) rotate(-60) scale(0.1 -0.1)">
       <use xlink:href="#ae_AlMothnna-Bold-627"/>
       <use xlink:href="#ae_AlMothnna-Bold-644" transform="translate(24.560547 0)"/>
       <use xlink:href="#ae_AlMothnna-Bold-62f" transform="translate(81.152344 0)"/>
       <use xlink:href="#ae_AlMothnna-Bold-648" transform="translate(132.177734 0)"/>
       <use xlink:href="#ae_AlMothnna-Bold-644" transform="translate(183.203125 0)"/>
       <use xlink:href="#ae_AlMothnna-Bold-64a" transform="translate(239.794922 0)"/>
      </g>
     </g>
    </g>
    <g id="xtick_39">
     <g id="line2d_39">
      <g>
       <use xlink:href="#m47cd8a9125" x="541.475334" y="366.748146" style="stroke: #000000; stroke-width: 0.8"/>
      </g>
     </g>
     <g id="text_39">
      <!-- أجل -->
      <g transform="translate(531.411514 391.715131) rotate(-60) scale(0.1 -0.1)">
       <use xlink:href="#ae_AlMothnna-Bold-623"/>
       <use xlink:href="#ae_AlMothnna-Bold-62c" transform="translate(35.15625 0)"/>
       <use xlink:href="#ae_AlMothnna-Bold-644" transform="translate(105.761719 0)"/>
      </g>
     </g>
    </g>
    <g id="xtick_40">
     <g id="line2d_40">
      <g>
       <use xlink:href="#m47cd8a9125" x="553.550544" y="366.748146" style="stroke: #000000; stroke-width: 0.8"/>
      </g>
     </g>
     <g id="text_40">
      <!-- المتعلقة -->
      <g transform="translate(526.851879 420.40331) rotate(-60) scale(0.1 -0.1)">
       <use xlink:href="#ae_AlMothnna-Bold-627"/>
       <use xlink:href="#ae_AlMothnna-Bold-644" transform="translate(24.560547 0)"/>
       <use xlink:href="#ae_AlMothnna-Bold-645" transform="translate(81.152344 0)"/>
       <use xlink:href="#ae_AlMothnna-Bold-62a" transform="translate(152.783203 0)"/>
       <use xlink:href="#ae_AlMothnna-Bold-639" transform="translate(253.369141 0)"/>
       <use xlink:href="#ae_AlMothnna-Bold-644" transform="translate(308.544922 0)"/>
       <use xlink:href="#ae_AlMothnna-Bold-642" transform="translate(365.136719 0)"/>
       <use xlink:href="#ae_AlMothnna-Bold-629" transform="translate(442.431641 0)"/>
      </g>
     </g>
    </g>
    <g id="xtick_41">
     <g id="line2d_41">
      <g>
       <use xlink:href="#m47cd8a9125" x="565.625754" y="366.748146" style="stroke: #000000; stroke-width: 0.8"/>
      </g>
     </g>
     <g id="text_41">
      <!-- خلال -->
      <g transform="translate(553.269691 395.651038) rotate(-60) scale(0.1 -0.1)">
       <defs>
        <path id="ae_AlMothnna-Bold-62e" d="M 2394 4016 
Q 2394 3831 2251 3686 
Q 2109 3541 1916 3541 
Q 1728 3541 1581 3681 
Q 1444 3825 1444 4016 
Q 1444 4216 1581 4355 
Q 1719 4494 1916 4494 
Q 2113 4494 2253 4353 
Q 2394 4213 2394 4016 
z
M 4203 472 
Q 4203 188 3981 72 
Q 3922 47 3756 22 
L 1434 22 
Q 1350 13 1309 -9 
Q 1184 -78 1184 -244 
Q 1184 -400 1309 -475 
L 1434 -509 
L 3075 -509 
L 3203 -531 
Q 3259 -541 3303 -563 
Q 3531 -666 3531 -941 
Q 3531 -1231 3303 -1356 
L 3219 -1388 
L 3075 -1419 
L 1428 -1419 
Q 1303 -1419 1141 -1378 
Q 816 -1294 603 -1088 
Q 313 -791 313 -281 
Q 313 250 600 556 
Q 806 778 1138 866 
Q 1306 909 1428 909 
L 2434 909 
Q 2622 938 2719 1034 
Q 2838 1153 2838 1356 
Q 2838 1606 2631 1719 
L 2550 1744 
L 2422 1772 
L 819 1772 
Q 631 1816 529 1942 
Q 428 2069 428 2225 
Q 428 2394 528 2514 
Q 628 2634 819 2672 
L 2684 2672 
L 2747 2663 
L 2878 2625 
Q 2963 2600 3064 2551 
Q 3166 2503 3253 2444 
Q 3488 2288 3616 2038 
Q 3688 1884 3731 1697 
L 3756 1528 
L 3766 1356 
Q 3766 1147 3725 984 
L 3703 916 
L 3753 909 
L 3884 888 
Q 3944 878 3978 856 
Q 4203 747 4203 472 
z
" transform="scale(0.015625)"/>
       </defs>
       <use xlink:href="#ae_AlMothnna-Bold-62e"/>
       <use xlink:href="#ae_AlMothnna-Bold-644" transform="translate(70.556641 0)"/>
       <use xlink:href="#ae_AlMothnna-Bold-627" transform="translate(127.148438 0)"/>
       <use xlink:href="#ae_AlMothnna-Bold-644" transform="translate(151.708984 0)"/>
      </g>
     </g>
    </g>
    <g id="xtick_42">
     <g id="line2d_42">
      <g>
       <use xlink:href="#m47cd8a9125" x="577.700964" y="366.748146" style="stroke: #000000; stroke-width: 0.8"/>
      </g>
     </g>
     <g id="text_42">
      <!-- البلدان -->
      <g transform="translate(557.246463 409.677943) rotate(-60) scale(0.1 -0.1)">
       <use xlink:href="#ae_AlMothnna-Bold-627"/>
       <use xlink:href="#ae_AlMothnna-Bold-644" transform="translate(24.560547 0)"/>
       <use xlink:href="#ae_AlMothnna-Bold-628" transform="translate(81.152344 0)"/>
       <use xlink:href="#ae_AlMothnna-Bold-644" transform="translate(181.640625 0)"/>
       <use xlink:href="#ae_AlMothnna-Bold-62f" transform="translate(238.232422 0)"/>
       <use xlink:href="#ae_AlMothnna-Bold-627" transform="translate(289.257812 0)"/>
       <use xlink:href="#ae_AlMothnna-Bold-646" transform="translate(313.818359 0)"/>
      </g>
     </g>
    </g>
    <g id="xtick_43">
     <g id="line2d_43">
      <g>
       <use xlink:href="#m47cd8a9125" x="589.776174" y="366.748146" style="stroke: #000000; stroke-width: 0.8"/>
      </g>
     </g>
     <g id="text_43">
      <!-- مجلس -->
      <g transform="translate(572.46626 404.221983) rotate(-60) scale(0.1 -0.1)">
       <use xlink:href="#ae_AlMothnna-Bold-645"/>
       <use xlink:href="#ae_AlMothnna-Bold-62c" transform="translate(71.630859 0)"/>
       <use xlink:href="#ae_AlMothnna-Bold-644" transform="translate(142.236328 0)"/>
       <use xlink:href="#ae_AlMothnna-Bold-633" transform="translate(198.828125 0)"/>
      </g>
     </g>
    </g>
    <g id="xtick_44">
     <g id="line2d_44">
      <g>
       <use xlink:href="#m47cd8a9125" x="601.851384" y="366.748146" style="stroke: #000000; stroke-width: 0.8"/>
      </g>
     </g>
     <g id="text_44">
      <!-- الجمعية -->
      <g transform="translate(578.590218 414.412666) rotate(-60) scale(0.1 -0.1)">
       <use xlink:href="#ae_AlMothnna-Bold-627"/>
       <use xlink:href="#ae_AlMothnna-Bold-644" transform="translate(24.560547 0)"/>
       <use xlink:href="#ae_AlMothnna-Bold-62c" transform="translate(81.152344 0)"/>
       <use xlink:href="#ae_AlMothnna-Bold-645" transform="translate(151.757812 0)"/>
       <use xlink:href="#ae_AlMothnna-Bold-639" transform="translate(223.388672 0)"/>
       <use xlink:href="#ae_AlMothnna-Bold-64a" transform="translate(278.564453 0)"/>
       <use xlink:href="#ae_AlMothnna-Bold-629" transform="translate(373.681641 0)"/>
      </g>
     </g>
    </g>
    <g id="xtick_45">
     <g id="line2d_45">
      <g>
       <use xlink:href="#m47cd8a9125" x="613.926594" y="366.748146" style="stroke: #000000; stroke-width: 0.8"/>
      </g>
     </g>
     <g id="text_45">
      <!-- تنفيذ -->
      <g transform="translate(591.122874 413.783628) rotate(-60) scale(0.1 -0.1)">
       <use xlink:href="#ae_AlMothnna-Bold-62a"/>
       <use xlink:href="#ae_AlMothnna-Bold-646" transform="translate(100.585938 0)"/>
       <use xlink:href="#ae_AlMothnna-Bold-641" transform="translate(157.03125 0)"/>
       <use xlink:href="#ae_AlMothnna-Bold-64a" transform="translate(271.09375 0)"/>
       <use xlink:href="#ae_AlMothnna-Bold-630" transform="translate(366.210938 0)"/>
      </g>
     </g>
    </g>
    <g id="xtick_46">
     <g id="line2d_46">
      <g>
       <use xlink:href="#m47cd8a9125" x="626.001804" y="366.748146" style="stroke: #000000; stroke-width: 0.8"/>
      </g>
     </g>
     <g id="text_46">
      <!-- فيما -->
      <g transform="translate(608.792615 404.020178) rotate(-60) scale(0.1 -0.1)">
       <use xlink:href="#ae_AlMothnna-Bold-641"/>
       <use xlink:href="#ae_AlMothnna-Bold-64a" transform="translate(114.0625 0)"/>
       <use xlink:href="#ae_AlMothnna-Bold-645" transform="translate(209.179688 0)"/>
       <use xlink:href="#ae_AlMothnna-Bold-627" transform="translate(280.810547 0)"/>
      </g>
     </g>
    </g>
    <g id="xtick_47">
     <g id="line2d_47">
      <g>
       <use xlink:href="#m47cd8a9125" x="638.077014" y="366.748146" style="stroke: #000000; stroke-width: 0.8"/>
      </g>
     </g>
     <g id="text_47">
      <!-- المادة -->
      <g transform="translate(622.154544 401.828235) rotate(-60) scale(0.1 -0.1)">
       <use xlink:href="#ae_AlMothnna-Bold-627"/>
       <use xlink:href="#ae_AlMothnna-Bold-644" transform="translate(24.560547 0)"/>
       <use xlink:href="#ae_AlMothnna-Bold-645" transform="translate(81.152344 0)"/>
       <use xlink:href="#ae_AlMothnna-Bold-627" transform="translate(152.783203 0)"/>
       <use xlink:href="#ae_AlMothnna-Bold-62f" transform="translate(177.34375 0)"/>
       <use xlink:href="#ae_AlMothnna-Bold-629" transform="translate(228.369141 0)"/>
      </g>
     </g>
    </g>
    <g id="xtick_48">
     <g id="line2d_48">
      <g>
       <use xlink:href="#m47cd8a9125" x="650.152223" y="366.748146" style="stroke: #000000; stroke-width: 0.8"/>
      </g>
     </g>
     <g id="text_48">
      <!-- الفقرة -->
      <g transform="translate(630.411004 408.442504) rotate(-60) scale(0.1 -0.1)">
       <use xlink:href="#ae_AlMothnna-Bold-627"/>
       <use xlink:href="#ae_AlMothnna-Bold-644" transform="translate(24.560547 0)"/>
       <use xlink:href="#ae_AlMothnna-Bold-641" transform="translate(81.152344 0)"/>
       <use xlink:href="#ae_AlMothnna-Bold-642" transform="translate(195.214844 0)"/>
       <use xlink:href="#ae_AlMothnna-Bold-631" transform="translate(272.509766 0)"/>
       <use xlink:href="#ae_AlMothnna-Bold-629" transform="translate(304.736328 0)"/>
      </g>
     </g>
    </g>
    <g id="xtick_49">
     <g id="line2d_49">
      <g>
       <use xlink:href="#m47cd8a9125" x="662.227433" y="366.748146" style="stroke: #000000; stroke-width: 0.8"/>
      </g>
     </g>
     <g id="text_49">
      <!-- كانون -->
      <g transform="translate(647.251371 400.435103) rotate(-60) scale(0.1 -0.1)">
       <use xlink:href="#ae_AlMothnna-Bold-643"/>
       <use xlink:href="#ae_AlMothnna-Bold-627" transform="translate(75 0)"/>
       <use xlink:href="#ae_AlMothnna-Bold-646" transform="translate(99.560547 0)"/>
       <use xlink:href="#ae_AlMothnna-Bold-648" transform="translate(156.005859 0)"/>
       <use xlink:href="#ae_AlMothnna-Bold-646" transform="translate(207.03125 0)"/>
      </g>
     </g>
    </g>
    <g id="xtick_50">
     <g id="line2d_50">
      <g>
       <use xlink:href="#m47cd8a9125" x="674.302643" y="366.748146" style="stroke: #000000; stroke-width: 0.8"/>
      </g>
     </g>
     <g id="text_50">
      <!-- الأمين -->
      <g transform="translate(655.386424 407.057312) rotate(-60) scale(0.1 -0.1)">
       <use xlink:href="#ae_AlMothnna-Bold-627"/>
       <use xlink:href="#ae_AlMothnna-Bold-644" transform="translate(24.560547 0)"/>
       <use xlink:href="#ae_AlMothnna-Bold-623" transform="translate(81.152344 0)"/>
       <use xlink:href="#ae_AlMothnna-Bold-645" transform="translate(116.308594 0)"/>
       <use xlink:href="#ae_AlMothnna-Bold-64a" transform="translate(187.939453 0)"/>
       <use xlink:href="#ae_AlMothnna-Bold-646" transform="translate(283.056641 0)"/>
      </g>
     </g>
    </g>
   </g>
   <g id="matplotlib.axis_2">
    <g id="ytick_1">
     <g id="line2d_51">
      <defs>
       <path id="m1801eb4b57" d="M 0 0 
L -3.5 0 
" style="stroke: #000000; stroke-width: 0.8"/>
      </defs>
      <g>
       <use xlink:href="#m1801eb4b57" x="47.72" y="366.748146" style="stroke: #000000; stroke-width: 0.8"/>
      </g>
     </g>
     <g id="text_51">
      <!-- 0.0 -->
      <g transform="translate(24.816875 370.547365) scale(0.1 -0.1)">
       <defs>
        <path id="DejaVuSans-30" d="M 2034 4250 
Q 1547 4250 1301 3770 
Q 1056 3291 1056 2328 
Q 1056 1369 1301 889 
Q 1547 409 2034 409 
Q 2525 409 2770 889 
Q 3016 1369 3016 2328 
Q 3016 3291 2770 3770 
Q 2525 4250 2034 4250 
z
M 2034 4750 
Q 2819 4750 3233 4129 
Q 3647 3509 3647 2328 
Q 3647 1150 3233 529 
Q 2819 -91 2034 -91 
Q 1250 -91 836 529 
Q 422 1150 422 2328 
Q 422 3509 836 4129 
Q 1250 4750 2034 4750 
z
" transform="scale(0.015625)"/>
        <path id="DejaVuSans-2e" d="M 684 794 
L 1344 794 
L 1344 0 
L 684 0 
L 684 794 
z
" transform="scale(0.015625)"/>
       </defs>
       <use xlink:href="#DejaVuSans-30"/>
       <use xlink:href="#DejaVuSans-2e" transform="translate(63.623047 0)"/>
       <use xlink:href="#DejaVuSans-30" transform="translate(95.410156 0)"/>
      </g>
     </g>
    </g>
    <g id="ytick_2">
     <g id="line2d_52">
      <g>
       <use xlink:href="#m1801eb4b57" x="47.72" y="294.126669" style="stroke: #000000; stroke-width: 0.8"/>
      </g>
     </g>
     <g id="text_52">
      <!-- 0.5 -->
      <g transform="translate(24.816875 297.925887) scale(0.1 -0.1)">
       <defs>
        <path id="DejaVuSans-35" d="M 691 4666 
L 3169 4666 
L 3169 4134 
L 1269 4134 
L 1269 2991 
Q 1406 3038 1543 3061 
Q 1681 3084 1819 3084 
Q 2600 3084 3056 2656 
Q 3513 2228 3513 1497 
Q 3513 744 3044 326 
Q 2575 -91 1722 -91 
Q 1428 -91 1123 -41 
Q 819 9 494 109 
L 494 744 
Q 775 591 1075 516 
Q 1375 441 1709 441 
Q 2250 441 2565 725 
Q 2881 1009 2881 1497 
Q 2881 1984 2565 2268 
Q 2250 2553 1709 2553 
Q 1456 2553 1204 2497 
Q 953 2441 691 2322 
L 691 4666 
z
" transform="scale(0.015625)"/>
       </defs>
       <use xlink:href="#DejaVuSans-30"/>
       <use xlink:href="#DejaVuSans-2e" transform="translate(63.623047 0)"/>
       <use xlink:href="#DejaVuSans-35" transform="translate(95.410156 0)"/>
      </g>
     </g>
    </g>
    <g id="ytick_3">
     <g id="line2d_53">
      <g>
       <use xlink:href="#m1801eb4b57" x="47.72" y="221.505191" style="stroke: #000000; stroke-width: 0.8"/>
      </g>
     </g>
     <g id="text_53">
      <!-- 1.0 -->
      <g transform="translate(24.816875 225.30441) scale(0.1 -0.1)">
       <defs>
        <path id="DejaVuSans-31" d="M 794 531 
L 1825 531 
L 1825 4091 
L 703 3866 
L 703 4441 
L 1819 4666 
L 2450 4666 
L 2450 531 
L 3481 531 
L 3481 0 
L 794 0 
L 794 531 
z
" transform="scale(0.015625)"/>
       </defs>
       <use xlink:href="#DejaVuSans-31"/>
       <use xlink:href="#DejaVuSans-2e" transform="translate(63.623047 0)"/>
       <use xlink:href="#DejaVuSans-30" transform="translate(95.410156 0)"/>
      </g>
     </g>
    </g>
    <g id="ytick_4">
     <g id="line2d_54">
      <g>
       <use xlink:href="#m1801eb4b57" x="47.72" y="148.883713" style="stroke: #000000; stroke-width: 0.8"/>
      </g>
     </g>
     <g id="text_54">
      <!-- 1.5 -->
      <g transform="translate(24.816875 152.682932) scale(0.1 -0.1)">
       <use xlink:href="#DejaVuSans-31"/>
       <use xlink:href="#DejaVuSans-2e" transform="translate(63.623047 0)"/>
       <use xlink:href="#DejaVuSans-35" transform="translate(95.410156 0)"/>
      </g>
     </g>
    </g>
    <g id="ytick_5">
     <g id="line2d_55">
      <g>
       <use xlink:href="#m1801eb4b57" x="47.72" y="76.262236" style="stroke: #000000; stroke-width: 0.8"/>
      </g>
     </g>
     <g id="text_55">
      <!-- 2.0 -->
      <g transform="translate(24.816875 80.061454) scale(0.1 -0.1)">
       <defs>
        <path id="DejaVuSans-32" d="M 1228 531 
L 3431 531 
L 3431 0 
L 469 0 
L 469 531 
Q 828 903 1448 1529 
Q 2069 2156 2228 2338 
Q 2531 2678 2651 2914 
Q 2772 3150 2772 3378 
Q 2772 3750 2511 3984 
Q 2250 4219 1831 4219 
Q 1534 4219 1204 4116 
Q 875 4013 500 3803 
L 500 4441 
Q 881 4594 1212 4672 
Q 1544 4750 1819 4750 
Q 2544 4750 2975 4387 
Q 3406 4025 3406 3419 
Q 3406 3131 3298 2873 
Q 3191 2616 2906 2266 
Q 2828 2175 2409 1742 
Q 1991 1309 1228 531 
z
" transform="scale(0.015625)"/>
       </defs>
       <use xlink:href="#DejaVuSans-32"/>
       <use xlink:href="#DejaVuSans-2e" transform="translate(63.623047 0)"/>
       <use xlink:href="#DejaVuSans-30" transform="translate(95.410156 0)"/>
      </g>
     </g>
    </g>
    <g id="text_56">
     <!-- Frequency -->
     <g transform="translate(18.737188 223.363761) rotate(-90) scale(0.1 -0.1)">
      <defs>
       <path id="DejaVuSans-46" d="M 628 4666 
L 3309 4666 
L 3309 4134 
L 1259 4134 
L 1259 2759 
L 3109 2759 
L 3109 2228 
L 1259 2228 
L 1259 0 
L 628 0 
L 628 4666 
z
" transform="scale(0.015625)"/>
       <path id="DejaVuSans-72" d="M 2631 2963 
Q 2534 3019 2420 3045 
Q 2306 3072 2169 3072 
Q 1681 3072 1420 2755 
Q 1159 2438 1159 1844 
L 1159 0 
L 581 0 
L 581 3500 
L 1159 3500 
L 1159 2956 
Q 1341 3275 1631 3429 
Q 1922 3584 2338 3584 
Q 2397 3584 2469 3576 
Q 2541 3569 2628 3553 
L 2631 2963 
z
" transform="scale(0.015625)"/>
       <path id="DejaVuSans-65" d="M 3597 1894 
L 3597 1613 
L 953 1613 
Q 991 1019 1311 708 
Q 1631 397 2203 397 
Q 2534 397 2845 478 
Q 3156 559 3463 722 
L 3463 178 
Q 3153 47 2828 -22 
Q 2503 -91 2169 -91 
Q 1331 -91 842 396 
Q 353 884 353 1716 
Q 353 2575 817 3079 
Q 1281 3584 2069 3584 
Q 2775 3584 3186 3129 
Q 3597 2675 3597 1894 
z
M 3022 2063 
Q 3016 2534 2758 2815 
Q 2500 3097 2075 3097 
Q 1594 3097 1305 2825 
Q 1016 2553 972 2059 
L 3022 2063 
z
" transform="scale(0.015625)"/>
       <path id="DejaVuSans-71" d="M 947 1747 
Q 947 1113 1208 752 
Q 1469 391 1925 391 
Q 2381 391 2643 752 
Q 2906 1113 2906 1747 
Q 2906 2381 2643 2742 
Q 2381 3103 1925 3103 
Q 1469 3103 1208 2742 
Q 947 2381 947 1747 
z
M 2906 525 
Q 2725 213 2448 61 
Q 2172 -91 1784 -91 
Q 1150 -91 751 415 
Q 353 922 353 1747 
Q 353 2572 751 3078 
Q 1150 3584 1784 3584 
Q 2172 3584 2448 3432 
Q 2725 3281 2906 2969 
L 2906 3500 
L 3481 3500 
L 3481 -1331 
L 2906 -1331 
L 2906 525 
z
" transform="scale(0.015625)"/>
       <path id="DejaVuSans-75" d="M 544 1381 
L 544 3500 
L 1119 3500 
L 1119 1403 
Q 1119 906 1312 657 
Q 1506 409 1894 409 
Q 2359 409 2629 706 
Q 2900 1003 2900 1516 
L 2900 3500 
L 3475 3500 
L 3475 0 
L 2900 0 
L 2900 538 
Q 2691 219 2414 64 
Q 2138 -91 1772 -91 
Q 1169 -91 856 284 
Q 544 659 544 1381 
z
M 1991 3584 
L 1991 3584 
z
" transform="scale(0.015625)"/>
       <path id="DejaVuSans-6e" d="M 3513 2113 
L 3513 0 
L 2938 0 
L 2938 2094 
Q 2938 2591 2744 2837 
Q 2550 3084 2163 3084 
Q 1697 3084 1428 2787 
Q 1159 2491 1159 1978 
L 1159 0 
L 581 0 
L 581 3500 
L 1159 3500 
L 1159 2956 
Q 1366 3272 1645 3428 
Q 1925 3584 2291 3584 
Q 2894 3584 3203 3211 
Q 3513 2838 3513 2113 
z
" transform="scale(0.015625)"/>
       <path id="DejaVuSans-63" d="M 3122 3366 
L 3122 2828 
Q 2878 2963 2633 3030 
Q 2388 3097 2138 3097 
Q 1578 3097 1268 2742 
Q 959 2388 959 1747 
Q 959 1106 1268 751 
Q 1578 397 2138 397 
Q 2388 397 2633 464 
Q 2878 531 3122 666 
L 3122 134 
Q 2881 22 2623 -34 
Q 2366 -91 2075 -91 
Q 1284 -91 818 406 
Q 353 903 353 1747 
Q 353 2603 823 3093 
Q 1294 3584 2113 3584 
Q 2378 3584 2631 3529 
Q 2884 3475 3122 3366 
z
" transform="scale(0.015625)"/>
       <path id="DejaVuSans-79" d="M 2059 -325 
Q 1816 -950 1584 -1140 
Q 1353 -1331 966 -1331 
L 506 -1331 
L 506 -850 
L 844 -850 
Q 1081 -850 1212 -737 
Q 1344 -625 1503 -206 
L 1606 56 
L 191 3500 
L 800 3500 
L 1894 763 
L 2988 3500 
L 3597 3500 
L 2059 -325 
z
" transform="scale(0.015625)"/>
      </defs>
      <use xlink:href="#DejaVuSans-46"/>
      <use xlink:href="#DejaVuSans-72" transform="translate(50.269531 0)"/>
      <use xlink:href="#DejaVuSans-65" transform="translate(89.132812 0)"/>
      <use xlink:href="#DejaVuSans-71" transform="translate(150.65625 0)"/>
      <use xlink:href="#DejaVuSans-75" transform="translate(214.132812 0)"/>
      <use xlink:href="#DejaVuSans-65" transform="translate(277.511719 0)"/>
      <use xlink:href="#DejaVuSans-6e" transform="translate(339.035156 0)"/>
      <use xlink:href="#DejaVuSans-63" transform="translate(402.414062 0)"/>
      <use xlink:href="#DejaVuSans-79" transform="translate(457.394531 0)"/>
     </g>
    </g>
    <g id="text_57">
     <!-- 1e7 -->
     <g transform="translate(47.72 25.32) scale(0.1 -0.1)">
      <defs>
       <path id="DejaVuSans-37" d="M 525 4666 
L 3525 4666 
L 3525 4397 
L 1831 0 
L 1172 0 
L 2766 4134 
L 525 4134 
L 525 4666 
z
" transform="scale(0.015625)"/>
      </defs>
      <use xlink:href="#DejaVuSans-31"/>
      <use xlink:href="#DejaVuSans-65" transform="translate(63.623047 0)"/>
      <use xlink:href="#DejaVuSans-37" transform="translate(125.146484 0)"/>
     </g>
    </g>
   </g>
   <g id="patch_53">
    <path d="M 47.72 366.748146 
L 47.72 28.32 
" style="fill: none; stroke: #000000; stroke-width: 0.8; stroke-linejoin: miter; stroke-linecap: square"/>
   </g>
   <g id="patch_54">
    <path d="M 709.2 366.748146 
L 709.2 28.32 
" style="fill: none; stroke: #000000; stroke-width: 0.8; stroke-linejoin: miter; stroke-linecap: square"/>
   </g>
   <g id="patch_55">
    <path d="M 47.72 366.748146 
L 709.2 366.748146 
" style="fill: none; stroke: #000000; stroke-width: 0.8; stroke-linejoin: miter; stroke-linecap: square"/>
   </g>
   <g id="patch_56">
    <path d="M 47.72 28.32 
L 709.2 28.32 
" style="fill: none; stroke: #000000; stroke-width: 0.8; stroke-linejoin: miter; stroke-linecap: square"/>
   </g>
   <g id="text_58">
    <!-- Top 50 words in ar -->
    <g transform="translate(295.46625 22.32) scale(0.16 -0.16)">
     <defs>
      <path id="ae_AlMothnna-Bold-54" d="M 31 4666 
L 4331 4666 
L 4331 3756 
L 2784 3756 
L 2784 0 
L 1581 0 
L 1581 3756 
L 31 3756 
L 31 4666 
z
" transform="scale(0.015625)"/>
      <path id="ae_AlMothnna-Bold-70" d="M 1656 506 
L 1656 -1331 
L 538 -1331 
L 538 3500 
L 1656 3500 
L 1656 2988 
Q 1888 3294 2169 3439 
Q 2450 3584 2816 3584 
Q 3463 3584 3878 3070 
Q 4294 2556 4294 1747 
Q 4294 938 3878 423 
Q 3463 -91 2816 -91 
Q 2450 -91 2169 54 
Q 1888 200 1656 506 
z
M 2400 2772 
Q 2041 2772 1848 2508 
Q 1656 2244 1656 1747 
Q 1656 1250 1848 986 
Q 2041 722 2400 722 
Q 2759 722 2948 984 
Q 3138 1247 3138 1747 
Q 3138 2247 2948 2509 
Q 2759 2772 2400 2772 
z
" transform="scale(0.015625)"/>
      <path id="ae_AlMothnna-Bold-20" transform="scale(0.015625)"/>
      <path id="ae_AlMothnna-Bold-35" d="M 678 4666 
L 3669 4666 
L 3669 3781 
L 1638 3781 
L 1638 3059 
Q 1775 3097 1914 3117 
Q 2053 3138 2203 3138 
Q 3056 3138 3531 2711 
Q 4006 2284 4006 1522 
Q 4006 766 3489 337 
Q 2972 -91 2053 -91 
Q 1656 -91 1267 -14 
Q 878 63 494 219 
L 494 1166 
Q 875 947 1217 837 
Q 1559 728 1863 728 
Q 2300 728 2551 942 
Q 2803 1156 2803 1522 
Q 2803 1891 2551 2103 
Q 2300 2316 1863 2316 
Q 1603 2316 1309 2248 
Q 1016 2181 678 2041 
L 678 4666 
z
" transform="scale(0.015625)"/>
      <path id="ae_AlMothnna-Bold-30" d="M 2944 2338 
Q 2944 3213 2780 3570 
Q 2616 3928 2228 3928 
Q 1841 3928 1675 3570 
Q 1509 3213 1509 2338 
Q 1509 1453 1675 1090 
Q 1841 728 2228 728 
Q 2613 728 2778 1090 
Q 2944 1453 2944 2338 
z
M 4147 2328 
Q 4147 1169 3647 539 
Q 3147 -91 2228 -91 
Q 1306 -91 806 539 
Q 306 1169 306 2328 
Q 306 3491 806 4120 
Q 1306 4750 2228 4750 
Q 3147 4750 3647 4120 
Q 4147 3491 4147 2328 
z
" transform="scale(0.015625)"/>
      <path id="ae_AlMothnna-Bold-77" d="M 225 3500 
L 1313 3500 
L 1900 1088 
L 2491 3500 
L 3425 3500 
L 4013 1113 
L 4603 3500 
L 5691 3500 
L 4769 0 
L 3547 0 
L 2956 2406 
L 2369 0 
L 1147 0 
L 225 3500 
z
" transform="scale(0.015625)"/>
      <path id="ae_AlMothnna-Bold-72" d="M 3138 2547 
Q 2991 2616 2845 2648 
Q 2700 2681 2553 2681 
Q 2122 2681 1889 2404 
Q 1656 2128 1656 1613 
L 1656 0 
L 538 0 
L 538 3500 
L 1656 3500 
L 1656 2925 
Q 1872 3269 2151 3426 
Q 2431 3584 2822 3584 
Q 2878 3584 2943 3579 
Q 3009 3575 3134 3559 
L 3138 2547 
z
" transform="scale(0.015625)"/>
      <path id="ae_AlMothnna-Bold-73" d="M 3272 3391 
L 3272 2541 
Q 2913 2691 2578 2766 
Q 2244 2841 1947 2841 
Q 1628 2841 1473 2761 
Q 1319 2681 1319 2516 
Q 1319 2381 1436 2309 
Q 1553 2238 1856 2203 
L 2053 2175 
Q 2913 2066 3209 1816 
Q 3506 1566 3506 1031 
Q 3506 472 3093 190 
Q 2681 -91 1863 -91 
Q 1516 -91 1145 -36 
Q 775 19 384 128 
L 384 978 
Q 719 816 1070 734 
Q 1422 653 1784 653 
Q 2113 653 2278 743 
Q 2444 834 2444 1013 
Q 2444 1163 2330 1236 
Q 2216 1309 1875 1350 
L 1678 1375 
Q 931 1469 631 1722 
Q 331 1975 331 2491 
Q 331 3047 712 3315 
Q 1094 3584 1881 3584 
Q 2191 3584 2531 3537 
Q 2872 3491 3272 3391 
z
" transform="scale(0.015625)"/>
      <path id="ae_AlMothnna-Bold-69" d="M 538 3500 
L 1656 3500 
L 1656 0 
L 538 0 
L 538 3500 
z
M 538 4863 
L 1656 4863 
L 1656 3950 
L 538 3950 
L 538 4863 
z
" transform="scale(0.015625)"/>
     </defs>
     <use xlink:href="#ae_AlMothnna-Bold-54"/>
     <use xlink:href="#ae_AlMothnna-Bold-6f" transform="translate(54.962891 0)"/>
     <use xlink:href="#ae_AlMothnna-Bold-70" transform="translate(123.664062 0)"/>
     <use xlink:href="#ae_AlMothnna-Bold-20" transform="translate(195.246094 0)"/>
     <use xlink:href="#ae_AlMothnna-Bold-35" transform="translate(230.060547 0)"/>
     <use xlink:href="#ae_AlMothnna-Bold-30" transform="translate(299.640625 0)"/>
     <use xlink:href="#ae_AlMothnna-Bold-20" transform="translate(369.220703 0)"/>
     <use xlink:href="#ae_AlMothnna-Bold-77" transform="translate(404.035156 0)"/>
     <use xlink:href="#ae_AlMothnna-Bold-6f" transform="translate(496.417969 0)"/>
     <use xlink:href="#ae_AlMothnna-Bold-72" transform="translate(565.119141 0)"/>
     <use xlink:href="#ae_AlMothnna-Bold-64" transform="translate(614.435547 0)"/>
     <use xlink:href="#ae_AlMothnna-Bold-73" transform="translate(686.017578 0)"/>
     <use xlink:href="#ae_AlMothnna-Bold-20" transform="translate(745.539062 0)"/>
     <use xlink:href="#ae_AlMothnna-Bold-69" transform="translate(780.353516 0)"/>
     <use xlink:href="#ae_AlMothnna-Bold-6e" transform="translate(814.630859 0)"/>
     <use xlink:href="#ae_AlMothnna-Bold-20" transform="translate(885.822266 0)"/>
     <use xlink:href="#ae_AlMothnna-Bold-61" transform="translate(920.636719 0)"/>
     <use xlink:href="#ae_AlMothnna-Bold-72" transform="translate(988.117188 0)"/>
    </g>
   </g>
  </g>
 </g>
 <defs>
  <clipPath id="p05f6b4632d">
   <rect x="47.72" y="28.32" width="661.48" height="338.428146"/>
  </clipPath>
 </defs>
</svg>
